<?xml version="1.0" encoding="utf-8"?>
<!-- Generator: Adobe Illustrator 16.0.0, SVG Export Plug-In . SVG Version: 6.00 Build 0)  -->
<!DOCTYPE svg PUBLIC "-//W3C//DTD SVG 1.1//EN" "http://www.w3.org/Graphics/SVG/1.1/DTD/svg11.dtd">
<svg version="1.1" id="Capa_1" xmlns="http://www.w3.org/2000/svg" xmlns:xlink="http://www.w3.org/1999/xlink" x="0px" y="0px"
	 width="612px" height="792px" viewBox="0 0 612 792" enable-background="new 0 0 612 792" xml:space="preserve">
<g>
	<path fill="#58595B" d="M530.874,509.365l-58.047,83.398l-40.963-33.619c-4.419-3.651-10.964-2.987-14.595,1.432
		c-3.641,4.429-2.997,10.975,1.442,14.595l49.645,40.755c1.867,1.535,4.19,2.365,6.576,2.365c0.467,0,0.944-0.031,1.421-0.104
		c2.863-0.395,5.436-1.971,7.096-4.347l64.457-92.619c3.268-4.699,2.115-11.161-2.594-14.439
		C540.593,503.474,534.141,504.656,530.874,509.365z"/>
	<path fill="#58595B" d="M539.39,447.646V245.593V141.864c0-5.736-4.646-10.373-10.373-10.373h-51.864v-31.119
		c0-5.736-4.646-10.373-10.373-10.373H394.17c-5.727,0-10.373,4.637-10.373,10.373v31.119H155.593v-31.119
		c0-5.736-4.647-10.373-10.373-10.373H72.61c-5.726,0-10.373,4.637-10.373,10.373v31.119H10.373C4.647,131.492,0,136.128,0,141.864
		v103.729v425.288c0,5.736,4.647,10.373,10.373,10.373h395.248C426.388,694.324,450.867,702,477.152,702
		C551.505,702,612,641.505,612,567.152C612,515.257,582.479,470.177,539.39,447.646z M404.542,110.746h51.865v31.119v31.119h-51.865
		v-31.119V110.746z M82.983,110.746h51.865v31.119v31.119H82.983v-31.119V110.746z M20.746,152.237h41.492v31.119
		c0,5.736,4.647,10.373,10.373,10.373h72.61c5.726,0,10.373-4.637,10.373-10.373v-31.119h228.204v31.119
		c0,5.736,4.646,10.373,10.373,10.373h72.609c5.727,0,10.373-4.637,10.373-10.373v-31.119h41.492v82.983H20.746V152.237z
		 M20.746,660.509V255.966h497.899v182.937c-2.033-0.653-4.108-1.183-6.183-1.753c-1.919-0.529-3.838-1.048-5.777-1.494
		c-1.754-0.394-3.527-0.736-5.301-1.058c-2.531-0.467-5.072-0.851-7.624-1.172c-1.422-0.177-2.832-0.374-4.264-0.509
		c-4.087-0.363-8.205-0.612-12.344-0.612c-3.506,0-6.939,0.26-10.373,0.529v-10.901v-20.746v-93.356h-93.355h-20.746h-72.61h-20.746
		h-72.61h-20.746H72.61v93.356v20.746v72.609v20.746v93.356h93.356h20.746h72.61h20.746h68.834c0.301,0.912,0.674,1.794,0.985,2.696
		c0.871,2.521,1.732,5.052,2.759,7.51c0.571,1.38,1.245,2.697,1.867,4.046c1.193,2.635,2.407,5.259,3.766,7.811
		c0.602,1.11,1.276,2.179,1.908,3.278c1.535,2.687,3.092,5.342,4.813,7.914c0.633,0.944,1.328,1.836,1.981,2.77
		c1.825,2.594,3.692,5.166,5.715,7.635c0.747,0.913,1.557,1.763,2.324,2.655c1.607,1.867,3.143,3.775,4.854,5.56H20.746V660.509z
		 M418.162,446.08c-1.12,0.539-2.262,1.048-3.361,1.618c-1.95,1.017-3.838,2.137-5.726,3.247c-1.649,0.965-3.299,1.95-4.906,2.977
		c-1.629,1.059-3.216,2.137-4.792,3.258c-1.795,1.265-3.537,2.593-5.27,3.941c-1.391,1.089-2.78,2.168-4.118,3.319
		c-1.815,1.535-3.548,3.163-5.28,4.792c-1.192,1.131-2.427,2.22-3.578,3.382c-1.878,1.908-3.651,3.931-5.415,5.954
		c-0.746,0.86-1.566,1.649-2.303,2.53v-59.166h72.61v14.128c-0.176,0.041-0.342,0.104-0.508,0.145
		C435.962,438.519,426.812,441.848,418.162,446.08z M348.218,527.726c-0.363,1.192-0.602,2.417-0.934,3.62
		c-0.83,3.008-1.681,6.016-2.303,9.117c-0.487,2.396-0.758,4.845-1.11,7.271c-0.279,1.961-0.674,3.89-0.882,5.882
		c-0.445,4.471-0.685,8.993-0.685,13.536c0,3.745,0.208,7.531,0.55,11.327c0.062,0.695,0.062,1.4,0.135,2.096
		c0.166,1.681,0.498,3.309,0.727,4.969v0.01c0.114,0.789,0.155,1.566,0.28,2.345h-63.928v-72.61h72.61v0.072
		c-0.104,0.249-0.166,0.509-0.27,0.758C350.853,519.904,349.432,523.773,348.218,527.726z M93.356,515.288h72.61v72.61h-72.61
		V515.288z M93.356,421.933h72.61v72.609h-72.61V421.933z M446.034,401.187h-72.61v-72.61h72.61V401.187z M352.678,401.187h-72.61
		v-72.61h72.61V401.187z M352.678,494.542h-72.61v-72.609h72.61V494.542z M186.712,421.933h72.61v72.609h-72.61V421.933z
		 M259.322,401.187h-72.61v-72.61h72.61V401.187z M165.966,401.187h-72.61v-72.61h72.61V401.187z M186.712,515.288h72.61v72.61
		h-72.61V515.288z M477.152,681.254c-23.422,0-45.215-7.115-63.347-19.272c-3.537-2.365-6.878-4.938-10.083-7.635
		c-1.12-0.954-2.178-1.971-3.257-2.967c-2.043-1.856-4.024-3.765-5.912-5.746c-1.214-1.276-2.386-2.572-3.537-3.89
		c-1.701-1.961-3.299-3.983-4.854-6.048c-0.996-1.317-2.023-2.593-2.967-3.952c-2.293-3.329-4.45-6.752-6.38-10.3
		c-0.445-0.83-0.799-1.701-1.224-2.542c-1.515-2.966-2.926-5.975-4.181-9.065c-0.539-1.349-1.006-2.729-1.504-4.098
		c-0.975-2.718-1.867-5.477-2.645-8.267c-0.177-0.644-0.332-1.286-0.498-1.93c-1.173-4.564-2.033-9.097-2.646-13.609
		c-0.041-0.321-0.104-0.643-0.146-0.975c-0.602-4.657-0.923-9.273-0.923-13.807c0-3.932,0.197-7.831,0.602-11.7
		c0.031-0.321,0.114-0.633,0.146-0.954c0.394-3.537,0.913-7.064,1.639-10.539c0.072-0.332,0.187-0.653,0.26-0.985
		c0.746-3.444,1.628-6.867,2.696-10.249c0.125-0.394,0.301-0.777,0.426-1.172c1.068-3.236,2.251-6.452,3.62-9.605
		c1.286-2.967,2.676-5.881,4.201-8.713l1.026-1.773c0.415-0.747,0.902-1.452,1.338-2.189c1.806-3.039,3.734-5.984,5.778-8.827
		c0.508-0.705,1.037-1.4,1.566-2.095c1.867-2.469,3.838-4.845,5.892-7.137c0.716-0.799,1.432-1.608,2.168-2.386
		c2.033-2.158,4.17-4.201,6.358-6.183c0.778-0.705,1.535-1.432,2.334-2.116c2.572-2.198,5.238-4.263,7.987-6.224
		c0.436-0.311,0.851-0.653,1.286-0.965c13.536-9.355,29.085-15.767,45.765-18.567l0.218-0.03c6.12-1.027,12.375-1.691,18.796-1.691
		c4.035,0,8.05,0.218,12.033,0.653c0.622,0.062,1.224,0.208,1.846,0.28c3.402,0.426,6.795,0.934,10.145,1.66
		c0.415,0.093,0.81,0.218,1.214,0.311c3.568,0.819,7.105,1.773,10.602,2.946c0.238,0.083,0.467,0.176,0.705,0.259
		c3.578,1.225,7.105,2.625,10.601,4.212c39.438,17.986,66.957,57.693,66.957,103.78
		C591.254,630.064,540.064,681.254,477.152,681.254z"/>
</g>
</svg>
