<?xml version="1.0" encoding="utf-8"?>
<!-- Generator: Adobe Illustrator 16.0.0, SVG Export Plug-In . SVG Version: 6.00 Build 0)  -->
<!DOCTYPE svg PUBLIC "-//W3C//DTD SVG 1.1//EN" "http://www.w3.org/Graphics/SVG/1.1/DTD/svg11.dtd">
<svg version="1.1" id="Capa_1" xmlns="http://www.w3.org/2000/svg" xmlns:xlink="http://www.w3.org/1999/xlink" x="0px" y="0px"
	 width="612px" height="792px" viewBox="0 0 612 792" enable-background="new 0 0 612 792" xml:space="preserve">
<g>
	<g>
		<path fill="#58595B" d="M291.046,188.855c13.437-0.433,24.707-5.635,33.81-15.604c9.102-9.97,13.437-21.673,13.003-35.109
			c-0.433-13.439-5.418-24.925-14.954-34.459c-9.535-9.535-21.022-14.086-34.459-13.653c-13.437,0.433-24.707,5.634-33.809,15.604
			s-13.654,21.673-13.654,35.109s4.984,24.924,14.954,34.459S277.609,189.288,291.046,188.855z"/>
		<path fill="#58595B" d="M455.54,353.35l-71.519-39.01l-58.517-93.625c-11.27-13.871-25.139-20.806-41.611-20.806
			c-11.27,0-22.106,4.769-32.509,14.304l-88.424,89.725c-2.601,3.468-4.334,7.369-5.202,11.703l-11.703,100.127v2.601
			c0,6.067,2.168,11.269,6.502,15.604c4.334,4.333,9.536,6.502,15.604,6.502c6.069,0,11.053-2.169,14.954-6.502
			c3.901-4.336,6.285-9.103,7.152-14.304l9.103-85.823l31.208-31.208L201.972,541.9l-50.713,113.132
			c-1.733,5.202-2.601,9.958-2.601,14.307c0,9.521,3.25,17.555,9.752,24.057s14.521,9.315,24.057,8.452
			c13.003,0,22.539-6.083,28.607-18.205l54.615-122.235c0-0.871,0.433-2.386,1.3-4.551c0.869-2.172,1.736-4.122,2.601-5.852
			c0.867-1.736,1.3-3.473,1.3-5.202l6.501-58.517l55.916,192.456c6.068,15.604,16.904,22.972,32.509,22.105
			c8.669,0,16.254-3.251,22.756-9.752c6.502-6.502,9.753-14.536,9.753-24.057c0-0.882-0.218-1.951-0.65-3.251
			c-0.433-1.301-0.65-2.388-0.65-3.254l-78.021-266.573l9.103-87.124l22.105,35.109c1.733,2.601,3.901,4.769,6.502,6.502
			l76.721,42.912c5.201,1.733,8.669,2.601,10.402,2.601c6.069,0,11.271-2.383,15.604-7.152c4.334-4.77,6.502-10.187,6.502-16.254
			C465.943,363.752,462.476,357.684,455.54,353.35z"/>
	</g>
</g>
</svg>
