<?xml version="1.0" encoding="utf-8"?>
<!-- Generator: Adobe Illustrator 22.1.0, SVG Export Plug-In . SVG Version: 6.00 Build 0)  -->
<svg version="1.1" id="Layer_1" xmlns="http://www.w3.org/2000/svg" xmlns:xlink="http://www.w3.org/1999/xlink" x="0px" y="0px"
	 viewBox="0 0 451 118.3" style="enable-background:new 0 0 451 118.3;" xml:space="preserve">
<style type="text/css">
	.st0{display:none;}
	.st1{display:inline;}
	.st2{opacity:0.5;}
	.st3{fill:#020202;}
	.st4{opacity:0.1;enable-background:new    ;}
	.st5{fill:#FFFFFF;}
	.st6{fill:#F57E20;}
</style>
<g id="Layer_2_1_" class="st0">
	<rect x="-15" y="0" class="st1" width="481" height="220"/>
</g>
<g id="Layer_3">
	<g>
		<g>
			<g class="st2">
				<g>
					<path class="st3" d="M223.9,93.8c2.6-1.7,4.9-4.1,6.2-6.8V73c-0.1,0-1.3,0.1-3.5,0.2s-3.4,0.2-3.6,0.2c-7,0.6-12.1,1.9-15.2,4
						c-3.1,2-4.8,5.3-4.8,9.7c0,3,1,5.5,2.8,7.1c2.2,1.8,4.9,2.6,7.7,2.5C217.2,96.7,220.8,95.9,223.9,93.8z"/>
				</g>
				<g class="st4">
					<path class="st3" d="M227,90.5c-3.1,1.9-6.7,3-10.4,2.9c-3.4,0-6-0.8-7.7-2.5s-2.8-4.1-2.8-7.1c-0.1-2.3,0.5-4.4,1.6-6.4
						c-3.2,2-4.8,5.3-4.8,9.7c0,3,1,5.5,2.8,7.1c2.2,1.8,4.9,2.6,7.7,2.5c3.7,0.1,7.3-0.8,10.4-2.9c1.8-1.2,3.4-2.6,4.8-4.2
						C228.1,90,227.6,90.4,227,90.5z"/>
				</g>
				<g>
					<path class="st3" d="M256.9,39.9h-7.3c-3.2,0-5.8-2.6-5.8-5.8v-3h-3c-1.2,0-2.4-0.4-3.4-1.1l-41.1,2.6
						c-5.3-0.1-12,13.8-12,18.9l-1.7,42.4c0,4.3,8,10.3,13.8,12.1c-1.3-0.7-2.6-1.7-3.8-2.6c-4.2-3.6-6.2-9-6.2-15.9
						c0-7.4,2.5-13.1,7.4-16.5c4.8-3.6,12.4-6,22.2-6.8c1.3-0.1,2.9-0.4,4.3-0.5c1.6-0.1,3.4-0.4,5.4-0.5s3.6-0.4,4.7-0.5V59
						c0-4.3-1.1-7.6-2.9-9.6c-2-2-5-2.9-9.2-2.9l-24-1c-1.4-3.8-2.2-5.8-2.2-6c8.8-3.7,18.1-5.5,27.6-5.5c9.7,0,16.9,2.2,21.2,6.2
						c4.3,4.2,6.7,11,6.7,20.5v42c4.9-1.9,10.1-5.3,10.1-8.5V41.9c0-0.7-0.1-1.6-0.4-2.3C257,39.8,256.9,39.9,256.9,39.9z"/>
				</g>
				<g>
					<path class="st3" d="M233.3,103.1c-1-2.8-1.4-4.2-1.4-4.3c-2.4,2.5-5.2,4.6-8,6.4l10.1-0.6
						C233.6,104.2,233.5,103.7,233.3,103.1z"/>
				</g>
				<g>
					<path class="st3" d="M256.9,40h-7.3c-3.2,0-6-2.6-6-6v-2.9h-2.9c-3.2,0-6-2.6-6-6v-7.3c0-2.5,1.6-4.9,4.1-5.6
						c-0.4,0-0.7-0.1-1-0.1l-41.6,11.2c-4.8,1.4-11.9,5.8-11.9,11l-1,42.7c0,2,1.1,4.1,3.4,6.1c0.8-5.4,3-9.5,7-12.4
						c4.8-3.6,12.4-6,22.2-6.8c1.3-0.1,2.9-0.4,4.3-0.5c1.6-0.1,3.4-0.4,5.4-0.5s3.6-0.4,4.7-0.5v-3.8c0-4.3-1.1-7.6-2.9-9.6
						c-2-2-5-2.9-9.2-2.9l-24-1.1c-1.4-3.8-2.2-5.8-2.2-6c8.8-3.7,18.1-5.5,27.6-5.5c9.7,0,16.9,2.2,21.2,6.2
						c4.3,4.2,6.7,11,6.7,20.5v24.6c4.9-1.9,10.1-5.3,10.1-8.5V39.9C257.3,39.9,257,40,256.9,40z"/>
				</g>
				<g class="st4">
					<path class="st3" d="M256.9,40h-7.3c-3.2,0-5.9-2.6-6-6v-2.9h-2.9c-3.2,0-5.9-2.6-6-6v-6.2L196.6,29c-5.5,0.7-11.8,5.8-11.8,11
						l-1.6,42.4c0,2,1.6,4.2,4,6.4c0.8-5.4,3-9.5,7-12.4c4.8-3.6,12.2-6,21.9-6.8c1.3-0.1,2.9-0.4,4.3-0.5c1.6-0.1,3.4-0.4,5.3-0.5
						c1.9-0.1,3.5-0.4,4.7-0.5v-3.8c0-4.3-1-7.6-2.9-9.6c-2-2-4.9-2.9-9.1-2.9l-23.5-1.2c-1.4-3.8-2.2-5.8-2.2-6
						c8.6-3.7,18-5.5,27.3-5.5c9.6,0,16.5,2.2,21,6.2c4.4,4.2,6.6,11,6.6,20.5v24.9c4.9-1.9,10.1-5.3,10.1-8.5V39.9
						C257.5,39.9,257.1,39.9,256.9,40z"/>
				</g>
				<g>
					<path class="st3" d="M264.5,14.2h-4.1v-4.1c0-2.2-1.8-3.8-4-4h-6.6c-2.2,0-3.8,1.8-4,4v4.1h-4.1c-2.2,0-3.8,1.8-4,4v6.6
						c0,2.2,1.8,3.8,4,4h4.1v4.1c0,2.2,1.8,3.8,4,4h6.6c2.2,0,3.8-1.8,4-4v-4.1h4.1c2.2,0,3.8-1.8,4-4v-6.6
						C268.3,16,266.6,14.4,264.5,14.2z"/>
				</g>
			</g>
			<g>
				<path class="st5" d="M223.9,92.5c2.6-1.7,4.9-4.1,6.2-6.8v-14c-0.1,0-1.3,0.1-3.5,0.2s-3.4,0.2-3.6,0.2c-7,0.6-12.1,1.9-15.2,4
					c-3.1,2-4.8,5.3-4.8,9.7c0,3,1,5.5,2.8,7.1c2.2,1.8,4.9,2.6,7.7,2.5C217.2,95.5,220.8,94.4,223.9,92.5z"/>
			</g>
			<g class="st4">
				<path d="M227,89.3c-3.1,1.9-6.7,3-10.4,2.9c-3.4,0-6-0.8-7.7-2.5s-2.8-4.1-2.8-7.1c-0.1-2.3,0.5-4.4,1.6-6.4
					c-3.2,2-4.8,5.3-4.8,9.7c0,3,1,5.5,2.8,7.1c2.2,1.8,4.9,2.6,7.7,2.5c3.7,0.1,7.3-0.8,10.4-2.9c1.8-1.2,3.4-2.6,4.8-4.2
					C228.1,88.8,227.6,89.1,227,89.3z"/>
			</g>
			<g>
				<path class="st5" d="M256.9,38.6h-7.3c-3.2,0-5.8-2.6-5.8-5.8v-3.1h-3c-1.2,0-2.4-0.4-3.4-1.1L196,31.2
					c-5.2,0-11.9,13.8-11.9,18.9l-1.6,42.4c0,4.3,8,10.3,13.8,12.1c-1.3-0.7-2.6-1.7-3.8-2.6c-4.2-3.6-6.1-9-6.1-15.9
					c0-7.4,2.5-13.1,7.4-16.5c4.8-3.6,12.4-6,22.2-7c1.3-0.1,2.9-0.4,4.3-0.5c1.6-0.1,3.4-0.4,5.4-0.5s3.6-0.4,4.7-0.5v-4
					c0-4.3-1.1-7.6-2.9-9.6c-2-2-5-2.9-9.2-2.9l-24-1.1c-1.4-3.8-2.2-5.8-2.2-6c8.8-3.7,18.1-5.5,27.6-5.5c9.7,0,16.9,2.2,21.2,6.2
					c4.3,4.2,6.7,11,6.7,20.5v42c4.9-1.9,10.1-5.3,10.1-8.5V40.9c0-0.7-0.1-1.6-0.4-2.3C257.1,38.6,257,38.6,256.9,38.6z"/>
			</g>
			<g>
				<path class="st5" d="M233.3,102c-1-2.8-1.4-4.2-1.4-4.3c-2.4,2.5-5.2,4.6-8,6.4l10.1-0.6C233.6,102.8,233.5,102.4,233.3,102z"/>
			</g>
			<g>
				<path class="st5" d="M256.9,38.7h-7.3c-3.2,0-6-2.6-6-6v-3h-2.9c-3.2,0-6-2.6-6-6v-7.2c0-2.5,1.6-4.9,4.1-5.6
					c-0.4,0-0.7-0.1-1-0.1L196.2,22c-4.8,1.4-11.9,5.8-11.9,11l-1,42.7c0,2,1.1,4.1,3.4,6.1c0.8-5.4,3-9.5,7-12.4
					c4.8-3.6,12.4-6,22.2-6.8c1.3-0.1,2.9-0.4,4.3-0.5c1.6-0.1,3.4-0.4,5.4-0.5s3.6-0.4,4.7-0.5v-3.8c0-4.3-1.1-7.6-2.9-9.6
					c-2-2-5-2.9-9.2-2.9l-24-1.1c-1.4-3.8-2.2-5.8-2.2-6c8.8-3.7,18.1-5.5,27.6-5.5c9.7,0,16.9,2.2,21.2,6.2s6.7,11,6.7,20.5v24.8
					c4.9-1.9,10.1-5.3,10.1-8.5V38.7H256.9z"/>
			</g>
			<g class="st4">
				<path class="st5" d="M256.9,38.7h-7.3c-3.2,0-5.9-2.6-6-6v-3h-2.9c-3.2,0-5.9-2.6-6-6v-6.1l-38,10.3c-5.5,0.7-11.8,5.8-11.8,11
					l-1.6,42.4c0,2,1.6,4.2,4,6.4c0.8-5.4,3-9.5,7-12.4c4.8-3.6,12.2-6,21.9-6.8c1.3-0.1,2.9-0.4,4.3-0.5c1.6-0.1,3.4-0.4,5.3-0.5
					c1.9-0.1,3.5-0.4,4.7-0.5v-3.8c0-4.3-1-7.6-2.9-9.6c-1.9-2-4.9-2.9-9.1-2.9l-23.6-1.1c-1.4-3.8-2.2-5.8-2.2-6
					c8.6-3.7,18-5.5,27.3-5.5c9.6,0,16.5,2.2,21,6.2c4.4,4.2,6.6,11,6.6,20.5v24.7c4.9-1.9,10.1-5.3,10.1-8.5V38.6
					C257.5,38.6,257.1,38.7,256.9,38.7z"/>
			</g>
			<g>
				<path class="st6" d="M264.5,12.9h-4.1V9c0-2.2-1.8-3.8-4-4h-6.6c-2.2,0-3.8,1.8-4,4v4h-4.1c-2.2,0-3.8,1.8-4,4v6.6
					c0,2.2,1.8,3.8,4,4h4.1v4.1c0,2.2,1.8,3.8,4,4h6.6c2.2,0,3.8-1.8,4-4v-4.1h4.1c2.2,0,3.8-1.8,4-4V17
					C268.4,14.8,266.6,13,264.5,12.9z"/>
			</g>
		</g>
	</g>
</g>
</svg>
