<?xml version="1.0" encoding="utf-8"?>
<!-- Generator: Adobe Illustrator 22.1.0, SVG Export Plug-In . SVG Version: 6.00 Build 0)  -->
<svg version="1.1" id="Layer_1" xmlns="http://www.w3.org/2000/svg" xmlns:xlink="http://www.w3.org/1999/xlink" x="0px" y="0px"
	 viewBox="0 0 860 300" style="enable-background:new 0 0 860 300;" xml:space="preserve">
<style type="text/css">
	.st0{fill:#929497;}
	.st1{fill:#808184;}
	.st2{fill:#027AB6;}
	.st3{opacity:0.1;}
	.st4{opacity:0.1;fill:#FFFFFF;}
	.st5{fill:#F05757;}
	.st6{fill:#58595B;}
</style>
<g>
	<g>
		<g>
			<path class="st0" d="M214.7,219.8c-9.3,0-17-1.1-23.1-3.3c-6.1-2.2-10.9-5.6-14.5-10.4c-3.5-4.8-6-10.4-7.4-17
				c-1.4-6.6-2.1-14.7-2.1-24.5V32.9l32.2-2.1V164c0,12.1,1.4,20.4,4.3,24.7c2.9,4.3,8.4,6.5,16.7,6.5c4.1,0,9.3-0.4,15.6-1.4
				l0.9,23c-0.1,0-1.1,0.2-3,0.6c-1.9,0.4-3.8,0.8-5.5,1c-1.8,0.3-4,0.6-6.7,0.9C219.5,219.6,217,219.8,214.7,219.8z"/>
			<path class="st0" d="M279.9,249.4c18.9,0,32.2-2.5,39.7-7.6c7.5-5,11.3-14.3,11.3-27.7c0-5.5-0.2-11.4-0.7-17.8
				c-2.1,3-4.2,5.4-6.1,7.3c-1.9,1.9-4.3,3.8-7.3,5.7c-2.9,1.9-6.4,3.3-10.5,4.2c-4.1,0.9-8.7,1.4-13.8,1.4
				c-17.9,0-32.6-6.4-44.1-19.3c-11.5-12.9-17.3-29.5-17.3-49.8c0-10.8,1.6-20.7,4.8-29.6c3.2-8.9,7.5-16.2,13-22
				c5.5-5.7,11.8-10.2,19-13.2c7.2-3.1,14.8-4.6,22.9-4.6c18.1,0,31.6,6.6,40.5,19.8l2.2-16.5h28.8v125.6c0,6.7-0.3,12.8-1,18.2
				c-0.7,5.4-1.8,10.5-3.4,15.5c-1.6,5-3.8,9.3-6.5,13c-2.7,3.7-6,7.1-10,10.1c-4,3-8.8,5.5-14.2,7.4c-5.5,1.9-11.8,3.4-19,4.4
				c-7.2,1-15.3,1.5-24.4,1.5h-18.6 M297.7,192.4c22.2,0,33.5-14.9,33.7-44.7v-4.7c-0.2-13.4-3-23.7-8.4-31
				c-5.4-7.3-13.3-11-23.7-11.1c-11.8,0-20.8,4-26.8,12.1c-6.1,8.1-9.1,19-9.1,32.7c0,13.2,3.1,24.3,9.2,33.2
				C278.7,188,287.1,192.4,297.7,192.4z"/>
			<path class="st0" d="M561.8,217.3c-21.7,0-38.7-6.3-50.8-18.8c-12.1-12.5-18.1-29.8-18.1-51.9c0-21.5,5.7-38.6,17.1-51.3
				c11.4-12.7,26.9-19.1,46.6-19.2c18.6,0,33.1,5.8,43.4,17.5c10.3,11.6,15.4,27.1,15.4,46.4c0,1.4,0,3.7-0.1,6.8
				c0,3.1-0.1,5.4-0.1,6.9h-89.9c0.3,12.6,3.8,22.4,10.4,29.3c6.6,6.9,15.7,10.4,27.3,10.4c14.8,0,29-3.9,42.6-11.6l4.6,22.9
				C596.6,213.1,580.5,217.3,561.8,217.3z M526,133.4H585c0-11-2.5-19.4-7.5-25.3c-5-5.9-11.9-8.9-20.8-8.9c-8.3,0-15.3,2.9-21,8.6
				C530.1,113.5,526.8,122.1,526,133.4z"/>
			<path class="st0" d="M385,97.7c-2.6-7.2-4-10.9-4.1-11.1c15.9-6.8,33.1-10.2,51.7-10.2c18.2,0,31.5,4,39.7,11.9
				c8.3,7.9,12.4,20.7,12.4,38.5V215h-23.9c-0.1-0.3-1-3.1-2.7-8.2c-1.7-5.2-2.6-7.9-2.6-8.2c-6.7,6.6-13.3,11.4-19.7,14.5
				c-6.4,3.1-14.3,4.6-23.4,4.6c-12.6,0-22.7-3.5-30.5-10.4c-7.8-6.9-11.6-16.9-11.6-30c0-14,4.6-24.4,13.8-31.2
				c9.2-6.8,23-11.1,41.6-12.9c2.5-0.3,5.3-0.7,8.2-1c3-0.3,6.3-0.7,10-1s6.6-0.6,8.7-0.9v-7.1c0-8.2-1.9-14.2-5.7-17.9
				c-3.8-3.7-9.5-5.6-17.2-5.6 M421.1,194.7c7.5,0,14-1.8,19.5-5.4c5.5-3.6,9.5-7.9,11.9-13v-26.1c-0.2,0-2.4,0.2-6.5,0.5
				c-4.1,0.3-6.3,0.5-6.6,0.5c-13,1.2-22.6,3.6-28.7,7.4c-6.1,3.8-9.1,9.8-9.1,18.2c0,5.7,1.7,10.2,5,13.2S414.9,194.7,421.1,194.7z
				"/>
			<path class="st0" d="M625.6,215V29.9l32.2-2.1v39c0,1.9-0.1,7.1-0.4,15.7c-0.2,8.6-0.4,12.9-0.4,13.1
				c10.7-12.8,25.2-19.2,43.3-19.2c15.1,0,26.8,4.3,35.1,13c8.3,8.7,12.5,22,12.5,39.9V215h-32.2v-82.1c0-11.1-1.8-19.2-5.3-24.4
				c-3.5-5.2-9.5-7.8-18-7.8c-7.2,0-13.6,1.8-19.2,5.5c-5.6,3.7-9.8,8.3-12.6,14.1c-2,7.5-3,17.4-3,29.5V215H625.6z"/>
		</g>
	</g>
	<g>
		<path class="st1" d="M331.5,132.7c-0.2-13.4-3-23.7-8.4-31c-5.4-7.3-13.3-11-23.7-11.1c-11.8,0-20.8,4-26.8,12.1
			c-6.1,8.1-9.1,19-9.1,32.7c0,2.5,0.1,4.9,0.4,7.3c0.9-10.2,3.8-18.6,8.7-25.1c6.1-8.1,15-12.1,26.8-12.1
			c10.4,0.1,18.3,3.8,23.7,11.1c4.8,6.4,7.5,15.2,8.2,26.3c0.1-1.8,0.2-3.6,0.2-5.5V132.7z"/>
		<path class="st1" d="M358,228.6c-1.6,5-3.8,9.3-6.5,13c-2.7,3.7-6,7.1-10,10.1c-4,3-8.8,5.5-14.2,7.4c-5.5,1.9-11.8,3.4-19,4.4
			c-7.2,1-15.3,1.5-24.4,1.5h-10.3l-8.3,14.8H284c9,0,17.1-0.5,24.4-1.5c7.2-1,13.6-2.5,19-4.4c5.5-1.9,10.2-4.4,14.2-7.4
			c4-3,7.4-6.4,10-10.1c2.7-3.7,4.8-8,6.5-13c1.6-5,2.8-10.1,3.4-15.5c0.7-5.4,1-11.4,1-18.2V195c0,6.7-0.3,12.8-1,18.2
			C360.8,218.5,359.7,223.7,358,228.6z"/>
		<path class="st1" d="M306.4,218c4.1-0.9,7.5-2.4,10.5-4.2c2.9-1.9,5.3-3.8,7.3-5.7c1.9-1.9,4-4.4,6.1-7.3c0.2,2.9,0.4,5.7,0.5,8.4
			c0.1-1.7,0.2-3.5,0.2-5.4c0-5.5-0.2-11.4-0.7-17.8c-2.1,3-4.2,5.4-6.1,7.3c-1.9,1.9-4.3,3.8-7.3,5.7c-2.9,1.9-6.4,3.3-10.5,4.2
			c-4.1,0.9-8.7,1.4-13.8,1.4c-17.9,0-32.6-6.4-44.1-19.3c-10.1-11.3-15.8-25.4-17-42.4c-0.2,2.4-0.3,4.9-0.3,7.4
			c0,20.3,5.8,37,17.3,49.8c11.5,12.9,26.2,19.3,44.1,19.3C297.7,219.4,302.4,218.9,306.4,218z"/>
		<g>
			<path class="st1" d="M429.7,104.1c7.7,0,13.5,1.9,17.2,5.6c2.5,2.5,4.1,5.9,5,10.3c0.2,0,0.5-0.1,0.7-0.1v-7.1
				c0-8.2-1.9-14.2-5.7-17.9c-3.8-3.7-9.5-5.6-17.2-5.6l-39.5-1.7c-3.2,1.1-6.3,2.2-9.4,3.5c0.1,0.2,1.4,3.9,4.1,11.1L429.7,104.1z"
				/>
			<path class="st1" d="M446.1,140.3c-4.1,0.3-6.3,0.5-6.6,0.5c-13,1.2-22.6,3.6-28.7,7.4c-6.1,3.8-9.1,9.8-9.1,18.2
				c0,2.6,0.4,5,1.1,7.1c1.4-4.5,4-8,8-10.5c6.1-3.8,15.6-6.2,28.7-7.4c0.3,0,2.5-0.2,6.6-0.5c4.1-0.3,6.2-0.5,6.5-0.5v-14.8
				C452.3,139.9,450.1,140,446.1,140.3z"/>
			<path class="st1" d="M458.2,196.3c-1.7-5.2-2.6-7.9-2.6-8.2c-6.7,6.6-13.3,11.4-19.7,14.5c-6.4,3.1-14.3,4.6-23.4,4.6
				c-12.6,0-22.7-3.5-30.5-10.4c-6.2-5.5-9.9-13.1-11.2-22.5c-0.3,2.3-0.5,4.8-0.5,7.4c0,13,3.9,23,11.6,30
				c7.8,6.9,17.9,10.4,30.5,10.4c9.2,0,17-1.5,23.4-4.6c6.4-3.1,13-7.9,19.7-14.5c0,0.3,0.9,3.1,2.6,8.2c1.7,5.2,2.6,7.9,2.7,8.2
				h23.9v-14.8h-23.9C460.8,204.3,459.9,201.5,458.2,196.3z"/>
		</g>
		<path class="st1" d="M234.4,203.4c-1.9,0.4-3.8,0.8-5.5,1c-1.8,0.3-4,0.6-6.7,0.9c-2.7,0.3-5.2,0.4-7.5,0.4
			c-9.3,0-17-1.1-23.1-3.3c-6.1-2.2-10.9-5.6-14.5-10.4c-3.5-4.8-6-10.4-7.4-17c-1.4-6.6-2.1-14.7-2.1-24.5v14.8
			c0,9.8,0.7,17.9,2.1,24.5c1.4,6.6,3.9,12.2,7.4,17c3.5,4.8,8.3,8.2,14.5,10.4c6.1,2.2,13.8,3.3,23.1,3.3c2.3,0,4.8-0.1,7.5-0.4
			c2.7-0.3,4.9-0.6,6.7-0.9c1.8-0.3,3.6-0.6,5.5-1c1.9-0.4,2.9-0.6,3-0.6l-0.6-14.7C236.4,203,235.6,203.1,234.4,203.4z"/>
		<g>
			<path class="st1" d="M577.5,93.2c-5-5.9-11.9-8.9-20.8-8.9c-8.3,0-15.3,2.9-21,8.6c-5.7,5.7-9,14.3-9.8,25.6h3
				c1.6-4.3,3.9-7.9,6.7-10.8c5.7-5.7,12.7-8.6,21-8.6c8.9,0,15.8,3,20.8,8.9c2.4,2.9,4.3,6.4,5.5,10.5h2
				C585,107.6,582.5,99.1,577.5,93.2z"/>
			<path class="st1" d="M561.8,202.5c-21.7,0-38.7-6.3-50.8-18.8c-10.7-11.1-16.7-25.9-17.9-44.5c-0.2,2.4-0.2,4.9-0.2,7.5
				c0,22.1,6,39.4,18.1,51.9c12.1,12.5,29,18.8,50.8,18.8c18.7,0,34.8-4.2,48.4-12.6l-2.6-13.3C594.5,198.8,579.3,202.5,561.8,202.5
				z"/>
			<path class="st1" d="M615.3,138.9h-89.9c0.1,5.5,0.9,10.4,2.2,14.8h87.7c0-1.5,0-3.8,0.1-6.9c0-3.1,0.1-5.4,0.1-6.8
				c0-1.5,0-3-0.1-4.4C615.3,136.9,615.3,138,615.3,138.9z"/>
		</g>
		<g>
			<rect x="625.6" y="200.1" class="st1" width="32.2" height="14.8"/>
			<path class="st1" d="M657.8,52c0,1.9-0.1,7.1-0.4,15.7c-0.2,8.6-0.4,12.9-0.4,13.1c0.1-0.2,0.3-0.3,0.4-0.5
				c0.2-7.2,0.3-11.8,0.3-13.5V52z"/>
			<path class="st1" d="M715.8,118.1c0-11.1-1.8-19.2-5.3-24.4c-3.5-5.2-9.5-7.8-18-7.8c-7.2,0-13.6,1.8-19.2,5.5
				c-5.6,3.7-9.8,8.3-12.6,14.1c-2,7.5-3,17.4-3,29.5v14.8c0-12.1,1-22,3-29.5c2.8-5.7,7-10.4,12.6-14.1c5.6-3.7,12-5.5,19.2-5.5
				c8.4,0,14.4,2.6,18,7.8c3.5,5.2,5.3,13.3,5.3,24.4V118.1z"/>
			<rect x="715.8" y="200.1" class="st1" width="32.2" height="14.8"/>
		</g>
	</g>
	<g>
		<g>
			<path class="st2" d="M92.1,192.7c5.8-3.8,10-8.3,12.5-13.7v-27.5c-0.3,0-2.5,0.2-6.8,0.5c-4.3,0.3-6.6,0.5-6.9,0.5
				c-13.7,1.2-23.8,3.8-30.2,7.8c-6.4,4-9.6,10.4-9.6,19.2c0,6.1,1.8,10.7,5.3,13.9c3.5,3.2,8.6,4.9,15.2,4.9
				C79.4,198.4,86.3,196.5,92.1,192.7z"/>
			<path class="st3" d="M98.5,186.3c-5.8,3.8-12.7,5.6-20.6,5.6c-6.6,0-11.6-1.6-15.2-4.9c-3.5-3.2-5.3-7.9-5.3-13.9
				c0-5,1-9.3,3.1-12.7c-6.4,4-9.6,10.4-9.6,19.2c0,6.1,1.8,10.7,5.3,13.9c3.5,3.2,8.6,4.9,15.2,4.9c7.9,0,14.7-1.9,20.6-5.6
				c3.9-2.5,7-5.3,9.4-8.5C100.6,184.9,99.6,185.6,98.5,186.3z"/>
			<path class="st2" d="M157,86.1h-14.4c-6.4,0-11.6-5.2-11.6-11.6v-6h-6c-2.4,0-4.7-0.8-6.6-2l-81.3,5.2
				c-10.3,0-23.5,27.2-23.5,37.5l-3.1,83.6c0,8.7,15.9,20.4,27,23.9c-2.7-1.5-5.2-3.2-7.5-5.3C22.1,204.2,18,193.7,18,180
				c0-14.8,4.8-25.7,14.5-32.9c9.7-7.1,24.3-11.7,43.8-13.6c2.7-0.3,5.6-0.7,8.7-1c3.1-0.3,6.6-0.7,10.5-1c3.9-0.3,7-0.7,9.2-0.9
				V123c0-8.6-2-14.9-6-18.9c-4-3.9-10-5.9-18.2-5.9l-47.2-2.1c-2.8-7.6-4.2-11.5-4.3-11.7c16.8-7.2,34.9-10.8,54.5-10.8
				c19.2,0,33.2,4.2,41.9,12.5c8.7,8.3,13.1,21.9,13.1,40.5v83c9.8-3.8,19.8-10.3,19.8-16.9V90.5c0-1.4-0.2-2.9-0.7-4.4
				C157.5,86.1,157.2,86.1,157,86.1z"/>
			<path class="st2" d="M110.6,211.1c-1.8-5.4-2.7-8.3-2.7-8.7c-5.4,5.3-10.8,9.5-16,12.7l19.7-1.1
				C111.2,213.1,110.9,212.1,110.6,211.1z"/>
		</g>
		<g>
			<path class="st2" d="M157,86.4h-14.4c-6.5,0-11.8-5.3-11.8-11.8v-5.8h-5.8c-6.5,0-11.8-5.3-11.8-11.8V42.6c0-5.2,3.3-9.6,8-11.2
				c-0.7-0.1-1.4-0.1-2-0.1l-82,21.9c-9.5,2.7-23.5,11.6-23.5,21.9L12,159.4c0,3.9,2,7.9,6.6,12c1.6-10.5,6.2-18.6,13.9-24.3
				c9.7-7.1,24.3-11.7,43.8-13.6c2.7-0.3,5.6-0.7,8.7-1c3.1-0.3,6.6-0.7,10.5-1c3.9-0.3,7-0.7,9.2-0.9V123c0-8.6-2-14.9-6-18.9
				c-4-3.9-10-5.9-18.2-5.9l-47.2-2.1c-2.8-7.6-4.2-11.5-4.3-11.7c16.8-7.2,34.9-10.8,54.5-10.8c19.2,0,33.2,4.2,41.9,12.5
				c8.7,8.3,13.1,21.9,13.1,40.5v48.8c9.8-3.8,19.8-10.3,19.8-16.9V86.3C157.9,86.3,157.5,86.4,157,86.4z"/>
		</g>
		<path class="st4" d="M157,86.4h-14.2c-6.4,0-11.7-5.3-11.7-11.8v-5.8h-5.7c-6.4,0-11.7-5.3-11.7-11.8V44.8L38.6,65.1
			c-10.7,1.5-23.2,11.6-23.2,21.9l-3.1,83.6c0,3.9,3.2,8.5,7.8,12.7c1.6-10.5,6.1-18.6,13.8-24.3c9.6-7.1,24-11.7,43.4-13.6
			c2.6-0.3,5.5-0.7,8.6-1c3.1-0.3,6.5-0.7,10.4-1c3.8-0.3,6.9-0.7,9.1-0.9v-7.5c0-8.6-2-14.9-5.9-18.9c-3.9-3.9-9.9-5.9-18-5.9
			L34.8,108c-2.7-7.6-4.1-11.5-4.2-11.7c16.6-7.2,34.5-10.8,53.9-10.8c19,0,32.8,4.2,41.4,12.5c8.6,8.3,13,21.9,13,40.5v48.8
			c9.7-3.8,19.6-10.3,19.6-16.9V86.3C157.9,86.3,157.5,86.4,157,86.4z"/>
		<g>
			<path class="st5" d="M171.9,35.7H164v-7.9c0-4.3-3.5-7.7-7.7-7.7h-12.8c-4.3,0-7.7,3.5-7.7,7.7v7.9h-7.9c-4.3,0-7.7,3.5-7.7,7.7
				v12.8c0,4.3,3.5,7.7,7.7,7.7h7.9v7.9c0,4.3,3.5,7.7,7.7,7.7h12.8c4.3,0,7.7-3.5,7.7-7.7V64h7.9c4.3,0,7.7-3.5,7.7-7.7V43.4
				C179.6,39.2,176.1,35.7,171.9,35.7z"/>
		</g>
	</g>
	<g>
		<path class="st6" d="M370.8,257.6l4.5-19.8h7.6l4.5,19.8h-4l-0.8-3.6h-6.9l-0.8,3.6H370.8z M378.4,241.1l-2,9.4h5.4l-2-9.4H378.4z
			"/>
		<path class="st6" d="M401.3,257.6H390v-19.8h4v16.2h7.2V257.6z"/>
		<path class="st6" d="M411.8,250.5V247h5.8v10.3c-2.8,0.4-5,0.7-6.8,0.7c-3.1,0-5.2-0.8-6.4-2.5c-1.2-1.6-1.7-4.3-1.7-7.9
			c0-3.6,0.6-6.2,1.8-7.8c1.2-1.6,3.3-2.4,6.1-2.4c1.8,0,3.8,0.2,5.9,0.6l1,0.2l-0.1,3.1c-2.3-0.3-4.2-0.4-5.7-0.4
			c-1.5,0-2.5,0.2-3.1,0.5c-0.6,0.3-1,1-1.3,1.9c-0.3,0.9-0.4,2.6-0.4,4.8c0,2.3,0.3,3.9,0.8,4.8c0.6,0.9,1.7,1.4,3.5,1.4l2.4-0.1
			v-3.8H411.8z"/>
		<path class="st6" d="M435.1,255.5c-1.2,1.6-3.4,2.5-6.4,2.5s-5.1-0.8-6.4-2.5c-1.2-1.6-1.8-4.2-1.8-7.7s0.6-6.1,1.8-7.8
			c1.2-1.7,3.4-2.5,6.4-2.5s5.1,0.8,6.4,2.5c1.2,1.7,1.8,4.3,1.8,7.8S436.3,253.9,435.1,255.5z M425.5,252.9c0.6,1,1.6,1.5,3.2,1.5
			c1.6,0,2.6-0.5,3.2-1.5c0.6-1,0.9-2.7,0.9-5.1s-0.3-4.1-0.9-5.2c-0.6-1.1-1.7-1.6-3.2-1.6s-2.6,0.5-3.2,1.6
			c-0.6,1.1-0.9,2.8-0.9,5.2S424.9,251.9,425.5,252.9z"/>
		<path class="st6" d="M444.4,251v6.6h-4v-19.8h7.7c4.7,0,7,2.2,7,6.5c0,2.6-1,4.5-2.9,5.7l2.8,7.6h-4.4l-2.3-6.6H444.4z
			 M450.2,246.7c0.5-0.6,0.7-1.3,0.7-2.3c0-1-0.2-1.7-0.7-2.3c-0.5-0.6-1.2-0.8-2.1-0.8h-3.7v6.3h3.7
			C449,247.5,449.8,247.3,450.2,246.7z"/>
		<path class="st6" d="M458.4,257.6v-19.8h4v19.8H458.4z"/>
		<path class="st6" d="M465,241.4v-3.6h14.6v3.6h-5.2v16.2h-4v-16.2H465z"/>
		<path class="st6" d="M493.4,257.6v-8.2h-7.4v8.2h-4v-19.8h4v8.1h7.4v-8.1h4v19.8H493.4z"/>
		<path class="st6" d="M501.8,257.6v-19.8h6.8l3.5,14.4l3.5-14.4h6.8v19.8h-4v-15.3H518l-3.9,14.4h-4l-3.9-14.4h-0.4v15.3H501.8z"/>
		<path class="st6" d="M532.8,241c-2.1,0-3.2,0.7-3.2,2.1c0,0.6,0.3,1.1,0.8,1.4c0.5,0.3,1.8,0.8,3.7,1.4c1.9,0.6,3.3,1.3,4.1,2.1
			c0.8,0.8,1.2,2,1.2,3.6c0,2.1-0.6,3.6-1.9,4.7c-1.3,1.1-2.9,1.6-4.9,1.6c-1.5,0-3.4-0.2-5.6-0.7l-1-0.2l0.4-3.1
			c2.6,0.3,4.6,0.5,6,0.5c2.1,0,3.1-0.9,3.1-2.6c0-0.6-0.2-1.1-0.7-1.5c-0.5-0.3-1.4-0.7-2.8-1.1c-2.3-0.6-3.8-1.4-4.8-2.3
			c-0.9-0.9-1.4-2.1-1.4-3.7c0-2,0.6-3.5,1.8-4.4c1.2-1,2.9-1.5,4.9-1.5c1.4,0,3.3,0.2,5.5,0.6l1,0.2l-0.3,3.2
			C535.9,241.1,534,241,532.8,241z"/>
		<path class="st6" d="M549,257.6v-19.8h4v19.8H549z"/>
		<path class="st6" d="M557.3,257.6v-19.8h6.8l4.8,16.3h0.3v-16.3h4v19.8h-6.6l-4.9-16.3h-0.3v16.3H557.3z"/>
		<path class="st6" d="M595.3,257.6v-8.2h-7.4v8.2h-4v-19.8h4v8.1h7.4v-8.1h4v19.8H595.3z"/>
		<path class="st6" d="M603.6,257.6v-19.8h12.8v3.5h-8.8v4.6h7v3.4h-7v4.7h8.8v3.5H603.6z"/>
		<path class="st6" d="M618.1,257.6l4.5-19.8h7.6l4.5,19.8h-4l-0.8-3.6h-6.9l-0.8,3.6H618.1z M625.7,241.1l-2,9.4h5.4l-2-9.4H625.7z
			"/>
		<path class="st6" d="M648.5,257.6h-11.3v-19.8h4v16.2h7.2V257.6z"/>
		<path class="st6" d="M647,241.4v-3.6h14.6v3.6h-5.2v16.2h-4v-16.2H647z"/>
		<path class="st6" d="M675.5,257.6v-8.2h-7.4v8.2h-4v-19.8h4v8.1h7.4v-8.1h4v19.8H675.5z"/>
		<path class="st6" d="M696.4,257.3c-2.1,0.4-3.9,0.7-5.6,0.7c-1.7,0-3-0.2-4-0.6c-1-0.4-1.8-1.1-2.3-2c-0.6-0.9-1-1.9-1.2-3.1
			s-0.3-2.7-0.3-4.5c0-3.8,0.5-6.5,1.6-8c1.1-1.5,3.1-2.3,6-2.3c1.7,0,3.6,0.3,5.8,0.8l-0.1,3.2c-1.9-0.3-3.5-0.4-4.8-0.4
			c-1.3,0-2.2,0.2-2.7,0.5c-0.5,0.3-0.9,1-1.2,1.9c-0.3,1-0.4,2.6-0.4,4.9c0,2.3,0.3,3.9,0.8,4.8c0.5,0.9,1.6,1.3,3.2,1.3
			s3.3-0.1,5.1-0.4L696.4,257.3z"/>
		<path class="st6" d="M698,257.6l4.5-19.8h7.6l4.5,19.8h-4l-0.8-3.6h-6.9l-0.8,3.6H698z M705.6,241.1l-2,9.4h5.4l-2-9.4H705.6z"/>
		<path class="st6" d="M721.2,251v6.6h-4v-19.8h7.7c4.7,0,7,2.2,7,6.5c0,2.6-1,4.5-2.9,5.7l2.8,7.6h-4.4l-2.3-6.6H721.2z M727,246.7
			c0.5-0.6,0.7-1.3,0.7-2.3c0-1-0.2-1.7-0.7-2.3c-0.5-0.6-1.2-0.8-2.1-0.8h-3.7v6.3h3.7C725.9,247.5,726.6,247.3,727,246.7z"/>
		<path class="st6" d="M735.2,257.6v-19.8H748v3.5h-8.8v4.6h7v3.4h-7v4.7h8.8v3.5H735.2z"/>
	</g>
</g>
</svg>
