<?xml version="1.0" encoding="utf-8"?>
<!-- Generator: Adobe Illustrator 16.0.0, SVG Export Plug-In . SVG Version: 6.00 Build 0)  -->
<!DOCTYPE svg PUBLIC "-//W3C//DTD SVG 1.1//EN" "http://www.w3.org/Graphics/SVG/1.1/DTD/svg11.dtd">
<svg version="1.1" id="Layer_1" xmlns="http://www.w3.org/2000/svg" xmlns:xlink="http://www.w3.org/1999/xlink" x="0px" y="0px"
	 width="1312px" height="300px" viewBox="0 0 1312 300" enable-background="new 0 0 1312 300" xml:space="preserve">
<g>
	<g>
		<defs>
			<path id="SVGID_1_" d="M192.638,17.682c-5.752,0.195-8.086,5.127-10.603,9.338c-7.235,12.096-14.192,24.159-21.352,35.947
				c-8.648,14.236-7.959,27.057,0.818,38.948c15.856,21.479,31.332,42.568,46.47,63.254c26.234,35.846,51.503,70.495,76.023,103.899
				c1.658,2.26,10.3,14.551,9.392,13.17c-0.25-1.624-1.649-5.726-2.208-7.828c-0.688-2.151-1.31-4.334-2.079-6.466
				c-14.535-40.239-29.695-82.18-45.526-125.927c-13.392-37.005-27.262-75.362-41.757-115.094c-1.552-4.255-3.007-9.248-8.823-9.248
				C192.878,17.676,192.759,17.678,192.638,17.682"/>
		</defs>
		<clipPath id="SVGID_2_">
			<use xlink:href="#SVGID_1_"  overflow="visible"/>
		</clipPath>
		
			<linearGradient id="SVGID_3_" gradientUnits="userSpaceOnUse" x1="-53.8257" y1="338.0762" x2="-53.0777" y2="338.0762" gradientTransform="matrix(219.3739 0 27.3012 -219.3739 2723.7598 74316)">
			<stop  offset="0" style="stop-color:#6DC497"/>
			<stop  offset="1" style="stop-color:#51A59E"/>
		</linearGradient>
		<polygon clip-path="url(#SVGID_2_)" fill="url(#SVGID_3_)" points="152.035,17.676 327.393,17.676 294.295,283.619 
			118.939,283.619 		"/>
	</g>
	<g>
		<defs>
			<rect id="SVGID_4_" x="26.512" y="15.928" width="269.143" height="269.143"/>
		</defs>
		<clipPath id="SVGID_5_">
			<use xlink:href="#SVGID_4_"  overflow="visible"/>
		</clipPath>
		<path clip-path="url(#SVGID_5_)" fill="#58595B" d="M32.52,278.727c0.458-0.76,15.752-26.11,23.638-39.159
			c26.33-43.569,52.659-87.138,79.007-130.697c1.285-2.126,2.575-4.291,4.154-6.218c3.796-4.632,10.392-6.46,14.281-2.996
			c6.625,5.899,12.78,12.636,14.234,22.05c1.354,8.753-2.297,16.728-8.917,23.866c-30.571,32.967-60.999,66.06-91.557,99.037
			c-9.848,10.627-19.923,21.05-29.93,31.534c-1.156,1.212-7.899,7.923-7.899,7.923S31.131,281.184,32.52,278.727"/>
	</g>
	<g>
		<defs>
			<path id="SVGID_6_" d="M167.135,149.343c-4.967,4.464-9.377,10.016-15.121,14.894c-12.532,10.637-8.43,32.463,8.814,42.37
				c31.711,18.219,56.236,33.988,76.478,46.036c20.546,12.229,53.915,31.681,53.915,31.681s-0.901-1.162-2.683-3.757
				c-0.657-0.876-1.317-1.765-1.985-2.646c-9.969-13.181-21.108-27.729-33.466-44.288c-16.434-22.021-35.251-47.833-57.567-77.762
				c-5.225-7.008-11.647-10.799-17.815-10.799C173.981,145.072,170.352,146.453,167.135,149.343"/>
		</defs>
		<clipPath id="SVGID_7_">
			<use xlink:href="#SVGID_6_"  overflow="visible"/>
		</clipPath>
		
			<linearGradient id="SVGID_8_" gradientUnits="userSpaceOnUse" x1="-53.7686" y1="338.1406" x2="-53.0207" y2="338.1406" gradientTransform="matrix(180.5938 -35.1631 -18.9384 -212.8782 16263.1191 70319.7734)">
			<stop  offset="0" style="stop-color:#5BC8DC"/>
			<stop  offset="1" style="stop-color:#008F9D"/>
		</linearGradient>
		<polygon clip-path="url(#SVGID_7_)" fill="url(#SVGID_8_)" points="127.306,147.442 288.638,116.029 303.398,281.952 
			142.065,313.365 		"/>
	</g>
</g>
<g>
	<g>
		<path fill="#00A8BC" d="M459.988,115.372c-3.78-13.23-7.56-26.055-11.34-38.475c-3.78-12.42-7.29-23.309-10.53-32.67
			c-1.982-5.577-6.438-9.673-13.365-12.285c-6.931-2.607-14.896-3.915-23.895-3.915c-6.303,0-12.555,0.81-18.765,2.43
			c-6.21,1.62-10.847,3.333-13.905,5.13c-1.262,3.24-3.017,7.922-5.265,14.04c-2.253,6.122-4.726,13.095-7.426,20.925
			c-2.699,7.83-5.581,16.158-8.64,24.975c-3.062,8.821-5.94,17.415-8.64,25.785c-2.7,8.37-5.177,16.158-7.426,23.355
			c-2.252,7.202-4.008,13.23-5.265,18.09c-0.902,3.421-1.713,6.392-2.43,8.91c-0.722,2.522-1.08,5.041-1.08,7.56
			c0,5.581,2.202,9.948,6.615,13.095c4.408,3.147,11.204,4.726,20.385,4.726c3.957,0,7.332-0.316,10.125-0.945
			c2.788-0.633,5.442-1.396,7.965-2.295c1.438-5.4,2.877-10.978,4.32-16.74c1.438-5.759,2.877-11.34,4.319-16.739h48.87l4.86,18.63
			c0.898,3.062,1.932,5.763,3.104,8.1c1.169,2.342,2.7,4.231,4.591,5.67c1.89,1.443,4.319,2.519,7.289,3.24
			c2.971,0.717,6.615,1.08,10.936,1.08c5.939,0,11.07-0.768,15.39-2.295c4.32-1.527,7.561-3.553,9.721-6.075
			c-2.7-9.897-5.852-21.283-9.45-34.155C467.455,141.654,463.769,128.602,459.988,115.372z M383.578,123.876
			c2.519-9.539,5.354-18.942,8.505-28.215c3.147-9.269,5.982-17.685,8.505-25.245h1.62c2.16,7.383,4.544,15.707,7.155,24.975
			c2.607,9.273,5.172,18.765,7.695,28.485H383.578z"/>
	</g>
	<g>
		<path fill="#00A8BC" d="M611.728,157.087h-61.83V50.437c0-4.678-0.54-8.458-1.619-11.34c-1.08-2.877-2.7-5.13-4.86-6.75
			s-4.818-2.742-7.965-3.375c-3.151-0.628-6.797-0.945-10.936-0.945c-3.961,0-8.1,0.316-12.42,0.945
			c-4.319,0.633-7.471,1.126-9.45,1.485v139.59c0,7.741,2.249,13.862,6.75,18.359c4.498,4.502,10.619,6.75,18.36,6.75h72.36
			c5.037,0,9.087-1.484,12.149-4.454c3.059-2.971,4.59-8.054,4.59-15.256c0-3.599-0.54-7.062-1.62-10.395
			C614.157,161.723,612.984,159.069,611.728,157.087z"/>
	</g>
	<g>
		<path fill="#00A8BC" d="M764.273,95.527h-45.63c-4.683,0-8.505,1.443-11.475,4.32c-2.97,2.881-4.455,7.56-4.455,14.04
			c0,3.603,0.493,7.02,1.485,10.26c0.987,3.24,2.024,5.852,3.104,7.83h28.891v25.38c-1.62,0.903-3.962,1.713-7.021,2.431
			c-3.062,0.721-6.572,1.079-10.53,1.079c-6.121,0-11.88-0.944-17.279-2.835c-5.4-1.89-10.172-4.767-14.311-8.64
			c-4.143-3.869-7.425-8.817-9.854-14.85c-2.431-6.028-3.646-13.184-3.646-21.465c0-15.297,4.455-27.27,13.365-35.91
			c8.91-8.64,20.925-12.96,36.045-12.96c8.459,0,16.065,1.308,22.815,3.915c6.75,2.611,12.373,5.265,16.875,7.965
			c3.059-1.979,5.758-4.679,8.1-8.1c2.337-3.417,3.51-7.467,3.51-12.15c0-8.817-4.995-15.973-14.984-21.465
			c-9.99-5.488-23.537-8.235-40.636-8.235c-11.88,0-23.447,1.801-34.694,5.4c-11.252,3.603-21.242,9.045-29.971,16.335
			c-8.732,7.29-15.752,16.428-21.06,27.405c-5.312,10.981-7.965,23.853-7.965,38.61c0,14.04,2.43,26.372,7.29,36.99
			c4.859,10.623,11.475,19.487,19.845,26.595c8.37,7.113,18.225,12.42,29.565,15.93c11.34,3.511,23.489,5.266,36.449,5.266
			c4.86,0,9.763-0.271,14.716-0.811c4.948-0.54,9.673-1.308,14.175-2.295c4.497-0.991,8.64-2.16,12.42-3.51s6.927-2.742,9.45-4.186
			c4.319-2.519,7.467-5.13,9.449-7.829c1.979-2.7,2.971-6.839,2.971-12.421v-55.08c0-5.4-1.485-9.585-4.455-12.555
			C773.859,97.012,769.674,95.527,764.273,95.527z"/>
	</g>
	<g>
		<path fill="#00A8BC" d="M941.658,115.372c-3.779-13.23-7.56-26.055-11.34-38.475c-3.78-12.42-7.29-23.309-10.53-32.67
			c-1.982-5.577-6.438-9.673-13.364-12.285c-6.932-2.607-14.896-3.915-23.896-3.915c-6.303,0-12.555,0.81-18.765,2.43
			c-6.21,1.62-10.847,3.333-13.905,5.13c-1.262,3.24-3.017,7.922-5.265,14.04c-2.253,6.122-4.726,13.095-7.425,20.925
			c-2.7,7.83-5.582,16.158-8.641,24.975c-3.062,8.821-5.939,17.415-8.64,25.785c-2.7,8.37-5.177,16.158-7.425,23.355
			c-2.253,7.202-4.008,13.23-5.266,18.09c-0.902,3.421-1.713,6.392-2.43,8.91c-0.722,2.522-1.08,5.041-1.08,7.56
			c0,5.581,2.202,9.948,6.615,13.095c4.408,3.147,11.205,4.726,20.385,4.726c3.957,0,7.332-0.316,10.125-0.945
			c2.789-0.633,5.442-1.396,7.965-2.295c1.438-5.4,2.877-10.978,4.32-16.74c1.438-5.759,2.877-11.34,4.32-16.739h48.869l4.86,18.63
			c0.898,3.062,1.933,5.763,3.105,8.1c1.168,2.342,2.699,4.231,4.59,5.67c1.89,1.443,4.319,2.519,7.29,3.24
			c2.97,0.717,6.614,1.08,10.935,1.08c5.94,0,11.07-0.768,15.391-2.295c4.319-1.527,7.56-3.553,9.72-6.075
			c-2.7-9.897-5.852-21.283-9.45-34.155C949.126,141.654,945.438,128.602,941.658,115.372z M865.248,123.876
			c2.52-9.539,5.354-18.942,8.506-28.215c3.146-9.269,5.981-17.685,8.505-25.245h1.62c2.159,7.383,4.543,15.707,7.154,24.975
			c2.607,9.273,5.173,18.765,7.695,28.485H865.248z"/>
	</g>
	<g>
		<path fill="#00A8BC" d="M1099.608,157.896h-69.39v-28.35h49.68c4.86,0,8.729-1.439,11.61-4.32
			c2.877-2.877,4.319-7.737,4.319-14.58c0-3.599-0.497-6.974-1.484-10.125c-0.991-3.147-2.118-5.712-3.375-7.695h-60.75v-25.11
			h56.97c4.86,0,8.775-1.438,11.745-4.32c2.97-2.877,4.455-7.737,4.455-14.58c0-3.599-0.498-7.02-1.485-10.26
			c-0.991-3.24-2.117-5.847-3.375-7.83h-89.1c-7.741,0-13.863,2.253-18.36,6.75c-4.501,4.501-6.75,10.623-6.75,18.36v114.21
			c0,7.741,2.249,13.862,6.75,18.359c4.497,4.502,10.619,6.75,18.36,6.75h78.84c4.86,0,8.775-1.484,11.745-4.454
			c2.97-2.971,4.455-7.873,4.455-14.716c0-3.599-0.498-7.02-1.485-10.26C1101.992,162.486,1100.866,159.88,1099.608,157.896z"/>
	</g>
	<g>
		<path fill="#00A8BC" d="M1276.995,39.367c-1.079-2.877-2.699-5.13-4.859-6.75s-4.818-2.742-7.965-3.375
			c-3.151-0.628-6.797-0.945-10.936-0.945c-3.961,0-8.1,0.316-12.42,0.945c-4.32,0.633-7.472,1.126-9.45,1.485v63.18h-51.84v-43.2
			c0-4.678-0.54-8.458-1.62-11.34c-1.08-2.877-2.699-5.13-4.859-6.75s-4.818-2.742-7.965-3.375
			c-3.152-0.628-6.797-0.945-10.936-0.945c-3.961,0-8.1,0.316-12.42,0.945c-4.32,0.633-7.472,1.126-9.45,1.485v142.561
			c0,4.683,0.54,8.462,1.62,11.34c1.08,2.881,2.7,5.13,4.86,6.75s4.813,2.746,7.965,3.375c3.147,0.628,6.792,0.944,10.935,0.944
			c4.139,0,8.324-0.27,12.556-0.81c4.227-0.54,7.332-1.08,9.314-1.62v-62.1h51.84v42.121c0,4.683,0.54,8.462,1.62,11.34
			c1.08,2.881,2.7,5.13,4.86,6.75s4.813,2.746,7.965,3.375c3.147,0.628,6.792,0.944,10.935,0.944c4.139,0,8.324-0.27,12.556-0.81
			c4.227-0.54,7.332-1.08,9.314-1.62V50.707C1278.615,46.028,1278.075,42.248,1276.995,39.367z"/>
	</g>
</g>
<g>
	<path fill="#58595B" d="M360.438,270.576l-5.332-13.623h-17.168l-5.273,13.623h-5.039l16.934-43.008h4.189l16.846,43.008H360.438z
		 M353.553,252.471l-4.98-13.271c-0.645-1.68-1.309-3.74-1.992-6.182c-0.43,1.875-1.045,3.936-1.846,6.182l-5.039,13.271H353.553z"
		/>
	<path fill="#58595B" d="M376.282,270.576v-42.832h4.98v38.32h18.896v4.512H376.282z"/>
	<path fill="#58595B" d="M431.062,248.135h14.561v20.83c-2.266,0.723-4.57,1.27-6.914,1.641s-5.059,0.557-8.145,0.557
		c-6.484,0-11.533-1.929-15.146-5.786s-5.42-9.263-5.42-16.216c0-4.453,0.895-8.354,2.682-11.704s4.359-5.908,7.719-7.676
		s7.295-2.651,11.807-2.651c4.57,0,8.828,0.84,12.773,2.52l-1.934,4.395c-3.867-1.641-7.588-2.461-11.162-2.461
		c-5.215,0-9.287,1.553-12.217,4.658s-4.395,7.412-4.395,12.92c0,5.781,1.411,10.166,4.234,13.154
		c2.822,2.988,6.967,4.482,12.436,4.482c2.969,0,5.869-0.342,8.701-1.025v-13.184h-9.58V248.135z"/>
	<path fill="#58595B" d="M497.885,249.102c0,6.855-1.734,12.246-5.201,16.172s-8.286,5.889-14.457,5.889
		c-6.31,0-11.178-1.929-14.605-5.786s-5.141-9.302-5.141-16.333c0-6.973,1.718-12.378,5.156-16.216
		c3.438-3.838,8.32-5.757,14.648-5.757c6.152,0,10.957,1.953,14.414,5.859S497.885,242.227,497.885,249.102z M463.754,249.102
		c0,5.801,1.234,10.2,3.705,13.198s6.061,4.497,10.768,4.497c4.746,0,8.33-1.494,10.752-4.482c2.421-2.988,3.633-7.393,3.633-13.213
		c0-5.762-1.207-10.132-3.619-13.11s-5.98-4.468-10.707-4.468c-4.746,0-8.355,1.499-10.826,4.497S463.754,243.379,463.754,249.102z"
		/>
	<path fill="#58595B" d="M517.216,252.764v17.812h-4.98v-42.832h11.748c5.254,0,9.136,1.006,11.646,3.018s3.765,5.039,3.765,9.082
		c0,5.664-2.871,9.492-8.613,11.484l11.631,19.248h-5.889l-10.371-17.812H517.216z M517.216,248.486h6.826
		c3.516,0,6.094-0.698,7.734-2.095s2.461-3.491,2.461-6.284c0-2.832-0.835-4.873-2.505-6.123s-4.351-1.875-8.042-1.875h-6.475
		V248.486z"/>
	<path fill="#58595B" d="M554.125,270.576v-42.832h4.98v42.832H554.125z"/>
	<path fill="#58595B" d="M588.837,270.576h-4.98v-38.408h-13.564v-4.424h32.109v4.424h-13.564V270.576z"/>
	<path fill="#58595B" d="M646.166,270.576h-4.98V250.42h-22.559v20.156h-4.98v-42.832h4.98v18.223h22.559v-18.223h4.98V270.576z"/>
	<path fill="#58595B" d="M681.67,270.576l-14.531-37.969h-0.234c0.273,3.008,0.41,6.582,0.41,10.723v27.246h-4.6v-42.832h7.5
		l13.564,35.332h0.234l13.682-35.332h7.441v42.832h-4.98v-27.598c0-3.164,0.137-6.602,0.41-10.312h-0.234l-14.648,37.91H681.67z"/>
	<path fill="#58595B" d="M745.854,259.18c0,3.77-1.367,6.709-4.102,8.818s-6.445,3.164-11.133,3.164
		c-5.078,0-8.984-0.654-11.719-1.963v-4.805c1.758,0.742,3.672,1.328,5.742,1.758s4.121,0.645,6.152,0.645
		c3.32,0,5.82-0.63,7.5-1.89s2.52-3.013,2.52-5.259c0-1.484-0.298-2.7-0.894-3.647s-1.592-1.821-2.988-2.622
		s-3.521-1.709-6.372-2.725c-3.984-1.426-6.831-3.115-8.54-5.068s-2.563-4.502-2.563-7.646c0-3.301,1.24-5.928,3.721-7.881
		s5.762-2.93,9.844-2.93c4.258,0,8.174,0.781,11.748,2.344l-1.553,4.336c-3.535-1.484-6.973-2.227-10.312-2.227
		c-2.637,0-4.697,0.566-6.182,1.699s-2.227,2.705-2.227,4.717c0,1.484,0.273,2.7,0.82,3.647s1.47,1.816,2.769,2.607
		s3.286,1.665,5.962,2.622c4.492,1.602,7.583,3.32,9.272,5.156S745.854,256.25,745.854,259.18z"/>
	<path fill="#58595B" d="M779.8,270.576v-42.832h4.98v42.832H779.8z"/>
	<path fill="#58595B" d="M834.785,270.576h-5.684l-23.408-35.947h-0.234c0.312,4.219,0.469,8.086,0.469,11.602v24.346h-4.6v-42.832
		h5.625l23.35,35.801h0.234c-0.039-0.527-0.127-2.222-0.264-5.083s-0.186-4.907-0.146-6.138v-24.58h4.658V270.576z"/>
	<path fill="#58595B" d="M904.269,270.576h-4.98V250.42h-22.559v20.156h-4.98v-42.832h4.98v18.223h22.559v-18.223h4.98V270.576z"/>
	<path fill="#58595B" d="M944.693,270.576h-23.877v-42.832h23.877v4.424h-18.896v13.799h17.754v4.395h-17.754v15.762h18.896V270.576
		z"/>
	<path fill="#58595B" d="M985.909,270.576l-5.332-13.623h-17.168l-5.273,13.623h-5.039l16.934-43.008h4.189l16.846,43.008H985.909z
		 M979.024,252.471l-4.98-13.271c-0.645-1.68-1.309-3.74-1.992-6.182c-0.43,1.875-1.045,3.936-1.846,6.182l-5.039,13.271H979.024z"
		/>
	<path fill="#58595B" d="M1001.754,270.576v-42.832h4.98v38.32h18.896v4.512H1001.754z"/>
	<path fill="#58595B" d="M1050.881,270.576h-4.98v-38.408h-13.564v-4.424h32.109v4.424h-13.564V270.576z"/>
	<path fill="#58595B" d="M1108.21,270.576h-4.98V250.42h-22.559v20.156h-4.98v-42.832h4.98v18.223h22.559v-18.223h4.98V270.576z"/>
	<path fill="#58595B" d="M1143.098,231.582c-4.707,0-8.423,1.567-11.147,4.702s-4.087,7.427-4.087,12.876
		c0,5.605,1.313,9.937,3.94,12.993s6.372,4.585,11.235,4.585c2.988,0,6.396-0.537,10.225-1.611v4.365
		c-2.969,1.113-6.631,1.67-10.986,1.67c-6.309,0-11.177-1.914-14.604-5.742s-5.142-9.268-5.142-16.318
		c0-4.414,0.825-8.281,2.476-11.602s4.033-5.879,7.148-7.676s6.782-2.695,11.001-2.695c4.492,0,8.418,0.82,11.777,2.461
		l-2.109,4.277C1149.582,232.344,1146.34,231.582,1143.098,231.582z"/>
	<path fill="#58595B" d="M1194.333,270.576l-5.332-13.623h-17.168l-5.273,13.623h-5.039l16.934-43.008h4.189l16.846,43.008H1194.333
		z M1187.448,252.471l-4.98-13.271c-0.645-1.68-1.309-3.74-1.992-6.182c-0.43,1.875-1.045,3.936-1.846,6.182l-5.039,13.271H1187.448
		z"/>
	<path fill="#58595B" d="M1215.158,252.764v17.812h-4.98v-42.832h11.748c5.254,0,9.136,1.006,11.646,3.018s3.765,5.039,3.765,9.082
		c0,5.664-2.871,9.492-8.613,11.484l11.631,19.248h-5.889l-10.371-17.812H1215.158z M1215.158,248.486h6.826
		c3.516,0,6.094-0.698,7.734-2.095s2.461-3.491,2.461-6.284c0-2.832-0.835-4.873-2.505-6.123s-4.351-1.875-8.042-1.875h-6.475
		V248.486z"/>
	<path fill="#58595B" d="M1275.945,270.576h-23.877v-42.832h23.877v4.424h-18.896v13.799h17.754v4.395h-17.754v15.762h18.896
		V270.576z"/>
</g>
</svg>
