<?xml version="1.0" encoding="utf-8"?>
<!-- Generator: Adobe Illustrator 22.1.0, SVG Export Plug-In . SVG Version: 6.00 Build 0)  -->
<svg version="1.1" id="Layer_1" xmlns="http://www.w3.org/2000/svg" xmlns:xlink="http://www.w3.org/1999/xlink" x="0px" y="0px"
	 viewBox="0 0 860 300" style="enable-background:new 0 0 860 300;" xml:space="preserve">
<style type="text/css">
	.st0{fill:#929497;}
	.st1{fill:#808184;}
	.st2{fill:#148D79;}
	.st3{opacity:0.1;}
	.st4{fill:#12A28D;}
	.st5{opacity:0.1;fill:#FFFFFF;}
	.st6{fill:#F47E20;}
	.st7{fill:#58595B;}
</style>
<g>
	<g>
		<g>
			<path class="st0" d="M224,224.5c-9.7,0-17.7-1.1-24.1-3.4c-6.4-2.3-11.4-5.9-15.1-10.9c-3.7-5-6.3-10.9-7.7-17.7
				c-1.5-6.9-2.2-15.4-2.2-25.6V29.4l33.7-2.2v139.1c0,12.7,1.5,21.3,4.5,25.8c3,4.5,8.8,6.7,17.5,6.7c4.3,0,9.7-0.5,16.3-1.4
				l0.9,24c-0.1,0-1.1,0.2-3.1,0.6c-2,0.4-3.9,0.8-5.8,1.1c-1.8,0.3-4.2,0.6-7,0.9C229,224.4,226.4,224.5,224,224.5z"/>
			<path class="st0" d="M292.1,255.5c19.8,0,33.6-2.6,41.5-7.9c7.9-5.3,11.8-14.9,11.8-29c0-5.7-0.3-11.9-0.8-18.6
				c-2.2,3.1-4.3,5.6-6.4,7.6c-2,2-4.5,4-7.6,6c-3,2-6.7,3.4-10.9,4.4c-4.2,1-9.1,1.5-14.5,1.5c-18.7,0-34-6.7-46.1-20.2
				c-12-13.4-18-30.8-18-52c0-11.3,1.7-21.6,5-30.9c3.3-9.3,7.9-16.9,13.6-22.9c5.7-6,12.4-10.6,19.8-13.8c7.5-3.2,15.5-4.8,24-4.8
				c18.9,0,33,6.9,42.3,20.7l2.3-17.2h30.1v131.2c0,7-0.3,13.3-1,18.9c-0.7,5.6-1.9,11-3.6,16.2c-1.7,5.2-4,9.7-6.7,13.6
				c-2.8,3.9-6.3,7.4-10.5,10.5c-4.2,3.2-9.1,5.8-14.8,7.8c-5.7,2-12.3,3.6-19.8,4.6c-7.5,1.1-16,1.6-25.4,1.6h-19.4 M310.7,196
				c23.2,0,34.9-15.5,35.2-46.6v-4.9c-0.2-14-3.1-24.8-8.7-32.4c-5.7-7.6-13.9-11.5-24.8-11.6c-12.3,0-21.7,4.2-28,12.7
				c-6.3,8.4-9.5,19.8-9.5,34.1c0,13.8,3.2,25.4,9.6,34.7C290.8,191.3,299.6,196,310.7,196z"/>
			<path class="st0" d="M586.4,221.9c-22.7,0-40.4-6.5-53-19.6c-12.6-13.1-18.9-31.1-18.9-54.1c0-22.4,6-40.3,17.9-53.6
				c11.9-13.3,28.1-20,48.7-20c19.4,0,34.5,6.1,45.3,18.2c10.7,12.2,16.1,28.3,16.1,48.4c0,1.5,0,3.8-0.1,7.1c0,3.3-0.1,5.7-0.1,7.2
				h-93.9c0.3,13.2,4,23.4,10.9,30.6c6.9,7.2,16.4,10.9,28.5,10.9c15.4,0,30.2-4,44.4-12.1l4.8,23.9
				C622.7,217.6,605.9,221.9,586.4,221.9z M549,134.3h61.7c0-11.5-2.6-20.3-7.8-26.5c-5.2-6.2-12.5-9.2-21.7-9.2
				c-8.7,0-15.9,3-21.9,9C553.3,113.6,549.9,122.5,549,134.3z"/>
			<path class="st0" d="M401.8,97.1c-2.7-7.5-4.2-11.4-4.2-11.6c16.6-7.1,34.6-10.7,54-10.7c19,0,32.8,4.1,41.5,12.4
				c8.7,8.3,13,21.6,13,40.1v92.1H481c-0.1-0.3-1-3.2-2.8-8.6c-1.8-5.4-2.7-8.3-2.7-8.6c-7,6.9-13.9,11.9-20.6,15.1
				c-6.7,3.2-14.9,4.8-24.5,4.8c-13.1,0-23.7-3.6-31.8-10.9c-8.1-7.2-12.1-17.7-12.1-31.3c0-14.6,4.8-25.5,14.4-32.6
				c9.6-7.1,24.1-11.5,43.4-13.4c2.7-0.3,5.5-0.7,8.6-1c3.1-0.3,6.6-0.7,10.4-1s6.9-0.6,9.1-0.9v-7.4c0-8.6-2-14.8-5.9-18.7
				c-3.9-3.9-9.9-5.8-18-5.8 M439.5,198.3c7.8,0,14.6-1.9,20.4-5.6c5.8-3.7,9.9-8.2,12.4-13.6v-27.2c-0.3,0-2.5,0.2-6.7,0.5
				c-4.2,0.3-6.5,0.5-6.9,0.5c-13.6,1.2-23.6,3.8-29.9,7.7c-6.3,3.9-9.5,10.3-9.5,19c0,6,1.8,10.6,5.3,13.8
				C428,196.7,433,198.3,439.5,198.3z"/>
			<path class="st0" d="M653,219.5V26.3l33.7-2.2v40.7c0,2-0.1,7.4-0.4,16.4s-0.4,13.5-0.4,13.7c11.2-13.4,26.3-20,45.2-20
				c15.8,0,28,4.5,36.7,13.6c8.7,9,13,22.9,13,41.7v89.4h-33.7v-85.7c0-11.6-1.8-20-5.5-25.4c-3.7-5.4-9.9-8.1-18.8-8.1
				c-7.5,0-14.2,1.9-20,5.7c-5.8,3.8-10.2,8.7-13.1,14.7c-2.1,7.9-3.1,18.2-3.1,30.8v68H653z"/>
		</g>
	</g>
	<g>
		<path class="st1" d="M345.9,133.6c-0.2-14-3.1-24.8-8.7-32.4c-5.7-7.6-13.9-11.5-24.8-11.6c-12.3,0-21.7,4.2-28,12.7
			c-6.3,8.4-9.5,19.8-9.5,34.1c0,2.6,0.2,5.2,0.4,7.6c1-10.7,4-19.4,9.1-26.2c6.3-8.4,15.7-12.7,28-12.7
			c10.9,0.1,19.1,3.9,24.8,11.6c5,6.7,7.8,15.9,8.5,27.5c0.1-1.8,0.2-3.7,0.2-5.7V133.6z"/>
		<path class="st1" d="M373.7,233.8c-1.7,5.2-4,9.7-6.7,13.6c-2.8,3.9-6.3,7.4-10.5,10.5c-4.2,3.2-9.1,5.8-14.8,7.8
			c-5.7,2-12.3,3.6-19.8,4.6c-7.5,1.1-16,1.6-25.4,1.6h-10.8l-8.6,15.5h19.4c9.4,0,17.9-0.5,25.4-1.6c7.5-1.1,14.2-2.6,19.8-4.6
			c5.7-2,10.6-4.6,14.8-7.8c4.2-3.2,7.7-6.7,10.5-10.5c2.8-3.9,5-8.4,6.7-13.6c1.7-5.2,2.9-10.6,3.6-16.2c0.7-5.6,1-11.9,1-18.9
			v-15.5c0,7-0.3,13.3-1,18.9C376.6,223.2,375.4,228.6,373.7,233.8z"/>
		<path class="st1" d="M319.8,222.7c4.2-1,7.9-2.5,10.9-4.4c3-2,5.6-4,7.6-6c2-2,4.1-4.6,6.4-7.6c0.2,3,0.4,5.9,0.5,8.8
			c0.2-1.8,0.2-3.7,0.2-5.6c0-5.7-0.3-11.9-0.8-18.6c-2.2,3.1-4.3,5.6-6.4,7.6c-2,2-4.5,4-7.6,6c-3,2-6.7,3.4-10.9,4.4
			c-4.2,1-9.1,1.5-14.5,1.5c-18.7,0-34-6.7-46.1-20.2c-10.5-11.8-16.5-26.5-17.8-44.3c-0.2,2.5-0.3,5.1-0.3,7.7c0,21.2,6,38.6,18,52
			c12,13.4,27.4,20.2,46.1,20.2C310.7,224.1,315.5,223.6,319.8,222.7z"/>
		<g>
			<path class="st1" d="M448.5,103.8c8.1,0,14,1.9,18,5.8c2.6,2.6,4.3,6.2,5.2,10.7c0.2,0,0.5-0.1,0.7-0.1v-7.4
				c0-8.6-2-14.8-5.9-18.7c-3.9-3.9-9.9-5.8-18-5.8l-41.2-1.8c-3.3,1.1-6.6,2.3-9.8,3.7c0.1,0.2,1.5,4,4.2,11.6L448.5,103.8z"/>
			<path class="st1" d="M465.6,141.6c-4.2,0.3-6.5,0.5-6.9,0.5c-13.6,1.2-23.6,3.8-29.9,7.7c-6.3,3.9-9.5,10.3-9.5,19
				c0,2.8,0.4,5.2,1.1,7.4c1.4-4.7,4.2-8.3,8.4-10.9c6.3-3.9,16.3-6.5,29.9-7.7c0.3,0,2.6-0.2,6.9-0.5c4.2-0.3,6.5-0.5,6.7-0.5
				v-15.5C472,141.1,469.8,141.2,465.6,141.6z"/>
			<path class="st1" d="M478.2,200c-1.8-5.4-2.7-8.3-2.7-8.6c-7,6.9-13.9,11.9-20.6,15.1c-6.7,3.2-14.9,4.8-24.5,4.8
				c-13.1,0-23.7-3.6-31.8-10.9c-6.5-5.8-10.4-13.6-11.6-23.5c-0.3,2.4-0.5,5-0.5,7.7c0,13.6,4,24,12.1,31.3
				c8.1,7.2,18.7,10.9,31.8,10.9c9.6,0,17.7-1.6,24.5-4.8c6.7-3.2,13.6-8.2,20.6-15.1c0,0.3,0.9,3.2,2.7,8.6
				c1.8,5.4,2.7,8.3,2.8,8.6H506v-15.5H481C481,208.3,480,205.4,478.2,200z"/>
		</g>
		<path class="st1" d="M244.6,207.4c-2,0.4-3.9,0.8-5.8,1.1c-1.8,0.3-4.2,0.6-7,0.9c-2.8,0.3-5.4,0.5-7.8,0.5
			c-9.7,0-17.7-1.1-24.1-3.4c-6.4-2.3-11.4-5.9-15.1-10.9c-3.7-5-6.3-10.9-7.7-17.7c-1.5-6.9-2.2-15.4-2.2-25.6v15.5
			c0,10.2,0.7,18.7,2.2,25.6c1.5,6.9,4,12.8,7.7,17.7c3.7,5,8.7,8.6,15.1,10.9c6.4,2.3,14.4,3.4,24.1,3.4c2.4,0,5-0.2,7.8-0.5
			c2.8-0.3,5.2-0.6,7-0.9c1.8-0.3,3.8-0.7,5.8-1.1c2-0.4,3.1-0.6,3.1-0.6l-0.6-15.4C246.7,207,245.8,207.2,244.6,207.4z"/>
		<g>
			<path class="st1" d="M602.8,92.4c-5.2-6.2-12.5-9.2-21.7-9.2c-8.7,0-15.9,3-21.9,9c-6,6-9.4,14.9-10.2,26.7h3.2
				c1.7-4.5,4-8.2,7-11.2c6-6,13.3-9,21.9-9c9.3,0,16.5,3.1,21.7,9.2c2.6,3,4.5,6.7,5.8,11h2.1C610.7,107.4,608,98.5,602.8,92.4z"/>
			<path class="st1" d="M586.4,206.4c-22.7,0-40.4-6.5-53-19.6c-11.2-11.6-17.4-27.1-18.7-46.5c-0.2,2.5-0.3,5.1-0.3,7.8
				c0,23,6.3,41.1,18.9,54.1c12.6,13.1,30.3,19.6,53,19.6c19.5,0,36.4-4.4,50.5-13.1l-2.8-13.9C620.6,202.6,604.7,206.4,586.4,206.4
				z"/>
			<path class="st1" d="M642.3,140h-93.9c0.1,5.7,1,10.9,2.3,15.5h91.6c0-1.5,0-3.9,0.1-7.2c0-3.3,0.1-5.6,0.1-7.1
				c0-1.6,0-3.1-0.1-4.6C642.3,138,642.3,139.2,642.3,140z"/>
		</g>
		<g>
			<rect x="653" y="204" class="st1" width="33.7" height="15.5"/>
			<path class="st1" d="M686.7,49.3c0,2-0.1,7.4-0.4,16.4s-0.4,13.5-0.4,13.7c0.1-0.2,0.3-0.3,0.5-0.5c0.2-7.6,0.3-12.3,0.3-14.1
				V49.3z"/>
			<path class="st1" d="M747.2,118.3c0-11.6-1.8-20-5.5-25.4c-3.7-5.4-9.9-8.1-18.8-8.1c-7.5,0-14.2,1.9-20,5.7
				c-5.8,3.8-10.2,8.7-13.1,14.7c-2.1,7.9-3.1,18.2-3.1,30.8v15.5c0-12.7,1-23,3.1-30.8c2.9-6,7.3-10.9,13.1-14.7
				c5.8-3.8,12.5-5.7,20-5.7c8.8,0,15.1,2.7,18.8,8.1c3.7,5.4,5.5,13.9,5.5,25.4V118.3z"/>
			<rect x="747.2" y="204" class="st1" width="33.7" height="15.5"/>
		</g>
	</g>
	<g>
		<g>
			<path class="st2" d="M96,196.3c6.1-3.9,10.4-8.7,13.1-14.3v-28.7c-0.3,0-2.6,0.2-7.1,0.5c-4.5,0.4-6.9,0.5-7.2,0.5
				c-14.4,1.3-24.9,4-31.5,8.1c-6.7,4.2-10,10.8-10,20c0,6.3,1.8,11.2,5.6,14.6c3.7,3.4,9,5.1,15.8,5.1
				C82.8,202.2,89.9,200.2,96,196.3z"/>
			<path class="st3" d="M102.7,189.6c-6.1,3.9-13.2,5.9-21.5,5.9c-6.9,0-12.1-1.7-15.8-5.1c-3.7-3.4-5.6-8.2-5.6-14.6
				c0-5.3,1.1-9.7,3.3-13.3c-6.7,4.2-10,10.8-10,20c0,6.3,1.8,11.2,5.6,14.6c3.7,3.4,9,5.1,15.8,5.1c8.2,0,15.4-2,21.5-5.9
				c4-2.6,7.3-5.6,9.8-8.9C104.9,188.1,103.8,188.9,102.7,189.6z"/>
			<path class="st2" d="M163.8,85h-15c-6.7,0-12.1-5.4-12.1-12.1v-6.2h-6.2c-2.5,0-4.9-0.8-6.8-2.1L38.8,70
				C28,70,14.3,98.4,14.3,109.1L11,196.4c0,9,16.5,21.3,28.2,25c-2.8-1.5-5.4-3.3-7.8-5.5c-8.5-7.6-12.8-18.6-12.8-33
				c0-15.4,5.1-26.9,15.2-34.3c10.1-7.4,25.4-12.2,45.8-14.2c2.8-0.4,5.8-0.7,9.1-1.1c3.2-0.4,6.9-0.7,11-1.1c4.1-0.4,7.3-0.7,9.6-1
				v-7.9c0-9-2.1-15.6-6.2-19.7c-4.2-4.1-10.5-6.2-19-6.2l-49.3-2.2c-2.9-7.9-4.4-12-4.5-12.2c17.5-7.5,36.5-11.2,56.9-11.2
				c20,0,34.6,4.4,43.7,13.1c9.1,8.7,13.7,22.8,13.7,42.3v86.6c10.3-4,20.7-10.8,20.7-17.7V89.6c0-1.5-0.3-3-0.7-4.6
				C164.3,85,164,85,163.8,85z"/>
			<path class="st4" d="M115.3,215.5c-1.9-5.7-2.8-8.7-2.8-9.1c-5.7,5.5-11.2,9.9-16.7,13.2l20.5-1.2
				C116,217.5,115.7,216.5,115.3,215.5z"/>
		</g>
		<g>
			<path class="st4" d="M163.8,85.2h-15c-6.8,0-12.3-5.5-12.3-12.3v-6h-6c-6.8,0-12.3-5.5-12.3-12.3v-15c0-5.4,3.5-10,8.3-11.6
				c-0.7-0.1-1.4-0.2-2.1-0.2L38.8,50.6c-9.9,2.8-24.5,12.1-24.5,22.9l-1.9,87.9c0,4.1,2.1,8.2,6.9,12.6c1.6-11,6.5-19.4,14.5-25.4
				c10.1-7.4,25.4-12.2,45.8-14.2c2.8-0.4,5.8-0.7,9.1-1.1c3.2-0.4,6.9-0.7,11-1.1c4.1-0.4,7.3-0.7,9.6-1v-7.9
				c0-9-2.1-15.6-6.2-19.7c-4.2-4.1-10.5-6.2-19-6.2l-49.3-2.2c-2.9-7.9-4.4-12-4.5-12.2c17.5-7.5,36.5-11.2,56.9-11.2
				c20,0,34.6,4.4,43.7,13.1c9.1,8.7,13.7,22.8,13.7,42.3v51c10.3-4,20.7-10.8,20.7-17.7V85.1C164.7,85.2,164.3,85.2,163.8,85.2z"/>
		</g>
		<path class="st5" d="M163.8,85.2H149c-6.7,0-12.2-5.5-12.2-12.3v-6h-5.9c-6.7,0-12.2-5.5-12.2-12.3V41.8L40.2,63
			C29,64.5,15.9,75.1,15.9,85.8l-3.2,87.3c0,4.1,3.4,8.9,8.2,13.2c1.6-11,6.4-19.4,14.4-25.4c10-7.4,25.1-12.2,45.3-14.2
			c2.8-0.4,5.8-0.7,9-1.1c3.2-0.4,6.8-0.7,10.8-1.1c4-0.4,7.2-0.7,9.5-1v-7.9c0-9-2.1-15.6-6.2-19.7c-4.1-4.1-10.4-6.2-18.7-6.2
			l-48.7-2.2c-2.9-7.9-4.3-12-4.4-12.2C49.1,88.1,67.8,84.4,88,84.4c19.8,0,34.2,4.4,43.3,13.1c9,8.7,13.5,22.8,13.5,42.3v51
			c10.2-4,20.4-10.8,20.4-17.7v-88C164.8,85.2,164.3,85.2,163.8,85.2z"/>
		<g>
			<path class="st6" d="M179.3,32.3h-8.3v-8.3c0-4.4-3.6-8.1-8.1-8.1h-13.4c-4.4,0-8.1,3.6-8.1,8.1v8.3h-8.3c-4.4,0-8.1,3.6-8.1,8.1
				v13.4c0,4.4,3.6,8.1,8.1,8.1h8.3v8.3c0,4.4,3.6,8.1,8.1,8.1H163c4.4,0,8.1-3.6,8.1-8.1v-8.3h8.3c4.4,0,8.1-3.6,8.1-8.1V40.4
				C187.4,36,183.8,32.3,179.3,32.3z"/>
		</g>
	</g>
	<g>
		<path class="st7" d="M387,261l4.7-20.7h8l4.7,20.7h-4.2l-0.8-3.7H392l-0.8,3.7H387z M394.9,243.7l-2.1,9.8h5.7l-2.1-9.8H394.9z"/>
		<path class="st7" d="M418.8,261H407v-20.7h4.2v17h7.6V261z"/>
		<path class="st7" d="M429.8,253.5v-3.6h6v10.7c-2.9,0.5-5.2,0.7-7.1,0.7c-3.2,0-5.4-0.9-6.6-2.6c-1.2-1.7-1.8-4.5-1.8-8.2
			c0-3.7,0.6-6.5,1.9-8.1c1.3-1.7,3.4-2.5,6.4-2.5c1.9,0,3.9,0.2,6.1,0.6l1.1,0.2l-0.1,3.3c-2.4-0.3-4.4-0.4-6-0.4
			c-1.6,0-2.6,0.2-3.3,0.5c-0.6,0.4-1.1,1-1.4,2c-0.3,1-0.4,2.7-0.4,5c0,2.4,0.3,4,0.9,5c0.6,1,1.8,1.4,3.6,1.4l2.5-0.1v-4H429.8z"
			/>
		<path class="st7" d="M454.1,258.7c-1.3,1.7-3.5,2.6-6.6,2.6c-3.1,0-5.4-0.9-6.6-2.6c-1.3-1.7-1.9-4.4-1.9-8s0.6-6.4,1.9-8.1
			c1.3-1.8,3.5-2.7,6.6-2.7c3.1,0,5.4,0.9,6.6,2.7c1.3,1.8,1.9,4.5,1.9,8.1S455.4,257,454.1,258.7z M444.1,256.1
			c0.6,1.1,1.7,1.6,3.4,1.6s2.8-0.5,3.4-1.6c0.6-1.1,0.9-2.8,0.9-5.4c0-2.5-0.3-4.3-0.9-5.5c-0.6-1.1-1.7-1.7-3.3-1.7
			s-2.7,0.6-3.3,1.7c-0.6,1.1-0.9,3-0.9,5.5C443.2,253.2,443.5,255,444.1,256.1z"/>
		<path class="st7" d="M463.8,254v6.9h-4.2v-20.7h8c4.9,0,7.3,2.3,7.3,6.8c0,2.7-1,4.7-3,6l2.9,7.9h-4.6l-2.4-6.9H463.8z
			 M469.9,249.5c0.5-0.6,0.7-1.4,0.7-2.4c0-1-0.3-1.8-0.8-2.4c-0.5-0.6-1.3-0.9-2.2-0.9h-3.8v6.6h3.9
			C468.7,250.4,469.4,250.1,469.9,249.5z"/>
		<path class="st7" d="M478.5,261v-20.7h4.2V261H478.5z"/>
		<path class="st7" d="M485.3,244v-3.7h15.2v3.7H495v17h-4.2v-17H485.3z"/>
		<path class="st7" d="M515,261v-8.6h-7.7v8.6h-4.2v-20.7h4.2v8.5h7.7v-8.5h4.2V261H515z"/>
		<path class="st7" d="M523.7,261v-20.7h7.1l3.6,15.1l3.6-15.1h7.1V261h-4.2v-16h-0.5l-4,15.1h-4.2l-4-15.1h-0.5v16H523.7z"/>
		<path class="st7" d="M556.2,243.6c-2.2,0-3.3,0.7-3.3,2.2c0,0.6,0.3,1.1,0.8,1.5c0.5,0.3,1.8,0.8,3.8,1.5c2,0.6,3.4,1.4,4.2,2.2
			c0.8,0.8,1.2,2.1,1.2,3.8c0,2.2-0.7,3.8-2,4.9c-1.3,1.1-3,1.7-5.2,1.7c-1.6,0-3.5-0.2-5.8-0.7l-1.1-0.2l0.4-3.3
			c2.7,0.4,4.8,0.5,6.2,0.5c2.1,0,3.2-0.9,3.2-2.7c0-0.6-0.2-1.2-0.7-1.5c-0.5-0.4-1.5-0.8-3-1.2c-2.4-0.7-4-1.5-5-2.4
			c-1-0.9-1.4-2.2-1.4-3.8c0-2.1,0.6-3.6,1.9-4.6c1.3-1,3-1.5,5.2-1.5c1.5,0,3.4,0.2,5.7,0.6l1.1,0.2l-0.3,3.3
			C559.3,243.7,557.3,243.6,556.2,243.6z"/>
		<path class="st7" d="M573,261v-20.7h4.2V261H573z"/>
		<path class="st7" d="M581.7,261v-20.7h7.1l5,17h0.3v-17h4.2V261h-6.9l-5.2-17h-0.3v17H581.7z"/>
		<path class="st7" d="M621.4,261v-8.6h-7.7v8.6h-4.2v-20.7h4.2v8.5h7.7v-8.5h4.2V261H621.4z"/>
		<path class="st7" d="M630.1,261v-20.7h13.4v3.6h-9.2v4.8h7.4v3.6h-7.4v5h9.2v3.6H630.1z"/>
		<path class="st7" d="M645.2,261l4.7-20.7h8l4.7,20.7h-4.2l-0.8-3.7h-7.2l-0.8,3.7H645.2z M653.1,243.7l-2.1,9.8h5.7l-2.1-9.8
			H653.1z"/>
		<path class="st7" d="M677,261h-11.8v-20.7h4.2v17h7.6V261z"/>
		<path class="st7" d="M675.4,244v-3.7h15.2v3.7h-5.5v17h-4.2v-17H675.4z"/>
		<path class="st7" d="M705.1,261v-8.6h-7.7v8.6h-4.2v-20.7h4.2v8.5h7.7v-8.5h4.2V261H705.1z"/>
		<path class="st7" d="M726.9,260.6c-2.1,0.5-4.1,0.7-5.8,0.7c-1.7,0-3.1-0.2-4.1-0.6c-1-0.4-1.8-1.1-2.4-2c-0.6-0.9-1-2-1.2-3.3
			s-0.3-2.8-0.3-4.7c0-4,0.6-6.8,1.7-8.3c1.1-1.6,3.2-2.4,6.2-2.4c1.7,0,3.8,0.3,6,0.8l-0.1,3.3c-2-0.3-3.7-0.5-5-0.5
			c-1.3,0-2.3,0.2-2.8,0.5c-0.6,0.4-1,1-1.3,2c-0.3,1-0.4,2.7-0.4,5.1c0,2.4,0.3,4,0.8,5c0.6,0.9,1.7,1.4,3.3,1.4
			c1.7,0,3.5-0.1,5.3-0.4L726.9,260.6z"/>
		<path class="st7" d="M728.6,261l4.7-20.7h8l4.7,20.7h-4.2l-0.8-3.7h-7.2l-0.8,3.7H728.6z M736.5,243.7l-2.1,9.8h5.7l-2.1-9.8
			H736.5z"/>
		<path class="st7" d="M752.8,254v6.9h-4.2v-20.7h8c4.9,0,7.3,2.3,7.3,6.8c0,2.7-1,4.7-3,6l2.9,7.9h-4.6l-2.4-6.9H752.8z
			 M758.9,249.5c0.5-0.6,0.7-1.4,0.7-2.4c0-1-0.3-1.8-0.8-2.4c-0.5-0.6-1.3-0.9-2.2-0.9h-3.8v6.6h3.9
			C757.7,250.4,758.4,250.1,758.9,249.5z"/>
		<path class="st7" d="M767.5,261v-20.7h13.4v3.6h-9.2v4.8h7.4v3.6h-7.4v5h9.2v3.6H767.5z"/>
	</g>
</g>
</svg>
