<?xml version="1.0" encoding="utf-8"?>
<!-- Generator: Adobe Illustrator 22.1.0, SVG Export Plug-In . SVG Version: 6.00 Build 0)  -->
<svg version="1.1" id="Layer_1" xmlns="http://www.w3.org/2000/svg" xmlns:xlink="http://www.w3.org/1999/xlink" x="0px" y="0px"
	 viewBox="0 0 451 181" style="enable-background:new 0 0 451 181;" xml:space="preserve">
<style type="text/css">
	.st0{display:none;}
	.st1{display:inline;}
	.st2{opacity:0.7;}
	.st3{fill:#231F20;}
	.st4{fill:none;stroke:#231F20;stroke-miterlimit:10;}
	.st5{fill:#FFFFFF;}
	.st6{fill:none;stroke:#FFFFFF;stroke-miterlimit:10;}
	.st7{opacity:0.5;}
	.st8{fill:#020202;}
	.st9{opacity:0.1;enable-background:new    ;}
	.st10{fill:#F57E20;}
</style>
<g id="Layer_2_1_" class="st0">
	<rect x="-15" class="st1" width="481" height="220"/>
</g>
<g id="Layer_5">
	<g class="st2">
		<path class="st3" d="M39.3,153.6c-0.2-4.1-0.5-9.1-0.4-12.8h-0.1c-1,3.5-2.2,7.2-3.7,11.2l-5.2,14.4H27l-4.8-14.1
			c-1.4-4.2-2.6-8-3.4-11.5h-0.1c-0.1,3.7-0.3,8.7-0.6,13.1l-0.8,12.7h-3.6l2.1-29.6h4.9l5.1,14.3c1.2,3.6,2.2,6.9,3,10h0.1
			c0.7-3,1.8-6.2,3.1-10l5-14.3h4.9l1.8,29.6H40L39.3,153.6z"/>
		<path class="st3" d="M54,157.3l-3.1,9.3h-4L57,137h4.6l10.1,29.6h-4.1l-3.2-9.3H54z M63.7,154.3l-2.9-8.5
			c-0.7-1.9-1.1-3.7-1.5-5.4h-0.1c-0.4,1.8-0.9,3.6-1.5,5.4l-2.9,8.6h8.9V154.3z"/>
		<path class="st3" d="M76.1,166.6V137h4.2l9.5,15c2.2,3.5,3.9,6.6,5.3,9.6h0.1c-0.4-4-0.4-7.6-0.4-12.2V137h3.6v29.6h-3.9l-9.4-15
			c-2.1-3.3-4-6.7-5.5-9.9h-0.1c0.2,3.7,0.3,7.3,0.3,12.2v12.6L76.1,166.6L76.1,166.6z"/>
		<path class="st3" d="M109.8,157.3l-3.1,9.3h-4l10.1-29.6h4.6l10.1,29.6h-4.1l-3.2-9.3H109.8z M119.5,154.3l-2.9-8.5
			c-0.7-1.9-1.1-3.7-1.5-5.4H115c-0.4,1.8-0.9,3.6-1.5,5.4l-2.9,8.6h8.9V154.3z"/>
		<path class="st3" d="M153.7,165.2c-1.7,0.6-5.1,1.6-9.1,1.6c-4.5,0-8.2-1.1-11.1-3.9c-2.5-2.5-4.1-6.4-4.1-11
			c0-8.8,6.1-15.3,16-15.3c3.4,0,6.1,0.7,7.4,1.4l-0.9,3.1c-1.6-0.7-3.6-1.3-6.5-1.3c-7.2,0-11.9,4.5-11.9,11.9
			c0,7.5,4.5,11.9,11.4,11.9c2.5,0,4.2-0.4,5.1-0.8V154h-6v-3h9.7L153.7,165.2L153.7,165.2z"/>
		<path class="st3" d="M174.9,152.7h-11.5v10.7h12.8v3.2h-16.6V137h16v3.2h-12.2v9.4h11.5V152.7z"/>
		<path class="st3" d="M206.1,153.6c-0.2-4.1-0.5-9.1-0.4-12.8h-0.1c-1,3.5-2.2,7.2-3.7,11.2l-5.2,14.4h-2.9l-4.8-14.1
			c-1.4-4.2-2.6-8-3.4-11.5h-0.1c-0.1,3.7-0.3,8.7-0.6,13.1l-0.8,12.7h-3.6l2.1-29.6h4.9l5.1,14.3c1.2,3.6,2.2,6.9,3,10h0.1
			c0.7-3,1.8-6.2,3.1-10l5.3-14.3h4.9l1.8,29.6h-3.7L206.1,153.6z"/>
		<path class="st3" d="M231.8,152.7h-11.5v10.7h12.8v3.2h-16.6V137h16v3.2h-12.2v9.4h11.5V152.7z"/>
		<path class="st3" d="M238.1,166.6V137h4.2l9.5,15c2.2,3.5,3.9,6.6,5.3,9.6h0.1c-0.4-4-0.4-7.6-0.4-12.2V137h3.6v29.6h-3.9l-9.4-15
			c-2.1-3.3-4-6.7-5.5-9.9h-0.1c0.2,3.7,0.3,7.3,0.3,12.2v12.6L238.1,166.6L238.1,166.6z"/>
		<path class="st3" d="M272.6,140.2h-9V137h21.9v3.2h-9v26.3h-3.9V140.2z"/>
		<path class="st3" d="M297.6,161.9c1.7,1.1,4.2,1.9,6.9,1.9c3.9,0,6.2-2.1,6.2-5c0-2.8-1.6-4.3-5.6-5.9c-4.8-1.7-7.8-4.2-7.8-8.4
			c0-4.6,3.8-8,9.6-8c3,0,5.2,0.7,6.5,1.4l-1.1,3.1c-1-0.5-2.9-1.4-5.6-1.4c-4,0-5.6,2.4-5.6,4.4c0,2.8,1.8,4.1,5.9,5.7
			c5,1.9,7.6,4.3,7.6,8.7c0,4.6-3.4,8.5-10.4,8.5c-2.9,0-6-0.8-7.6-1.9L297.6,161.9z"/>
		<path class="st3" d="M326.3,166.6V154l-9.4-17h4.3l4.2,8.2c1.1,2.2,2,4,2.9,6.1h0.1c0.8-1.9,1.8-3.9,3-6.1l4.3-8.2h4.3l-9.9,17
			v12.6H326.3z"/>
		<path class="st3" d="M342.4,161.9c1.7,1.1,4.2,1.9,6.9,1.9c3.9,0,6.2-2.1,6.2-5c0-2.8-1.6-4.3-5.6-5.9c-4.8-1.7-7.8-4.2-7.8-8.4
			c0-4.6,3.8-8,9.6-8c3,0,5.2,0.7,6.5,1.4l-1.1,3.1c-1-0.5-2.9-1.4-5.6-1.4c-4,0-5.6,2.4-5.6,4.4c0,2.8,1.8,4.1,5.9,5.7
			c5,1.9,7.6,4.3,7.6,8.7c0,4.6-3.4,8.5-10.4,8.5c-2.9,0-6-0.8-7.6-1.9L342.4,161.9z"/>
		<path class="st3" d="M370.2,140.2h-9V137h21.9v3.2h-9v26.3h-3.9V140.2z"/>
		<path class="st3" d="M401.8,152.7h-11.5v10.7h12.8v3.2h-16.6V137h16v3.2h-12.2v9.4h11.5L401.8,152.7L401.8,152.7z"/>
		<path class="st3" d="M433,153.6c-0.2-4.1-0.5-9.1-0.4-12.8h-0.1c-1,3.5-2.2,7.2-3.7,11.2l-5.2,14.4h-2.9l-4.8-14.1
			c-1.4-4.2-2.6-8-3.4-11.5h-0.1c-0.1,3.7-0.3,8.7-0.6,13.1l-0.8,12.7h-3.6l2.1-29.6h4.9l5.1,14.3c1.2,3.6,2.2,6.9,3,10h0.1
			c0.7-3,1.8-6.2,3.1-10L431,137h4.9l1.8,29.6H434L433,153.6z"/>
	</g>
	<g class="st2">
		<rect x="9" y="123" class="st4" width="431" height="1"/>
	</g>
</g>
<g id="Layer_4">
	<g>
		<path class="st5" d="M39.3,152.6c-0.2-4.1-0.5-9.1-0.4-12.8h-0.1c-1,3.5-2.2,7.2-3.7,11.2l-5.2,14.4H27l-4.8-14.1
			c-1.4-4.2-2.6-8-3.4-11.5h-0.1c-0.1,3.7-0.3,8.7-0.6,13.1l-0.8,12.7h-3.6l2.1-29.6h4.9l5.1,14.3c1.2,3.6,2.2,6.9,3,10h0.1
			c0.7-3,1.8-6.2,3.1-10l5-14.3h4.9l1.8,29.6H40L39.3,152.6z"/>
		<path class="st5" d="M54,156.3l-3.1,9.3h-4L57,136h4.6l10.1,29.6h-4.1l-3.2-9.3H54z M63.7,153.3l-2.9-8.5
			c-0.7-1.9-1.1-3.7-1.5-5.4h-0.1c-0.4,1.8-0.9,3.6-1.5,5.4l-2.9,8.6h8.9V153.3z"/>
		<path class="st5" d="M76.1,165.6V136h4.2l9.5,15c2.2,3.5,3.9,6.6,5.3,9.6h0.1c-0.4-4-0.4-7.6-0.4-12.2V136h3.6v29.6h-3.9l-9.4-15
			c-2.1-3.3-4-6.7-5.5-9.9h-0.1c0.2,3.7,0.3,7.3,0.3,12.2v12.6L76.1,165.6L76.1,165.6z"/>
		<path class="st5" d="M109.8,156.3l-3.1,9.3h-4l10.1-29.6h4.6l10.1,29.6h-4.1l-3.2-9.3H109.8z M119.5,153.3l-2.9-8.5
			c-0.7-1.9-1.1-3.7-1.5-5.4H115c-0.4,1.8-0.9,3.6-1.5,5.4l-2.9,8.6h8.9V153.3z"/>
		<path class="st5" d="M153.7,164.2c-1.7,0.6-5.1,1.6-9.1,1.6c-4.5,0-8.2-1.1-11.1-3.9c-2.5-2.5-4.1-6.4-4.1-11
			c0-8.8,6.1-15.3,16-15.3c3.4,0,6.1,0.7,7.4,1.4l-0.9,3.1c-1.6-0.7-3.6-1.3-6.5-1.3c-7.2,0-11.9,4.5-11.9,11.9
			c0,7.5,4.5,11.9,11.4,11.9c2.5,0,4.2-0.4,5.1-0.8V153h-6v-3h9.7L153.7,164.2L153.7,164.2z"/>
		<path class="st5" d="M174.9,151.7h-11.5v10.7h12.8v3.2h-16.6V136h16v3.2h-12.2v9.4h11.5V151.7z"/>
		<path class="st5" d="M206.1,152.6c-0.2-4.1-0.5-9.1-0.4-12.8h-0.1c-1,3.5-2.2,7.2-3.7,11.2l-5.2,14.4h-2.9l-4.8-14.1
			c-1.4-4.2-2.6-8-3.4-11.5h-0.1c-0.1,3.7-0.3,8.7-0.6,13.1l-0.8,12.7h-3.6l2.1-29.6h4.9l5.1,14.3c1.2,3.6,2.2,6.9,3,10h0.1
			c0.7-3,1.8-6.2,3.1-10l5.3-14.3h4.9l1.8,29.6h-3.7L206.1,152.6z"/>
		<path class="st5" d="M231.8,151.7h-11.5v10.7h12.8v3.2h-16.6V136h16v3.2h-12.2v9.4h11.5V151.7z"/>
		<path class="st5" d="M238.1,165.6V136h4.2l9.5,15c2.2,3.5,3.9,6.6,5.3,9.6h0.1c-0.4-4-0.4-7.6-0.4-12.2V136h3.6v29.6h-3.9l-9.4-15
			c-2.1-3.3-4-6.7-5.5-9.9h-0.1c0.2,3.7,0.3,7.3,0.3,12.2v12.6L238.1,165.6L238.1,165.6z"/>
		<path class="st5" d="M272.6,139.2h-9V136h21.9v3.2h-9v26.3h-3.9V139.2z"/>
		<path class="st5" d="M297.6,160.9c1.7,1.1,4.2,1.9,6.9,1.9c3.9,0,6.2-2.1,6.2-5c0-2.8-1.6-4.3-5.6-5.9c-4.8-1.7-7.8-4.2-7.8-8.4
			c0-4.6,3.8-8,9.6-8c3,0,5.2,0.7,6.5,1.4l-1.1,3.1c-1-0.5-2.9-1.4-5.6-1.4c-4,0-5.6,2.4-5.6,4.4c0,2.8,1.8,4.1,5.9,5.7
			c5,1.9,7.6,4.3,7.6,8.7c0,4.6-3.4,8.5-10.4,8.5c-2.9,0-6-0.8-7.6-1.9L297.6,160.9z"/>
		<path class="st5" d="M326.3,165.6V153l-9.4-17h4.3l4.2,8.2c1.1,2.2,2,4,2.9,6.1h0.1c0.8-1.9,1.8-3.9,3-6.1l4.3-8.2h4.3l-9.9,17
			v12.6H326.3z"/>
		<path class="st5" d="M342.4,160.9c1.7,1.1,4.2,1.9,6.9,1.9c3.9,0,6.2-2.1,6.2-5c0-2.8-1.6-4.3-5.6-5.9c-4.8-1.7-7.8-4.2-7.8-8.4
			c0-4.6,3.8-8,9.6-8c3,0,5.2,0.7,6.5,1.4l-1.1,3.1c-1-0.5-2.9-1.4-5.6-1.4c-4,0-5.6,2.4-5.6,4.4c0,2.8,1.8,4.1,5.9,5.7
			c5,1.9,7.6,4.3,7.6,8.7c0,4.6-3.4,8.5-10.4,8.5c-2.9,0-6-0.8-7.6-1.9L342.4,160.9z"/>
		<path class="st5" d="M370.2,139.2h-9V136h21.9v3.2h-9v26.3h-3.9V139.2z"/>
		<path class="st5" d="M401.8,151.7h-11.5v10.7h12.8v3.2h-16.6V136h16v3.2h-12.2v9.4h11.5L401.8,151.7L401.8,151.7z"/>
		<path class="st5" d="M433,152.6c-0.2-4.1-0.5-9.1-0.4-12.8h-0.1c-1,3.5-2.2,7.2-3.7,11.2l-5.2,14.4h-2.9l-4.8-14.1
			c-1.4-4.2-2.6-8-3.4-11.5h-0.1c-0.1,3.7-0.3,8.7-0.6,13.1l-0.8,12.7h-3.6l2.1-29.6h4.9l5.1,14.3c1.2,3.6,2.2,6.9,3,10h0.1
			c0.7-3,1.8-6.2,3.1-10L431,136h4.9l1.8,29.6H434L433,152.6z"/>
	</g>
	<g>
		<rect x="9" y="122" class="st6" width="431" height="1"/>
	</g>
</g>
<g id="Layer_3">
	<g>
		<g>
			<g class="st7">
				<g>
					<path class="st8" d="M223.9,93.8c2.6-1.7,4.9-4.1,6.2-6.8V73c-0.1,0-1.3,0.1-3.5,0.2s-3.4,0.2-3.6,0.2c-7,0.6-12.1,1.9-15.2,4
						c-3.1,2-4.8,5.3-4.8,9.7c0,3,1,5.5,2.8,7.1c2.2,1.8,4.9,2.6,7.7,2.5C217.2,96.7,220.8,95.9,223.9,93.8z"/>
				</g>
				<g class="st9">
					<path class="st8" d="M227,90.5c-3.1,1.9-6.7,3-10.4,2.9c-3.4,0-6-0.8-7.7-2.5s-2.8-4.1-2.8-7.1c-0.1-2.3,0.5-4.4,1.6-6.4
						c-3.2,2-4.8,5.3-4.8,9.7c0,3,1,5.5,2.8,7.1c2.2,1.8,4.9,2.6,7.7,2.5c3.7,0.1,7.3-0.8,10.4-2.9c1.8-1.2,3.4-2.6,4.8-4.2
						C228.1,90,227.6,90.4,227,90.5z"/>
				</g>
				<g>
					<path class="st8" d="M256.9,39.9h-7.3c-3.2,0-5.8-2.6-5.8-5.8v-3h-3c-1.2,0-2.4-0.4-3.4-1.1l-41.1,2.6
						c-5.3-0.1-12,13.8-12,18.9l-1.7,42.4c0,4.3,8,10.3,13.8,12.1c-1.3-0.7-2.6-1.7-3.8-2.6c-4.2-3.6-6.2-9-6.2-15.9
						c0-7.4,2.5-13.1,7.4-16.5c4.8-3.6,12.4-6,22.2-6.8c1.3-0.1,2.9-0.4,4.3-0.5c1.6-0.1,3.4-0.4,5.4-0.5c2-0.1,3.6-0.4,4.7-0.5V59
						c0-4.3-1.1-7.6-2.9-9.6c-2-2-5-2.9-9.2-2.9l-24-1c-1.4-3.8-2.2-5.8-2.2-6c8.8-3.7,18.1-5.5,27.6-5.5c9.7,0,16.9,2.2,21.2,6.2
						c4.3,4.2,6.7,11,6.7,20.5v42c4.9-1.9,10.1-5.3,10.1-8.5V41.9c0-0.7-0.1-1.6-0.4-2.3C257,39.8,256.9,39.9,256.9,39.9z"/>
				</g>
				<g>
					<path class="st8" d="M233.3,103.1c-1-2.8-1.4-4.2-1.4-4.3c-2.4,2.5-5.2,4.6-8,6.4l10.1-0.6
						C233.6,104.2,233.5,103.7,233.3,103.1z"/>
				</g>
				<g>
					<path class="st8" d="M256.9,40h-7.3c-3.2,0-6-2.6-6-6v-2.9h-2.9c-3.2,0-6-2.6-6-6v-7.3c0-2.5,1.6-4.9,4.1-5.6
						c-0.4,0-0.7-0.1-1-0.1l-41.6,11.2c-4.8,1.4-11.9,5.8-11.9,11l-1,42.7c0,2,1.1,4.1,3.4,6.1c0.8-5.4,3-9.5,7-12.4
						c4.8-3.6,12.4-6,22.2-6.8c1.3-0.1,2.9-0.4,4.3-0.5c1.6-0.1,3.4-0.4,5.4-0.5c2-0.1,3.6-0.4,4.7-0.5v-3.8c0-4.3-1.1-7.6-2.9-9.6
						c-2-2-5-2.9-9.2-2.9l-24-1.1c-1.4-3.8-2.2-5.8-2.2-6c8.8-3.7,18.1-5.5,27.6-5.5c9.7,0,16.9,2.2,21.2,6.2
						c4.3,4.2,6.7,11,6.7,20.5v24.6c4.9-1.9,10.1-5.3,10.1-8.5V39.9C257.3,39.9,257,40,256.9,40z"/>
				</g>
				<g class="st9">
					<path class="st8" d="M256.9,40h-7.3c-3.2,0-5.9-2.6-6-6v-2.9h-2.9c-3.2,0-5.9-2.6-6-6v-6.2L196.6,29c-5.5,0.7-11.8,5.8-11.8,11
						l-1.6,42.4c0,2,1.6,4.2,4,6.4c0.8-5.4,3-9.5,7-12.4c4.8-3.6,12.2-6,21.9-6.8c1.3-0.1,2.9-0.4,4.3-0.5c1.6-0.1,3.4-0.4,5.3-0.5
						c1.9-0.1,3.5-0.4,4.7-0.5v-3.8c0-4.3-1-7.6-2.9-9.6c-2-2-4.9-2.9-9.1-2.9l-23.5-1.2c-1.4-3.8-2.2-5.8-2.2-6
						c8.6-3.7,18-5.5,27.3-5.5c9.6,0,16.5,2.2,21,6.2c4.4,4.2,6.6,11,6.6,20.5v24.9c4.9-1.9,10.1-5.3,10.1-8.5V39.9
						C257.5,39.9,257.1,39.9,256.9,40z"/>
				</g>
				<g>
					<path class="st8" d="M264.5,14.2h-4.1v-4.1c0-2.2-1.8-3.8-4-4h-6.6c-2.2,0-3.8,1.8-4,4v4.1h-4.1c-2.2,0-3.8,1.8-4,4v6.6
						c0,2.2,1.8,3.8,4,4h4.1v4.1c0,2.2,1.8,3.8,4,4h6.6c2.2,0,3.8-1.8,4-4v-4.1h4.1c2.2,0,3.8-1.8,4-4v-6.6
						C268.3,16,266.6,14.4,264.5,14.2z"/>
				</g>
			</g>
			<g>
				<path class="st5" d="M223.9,92.5c2.6-1.7,4.9-4.1,6.2-6.8v-14c-0.1,0-1.3,0.1-3.5,0.2c-2.2,0.1-3.4,0.2-3.6,0.2
					c-7,0.6-12.1,1.9-15.2,4c-3.1,2-4.8,5.3-4.8,9.7c0,3,1,5.5,2.8,7.1c2.2,1.8,4.9,2.6,7.7,2.5C217.2,95.5,220.8,94.4,223.9,92.5z"
					/>
			</g>
			<g class="st9">
				<path d="M227,89.3c-3.1,1.9-6.7,3-10.4,2.9c-3.4,0-6-0.8-7.7-2.5c-1.7-1.7-2.8-4.1-2.8-7.1c-0.1-2.3,0.5-4.4,1.6-6.4
					c-3.2,2-4.8,5.3-4.8,9.7c0,3,1,5.5,2.8,7.1c2.2,1.8,4.9,2.6,7.7,2.5c3.7,0.1,7.3-0.8,10.4-2.9c1.8-1.2,3.4-2.6,4.8-4.2
					C228.1,88.8,227.6,89.1,227,89.3z"/>
			</g>
			<g>
				<path class="st5" d="M256.9,38.6h-7.3c-3.2,0-5.8-2.6-5.8-5.8v-3.1h-3c-1.2,0-2.4-0.4-3.4-1.1l-41.4,2.6
					c-5.2,0-11.9,13.8-11.9,18.9l-1.6,42.4c0,4.3,8,10.3,13.8,12.1c-1.3-0.7-2.6-1.7-3.8-2.6c-4.2-3.6-6.1-9-6.1-15.9
					c0-7.4,2.5-13.1,7.4-16.5c4.8-3.6,12.4-6,22.2-7c1.3-0.1,2.9-0.4,4.3-0.5c1.6-0.1,3.4-0.4,5.4-0.5c2-0.1,3.6-0.4,4.7-0.5v-4
					c0-4.3-1.1-7.6-2.9-9.6c-2-2-5-2.9-9.2-2.9l-24-1.1c-1.4-3.8-2.2-5.8-2.2-6c8.8-3.7,18.1-5.5,27.6-5.5c9.7,0,16.9,2.2,21.2,6.2
					c4.3,4.2,6.7,11,6.7,20.5v42c4.9-1.9,10.1-5.3,10.1-8.5V40.9c0-0.7-0.1-1.6-0.4-2.3C257.1,38.6,257,38.6,256.9,38.6z"/>
			</g>
			<g>
				<path class="st5" d="M233.3,102c-1-2.8-1.4-4.2-1.4-4.3c-2.4,2.5-5.2,4.6-8,6.4l10.1-0.6C233.6,102.8,233.5,102.4,233.3,102z"/>
			</g>
			<g>
				<path class="st5" d="M256.9,38.7h-7.3c-3.2,0-6-2.6-6-6v-3h-2.9c-3.2,0-6-2.6-6-6v-7.2c0-2.5,1.6-4.9,4.1-5.6
					c-0.4,0-0.7-0.1-1-0.1l-41.6,11.2c-4.8,1.4-11.9,5.8-11.9,11l-1,42.7c0,2,1.1,4.1,3.4,6.1c0.8-5.4,3-9.5,7-12.4
					c4.8-3.6,12.4-6,22.2-6.8c1.3-0.1,2.9-0.4,4.3-0.5c1.6-0.1,3.4-0.4,5.4-0.5c2-0.1,3.6-0.4,4.7-0.5v-3.8c0-4.3-1.1-7.6-2.9-9.6
					c-2-2-5-2.9-9.2-2.9l-24-1.1c-1.4-3.8-2.2-5.8-2.2-6c8.8-3.7,18.1-5.5,27.6-5.5c9.7,0,16.9,2.2,21.2,6.2s6.7,11,6.7,20.5v24.8
					c4.9-1.9,10.1-5.3,10.1-8.5V38.7H256.9z"/>
			</g>
			<g class="st9">
				<path class="st5" d="M256.9,38.7h-7.3c-3.2,0-5.9-2.6-6-6v-3h-2.9c-3.2,0-5.9-2.6-6-6v-6.1l-38,10.3c-5.5,0.7-11.8,5.8-11.8,11
					l-1.6,42.4c0,2,1.6,4.2,4,6.4c0.8-5.4,3-9.5,7-12.4c4.8-3.6,12.2-6,21.9-6.8c1.3-0.1,2.9-0.4,4.3-0.5c1.6-0.1,3.4-0.4,5.3-0.5
					c1.9-0.1,3.5-0.4,4.7-0.5v-3.8c0-4.3-1-7.6-2.9-9.6c-1.9-2-4.9-2.9-9.1-2.9l-23.6-1.1c-1.4-3.8-2.2-5.8-2.2-6
					c8.6-3.7,18-5.5,27.3-5.5c9.6,0,16.5,2.2,21,6.2c4.4,4.2,6.6,11,6.6,20.5v24.7c4.9-1.9,10.1-5.3,10.1-8.5V38.6
					C257.5,38.6,257.1,38.7,256.9,38.7z"/>
			</g>
			<g>
				<path class="st10" d="M264.5,12.9h-4.1V9c0-2.2-1.8-3.8-4-4h-6.6c-2.2,0-3.8,1.8-4,4V13h-4.1c-2.2,0-3.8,1.8-4,4v6.6
					c0,2.2,1.8,3.8,4,4h4.1v4.1c0,2.2,1.8,3.8,4,4h6.6c2.2,0,3.8-1.8,4-4v-4.1h4.1c2.2,0,3.8-1.8,4-4V17
					C268.4,14.8,266.6,13,264.5,12.9z"/>
			</g>
		</g>
	</g>
</g>
</svg>
