<?xml version="1.0" encoding="utf-8"?>
<!-- Generator: Adobe Illustrator 22.1.0, SVG Export Plug-In . SVG Version: 6.00 Build 0)  -->
<svg version="1.1" id="Layer_1" xmlns="http://www.w3.org/2000/svg" xmlns:xlink="http://www.w3.org/1999/xlink" x="0px" y="0px"
	 viewBox="0 0 136 108" style="enable-background:new 0 0 136 108;" xml:space="preserve">
<style type="text/css">
	.st0{opacity:0.5;}
	.st1{opacity:0.6;}
	.st2{opacity:0.8;}
	.st3{fill:#231F20;}
	.st4{fill:none;stroke:#FFFFFF;stroke-width:2;stroke-miterlimit:10;}
	.st5{fill:#020202;}
	.st6{opacity:0.1;fill:#020202;enable-background:new    ;}
	.st7{fill:#FFFFFF;}
	.st8{opacity:0.1;enable-background:new    ;}
	.st9{opacity:0.1;fill:#FFFFFF;enable-background:new    ;}
	.st10{fill:#F57E20;}
</style>
<g>
	<g id="Layer_1_1_" class="st0">
		<g class="st1">
			<g>
				<g>
					<g class="st2">
						<rect x="116" y="24.3" class="st3" width="2.1" height="61.7"/>
					</g>
				</g>
			</g>
		</g>
	</g>
	<g id="Layer_2_2_" class="st0">
		<line class="st4" x1="117" y1="24.3" x2="117" y2="86.1"/>
	</g>
	<g id="Layer_1_2_" class="st0">
		<g class="st1">
			<g>
				<g>
					<g class="st2">
						<rect x="115" y="24.3" class="st3" width="2.1" height="61.7"/>
					</g>
				</g>
			</g>
		</g>
	</g>
	<g id="Layer_2_1_">
		<line class="st4" x1="117" y1="23.5" x2="117" y2="85.2"/>
	</g>
	<g id="Layer_2_4_" class="st0">
		<line class="st4" x1="115" y1="24.3" x2="115" y2="86.1"/>
	</g>
	<g id="Layer_2_3_">
		<line class="st4" x1="115" y1="23.5" x2="115" y2="85.2"/>
	</g>
	<g class="st0">
		<g>
			<path class="st5" d="M53.8,91.9c2.9-1.9,5-4.2,6.2-6.8V71.2c-0.1,0-1.3,0.1-3.4,0.2c-2.1,0.1-3.3,0.2-3.5,0.2
				c-6.9,0.6-12,1.9-15.1,3.9c-3.2,2-4.8,5.2-4.8,9.6c0,3.1,0.9,5.4,2.7,7s4.3,2.5,7.6,2.5C47.5,94.7,50.9,93.8,53.8,91.9z"/>
			<path class="st6" d="M57,88.6c-2.9,1.9-6.3,2.8-10.3,2.8c-3.3,0-5.9-0.8-7.6-2.5s-2.7-4-2.7-7c0-2.6,0.5-4.7,1.5-6.3
				c-3.2,2-4.8,5.2-4.8,9.6c0,3.1,0.9,5.4,2.7,7c1.8,1.6,4.3,2.5,7.6,2.5c4,0,7.4-0.9,10.3-2.8c2-1.3,3.5-2.7,4.7-4.2
				C58.1,88,57.6,88.4,57,88.6z"/>
			<path class="st5" d="M86.3,38.5h-7.2c-3.2,0-5.7-2.6-5.7-5.7v-3.1h-3.1c-1.2,0-2.3-0.4-3.3-1.1l-40.7,2.6
				c-5.1,0-11.7,13.6-11.7,18.8L13,91.9c0,4.3,8,10.2,13.6,12c-1.3-0.7-2.6-1.6-3.8-2.6c-4.1-3.6-6.2-8.9-6.2-15.8
				c0-7.4,2.5-12.9,7.3-16.4s12.2-5.9,21.9-6.8c1.3-0.1,2.8-0.4,4.3-0.5s3.3-0.4,5.3-0.5s3.5-0.4,4.6-0.5V57c0-4.3-1.1-7.5-2.9-9.5
				c-2-2-5-2.9-9.2-2.9l-23.7-1.1c-1.4-3.8-2.1-5.7-2.1-5.9c8.4-3.6,17.5-5.4,27.3-5.4c9.6,0,16.7,2.1,21,6.2
				c4.3,4.2,6.6,10.9,6.6,20.3v41.5c4.9-1.9,9.9-5.2,9.9-8.4V40.6c0-0.7-0.1-1.4-0.4-2.2C86.6,38.4,86.4,38.5,86.3,38.5z"/>
			<path class="st5" d="M63.1,101c-0.9-2.7-1.4-4.2-1.4-4.3c-2.7,2.7-5.4,4.8-8,6.3l9.9-0.6C63.5,102.1,63.2,101.6,63.1,101z"/>
		</g>
		<g>
			<path class="st5" d="M86.3,38.6h-7.2c-3.3,0-5.9-2.7-5.9-5.9v-2.9h-2.9c-3.3,0-5.9-2.7-5.9-5.9v-7.2c0-2.6,1.6-4.8,4-5.6
				c-0.4,0-0.7-0.1-0.9-0.1l-41,11c-4.7,1.4-11.7,5.7-11.7,10.9l-1,42.2c0,2,1.1,4,3.3,6c0.8-5.3,3.1-9.4,6.9-12.2
				c4.8-3.5,12.2-5.9,21.9-6.8c1.3-0.1,2.8-0.4,4.3-0.5s3.3-0.4,5.3-0.5s3.5-0.4,4.6-0.5v-3.8c0-4.3-1.1-7.5-2.9-9.5
				c-2-2-5-2.9-9.2-2.9l-23.7-1.1c-1.4-3.8-2.1-5.7-2.1-5.9c8.4-3.6,17.5-5.4,27.3-5.4c9.6,0,16.7,2.1,21,6.2
				c4.3,4.2,6.6,10.9,6.6,20.3V83c4.9-1.9,9.9-5.2,9.9-8.4V38.5C86.8,38.5,86.6,38.6,86.3,38.6z"/>
		</g>
		<path class="st6" d="M86.3,38.6h-7.2c-3.2,0-5.9-2.7-5.9-5.9v-2.9h-2.8c-3.2,0-5.9-2.7-5.9-5.9v-6.1L27,27.8
			c-5.4,0.7-11.6,5.7-11.6,10.9l-1.5,42c0,2,1.6,4.2,3.9,6.3c0.8-5.3,3.1-9.4,6.9-12.2c4.8-3.5,12.1-5.9,21.7-6.8
			c1.3-0.1,2.8-0.4,4.3-0.5s3.3-0.4,5.2-0.5s3.4-0.4,4.6-0.5v-3.8c0-4.3-0.9-7.5-2.9-9.5s-4.9-2.9-9-2.9l-23.3-1.1
			c-1.4-3.8-2.1-5.7-2.1-5.9c8.3-3.6,17.4-5.4,27-5.4c9.5,0,16.4,2.1,20.8,6.2c4.3,4.2,6.5,10.9,6.5,20.3v24.5
			c4.9-1.9,9.9-5.2,9.9-8.4v-42C86.8,38.5,86.6,38.6,86.3,38.6z"/>
		<g>
			<path class="st5" d="M93.8,13.2h-4v-4c0-2.1-1.8-3.9-3.9-3.9h-6.5c-2.1,0-3.9,1.8-3.9,3.9v4h-4c-2.1,0-3.9,1.8-3.9,3.9v6.5
				c0,2.1,1.8,3.9,3.9,3.9h4v4c0,2.1,1.8,3.9,3.9,3.9H86c2.1,0,3.9-1.8,3.9-3.9v-4h4c2.1,0,3.9-1.8,3.9-3.9V17
				C97.7,14.9,96,13.2,93.8,13.2z"/>
		</g>
	</g>
	<g>
		<g>
			<path class="st7" d="M53.8,90.6c2.9-1.9,5-4.2,6.2-6.8V70c-0.1,0-1.3,0.1-3.4,0.2c-2.1,0.1-3.3,0.2-3.5,0.2
				c-6.9,0.6-12,1.9-15.1,3.9c-3.1,2-4.8,5.2-4.8,9.6c0,3.1,0.9,5.4,2.7,7s4.3,2.5,7.6,2.5C47.5,93.4,50.9,92.5,53.8,90.6z"/>
			<path class="st8" d="M57,87.4c-2.9,1.9-6.3,2.8-10.3,2.8c-3.3,0-5.9-0.8-7.6-2.5s-2.7-4-2.7-7c0-2.6,0.5-4.7,1.5-6.3
				c-3.2,2-4.8,5.2-4.8,9.6c0,3.1,0.9,5.4,2.7,7c1.8,1.6,4.3,2.5,7.6,2.5c4,0,7.4-0.9,10.3-2.8c2-1.3,3.5-2.7,4.7-4.2
				C58.1,86.7,57.6,87.1,57,87.4z"/>
			<path class="st7" d="M86.3,37.2h-7.2c-3.2,0-5.7-2.6-5.7-5.7v-3.1h-3.1c-1.2,0-2.3-0.4-3.3-1.1l-40.7,2.6
				c-5.2,0-11.7,13.6-11.7,18.8l-1.6,42c0,4.3,8,10.2,13.6,12c-1.3-0.7-2.6-1.6-3.8-2.6c-4.1-3.6-6.1-8.9-6.1-15.8
				c0-7.4,2.5-12.9,7.3-16.4S36.2,62,46,61c1.3-0.1,2.8-0.4,4.3-0.5s3.3-0.4,5.3-0.5s3.5-0.4,4.6-0.5v-3.8c0-4.3-1.1-7.5-2.9-9.5
				c-2-2-5-2.9-9.2-2.9l-23.7-1.1c-1.4-3.8-2.1-5.7-2.1-5.9c8.4-3.6,17.5-5.4,27.3-5.4c9.6,0,16.7,2.1,21,6.2
				c4.3,4.2,6.6,10.9,6.6,20.3v41.5c4.9-1.9,9.9-5.2,9.9-8.4v-51c0-0.7-0.1-1.4-0.4-2.2C86.6,37.2,86.4,37.2,86.3,37.2z"/>
			<path class="st7" d="M63.1,99.9c-0.9-2.7-1.4-4.2-1.4-4.3c-2.7,2.7-5.4,4.8-8,6.3l9.9-0.6C63.5,100.8,63.2,100.3,63.1,99.9z"/>
		</g>
		<g>
			<path class="st7" d="M86.3,37.3h-7.2c-3.3,0-5.9-2.7-5.9-5.9v-2.9h-2.9c-3.3,0-5.9-2.7-5.9-5.9v-7.2c0-2.6,1.6-4.8,4-5.6
				c-0.4,0-0.7-0.1-0.9-0.1l-41,11c-4.7,1.4-11.7,5.7-11.7,10.9l-1,42.2c0,2,1.1,4,3.3,6c0.8-5.3,3.1-9.4,6.9-12.2
				c4.8-3.5,12.2-5.9,21.9-6.8c1.3-0.1,2.8-0.4,4.3-0.5s3.3-0.4,5.3-0.5s3.5-0.4,4.6-0.5v-3.8c0-4.3-1.1-7.5-2.9-9.5
				c-2-2-5-2.9-9.2-2.9L24.3,42c-1.4-3.8-2.1-5.7-2.1-5.9c8.4-3.6,17.5-5.4,27.3-5.4c9.6,0,16.7,2.1,21,6.2
				c4.3,4.2,6.6,10.9,6.6,20.3v24.5c4.9-1.9,9.9-5.2,9.9-8.4v-36C86.8,37.3,86.6,37.3,86.3,37.3z"/>
		</g>
		<path class="st9" d="M86.3,37.3h-7.2c-3.2,0-5.9-2.7-5.9-5.9v-2.9h-2.8c-3.2,0-5.9-2.7-5.9-5.9v-6.1L27,26.7
			c-5.4,0.7-11.6,5.7-11.6,10.9l-1.6,41.9c0,2,1.6,4.2,3.9,6.3c0.8-5.3,3.1-9.4,6.9-12.2c4.8-3.5,12.1-5.9,21.7-6.8
			c1.3-0.1,2.8-0.4,4.3-0.5s3.3-0.4,5.2-0.5s3.4-0.4,4.6-0.5v-3.8c0-4.3-0.9-7.5-2.9-9.5s-4.9-2.9-9-2.9L25.2,48
			c-1.4-3.8-2.1-5.7-2.1-5.9c8.3-3.6,17.4-5.4,27-5.4c9.5,0,16.4,2.1,20.8,6.2c4.3,4.2,6.5,10.9,6.5,20.3v24.5
			c4.9-1.9,9.9-5.2,9.9-8.4V37.2C86.8,37.3,86.6,37.3,86.3,37.3z"/>
		<g>
			<path class="st10" d="M93.8,11.9h-4V8c0-2.1-1.8-3.9-3.9-3.9h-6.5c-2.1,0-3.9,1.8-3.9,3.9v4h-4c-2.1,0-3.9,1.8-3.9,3.9v6.5
				c0,2.1,1.8,3.9,3.9,3.9h4v4c0,2.1,1.8,3.9,3.9,3.9H86c2.1,0,3.9-1.8,3.9-3.9v-4h4c2.1,0,3.9-1.8,3.9-3.9v-6.5
				C97.7,13.6,96,11.9,93.8,11.9z"/>
		</g>
	</g>
</g>
</svg>
