<?xml version="1.0" encoding="utf-8"?>
<!-- Generator: Adobe Illustrator 16.0.0, SVG Export Plug-In . SVG Version: 6.00 Build 0)  -->
<!DOCTYPE svg PUBLIC "-//W3C//DTD SVG 1.1//EN" "http://www.w3.org/Graphics/SVG/1.1/DTD/svg11.dtd">
<svg version="1.1" id="Layer_1" xmlns="http://www.w3.org/2000/svg" xmlns:xlink="http://www.w3.org/1999/xlink" x="0px" y="0px"
	 width="370.439px" height="87.627px" viewBox="0 0 370.439 87.627" enable-background="new 0 0 370.439 87.627"
	 xml:space="preserve">
<g id="Layer_1_1_" opacity="0.5">
	<g opacity="0.6">
		<defs>
			<filter id="Adobe_OpacityMaskFilter" filterUnits="userSpaceOnUse" x="91.256" y="9.859" width="220.196" height="70.738">
				<feColorMatrix  type="matrix" values="1 0 0 0 0  0 1 0 0 0  0 0 1 0 0  0 0 0 1 0"/>
			</filter>
		</defs>
		<mask maskUnits="userSpaceOnUse" x="91.256" y="9.859" width="220.196" height="70.738" id="SVGID_1_">
		</mask>
		<g mask="url(#SVGID_1_)">
			<g>
				<g>
					<g>
						<g>
							<g>
								<g>
									<path fill="#231F20" d="M122.82,36.751h29.101V10.359h10.182v67.464H151.92V46.319h-29.1v31.504h-10.181V10.359h10.181
										V36.751z"/>
									<path fill="#231F20" d="M162.602,78.323H151.42V46.819h-28.1v31.504h-11.181V9.859h11.181v26.392h28.101V9.859h11.182
										L162.602,78.323L162.602,78.323z M152.42,77.323h9.182V10.859h-9.182v26.392h-30.1V10.859h-9.181v66.464h9.181V45.819
										h30.101L152.42,77.323L152.42,77.323z"/>
								</g>
							</g>
						</g>
						<g>
							<g>
								<g>
									<polygon fill="#231F20" points="187.181,16.47 181.07,16.47 181.07,10.359 175.019,10.359 175.019,16.47 168.909,16.47 
										168.909,22.52 175.019,22.52 175.019,28.63 181.07,28.63 181.07,22.52 187.181,22.52 									"/>
									<path fill="#231F20" d="M181.57,29.13h-7.051v-6.11h-6.11v-7.05h6.11V9.859h7.051v6.111h6.111v7.05h-6.111V29.13z
										 M175.519,28.13h5.051v-6.11h6.111v-5.05h-6.111v-6.111h-5.051v6.111h-6.11v5.05h6.11V28.13L175.519,28.13z"/>
								</g>
							</g>
						</g>
						<g>
							<g>
								<g>
									<path fill="#231F20" d="M183.34,33.376v44.447h-10.592V33.376H183.34z"/>
									<path fill="#231F20" d="M183.84,78.323h-11.592V32.876h11.592V78.323z M173.249,77.323h9.592V33.876h-9.592V77.323z"/>
								</g>
							</g>
						</g>
						<g>
							<g>
								<g>
									<path fill="#231F20" d="M193.34,78.104l13.506-66.224l22.021,47.111l22.812-47.111l12.132,66.224h-9.931l-6.192-38.727
										L228.7,76.929l-18.447-37.592l-6.899,38.768H193.34L193.34,78.104z"/>
									<path fill="#231F20" d="M264.411,78.604h-10.957l-6.016-37.624L228.694,78.05l-18.216-37.121l-6.705,37.675h-11.044
										l13.93-68.306l22.217,47.529l23.021-47.541L264.411,78.604z M254.307,77.604h8.904l-11.75-64.129l-22.604,46.681
										l-21.825-46.693l-13.08,64.142h8.982l7.093-39.86l18.679,38.063l19.231-38.032L254.307,77.604z"/>
								</g>
							</g>
						</g>
						<g>
							<g>
								<g>
									<path fill="#231F20" d="M309.29,23.507l-7.852,4.654c-1.47-2.547-2.867-4.21-4.197-4.987
										c-1.386-0.886-3.174-1.329-5.359-1.329c-2.688,0-4.918,0.763-6.688,2.285c-1.774,1.496-2.661,3.38-2.661,5.651
										c0,3.131,2.324,5.652,6.979,7.562l6.4,2.618c5.207,2.104,9.016,4.673,11.424,7.708c2.41,3.034,3.615,6.751,3.615,11.157
										c0,5.897-1.966,10.774-5.897,14.624c-3.964,3.881-8.878,5.818-14.751,5.818c-5.569,0-10.168-1.648-13.797-4.946
										c-3.572-3.296-5.805-7.937-6.689-13.919l9.809-2.159c0.441,3.769,1.219,6.37,2.328,7.812
										c1.992,2.771,4.9,4.154,8.723,4.154c3.02,0,5.525-1.01,7.521-3.033c1.996-2.021,2.991-4.585,2.991-7.688
										c0-1.245-0.172-2.391-0.518-3.428c-0.349-1.039-0.889-1.994-1.621-2.867c-0.734-0.87-1.684-1.688-2.848-2.451
										c-1.162-0.762-2.548-1.49-4.152-2.18l-6.192-2.576c-8.78-3.713-13.169-9.143-13.169-16.289c0-4.82,1.84-8.851,5.523-12.091
										c3.685-3.27,8.27-4.903,13.754-4.903C299.36,12.703,305.135,16.305,309.29,23.507z"/>
									<path fill="#231F20" d="M290.301,79.769c-5.672,0-10.428-1.707-14.133-5.076c-3.646-3.361-5.949-8.145-6.849-14.215
										l-0.067-0.461l10.803-2.38l0.064,0.55c0.428,3.656,1.178,6.201,2.228,7.563c1.92,2.669,4.641,3.96,8.325,3.96
										c2.867,0,5.279-0.971,7.166-2.884c1.89-1.914,2.848-4.382,2.848-7.337c0-1.189-0.165-2.289-0.492-3.271
										c-0.324-0.973-0.84-1.882-1.529-2.702c-0.701-0.834-1.623-1.625-2.736-2.354c-1.139-0.746-2.51-1.465-4.076-2.14
										l-6.188-2.573c-8.943-3.782-13.478-9.417-13.478-16.75c0-4.949,1.915-9.143,5.692-12.466
										c3.76-3.335,8.498-5.027,14.086-5.027c7.556,0,13.529,3.719,17.76,11.052l0.246,0.428l-8.712,5.164l-0.253-0.438
										c-1.42-2.461-2.771-4.078-4.016-4.805c-1.314-0.84-3.027-1.261-5.109-1.261c-2.551,0-4.69,0.728-6.361,2.165
										c-1.676,1.413-2.488,3.136-2.488,5.271c0,2.895,2.244,5.283,6.67,7.1l6.399,2.618c5.263,2.127,9.175,4.771,11.627,7.858
										c2.472,3.11,3.724,6.97,3.724,11.469c0,6.013-2.035,11.054-6.049,14.98C301.361,77.763,296.281,79.769,290.301,79.769z
										 M270.381,60.791c0.91,5.62,3.082,10.047,6.463,13.164c3.513,3.192,8.042,4.813,13.457,4.813
										c5.709,0,10.555-1.91,14.4-5.677c3.814-3.731,5.748-8.532,5.748-14.267c0-4.268-1.18-7.917-3.507-10.846
										c-2.343-2.951-6.118-5.494-11.221-7.556l-6.402-2.619c-4.838-1.985-7.29-4.686-7.29-8.025c0-2.415,0.955-4.444,2.84-6.033
										c1.854-1.593,4.215-2.403,7.012-2.403c2.273,0,4.168,0.474,5.63,1.408c1.321,0.771,2.671,2.321,4.104,4.722l6.991-4.145
										c-4.021-6.719-9.617-10.126-16.637-10.126c-5.342,0-9.856,1.607-13.43,4.777c-3.555,3.126-5.354,7.068-5.354,11.717
										c0,6.894,4.328,12.219,12.862,15.829l6.191,2.574c1.625,0.699,3.049,1.446,4.234,2.224c1.195,0.782,2.189,1.64,2.954,2.548
										c0.771,0.918,1.348,1.938,1.714,3.029c0.359,1.084,0.543,2.289,0.543,3.587c0,3.228-1.055,5.932-3.137,8.038
										c-2.08,2.111-4.73,3.183-7.877,3.183c-3.975,0-7.045-1.468-9.129-4.362c-1.11-1.443-1.885-3.902-2.351-7.496
										L270.381,60.791z"/>
								</g>
							</g>
						</g>
					</g>
				</g>
				<g opacity="0.8">
					<line fill="#231F20" x1="92.256" y1="10.359" x2="92.256" y2="80.597"/>
					<rect x="91.256" y="10.359" fill="#231F20" width="2" height="70.238"/>
				</g>
			</g>
		</g>
	</g>
	<g opacity="0.6">
		<defs>
			<filter id="Adobe_OpacityMaskFilter_1_" filterUnits="userSpaceOnUse" x="8.957" y="11.657" width="74.352" height="73.812">
				<feColorMatrix  type="matrix" values="1 0 0 0 0  0 1 0 0 0  0 0 1 0 0  0 0 0 1 0"/>
			</filter>
		</defs>
		<mask maskUnits="userSpaceOnUse" x="8.957" y="11.657" width="74.352" height="73.812" id="SVGID_2_">
		</mask>
		<g mask="url(#SVGID_2_)">
			<g>
				<g>
					<g>
						<path id="SVGID_11_" fill="#231F20" d="M49.671,11.657c-1.435,0.051-2.019,1.281-2.647,2.333
							c-1.805,3.019-3.541,6.03-5.33,8.973c-2.159,3.554-1.986,6.754,0.205,9.721c3.958,5.363,7.822,10.627,11.6,15.79
							c6.55,8.949,12.856,17.599,18.978,25.938c0.415,0.564,2.571,3.631,2.343,3.288c-0.062-0.406-0.411-1.431-0.55-1.953
							c-0.172-0.539-0.327-1.083-0.519-1.616c-3.629-10.045-7.412-20.514-11.364-31.434c-3.342-9.236-6.806-18.812-10.425-28.73
							c-0.388-1.062-0.75-2.308-2.202-2.308C49.732,11.657,49.702,11.657,49.671,11.657"/>
					</g>
					<g>
						<defs>
							<path id="SVGID_5_" d="M49.671,11.657c-1.435,0.051-2.019,1.281-2.647,2.333c-1.805,3.019-3.541,6.03-5.33,8.973
								c-2.159,3.554-1.986,6.754,0.205,9.721c3.958,5.363,7.822,10.627,11.6,15.79c6.55,8.949,12.856,17.599,18.978,25.938
								c0.415,0.564,2.571,3.631,2.343,3.288c-0.062-0.406-0.411-1.431-0.55-1.953c-0.172-0.539-0.327-1.083-0.519-1.616
								c-3.629-10.045-7.412-20.514-11.364-31.434c-3.342-9.236-6.806-18.812-10.425-28.73c-0.388-1.062-0.75-2.308-2.202-2.308
								C49.732,11.657,49.702,11.657,49.671,11.657"/>
						</defs>
						<clipPath id="SVGID_6_">
							<use xlink:href="#SVGID_5_"  overflow="visible"/>
						</clipPath>
						<g clip-path="url(#SVGID_6_)">
							<polygon fill="#231F20" points="39.536,11.657 83.309,11.657 75.048,78.042 31.275,78.042 							"/>
						</g>
					</g>
				</g>
				<g>
					<g>
						<path id="SVGID_13_" fill="#231F20" d="M43.304,44.522c-1.238,1.115-2.339,2.5-3.773,3.721
							c-3.129,2.654-2.105,8.102,2.2,10.574c7.916,4.55,14.038,8.484,19.091,11.492c5.128,3.053,13.459,7.908,13.459,7.908
							s-0.225-0.291-0.67-0.938c-0.165-0.221-0.331-0.44-0.496-0.661c-2.489-3.289-5.268-6.921-8.354-11.056
							c-4.101-5.498-8.8-11.941-14.37-19.41c-1.305-1.75-2.908-2.696-4.448-2.696C45.014,43.458,44.108,43.803,43.304,44.522"/>
					</g>
					<g>
						<defs>
							<path id="SVGID_7_" d="M43.304,44.522c-1.238,1.115-2.339,2.5-3.773,3.721c-3.129,2.654-2.105,8.102,2.2,10.574
								c7.916,4.55,14.038,8.484,19.091,11.492c5.128,3.053,13.459,7.908,13.459,7.908s-0.225-0.291-0.67-0.938
								c-0.165-0.221-0.331-0.44-0.496-0.661c-2.489-3.289-5.268-6.921-8.354-11.056c-4.101-5.498-8.8-11.941-14.37-19.41
								c-1.305-1.75-2.908-2.696-4.448-2.696C45.014,43.458,44.108,43.803,43.304,44.522"/>
						</defs>
						<clipPath id="SVGID_8_">
							<use xlink:href="#SVGID_7_"  overflow="visible"/>
						</clipPath>
						<g clip-path="url(#SVGID_8_)">
							<polygon fill="#231F20" points="33.364,44.049 73.636,36.208 77.321,77.628 37.047,85.469 							"/>
						</g>
					</g>
				</g>
				<g>
					<path fill="#231F20" d="M9.702,76.823c0.115-0.19,3.933-6.521,5.901-9.776c6.572-10.876,13.145-21.753,19.721-32.625
						c0.322-0.53,0.644-1.072,1.038-1.552c0.948-1.157,2.595-1.614,3.566-0.749c1.653,1.473,3.19,3.156,3.552,5.505
						c0.339,2.184-0.573,4.177-2.226,5.958c-7.632,8.228-15.226,16.49-22.854,24.722c-2.459,2.652-4.976,5.256-7.472,7.871
						c-0.289,0.303-1.971,1.979-1.971,1.979S9.356,77.435,9.702,76.823"/>
				</g>
			</g>
		</g>
	</g>
</g>
<g id="Layer_2_2_" opacity="0.5">
	<g>
		<g>
			<g>
				<g>
					<path fill="#231F20" d="M122.82,36.751h29.101V10.359h10.182v67.464H151.92V46.319h-29.1v31.504h-10.181V10.359h10.181V36.751z
						"/>
				</g>
			</g>
			<g>
				<g>
					<polygon fill="#231F20" points="187.181,16.47 181.07,16.47 181.07,10.359 175.019,10.359 175.019,16.47 168.909,16.47 
						168.909,22.52 175.019,22.52 175.019,28.63 181.07,28.63 181.07,22.52 187.181,22.52 					"/>
				</g>
			</g>
			<g>
				<g>
					<path fill="#231F20" d="M183.34,33.376v44.447h-10.592V33.376H183.34z"/>
				</g>
			</g>
			<g>
				<g>
					<path fill="#231F20" d="M193.34,78.104l13.506-66.224l22.021,47.111l22.812-47.111l12.132,66.224h-9.931l-6.192-38.727
						L228.7,76.929l-18.447-37.592l-6.899,38.768H193.34L193.34,78.104z"/>
				</g>
			</g>
			<g>
				<g>
					<path fill="#231F20" d="M309.29,23.507l-7.852,4.654c-1.47-2.547-2.867-4.21-4.197-4.987c-1.386-0.886-3.174-1.329-5.359-1.329
						c-2.688,0-4.918,0.763-6.688,2.285c-1.774,1.496-2.661,3.38-2.661,5.651c0,3.131,2.324,5.652,6.979,7.562l6.4,2.618
						c5.207,2.104,9.016,4.673,11.424,7.708c2.41,3.034,3.615,6.751,3.615,11.157c0,5.897-1.966,10.774-5.897,14.624
						c-3.964,3.881-8.878,5.818-14.751,5.818c-5.569,0-10.168-1.648-13.797-4.946c-3.572-3.296-5.805-7.937-6.689-13.919
						l9.809-2.159c0.441,3.769,1.219,6.37,2.328,7.812c1.992,2.771,4.9,4.154,8.723,4.154c3.02,0,5.525-1.01,7.521-3.033
						c1.996-2.021,2.991-4.585,2.991-7.688c0-1.245-0.172-2.391-0.518-3.428c-0.349-1.039-0.889-1.994-1.621-2.867
						c-0.734-0.87-1.684-1.688-2.848-2.451c-1.162-0.762-2.548-1.49-4.152-2.18l-6.192-2.576
						c-8.78-3.713-13.169-9.143-13.169-16.289c0-4.82,1.84-8.851,5.523-12.091c3.685-3.27,8.27-4.903,13.754-4.903
						C299.36,12.703,305.135,16.305,309.29,23.507z"/>
				</g>
			</g>
		</g>
	</g>
	<line fill="#231F20" stroke="#FFFFFF" stroke-width="2" stroke-miterlimit="10" x1="92.256" y1="10.359" x2="92.256" y2="80.597"/>
	<g>
		<g>
			<g>
				<path id="SVGID_4_" fill="#231F20" d="M49.671,11.657c-1.435,0.051-2.019,1.281-2.647,2.333c-1.805,3.019-3.541,6.03-5.33,8.973
					c-2.159,3.554-1.986,6.754,0.205,9.721c3.958,5.363,7.822,10.627,11.6,15.79c6.55,8.949,12.856,17.599,18.978,25.938
					c0.415,0.564,2.571,3.631,2.343,3.288c-0.062-0.406-0.411-1.431-0.55-1.953c-0.172-0.539-0.327-1.083-0.519-1.616
					c-3.629-10.045-7.412-20.514-11.364-31.434c-3.342-9.236-6.806-18.812-10.425-28.73c-0.388-1.062-0.75-2.308-2.202-2.308
					C49.732,11.657,49.702,11.657,49.671,11.657"/>
			</g>
			<g>
				<defs>
					<path id="SVGID_9_" d="M49.671,11.657c-1.435,0.051-2.019,1.281-2.647,2.333c-1.805,3.019-3.541,6.03-5.33,8.973
						c-2.159,3.554-1.986,6.754,0.205,9.721c3.958,5.363,7.822,10.627,11.6,15.79c6.55,8.949,12.856,17.599,18.978,25.938
						c0.415,0.564,2.571,3.631,2.343,3.288c-0.062-0.406-0.411-1.431-0.55-1.953c-0.172-0.539-0.327-1.083-0.519-1.616
						c-3.629-10.045-7.412-20.514-11.364-31.434c-3.342-9.236-6.806-18.812-10.425-28.73c-0.388-1.062-0.75-2.308-2.202-2.308
						C49.732,11.657,49.702,11.657,49.671,11.657"/>
				</defs>
				<use xlink:href="#SVGID_9_"  overflow="visible" fill="#231F20"/>
				<clipPath id="SVGID_10_">
					<use xlink:href="#SVGID_9_"  overflow="visible"/>
				</clipPath>
				<polygon clip-path="url(#SVGID_10_)" fill="#231F20" points="39.536,11.657 83.309,11.657 75.048,78.042 31.275,78.042 				"/>
			</g>
		</g>
		<g>
			<g>
				<path id="SVGID_3_" fill="#231F20" d="M43.304,44.522c-1.238,1.115-2.339,2.5-3.773,3.721c-3.129,2.654-2.105,8.102,2.2,10.574
					c7.916,4.55,14.038,8.484,19.091,11.492c5.128,3.053,13.459,7.908,13.459,7.908s-0.225-0.291-0.67-0.938
					c-0.165-0.221-0.331-0.44-0.496-0.661c-2.489-3.289-5.268-6.921-8.354-11.056c-4.101-5.498-8.8-11.941-14.37-19.41
					c-1.305-1.75-2.908-2.696-4.448-2.696C45.014,43.458,44.108,43.803,43.304,44.522"/>
			</g>
			<g>
				<defs>
					<path id="SVGID_12_" d="M43.304,44.522c-1.238,1.115-2.339,2.5-3.773,3.721c-3.129,2.654-2.105,8.102,2.2,10.574
						c7.916,4.55,14.038,8.484,19.091,11.492c5.128,3.053,13.459,7.908,13.459,7.908s-0.225-0.291-0.67-0.938
						c-0.165-0.221-0.331-0.44-0.496-0.661c-2.489-3.289-5.268-6.921-8.354-11.056c-4.101-5.498-8.8-11.941-14.37-19.41
						c-1.305-1.75-2.908-2.696-4.448-2.696C45.014,43.458,44.108,43.803,43.304,44.522"/>
				</defs>
				<use xlink:href="#SVGID_12_"  overflow="visible" fill="#231F20"/>
				<clipPath id="SVGID_14_">
					<use xlink:href="#SVGID_12_"  overflow="visible"/>
				</clipPath>
				<polygon clip-path="url(#SVGID_14_)" fill="#231F20" points="33.364,44.049 73.636,36.208 77.321,77.628 37.047,85.469 				"/>
			</g>
		</g>
		<path fill="#231F20" d="M9.702,76.823c0.115-0.19,3.933-6.521,5.901-9.776c6.572-10.876,13.145-21.753,19.721-32.625
			c0.322-0.53,0.644-1.072,1.038-1.552c0.948-1.157,2.595-1.614,3.566-0.749c1.653,1.473,3.19,3.156,3.552,5.505
			c0.339,2.184-0.573,4.177-2.226,5.958c-7.632,8.228-15.226,16.49-22.854,24.722c-2.459,2.652-4.976,5.256-7.472,7.871
			c-0.289,0.303-1.971,1.979-1.971,1.979S9.356,77.435,9.702,76.823"/>
	</g>
</g>
<path opacity="0.5" fill="#231F20" d="M342.539,65.702l20.735-20.736l-20.735-20.735c-0.415-0.416-0.724-0.892-0.968-1.39
	l-2.573,2.607c-1.407,1.393-1.407,3.669,0,5.077l14.436,14.435l-14.436,14.436c-1.407,1.393-1.407,3.669,0,5.076l2.586,2.586
	C341.827,66.571,342.13,66.106,342.539,65.702z"/>
<g id="Layer_2_1_">
	<g>
		<g>
			<g>
				<g>
					<path fill="#FFFFFF" d="M122.82,35.751h29.101V9.359h10.182v67.464H151.92V45.319h-29.1v31.504h-10.181V9.359h10.181V35.751z"
						/>
				</g>
			</g>
			<g>
				<g>
					<polygon fill="#FFFFFF" points="187.181,15.47 181.07,15.47 181.07,9.359 175.019,9.359 175.019,15.47 168.909,15.47 
						168.909,21.52 175.019,21.52 175.019,27.63 181.07,27.63 181.07,21.52 187.181,21.52 					"/>
				</g>
			</g>
			<g>
				<g>
					<path fill="#FFFFFF" d="M183.34,32.376v44.447h-10.592V32.376H183.34z"/>
				</g>
			</g>
			<g>
				<g>
					<path fill="#FFFFFF" d="M193.34,77.104l13.506-66.224l22.021,47.111l22.812-47.111l12.132,66.224h-9.931l-6.192-38.727
						L228.7,75.929l-18.447-37.592l-6.899,38.768H193.34L193.34,77.104z"/>
				</g>
			</g>
			<g>
				<g>
					<path fill="#FFFFFF" d="M309.29,22.507l-7.852,4.654c-1.47-2.547-2.867-4.21-4.197-4.987c-1.386-0.886-3.174-1.329-5.359-1.329
						c-2.688,0-4.918,0.763-6.688,2.285c-1.774,1.496-2.661,3.38-2.661,5.651c0,3.131,2.324,5.652,6.979,7.562l6.4,2.618
						c5.207,2.104,9.016,4.673,11.424,7.708c2.41,3.034,3.615,6.751,3.615,11.157c0,5.897-1.966,10.774-5.897,14.624
						c-3.964,3.881-8.878,5.818-14.751,5.818c-5.569,0-10.168-1.648-13.797-4.946c-3.572-3.296-5.805-7.937-6.689-13.919
						l9.809-2.159c0.441,3.769,1.219,6.37,2.328,7.812c1.992,2.771,4.9,4.154,8.723,4.154c3.02,0,5.525-1.01,7.521-3.033
						c1.996-2.021,2.991-4.585,2.991-7.688c0-1.245-0.172-2.391-0.518-3.428c-0.349-1.039-0.889-1.994-1.621-2.867
						c-0.734-0.87-1.684-1.688-2.848-2.451c-1.162-0.762-2.548-1.49-4.152-2.18l-6.192-2.576
						c-8.78-3.713-13.169-9.143-13.169-16.289c0-4.82,1.84-8.851,5.523-12.091c3.685-3.27,8.27-4.903,13.754-4.903
						C299.36,11.703,305.135,15.305,309.29,22.507z"/>
				</g>
			</g>
		</g>
	</g>
	<line fill="none" stroke="#FFFFFF" stroke-width="2" stroke-miterlimit="10" x1="92.256" y1="9.359" x2="92.256" y2="79.597"/>
	<g>
		<g>
			<g>
				<path id="SVGID_21_" fill="#FFFFFF" d="M49.671,10.657c-1.435,0.051-2.019,1.281-2.647,2.333
					c-1.805,3.019-3.541,6.03-5.33,8.973c-2.159,3.554-1.986,6.754,0.205,9.721c3.958,5.363,7.822,10.627,11.6,15.79
					c6.55,8.949,12.856,17.599,18.978,25.938c0.415,0.564,2.571,3.631,2.343,3.288c-0.062-0.406-0.411-1.431-0.55-1.953
					c-0.172-0.539-0.327-1.083-0.519-1.616c-3.629-10.045-7.412-20.514-11.364-31.434c-3.342-9.236-6.806-18.812-10.425-28.73
					c-0.388-1.062-0.75-2.308-2.202-2.308C49.732,10.657,49.702,10.657,49.671,10.657"/>
			</g>
			<g>
				<defs>
					<path id="SVGID_15_" d="M49.671,10.657c-1.435,0.051-2.019,1.281-2.647,2.333c-1.805,3.019-3.541,6.03-5.33,8.973
						c-2.159,3.554-1.986,6.754,0.205,9.721c3.958,5.363,7.822,10.627,11.6,15.79c6.55,8.949,12.856,17.599,18.978,25.938
						c0.415,0.564,2.571,3.631,2.343,3.288c-0.062-0.406-0.411-1.431-0.55-1.953c-0.172-0.539-0.327-1.083-0.519-1.616
						c-3.629-10.045-7.412-20.514-11.364-31.434c-3.342-9.236-6.806-18.812-10.425-28.73c-0.388-1.062-0.75-2.308-2.202-2.308
						C49.732,10.657,49.702,10.657,49.671,10.657"/>
				</defs>
				<clipPath id="SVGID_16_">
					<use xlink:href="#SVGID_15_"  overflow="visible"/>
				</clipPath>
				<polygon clip-path="url(#SVGID_16_)" fill="#FFFFFF" points="39.536,10.657 83.309,10.657 75.048,77.042 31.275,77.042 				"/>
			</g>
		</g>
		<g>
			<g>
				<path id="SVGID_23_" fill="#FFFFFF" d="M43.304,43.523c-1.238,1.115-2.339,2.5-3.773,3.72c-3.129,2.654-2.105,8.102,2.2,10.574
					c7.916,4.55,14.038,8.484,19.091,11.492c5.128,3.053,13.459,7.908,13.459,7.908s-0.225-0.291-0.67-0.938
					c-0.165-0.221-0.331-0.44-0.496-0.661c-2.489-3.289-5.268-6.921-8.354-11.056c-4.101-5.498-8.8-11.941-14.37-19.41
					c-1.305-1.75-2.908-2.696-4.448-2.696C45.014,42.458,44.108,42.803,43.304,43.523"/>
			</g>
			<g>
				<defs>
					<path id="SVGID_17_" d="M43.304,43.523c-1.238,1.115-2.339,2.5-3.773,3.72c-3.129,2.654-2.105,8.102,2.2,10.574
						c7.916,4.55,14.038,8.484,19.091,11.492c5.128,3.053,13.459,7.908,13.459,7.908s-0.225-0.291-0.67-0.938
						c-0.165-0.221-0.331-0.44-0.496-0.661c-2.489-3.289-5.268-6.921-8.354-11.056c-4.101-5.498-8.8-11.941-14.37-19.41
						c-1.305-1.75-2.908-2.696-4.448-2.696C45.014,42.458,44.108,42.803,43.304,43.523"/>
				</defs>
				<clipPath id="SVGID_18_">
					<use xlink:href="#SVGID_17_"  overflow="visible"/>
				</clipPath>
				<polygon clip-path="url(#SVGID_18_)" fill="#FFFFFF" points="33.364,43.049 73.636,35.208 77.321,76.628 37.047,84.469 				"/>
			</g>
		</g>
		<path fill="#FFFFFF" d="M9.702,75.823c0.115-0.19,3.933-6.521,5.901-9.776c6.572-10.876,13.145-21.753,19.721-32.625
			c0.322-0.53,0.644-1.072,1.038-1.552c0.948-1.157,2.595-1.614,3.566-0.749c1.653,1.473,3.19,3.156,3.552,5.505
			c0.339,2.184-0.573,4.177-2.226,5.958c-7.632,8.228-15.226,16.49-22.854,24.722c-2.459,2.652-4.976,5.256-7.472,7.871
			c-0.289,0.303-1.971,1.979-1.971,1.979S9.356,76.435,9.702,75.823"/>
	</g>
</g>
<path fill="#FFFFFF" d="M342.539,64.702l20.735-20.736l-20.735-20.735c-0.415-0.416-0.724-0.892-0.968-1.39l-2.573,2.607
	c-1.407,1.393-1.407,3.669,0,5.077l14.436,14.435l-14.436,14.436c-1.407,1.393-1.407,3.669,0,5.076l2.586,2.586
	C341.827,65.571,342.13,65.106,342.539,64.702z"/>
</svg>
