<?xml version="1.0" encoding="utf-8"?>
<!-- Generator: Adobe Illustrator 16.0.0, SVG Export Plug-In . SVG Version: 6.00 Build 0)  -->
<!DOCTYPE svg PUBLIC "-//W3C//DTD SVG 1.1//EN" "http://www.w3.org/Graphics/SVG/1.1/DTD/svg11.dtd">
<svg version="1.1" id="Layer_1" xmlns="http://www.w3.org/2000/svg" xmlns:xlink="http://www.w3.org/1999/xlink" x="0px" y="0px"
	 width="433.338px" height="107.586px" viewBox="0 0 433.338 107.586" enable-background="new 0 0 433.338 107.586"
	 xml:space="preserve">
<g id="Layer_3_1_">
	<g>
		<path fill="#231F20" d="M275.518,85.245V22.562h35.466v6.886h-27.281v19.747h23.839v6.301h-23.839v22.863h29.49v6.887
			L275.518,85.245L275.518,85.245z"/>
		<path fill="#231F20" d="M331.315,85.245h-8.186V22.562h19.423c4.763,0,8.347,0.682,10.75,2.046
			c2.402,1.364,4.309,3.345,5.717,5.943c1.406,2.598,2.109,5.414,2.109,8.444c0,2.469-0.477,4.829-1.429,7.08
			c-0.953,2.252-2.284,4.287-3.995,6.106c-1.711,1.818-4.363,3.442-7.957,4.871c1.342,0.737,2.35,1.44,3.021,2.111
			c0.671,0.672,1.494,1.765,2.469,3.28c0.975,1.517,1.829,2.923,2.565,4.223l10.004,18.577h-9.354l-8.704-16.499
			c-2.078-3.983-4.807-7.471-8.185-10.458h-8.249V85.245z M331.315,52.052h7.989c3.334,0,5.879-0.52,7.633-1.56
			c1.754-1.039,3.139-2.555,4.157-4.547c1.017-1.991,1.525-4.113,1.525-6.365c0-1.949-0.4-3.703-1.202-5.262
			s-1.991-2.858-3.571-3.897c-1.581-1.039-4.233-1.559-7.957-1.559h-8.574V52.052z"/>
		<path fill="#231F20" d="M381.46,85.245h-8.185V22.562h17.474c6.668,0,11.367,0.672,14.096,2.014
			c2.729,1.343,4.784,3.335,6.171,5.976c1.386,2.642,2.079,5.695,2.079,9.159c0,5.89-2.005,10.826-6.01,14.811
			c-4.006,3.984-9.948,5.977-17.83,5.977h-7.795V85.245z M381.46,54.196h5.521c7.188,0,11.93-1.386,14.226-4.157
			c2.294-2.771,3.442-6.084,3.442-9.938c0-3.378-0.921-6.095-2.761-8.152c-1.842-2.056-5.489-3.085-10.945-3.085h-9.483V54.196z"/>
	</g>
</g>
<g>
	<g>
		<g>
			<g>
				<path fill="#231F20" d="M24.013,44.649h31.012V16.524h10.85v71.895H55.024V54.846H24.013v33.573h-10.85V16.524h10.85V44.649z"/>
			</g>
		</g>
		<g>
			<g>
				<polygon fill="#231F20" points="92.601,23.037 86.088,23.037 86.088,16.524 79.639,16.524 79.639,23.037 73.129,23.037 
					73.129,29.484 79.639,29.484 79.639,35.995 86.088,35.995 86.088,29.484 92.601,29.484 				"/>
			</g>
		</g>
		<g>
			<g>
				<path fill="#231F20" d="M88.508,41.053v47.366H77.22V41.053H88.508z"/>
			</g>
		</g>
		<g>
			<g>
				<path fill="#231F20" d="M99.164,88.718l14.392-70.571l23.466,50.204l24.311-50.204l12.929,70.571h-10.583l-6.598-41.268
					l-20.234,40.015l-19.66-40.06l-7.352,41.312H99.164z"/>
			</g>
		</g>
		<g>
			<g>
				<path fill="#231F20" d="M222.726,30.536l-8.367,4.959c-1.566-2.714-3.055-4.486-4.473-5.314
					c-1.477-0.944-3.382-1.416-5.713-1.416c-2.864,0-5.239,0.813-7.128,2.435c-1.891,1.595-2.836,3.603-2.836,6.022
					c0,3.337,2.479,6.023,7.438,8.059l6.82,2.79c5.548,2.243,9.609,4.98,12.175,8.213c2.568,3.233,3.853,7.194,3.853,11.89
					c0,6.286-2.096,11.482-6.286,15.585c-4.224,4.135-9.461,6.199-15.72,6.199c-5.934,0-10.834-1.756-14.702-5.271
					c-3.807-3.512-6.185-8.457-7.129-14.833l10.452-2.301c0.471,4.015,1.298,6.788,2.48,8.322c2.124,2.953,5.224,4.429,9.296,4.429
					c3.218,0,5.89-1.076,8.015-3.231c2.126-2.155,3.188-4.887,3.188-8.192c0-1.327-0.185-2.547-0.552-3.653
					c-0.37-1.105-0.945-2.124-1.728-3.054c-0.782-0.929-1.793-1.801-3.033-2.613c-1.24-0.812-2.715-1.588-4.426-2.323l-6.599-2.745
					c-9.359-3.957-14.035-9.742-14.035-17.358c0-5.136,1.962-9.432,5.887-12.885c3.926-3.483,8.812-5.224,14.658-5.224
					C212.145,19.022,218.3,22.861,222.726,30.536z"/>
			</g>
		</g>
	</g>
</g>
<g id="Layer_1_2_">
	<line fill="none" stroke="#231F20" stroke-width="3" stroke-miterlimit="10" x1="245.564" y1="15.828" x2="245.564" y2="94.347"/>
</g>
<g id="Layer_1_1_">
	<line fill="none" stroke="#FFFFFF" stroke-width="3" stroke-miterlimit="10" x1="245.564" y1="14.828" x2="245.564" y2="93.347"/>
</g>
<g id="Layer_2" display="none">
	<g display="inline">
		<path fill="#FFFFFF" d="M349.912,27.005v8.146h10.188v-8.146h1.985v18.723h-1.985v-8.805h-10.188v8.805h-1.985V27.005H349.912z"/>
		<path fill="#FFFFFF" d="M383.168,36.347c0,1.44-0.185,2.764-0.556,3.972c-0.372,1.208-0.915,2.248-1.631,3.121
			c-0.716,0.874-1.596,1.551-2.638,2.033c-1.044,0.483-2.235,0.725-3.577,0.725c-1.344,0-2.534-0.242-3.576-0.725
			s-1.919-1.161-2.631-2.033c-0.711-0.87-1.252-1.913-1.623-3.121c-0.372-1.208-0.558-2.532-0.558-3.972
			c0-1.432,0.186-2.75,0.558-3.953c0.371-1.203,0.912-2.239,1.623-3.107c0.712-0.868,1.589-1.543,2.631-2.027
			c1.042-0.483,2.232-0.725,3.576-0.725c1.342,0,2.533,0.242,3.577,0.725c1.042,0.483,1.922,1.159,2.638,2.027
			s1.259,1.904,1.631,3.107S383.168,34.915,383.168,36.347z M381.169,36.347c0-1.262-0.167-2.391-0.497-3.389
			c-0.331-0.998-0.784-1.843-1.36-2.536c-0.575-0.695-1.256-1.222-2.033-1.584c-0.777-0.363-1.614-0.544-2.51-0.544
			c-0.903,0-1.743,0.181-2.521,0.544c-0.778,0.362-1.455,0.889-2.027,1.584c-0.572,0.693-1.022,1.539-1.35,2.536
			c-0.326,0.998-0.49,2.127-0.49,3.389c0,1.261,0.164,2.393,0.49,3.396c0.326,1.002,0.776,1.85,1.35,2.543
			c0.572,0.694,1.249,1.224,2.027,1.59c0.778,0.369,1.618,0.55,2.521,0.55c0.896,0,1.731-0.184,2.51-0.55
			c0.777-0.366,1.455-0.896,2.033-1.59c0.577-0.693,1.029-1.541,1.36-2.543C381.002,38.74,381.169,37.608,381.169,36.347z"/>
		<path fill="#FFFFFF" d="M388.268,39.876c0.045,0.67,0.196,1.286,0.457,1.845c0.258,0.56,0.603,1.044,1.03,1.455
			c0.432,0.411,0.938,0.732,1.523,0.96c0.587,0.229,1.229,0.343,1.928,0.343c0.626,0,1.226-0.07,1.797-0.208
			c0.572-0.139,1.078-0.357,1.518-0.658c0.438-0.3,0.788-0.69,1.047-1.169s0.39-1.058,0.39-1.738c0-0.555-0.142-1.027-0.424-1.416
			c-0.279-0.389-0.65-0.725-1.113-1.006c-0.462-0.282-0.981-0.526-1.569-0.731c-0.586-0.206-1.179-0.397-1.778-0.578
			c-0.502-0.143-1.005-0.299-1.51-0.469c-0.504-0.17-0.992-0.362-1.461-0.578c-0.472-0.214-0.908-0.46-1.315-0.738
			c-0.406-0.278-0.761-0.604-1.062-0.979c-0.3-0.376-0.536-0.803-0.71-1.282c-0.176-0.479-0.263-1.031-0.263-1.658
			c0-0.778,0.151-1.464,0.454-2.06c0.305-0.595,0.732-1.094,1.282-1.497c0.549-0.402,1.207-0.709,1.973-0.919
			s1.604-0.315,2.518-0.315c0.813,0,1.535,0.081,2.16,0.242c0.627,0.161,1.173,0.38,1.639,0.657c0.466,0.278,0.858,0.602,1.18,0.973
			c0.322,0.373,0.588,0.763,0.793,1.175c0.204,0.411,0.356,0.836,0.454,1.275c0.102,0.438,0.162,0.858,0.188,1.261h-2.038
			c-0.054-0.626-0.204-1.177-0.451-1.651c-0.245-0.474-0.563-0.873-0.953-1.194c-0.389-0.322-0.837-0.564-1.349-0.725
			c-0.512-0.161-1.051-0.242-1.623-0.242c-0.528,0-1.045,0.054-1.552,0.161c-0.506,0.108-0.957,0.279-1.355,0.517
			c-0.398,0.238-0.721,0.549-0.966,0.933c-0.246,0.384-0.369,0.854-0.369,1.409c0,0.573,0.139,1.059,0.415,1.455
			c0.278,0.397,0.648,0.739,1.115,1.026c0.466,0.286,0.995,0.532,1.59,0.739c0.597,0.207,1.212,0.406,1.845,0.603
			c0.511,0.153,1.018,0.313,1.518,0.483c0.5,0.172,0.983,0.362,1.449,0.578c0.468,0.216,0.896,0.457,1.296,0.73
			c0.398,0.274,0.745,0.591,1.041,0.953c0.294,0.361,0.524,0.779,0.69,1.25c0.165,0.468,0.248,1.008,0.248,1.617
			c0,0.913-0.168,1.714-0.503,2.409c-0.335,0.693-0.802,1.272-1.402,1.738s-1.311,0.816-2.134,1.053
			c-0.822,0.237-1.723,0.356-2.696,0.356c-0.879,0-1.731-0.15-2.562-0.45s-1.572-0.725-2.22-1.275
			c-0.649-0.549-1.174-1.218-1.571-2.006c-0.399-0.787-0.61-1.673-0.639-2.656h2.055v0.001H388.268z"/>
		<path fill="#FFFFFF" d="M404.24,27.005h7.088c0.912,0,1.719,0.16,2.414,0.476c0.698,0.316,1.284,0.73,1.759,1.235
			c0.475,0.504,0.834,1.075,1.08,1.711c0.245,0.635,0.368,1.271,0.368,1.905c0,0.681-0.122,1.343-0.368,1.986
			c-0.246,0.644-0.607,1.216-1.087,1.718c-0.479,0.502-1.067,0.904-1.766,1.208c-0.697,0.306-1.5,0.457-2.402,0.457h-5.1v8.025
			h-1.986V27.005z M406.226,35.944h5.1c0.483,0,0.943-0.094,1.382-0.282c0.439-0.188,0.827-0.448,1.162-0.78
			c0.335-0.33,0.602-0.715,0.799-1.154c0.196-0.438,0.296-0.913,0.296-1.422c0-0.502-0.093-0.964-0.275-1.389
			s-0.438-0.793-0.765-1.107c-0.327-0.314-0.711-0.555-1.154-0.732c-0.444-0.174-0.925-0.262-1.443-0.262h-5.1L406.226,35.944
			L406.226,35.944z"/>
		<path fill="#FFFFFF" d="M423.498,27.005v18.723h-1.985V27.005H423.498z"/>
		<path fill="#FFFFFF" d="M442.302,27.005v1.812h-6.2v16.911h-1.986V28.816h-6.188v-1.812L442.302,27.005L442.302,27.005z"/>
		<path fill="#FFFFFF" d="M348.552,59.986l5.944,15.971l6.051-15.971h2.577v18.723h-1.983V63.357l-5.624,15.353h-1.812
			l-5.744-15.353V78.71h-1.985V59.986H348.552z"/>
		<path fill="#FFFFFF" d="M377.11,59.986l6.804,18.723h-2.065l-2.162-5.959h-7.957l-2.162,5.959h-2.054l6.856-18.723H377.11z
			 M375.714,61.839l-3.436,9.408h6.857L375.714,61.839z"/>
		<path fill="#FFFFFF" d="M390.892,59.986l9.528,16.186V59.986h1.985v18.723h-2.657l-9.527-16.172v16.172h-1.985V59.986H390.892z"/>
		<path fill="#FFFFFF" d="M416.392,59.986l6.804,18.723h-2.065l-2.161-5.959h-7.959l-2.16,5.959h-2.054l6.856-18.723H416.392z
			 M414.996,61.839l-3.437,9.408h6.857L414.996,61.839z"/>
		<path fill="#FFFFFF" d="M428.43,69.314c0,1.289,0.173,2.435,0.518,3.437c0.346,1.002,0.812,1.847,1.402,2.537
			c0.592,0.69,1.275,1.216,2.054,1.577c0.779,0.361,1.603,0.544,2.47,0.544c0.511,0,1.014-0.087,1.51-0.263
			c0.496-0.174,0.972-0.412,1.422-0.717c0.452-0.306,0.871-0.669,1.256-1.095c0.385-0.425,0.72-0.884,1.007-1.382
			c0.286-0.498,0.512-1.023,0.678-1.577s0.258-1.12,0.275-1.692h-5.812v-1.758h7.702v9.784h-1.22l-0.592-3.328
			c-0.312,0.483-0.699,0.95-1.161,1.404c-0.462,0.45-0.964,0.856-1.51,1.215c-0.545,0.358-1.118,0.644-1.718,0.858
			s-1.194,0.322-1.785,0.322c-1.308,0-2.483-0.253-3.529-0.759c-1.047-0.505-1.938-1.198-2.671-2.08
			c-0.733-0.881-1.297-1.923-1.69-3.127c-0.396-1.2-0.592-2.503-0.592-3.897c0-0.814,0.083-1.621,0.249-2.422
			c0.166-0.799,0.411-1.562,0.738-2.289c0.328-0.725,0.729-1.396,1.207-2.021c0.479-0.622,1.028-1.159,1.646-1.608
			c0.619-0.451,1.304-0.809,2.055-1.068c0.752-0.26,1.569-0.389,2.455-0.389c1.11,0,2.102,0.143,2.975,0.429
			c0.872,0.286,1.636,0.69,2.288,1.209c0.651,0.518,1.196,1.135,1.631,1.851c0.435,0.717,0.772,1.504,1.014,2.362h-2.106
			c-0.493-1.396-1.212-2.429-2.154-3.101c-0.943-0.67-2.159-1.006-3.645-1.006c-0.931,0-1.785,0.215-2.562,0.644
			c-0.778,0.428-1.45,1.011-2.014,1.743c-0.562,0.733-1.002,1.59-1.314,2.563C428.59,67.189,428.43,68.225,428.43,69.314z"/>
	</g>
</g>
<g id="Layer_3">
	<g>
		<path fill="#FFFFFF" d="M275.518,84.245V21.562h35.466v6.886h-27.281v19.747h23.839v6.301h-23.839v22.863h29.49v6.887
			L275.518,84.245L275.518,84.245z"/>
		<path fill="#FFFFFF" d="M331.315,84.245h-8.186V21.562h19.423c4.763,0,8.347,0.682,10.75,2.046
			c2.402,1.364,4.309,3.345,5.717,5.943c1.406,2.598,2.109,5.414,2.109,8.444c0,2.469-0.477,4.829-1.429,7.08
			c-0.953,2.252-2.284,4.287-3.995,6.106c-1.711,1.818-4.363,3.442-7.957,4.871c1.342,0.737,2.35,1.44,3.021,2.111
			c0.671,0.672,1.494,1.765,2.469,3.28c0.975,1.517,1.829,2.923,2.565,4.223l10.004,18.577h-9.354l-8.704-16.499
			c-2.078-3.983-4.807-7.471-8.185-10.458h-8.249V84.245z M331.315,51.052h7.989c3.334,0,5.879-0.52,7.633-1.56
			c1.754-1.039,3.139-2.555,4.157-4.547c1.017-1.991,1.525-4.113,1.525-6.365c0-1.949-0.4-3.703-1.202-5.262
			s-1.991-2.858-3.571-3.897c-1.581-1.039-4.233-1.559-7.957-1.559h-8.574V51.052z"/>
		<path fill="#FFFFFF" d="M381.46,84.245h-8.185V21.562h17.474c6.668,0,11.367,0.672,14.096,2.014
			c2.729,1.343,4.784,3.335,6.171,5.976c1.386,2.642,2.079,5.695,2.079,9.159c0,5.89-2.005,10.826-6.01,14.81
			c-4.006,3.985-9.948,5.977-17.83,5.977h-7.795V84.245z M381.46,53.196h5.521c7.188,0,11.93-1.386,14.226-4.157
			c2.294-2.771,3.442-6.084,3.442-9.938c0-3.378-0.921-6.095-2.761-8.152c-1.842-2.056-5.489-3.085-10.945-3.085h-9.483V53.196z"/>
	</g>
</g>
<g>
	<g>
		<g>
			<g>
				<path fill="#FFFFFF" d="M24.013,43.649h31.012V15.524h10.85v71.895H55.024V53.846H24.013v33.573h-10.85V15.524h10.85V43.649z"/>
			</g>
		</g>
		<g>
			<g>
				<polygon fill="#FFFFFF" points="92.601,22.037 86.088,22.037 86.088,15.524 79.639,15.524 79.639,22.037 73.129,22.037 
					73.129,28.484 79.639,28.484 79.639,34.995 86.088,34.995 86.088,28.484 92.601,28.484 				"/>
			</g>
		</g>
		<g>
			<g>
				<path fill="#FFFFFF" d="M88.508,40.053v47.366H77.22V40.053H88.508z"/>
			</g>
		</g>
		<g>
			<g>
				<path fill="#FFFFFF" d="M99.164,87.718l14.392-70.571l23.466,50.204l24.311-50.204l12.929,70.571h-10.583l-6.598-41.268
					l-20.234,40.015l-19.66-40.06l-7.352,41.312H99.164z"/>
			</g>
		</g>
		<g>
			<g>
				<path fill="#FFFFFF" d="M222.726,29.536l-8.367,4.959c-1.566-2.714-3.055-4.486-4.473-5.314
					c-1.477-0.944-3.382-1.416-5.713-1.416c-2.864,0-5.239,0.813-7.128,2.435c-1.891,1.595-2.836,3.603-2.836,6.022
					c0,3.337,2.479,6.023,7.438,8.059l6.82,2.79c5.548,2.243,9.609,4.98,12.175,8.213c2.568,3.233,3.853,7.194,3.853,11.89
					c0,6.286-2.096,11.482-6.286,15.585c-4.224,4.135-9.461,6.199-15.72,6.199c-5.934,0-10.834-1.756-14.702-5.271
					c-3.807-3.512-6.185-8.457-7.129-14.833l10.452-2.301c0.471,4.015,1.298,6.788,2.48,8.322c2.124,2.953,5.224,4.429,9.296,4.429
					c3.218,0,5.89-1.076,8.015-3.231c2.126-2.155,3.188-4.887,3.188-8.192c0-1.327-0.185-2.547-0.552-3.653
					c-0.37-1.105-0.945-2.124-1.728-3.054c-0.782-0.929-1.793-1.801-3.033-2.613c-1.24-0.812-2.715-1.588-4.426-2.323l-6.599-2.745
					c-9.359-3.957-14.035-9.742-14.035-17.358c0-5.136,1.962-9.432,5.887-12.885c3.926-3.483,8.812-5.224,14.658-5.224
					C212.145,18.022,218.3,21.861,222.726,29.536z"/>
			</g>
		</g>
	</g>
</g>
</svg>
