<?xml version="1.0" encoding="utf-8"?>
<!-- Generator: Adobe Illustrator 16.0.0, SVG Export Plug-In . SVG Version: 6.00 Build 0)  -->
<!DOCTYPE svg PUBLIC "-//W3C//DTD SVG 1.1//EN" "http://www.w3.org/Graphics/SVG/1.1/DTD/svg11.dtd">
<svg version="1.1" id="Layer_1" xmlns="http://www.w3.org/2000/svg" xmlns:xlink="http://www.w3.org/1999/xlink" x="0px" y="0px"
	 width="361.098px" height="127.493px" viewBox="0 0 361.098 127.493" enable-background="new 0 0 361.098 127.493"
	 xml:space="preserve">
<g>
	<g>
		<g>
			<path fill="#61B59A" d="M59.23,41.695h41.677V3.898h14.581v96.62h-14.582v-45.12H59.23v45.12H44.65V3.898h14.58V41.695z"/>
		</g>
		<g>
			<polygon fill="#ED1C24" points="155.403,12.649 146.652,12.649 146.652,3.898 137.986,3.898 137.986,12.649 129.236,12.649 
				129.236,21.315 137.986,21.315 137.986,30.064 146.652,30.064 146.652,21.315 155.403,21.315 			"/>
		</g>
		<g>
			<path fill="#61B59A" d="M149.904,36.861v63.657h-15.169V36.861H149.904z"/>
		</g>
		<g>
			<path fill="#009FAF" d="M168.225,100.918l19.34-94.84l31.538,67.469l32.67-67.469l17.375,94.84h-14.221l-8.867-55.459
				l-27.192,53.776l-26.422-53.836l-9.879,55.52H168.225L168.225,100.918z"/>
		</g>
		<g>
			<path fill="#009FAF" d="M343.28,22.728l-11.246,6.664c-2.104-3.648-4.104-6.028-6.01-7.141c-1.984-1.269-4.546-1.903-7.679-1.903
				c-3.849,0-7.041,1.092-9.58,3.272c-2.539,2.143-3.81,4.842-3.81,8.093c0,4.484,3.332,8.094,9.996,10.83l9.166,3.75
				c7.457,3.014,12.912,6.693,16.363,11.038c3.45,4.343,5.178,9.669,5.178,15.978c0,8.449-2.817,15.432-8.448,20.945
				c-5.677,5.556-12.716,8.33-21.125,8.33c-7.976,0-14.562-2.358-19.759-7.082c-5.116-4.721-8.312-11.365-9.58-19.935l14.046-3.093
				c0.633,5.396,1.745,9.123,3.332,11.186c2.854,3.969,7.021,5.951,12.495,5.951c4.322,0,7.914-1.447,10.771-4.345
				s4.285-6.563,4.285-11.011c0-1.781-0.248-3.42-0.742-4.907c-0.498-1.487-1.271-2.854-2.321-4.104
				c-1.054-1.249-2.41-2.419-4.076-3.513c-1.666-1.09-3.649-2.133-5.948-3.123l-8.869-3.689
				c-12.576-5.317-18.86-13.092-18.86-23.326c0-6.903,2.637-12.676,7.911-17.317c5.277-4.681,11.843-7.021,19.699-7.021
				C329.059,7.256,337.331,12.414,343.28,22.728z"/>
		</g>
	</g>
	<g>
		<path fill="#414042" d="M45.937,110.52v4.168h4.82v-4.168h1.3v9.965h-1.3v-4.673h-4.82v4.673h-1.288v-9.965H45.937z"/>
		<path fill="#414042" d="M62.81,115.399c0,3.432-2.084,5.249-4.628,5.249c-2.632,0-4.48-2.042-4.48-5.058
			c0-3.164,1.968-5.232,4.628-5.232C61.052,110.356,62.81,112.441,62.81,115.399z M55.078,115.561c0,2.129,1.154,4.037,3.179,4.037
			c2.042,0,3.194-1.879,3.194-4.139c0-1.983-1.035-4.053-3.178-4.053C56.143,111.405,55.078,113.372,55.078,115.561z"/>
		<path fill="#414042" d="M64.309,118.917c0.576,0.354,1.419,0.652,2.306,0.652c1.315,0,2.085-0.695,2.085-1.703
			c0-0.93-0.532-1.463-1.878-1.98c-1.626-0.575-2.632-1.42-2.632-2.822c0-1.555,1.287-2.706,3.223-2.706
			c1.021,0,1.76,0.237,2.204,0.487l-0.355,1.052c-0.326-0.179-0.991-0.476-1.894-0.476c-1.36,0-1.877,0.813-1.877,1.494
			c0,0.935,0.606,1.392,1.981,1.922c1.685,0.65,2.543,1.465,2.543,2.929c0,1.536-1.138,2.868-3.49,2.868
			c-0.961,0-2.011-0.282-2.543-0.637L64.309,118.917z"/>
		<path fill="#414042" d="M71.777,110.635c0.621-0.104,1.435-0.191,2.47-0.191c1.271,0,2.203,0.295,2.795,0.828
			c0.546,0.475,0.873,1.197,0.873,2.086c0,0.898-0.267,1.609-0.769,2.127c-0.68,0.725-1.789,1.096-3.046,1.096
			c-0.383,0-0.74-0.016-1.035-0.09v3.992h-1.288V110.635z M73.064,115.443c0.281,0.073,0.635,0.104,1.064,0.104
			c1.552,0,2.499-0.756,2.499-2.131c0-1.314-0.931-1.949-2.351-1.949c-0.561,0-0.99,0.043-1.212,0.104V115.443z"/>
		<path fill="#414042" d="M80.935,110.52v9.965h-1.288v-9.965H80.935z"/>
		<path fill="#414042" d="M85.074,111.612h-3.031v-1.092h7.379v1.092h-3.046v8.873h-1.301L85.074,111.612L85.074,111.612z"/>
		<path fill="#414042" d="M91.035,117.35L90,120.485h-1.332l3.386-9.965h1.552l3.401,9.965h-1.375l-1.065-3.135H91.035z
			 M94.304,116.344l-0.976-2.868c-0.222-0.651-0.37-1.242-0.518-1.817h-0.029c-0.148,0.59-0.311,1.197-0.502,1.803l-0.976,2.885
			h3.001V116.344z"/>
		<path fill="#414042" d="M98.478,110.52h1.287v8.885h4.258v1.08h-5.544v-9.965H98.478z"/>
		<path fill="#414042" d="M109.88,110.52v9.965h-1.287v-9.965H109.88z"/>
		<path fill="#414042" d="M112.129,120.485v-9.965h1.405l3.193,5.041c0.739,1.168,1.315,2.217,1.789,3.238l0.029-0.016
			c-0.117-1.33-0.147-2.543-0.147-4.097v-4.168h1.213v9.965h-1.301l-3.164-5.058c-0.695-1.108-1.36-2.246-1.863-3.327l-0.044,0.017
			c0.075,1.256,0.104,2.454,0.104,4.109v4.259L112.129,120.485L112.129,120.485z"/>
		<path fill="#414042" d="M121.862,110.52h5.367v1.077h-4.081v3.312h3.77v1.063h-3.77v4.512h-1.288L121.862,110.52L121.862,110.52z"
			/>
		<path fill="#414042" d="M137.582,115.399c0,3.432-2.085,5.249-4.628,5.249c-2.631,0-4.481-2.042-4.481-5.058
			c0-3.164,1.967-5.232,4.628-5.232C135.822,110.356,137.582,112.441,137.582,115.399z M129.849,115.561
			c0,2.129,1.154,4.037,3.178,4.037c2.042,0,3.194-1.879,3.194-4.139c0-1.983-1.035-4.053-3.178-4.053
			C130.914,111.405,129.849,113.372,129.849,115.561z"/>
		<path fill="#414042" d="M139.256,110.651c0.651-0.131,1.582-0.205,2.469-0.205c1.376,0,2.263,0.25,2.884,0.812
			c0.503,0.441,0.783,1.123,0.783,1.893c0,1.316-0.829,2.188-1.878,2.542v0.045c0.769,0.267,1.228,0.976,1.465,2.013
			c0.325,1.39,0.562,2.351,0.768,2.734h-1.331c-0.163-0.281-0.384-1.139-0.666-2.382c-0.296-1.374-0.828-1.894-1.996-1.937h-1.213
			v4.315h-1.287L139.256,110.651L139.256,110.651z M140.543,115.19h1.315c1.376,0,2.249-0.754,2.249-1.893
			c0-1.287-0.932-1.85-2.292-1.861c-0.62,0-1.064,0.061-1.271,0.117L140.543,115.19L140.543,115.19z"/>
		<path fill="#414042" d="M155.613,116.107c-0.074-1.39-0.163-3.06-0.149-4.303h-0.044c-0.339,1.167-0.753,2.409-1.256,3.784
			l-1.76,4.834h-0.975l-1.612-4.746c-0.474-1.404-0.873-2.689-1.153-3.873h-0.03c-0.028,1.242-0.104,2.912-0.191,4.406l-0.266,4.271
			h-1.228l0.695-9.964h1.641l1.701,4.817c0.414,1.229,0.753,2.32,1.006,3.356h0.044c0.252-1.005,0.607-2.101,1.05-3.356l1.775-4.817
			h1.64l0.621,9.964h-1.256L155.613,116.107z"/>
		<path fill="#414042" d="M160.57,117.35l-1.036,3.135h-1.331l3.385-9.965h1.553l3.401,9.965h-1.376l-1.064-3.135H160.57z
			 M163.839,116.344l-0.977-2.868c-0.222-0.651-0.369-1.242-0.517-1.817h-0.03c-0.148,0.59-0.311,1.197-0.503,1.803l-0.976,2.885
			h3.003V116.344z"/>
		<path fill="#414042" d="M168.765,111.612h-3.031v-1.092h7.379v1.092h-3.046v8.873h-1.301L168.765,111.612L168.765,111.612z"/>
		<path fill="#414042" d="M175.511,110.52v9.965h-1.288v-9.965H175.511z"/>
		<path fill="#414042" d="M186.275,115.399c0,3.432-2.084,5.249-4.627,5.249c-2.633,0-4.481-2.042-4.481-5.058
			c0-3.164,1.967-5.232,4.628-5.232C184.517,110.356,186.275,112.441,186.275,115.399z M178.543,115.561
			c0,2.129,1.153,4.037,3.179,4.037c2.04,0,3.194-1.879,3.194-4.139c0-1.983-1.036-4.053-3.18-4.053
			C179.607,111.405,178.543,113.372,178.543,115.561z"/>
		<path fill="#414042" d="M187.951,120.485v-9.965h1.404l3.193,5.041c0.738,1.168,1.314,2.217,1.789,3.238l0.029-0.016
			c-0.117-1.33-0.148-2.543-0.148-4.097v-4.168h1.213v9.965h-1.301l-3.164-5.058c-0.695-1.108-1.359-2.246-1.863-3.327l-0.044,0.017
			c0.075,1.256,0.104,2.454,0.104,4.109v4.259L187.951,120.485L187.951,120.485z"/>
		<path fill="#414042" d="M209.217,116.107c-0.073-1.39-0.162-3.06-0.146-4.303h-0.045c-0.34,1.167-0.754,2.409-1.259,3.784
			l-1.759,4.834h-0.977l-1.61-4.746c-0.474-1.404-0.873-2.689-1.154-3.873h-0.028c-0.031,1.242-0.104,2.912-0.193,4.406
			l-0.268,4.271h-1.227l0.695-9.964h1.64l1.7,4.817c0.415,1.229,0.755,2.32,1.004,3.356h0.045c0.252-1.005,0.607-2.101,1.05-3.356
			l1.772-4.817h1.643l0.622,9.964h-1.257L209.217,116.107z"/>
		<path fill="#414042" d="M214.176,117.35l-1.036,3.135h-1.331l3.387-9.965h1.553l3.4,9.965h-1.375l-1.064-3.135H214.176z
			 M217.441,116.344l-0.976-2.868c-0.224-0.651-0.371-1.242-0.519-1.817h-0.027c-0.146,0.59-0.312,1.197-0.503,1.803l-0.976,2.885h3
			V116.344z"/>
		<path fill="#414042" d="M221.617,120.485v-9.965h1.404l3.192,5.041c0.739,1.168,1.315,2.217,1.79,3.238l0.027-0.016
			c-0.115-1.33-0.146-2.543-0.146-4.097v-4.168h1.214v9.965h-1.303l-3.164-5.058c-0.694-1.108-1.362-2.246-1.863-3.327l-0.043,0.017
			c0.073,1.256,0.103,2.454,0.103,4.109v4.259L221.617,120.485L221.617,120.485z"/>
		<path fill="#414042" d="M232.959,117.35l-1.033,3.135h-1.331l3.386-9.965h1.555l3.398,9.965h-1.375l-1.064-3.135H232.959z
			 M236.229,116.344l-0.977-2.868c-0.223-0.651-0.369-1.242-0.516-1.817h-0.031c-0.148,0.59-0.311,1.197-0.504,1.803l-0.977,2.885
			h3.004V116.344z"/>
		<path fill="#414042" d="M247.764,120.04c-0.575,0.207-1.714,0.549-3.062,0.549c-1.508,0-2.748-0.385-3.727-1.316
			c-0.855-0.828-1.39-2.159-1.39-3.712c0.017-2.972,2.057-5.146,5.397-5.146c1.153,0,2.057,0.252,2.484,0.459l-0.312,1.051
			c-0.531-0.237-1.197-0.428-2.203-0.428c-2.426,0-4.006,1.508-4.006,4.006c0,2.527,1.521,4.021,3.845,4.021
			c0.844,0,1.42-0.119,1.715-0.268v-2.971h-2.026v-1.035h3.282v4.789H247.764z"/>
		<path fill="#414042" d="M254.894,115.812h-3.871v3.593h4.317v1.08h-5.604v-9.965h5.383v1.077h-4.096v3.149h3.871V115.812
			L254.894,115.812z"/>
		<path fill="#414042" d="M265.411,116.107c-0.073-1.39-0.164-3.06-0.15-4.303h-0.043c-0.34,1.167-0.755,2.409-1.256,3.784
			l-1.762,4.834h-0.976l-1.612-4.746c-0.474-1.404-0.873-2.689-1.153-3.873h-0.028c-0.027,1.242-0.104,2.912-0.193,4.406
			l-0.267,4.271h-1.226l0.695-9.964h1.639l1.701,4.817c0.412,1.229,0.754,2.32,1.006,3.356h0.045c0.25-1.005,0.605-2.101,1.05-3.356
			l1.772-4.817h1.641l0.621,9.964h-1.258L265.411,116.107z"/>
		<path fill="#414042" d="M274.065,115.812h-3.873v3.593h4.317v1.08h-5.604v-9.965h5.383v1.077h-4.096v3.149h3.873V115.812
			L274.065,115.812z"/>
		<path fill="#414042" d="M276.182,120.485v-9.965h1.404l3.192,5.041c0.74,1.168,1.316,2.217,1.791,3.238l0.027-0.016
			c-0.117-1.33-0.148-2.543-0.148-4.097v-4.168h1.215v9.965h-1.303l-3.164-5.058c-0.694-1.108-1.361-2.246-1.863-3.327l-0.043,0.017
			c0.074,1.256,0.104,2.454,0.104,4.109v4.259L276.182,120.485L276.182,120.485z"/>
		<path fill="#414042" d="M287.806,111.612h-3.031v-1.092h7.379v1.092h-3.045v8.873h-1.303V111.612z"/>
		<path fill="#414042" d="M296.224,118.917c0.576,0.354,1.422,0.652,2.307,0.652c1.316,0,2.086-0.695,2.086-1.703
			c0-0.93-0.534-1.463-1.879-1.98c-1.627-0.575-2.631-1.42-2.631-2.822c0-1.555,1.285-2.706,3.223-2.706
			c1.02,0,1.76,0.237,2.203,0.487l-0.355,1.052c-0.325-0.179-0.988-0.476-1.893-0.476c-1.359,0-1.879,0.813-1.879,1.494
			c0,0.935,0.607,1.392,1.981,1.922c1.685,0.65,2.545,1.465,2.545,2.929c0,1.536-1.14,2.868-3.489,2.868
			c-0.961,0-2.012-0.282-2.543-0.637L296.224,118.917z"/>
		<path fill="#414042" d="M305.911,120.485v-4.23l-3.149-5.733h1.465l1.404,2.749c0.386,0.755,0.681,1.359,0.992,2.055h0.028
			c0.28-0.648,0.621-1.3,1.004-2.055l1.436-2.749h1.465l-3.343,5.722v4.243L305.911,120.485L305.911,120.485z"/>
		<path fill="#414042" d="M311.325,118.917c0.578,0.354,1.422,0.652,2.308,0.652c1.315,0,2.085-0.695,2.085-1.703
			c0-0.93-0.533-1.463-1.878-1.98c-1.626-0.575-2.631-1.42-2.631-2.822c0-1.555,1.286-2.706,3.223-2.706
			c1.021,0,1.761,0.237,2.203,0.487l-0.354,1.052c-0.326-0.179-0.989-0.476-1.894-0.476c-1.358,0-1.879,0.813-1.879,1.494
			c0,0.935,0.606,1.392,1.981,1.922c1.686,0.65,2.545,1.465,2.545,2.929c0,1.536-1.141,2.868-3.489,2.868
			c-0.962,0-2.013-0.282-2.543-0.637L311.325,118.917z"/>
		<path fill="#414042" d="M320.688,111.612h-3.031v-1.092h7.377v1.092h-3.045v8.873h-1.301V111.612L320.688,111.612z"/>
		<path fill="#414042" d="M331.307,115.812h-3.872v3.593h4.315v1.08h-5.604v-9.965h5.383v1.077h-4.094v3.149h3.872V115.812z"/>
		<path fill="#414042" d="M341.823,116.107c-0.073-1.39-0.162-3.06-0.147-4.303h-0.046c-0.338,1.167-0.752,2.409-1.257,3.784
			l-1.759,4.834h-0.978l-1.61-4.746c-0.473-1.404-0.873-2.689-1.152-3.873h-0.029c-0.029,1.242-0.104,2.912-0.191,4.406
			l-0.268,4.271h-1.229l0.693-9.964h1.643l1.701,4.817c0.414,1.229,0.754,2.32,1.004,3.356h0.045
			c0.253-1.005,0.606-2.101,1.051-3.356l1.771-4.817h1.644l0.621,9.964h-1.257L341.823,116.107z"/>
	</g>
</g>
</svg>
