<?xml version="1.0" encoding="utf-8"?>
<!-- Generator: Adobe Illustrator 16.0.0, SVG Export Plug-In . SVG Version: 6.00 Build 0)  -->
<!DOCTYPE svg PUBLIC "-//W3C//DTD SVG 1.1//EN" "http://www.w3.org/Graphics/SVG/1.1/DTD/svg11.dtd">
<svg version="1.1" id="Layer_1" xmlns="http://www.w3.org/2000/svg" xmlns:xlink="http://www.w3.org/1999/xlink" x="0px" y="0px"
	 width="421.338px" height="107.586px" viewBox="0 0 421.338 107.586" enable-background="new 0 0 421.338 107.586"
	 xml:space="preserve">
<g id="Layer_1_1_">
	<g>
		<g>
			<g>
				<g>
					<path fill="#FFFFFF" d="M29.727,44.491h27.496V19.555h9.621v63.744h-9.621V53.531H29.727v29.768h-9.619V19.555h9.619V44.491z"
						/>
				</g>
			</g>
			<g>
				<g>
					<polygon fill="#FFFFFF" points="90.537,25.329 84.764,25.329 84.764,19.555 79.047,19.555 79.047,25.329 73.274,25.329 
						73.274,31.045 79.047,31.045 79.047,36.817 84.764,36.817 84.764,31.045 90.537,31.045 					"/>
				</g>
			</g>
			<g>
				<g>
					<path fill="#FFFFFF" d="M86.909,41.302v41.997H76.902V41.302H86.909z"/>
				</g>
			</g>
			<g>
				<g>
					<path fill="#FFFFFF" d="M96.358,83.563l12.76-62.57l20.806,44.512l21.555-44.512l11.463,62.57h-9.383l-5.851-36.589
						l-17.939,35.478l-17.432-35.518l-6.518,36.629H96.358z"/>
				</g>
			</g>
			<g>
				<g>
					<path fill="#FFFFFF" d="M205.911,31.978l-7.418,4.396c-1.391-2.406-2.709-3.977-3.965-4.711
						c-1.311-0.837-2.999-1.255-5.066-1.255c-2.54,0-4.646,0.72-6.32,2.159c-1.677,1.414-2.515,3.194-2.515,5.339
						c0,2.958,2.198,5.34,6.597,7.144l6.046,2.474c4.919,1.989,8.519,4.416,10.795,7.284c2.277,2.865,3.416,6.378,3.416,10.54
						c0,5.574-1.859,10.181-5.573,13.818c-3.745,3.666-8.389,5.496-13.938,5.496c-5.26,0-9.605-1.557-13.035-4.672
						c-3.375-3.115-5.482-7.498-6.32-13.152l9.268-2.04c0.417,3.56,1.15,6.02,2.198,7.379c1.883,2.617,4.632,3.927,8.243,3.927
						c2.852,0,5.222-0.954,7.105-2.865c1.886-1.912,2.828-4.333,2.828-7.264c0-1.177-0.165-2.258-0.491-3.239
						c-0.329-0.98-0.839-1.884-1.531-2.708c-0.693-0.822-1.59-1.596-2.688-2.315c-1.101-0.72-2.409-1.407-3.925-2.061l-5.852-2.433
						c-8.296-3.509-12.443-8.638-12.443-15.391c0-4.554,1.739-8.363,5.22-11.424c3.48-3.088,7.813-4.632,12.995-4.632
						C196.53,21.77,201.987,25.173,205.911,31.978z"/>
				</g>
			</g>
		</g>
	</g>
	
		<line fill="#FFFFFF" stroke="#FFFFFF" stroke-width="2" stroke-miterlimit="10" x1="238.209" y1="16.755" x2="238.209" y2="88.764"/>
</g>
<g id="Layer_2" display="none">
	<g display="inline">
		<path fill="#FFFFFF" d="M349.912,27.005v8.146h10.188v-8.146h1.985v18.723h-1.985v-8.805h-10.188v8.805h-1.985V27.005H349.912z"/>
		<path fill="#FFFFFF" d="M383.168,36.347c0,1.44-0.185,2.764-0.556,3.972c-0.372,1.208-0.915,2.248-1.631,3.121
			c-0.716,0.874-1.596,1.551-2.638,2.033c-1.044,0.483-2.235,0.725-3.577,0.725c-1.344,0-2.534-0.242-3.576-0.725
			s-1.919-1.161-2.631-2.033c-0.711-0.87-1.252-1.913-1.623-3.121c-0.372-1.208-0.558-2.532-0.558-3.972
			c0-1.432,0.186-2.75,0.558-3.953c0.371-1.203,0.912-2.239,1.623-3.107c0.712-0.868,1.589-1.543,2.631-2.027
			c1.042-0.483,2.232-0.725,3.576-0.725c1.342,0,2.533,0.242,3.577,0.725c1.042,0.483,1.922,1.159,2.638,2.027
			s1.259,1.904,1.631,3.107S383.168,34.915,383.168,36.347z M381.169,36.347c0-1.262-0.167-2.391-0.497-3.389
			c-0.331-0.998-0.784-1.843-1.36-2.536c-0.575-0.695-1.256-1.222-2.033-1.584c-0.777-0.363-1.614-0.544-2.51-0.544
			c-0.903,0-1.743,0.181-2.521,0.544c-0.778,0.362-1.455,0.889-2.027,1.584c-0.572,0.693-1.022,1.539-1.35,2.536
			c-0.326,0.998-0.49,2.127-0.49,3.389c0,1.261,0.164,2.393,0.49,3.396c0.326,1.002,0.776,1.85,1.35,2.543
			c0.572,0.694,1.249,1.224,2.027,1.59c0.778,0.369,1.618,0.55,2.521,0.55c0.896,0,1.731-0.184,2.51-0.55
			c0.777-0.366,1.455-0.896,2.033-1.59c0.577-0.693,1.029-1.541,1.36-2.543C381.002,38.74,381.169,37.608,381.169,36.347z"/>
		<path fill="#FFFFFF" d="M388.268,39.876c0.045,0.67,0.196,1.286,0.457,1.845c0.258,0.56,0.603,1.044,1.03,1.455
			c0.432,0.411,0.938,0.732,1.523,0.96c0.587,0.229,1.229,0.343,1.928,0.343c0.626,0,1.226-0.07,1.797-0.208
			c0.572-0.139,1.078-0.357,1.518-0.658c0.438-0.3,0.788-0.69,1.047-1.169s0.39-1.058,0.39-1.738c0-0.555-0.142-1.027-0.424-1.416
			c-0.279-0.389-0.65-0.725-1.113-1.006c-0.462-0.282-0.981-0.526-1.569-0.731c-0.586-0.206-1.179-0.397-1.778-0.578
			c-0.502-0.143-1.005-0.299-1.51-0.469c-0.504-0.17-0.992-0.362-1.461-0.578c-0.472-0.214-0.908-0.46-1.315-0.738
			c-0.406-0.278-0.761-0.604-1.062-0.979c-0.3-0.376-0.536-0.803-0.71-1.282c-0.176-0.479-0.263-1.031-0.263-1.658
			c0-0.778,0.151-1.464,0.454-2.06c0.305-0.595,0.732-1.094,1.282-1.497c0.549-0.402,1.207-0.709,1.973-0.919
			s1.604-0.315,2.518-0.315c0.813,0,1.535,0.081,2.16,0.242c0.627,0.161,1.173,0.38,1.639,0.657c0.466,0.278,0.858,0.602,1.18,0.973
			c0.322,0.373,0.588,0.763,0.793,1.175c0.204,0.411,0.356,0.836,0.454,1.275c0.102,0.438,0.162,0.858,0.188,1.261h-2.038
			c-0.054-0.626-0.204-1.177-0.451-1.651c-0.245-0.474-0.563-0.873-0.953-1.194c-0.389-0.322-0.837-0.564-1.349-0.725
			c-0.512-0.161-1.051-0.242-1.623-0.242c-0.528,0-1.045,0.054-1.552,0.161c-0.506,0.108-0.957,0.279-1.355,0.517
			c-0.398,0.238-0.721,0.549-0.966,0.933c-0.246,0.384-0.369,0.854-0.369,1.409c0,0.573,0.139,1.059,0.415,1.455
			c0.278,0.397,0.648,0.739,1.115,1.026c0.466,0.286,0.995,0.532,1.59,0.739c0.597,0.207,1.212,0.406,1.845,0.603
			c0.511,0.153,1.018,0.313,1.518,0.483c0.5,0.172,0.983,0.362,1.449,0.578c0.468,0.216,0.896,0.457,1.296,0.73
			c0.398,0.274,0.745,0.591,1.041,0.953c0.294,0.361,0.524,0.779,0.69,1.25c0.165,0.468,0.248,1.008,0.248,1.617
			c0,0.913-0.168,1.714-0.503,2.409c-0.335,0.693-0.802,1.272-1.402,1.738s-1.311,0.816-2.134,1.053
			c-0.822,0.237-1.723,0.356-2.696,0.356c-0.879,0-1.731-0.15-2.562-0.45s-1.572-0.725-2.22-1.275
			c-0.649-0.549-1.174-1.218-1.571-2.006c-0.399-0.787-0.61-1.673-0.639-2.656h2.055v0.001H388.268z"/>
		<path fill="#FFFFFF" d="M404.24,27.005h7.088c0.912,0,1.719,0.16,2.414,0.476c0.698,0.316,1.284,0.73,1.759,1.235
			c0.475,0.504,0.834,1.075,1.08,1.711c0.245,0.635,0.368,1.271,0.368,1.905c0,0.681-0.122,1.343-0.368,1.986
			c-0.246,0.644-0.607,1.216-1.087,1.718c-0.479,0.502-1.067,0.904-1.766,1.208c-0.697,0.306-1.5,0.457-2.402,0.457h-5.1v8.025
			h-1.986V27.005z M406.226,35.944h5.1c0.483,0,0.943-0.094,1.382-0.282c0.439-0.188,0.827-0.448,1.162-0.78
			c0.335-0.33,0.602-0.715,0.799-1.154c0.196-0.438,0.296-0.913,0.296-1.422c0-0.502-0.093-0.964-0.275-1.389
			s-0.438-0.793-0.765-1.107c-0.327-0.314-0.711-0.555-1.154-0.732c-0.444-0.174-0.925-0.262-1.443-0.262h-5.1L406.226,35.944
			L406.226,35.944z"/>
		<path fill="#FFFFFF" d="M348.552,59.986l5.944,15.971l6.051-15.971h2.577v18.723h-1.983V63.357l-5.624,15.353h-1.812
			l-5.744-15.353V78.71h-1.985V59.986H348.552z"/>
		<path fill="#FFFFFF" d="M377.11,59.986l6.804,18.723h-2.065l-2.162-5.959h-7.957l-2.162,5.959h-2.054l6.856-18.723H377.11z
			 M375.714,61.839l-3.436,9.408h6.857L375.714,61.839z"/>
		<path fill="#FFFFFF" d="M390.892,59.986l9.528,16.186V59.986h1.985v18.723h-2.657l-9.527-16.172v16.172h-1.985V59.986H390.892z"/>
		<path fill="#FFFFFF" d="M416.392,59.986l6.804,18.723h-2.065l-2.161-5.959h-7.959l-2.16,5.959h-2.054l6.856-18.723H416.392z
			 M414.996,61.839l-3.437,9.408h6.857L414.996,61.839z"/>
	</g>
</g>
<g id="Layer_3">
	<g>
		<path fill="#FFFFFF" d="M265.24,84.245V21.562h35.466v6.886h-27.281v19.747h23.839v6.301h-23.839v22.863h29.49v6.887
			L265.24,84.245L265.24,84.245z"/>
		<path fill="#FFFFFF" d="M321.037,84.245h-8.186V21.562h19.423c4.763,0,8.347,0.682,10.75,2.046
			c2.402,1.364,4.309,3.345,5.717,5.943c1.406,2.598,2.109,5.414,2.109,8.444c0,2.469-0.477,4.829-1.429,7.08
			c-0.953,2.252-2.284,4.287-3.995,6.106c-1.711,1.818-4.363,3.442-7.957,4.871c1.342,0.737,2.35,1.44,3.021,2.111
			c0.671,0.672,1.494,1.765,2.469,3.28c0.975,1.517,1.829,2.923,2.565,4.223l10.004,18.577h-9.354l-8.704-16.499
			c-2.078-3.983-4.807-7.471-8.185-10.458h-8.249V84.245z M321.037,51.052h7.989c3.334,0,5.879-0.52,7.633-1.56
			c1.754-1.039,3.139-2.555,4.157-4.547c1.017-1.991,1.525-4.113,1.525-6.365c0-1.949-0.4-3.703-1.202-5.262
			s-1.991-2.858-3.571-3.897c-1.581-1.039-4.233-1.559-7.957-1.559h-8.574V51.052z"/>
		<path fill="#FFFFFF" d="M371.181,84.245h-8.185V21.562h17.474c6.668,0,11.367,0.672,14.096,2.014
			c2.729,1.343,4.784,3.335,6.171,5.976c1.386,2.642,2.079,5.695,2.079,9.159c0,5.89-2.005,10.826-6.01,14.81
			c-4.006,3.985-9.948,5.977-17.83,5.977h-7.795V84.245z M371.181,53.196h5.521c7.188,0,11.93-1.386,14.226-4.157
			c2.294-2.771,3.442-6.084,3.442-9.938c0-3.378-0.921-6.095-2.761-8.152c-1.842-2.056-5.489-3.085-10.945-3.085h-9.483V53.196z"/>
	</g>
</g>
</svg>
