<?xml version="1.0" encoding="utf-8"?>
<!-- Generator: Adobe Illustrator 22.1.0, SVG Export Plug-In . SVG Version: 6.00 Build 0)  -->
<svg version="1.1" id="Layer_1" xmlns="http://www.w3.org/2000/svg" xmlns:xlink="http://www.w3.org/1999/xlink" x="0px" y="0px"
	 viewBox="0 0 370.4 87.6" style="enable-background:new 0 0 370.4 87.6;" xml:space="preserve">
<style type="text/css">
	.st0{opacity:0.5;}
	.st1{opacity:0.6;}
	.st2{mask:url(#SVGID_2_);}
	.st3{fill:#231F20;}
	.st4{opacity:0.8;}
	.st5{fill:none;}
	.st6{fill:none;stroke:#FFFFFF;stroke-width:2;stroke-miterlimit:10;}
	.st7{opacity:0.5;fill:#231F20;enable-background:new    ;}
	.st8{fill:#FFFFFF;}
	.st9{fill:#020202;}
	.st10{opacity:0.1;fill:#020202;}
	.st11{opacity:0.1;}
	.st12{opacity:0.1;fill:#FFFFFF;}
</style>
<g id="Layer_1_1_" class="st0">
	<g class="st1">
		<defs>
			<filter id="Adobe_OpacityMaskFilter" filterUnits="userSpaceOnUse" x="91.3" y="9.9" width="220.2" height="70.7">
				<feColorMatrix  type="matrix" values="1 0 0 0 0  0 1 0 0 0  0 0 1 0 0  0 0 0 1 0"/>
			</filter>
		</defs>
		<mask maskUnits="userSpaceOnUse" x="91.3" y="9.9" width="220.2" height="70.7" id="SVGID_2_">
		</mask>
		<g class="st2">
			<g>
				<g>
					<g>
						<g>
							<g>
								<g>
									<path class="st3" d="M122.8,36.8h29.1V10.4h10.2v67.5h-10.2V46.3h-29.1v31.5h-10.2V10.4h10.2V36.8z"/>
									<path class="st3" d="M162.6,78.3h-11.2V46.8h-28.1v31.5h-11.2V9.9h11.2v26.4h28.1V9.9h11.2L162.6,78.3L162.6,78.3z
										 M152.4,77.3h9.2V10.9h-9.2v26.4h-30.1V10.9h-9.2v66.5h9.2V45.8h30.1L152.4,77.3L152.4,77.3z"/>
								</g>
							</g>
						</g>
						<g>
							<g>
								<g>
									<polygon class="st3" points="187.2,16.5 181.1,16.5 181.1,10.4 175,10.4 175,16.5 168.9,16.5 168.9,22.5 175,22.5 
										175,28.6 181.1,28.6 181.1,22.5 187.2,22.5 									"/>
									<path class="st3" d="M181.6,29.1h-7.1V23h-6.1V16h6.1V9.9h7.1V16h6.1V23h-6.1V29.1z M175.5,28.1h5.1V22h6.1V17h-6.1v-6.1
										h-5.1V17h-6.1v5h6.1L175.5,28.1L175.5,28.1z"/>
								</g>
							</g>
						</g>
						<g>
							<g>
								<g>
									<path class="st3" d="M183.3,33.4v44.4h-10.6V33.4H183.3z"/>
									<path class="st3" d="M183.8,78.3h-11.6V32.9h11.6V78.3z M173.2,77.3h9.6V33.9h-9.6V77.3z"/>
								</g>
							</g>
						</g>
						<g>
							<g>
								<g>
									<path class="st3" d="M193.3,78.1l13.5-66.2l22,47.1l22.8-47.1l12.1,66.2h-9.9l-6.2-38.7l-19,37.6l-18.4-37.6l-6.9,38.8
										L193.3,78.1L193.3,78.1z"/>
									<path class="st3" d="M264.4,78.6h-11l-6-37.6l-18.7,37.1l-18.2-37.1l-6.7,37.7h-11l13.9-68.3l22.2,47.5l23-47.5L264.4,78.6
										z M254.3,77.6h8.9l-11.8-64.1l-22.6,46.7L207,13.5L194,77.6h9l7.1-39.9l18.7,38.1l19.2-38L254.3,77.6z"/>
								</g>
							</g>
						</g>
						<g>
							<g>
								<g>
									<path class="st3" d="M309.3,23.5l-7.9,4.7c-1.5-2.5-2.9-4.2-4.2-5c-1.4-0.9-3.2-1.3-5.4-1.3c-2.7,0-4.9,0.8-6.7,2.3
										c-1.8,1.5-2.7,3.4-2.7,5.7c0,3.1,2.3,5.7,7,7.6l6.4,2.6c5.2,2.1,9,4.7,11.4,7.7c2.4,3,3.6,6.8,3.6,11.2
										c0,5.9-2,10.8-5.9,14.6c-4,3.9-8.9,5.8-14.8,5.8c-5.6,0-10.2-1.6-13.8-4.9c-3.6-3.3-5.8-7.9-6.7-13.9l9.8-2.2
										c0.4,3.8,1.2,6.4,2.3,7.8c2,2.8,4.9,4.2,8.7,4.2c3,0,5.5-1,7.5-3c2-2,3-4.6,3-7.7c0-1.2-0.2-2.4-0.5-3.4
										c-0.3-1-0.9-2-1.6-2.9c-0.7-0.9-1.7-1.7-2.8-2.5c-1.2-0.8-2.5-1.5-4.2-2.2l-6.2-2.6c-8.8-3.7-13.2-9.1-13.2-16.3
										c0-4.8,1.8-8.9,5.5-12.1c3.7-3.3,8.3-4.9,13.8-4.9C299.4,12.7,305.1,16.3,309.3,23.5z"/>
									<path class="st3" d="M290.3,79.8c-5.7,0-10.4-1.7-14.1-5.1c-3.6-3.4-5.9-8.1-6.8-14.2l-0.1-0.5l10.8-2.4l0.1,0.5
										c0.4,3.7,1.2,6.2,2.2,7.6c1.9,2.7,4.6,4,8.3,4c2.9,0,5.3-1,7.2-2.9c1.9-1.9,2.8-4.4,2.8-7.3c0-1.2-0.2-2.3-0.5-3.3
										c-0.3-1-0.8-1.9-1.5-2.7c-0.7-0.8-1.6-1.6-2.7-2.4c-1.1-0.7-2.5-1.5-4.1-2.1l-6.2-2.6c-8.9-3.8-13.5-9.4-13.5-16.8
										c0-4.9,1.9-9.1,5.7-12.5c3.8-3.3,8.5-5,14.1-5c7.6,0,13.5,3.7,17.8,11.1l0.2,0.4l-8.7,5.2l-0.3-0.4c-1.4-2.5-2.8-4.1-4-4.8
										c-1.3-0.8-3-1.3-5.1-1.3c-2.6,0-4.7,0.7-6.4,2.2c-1.7,1.4-2.5,3.1-2.5,5.3c0,2.9,2.2,5.3,6.7,7.1l6.4,2.6
										c5.3,2.1,9.2,4.8,11.6,7.9c2.5,3.1,3.7,7,3.7,11.5c0,6-2,11.1-6,15C301.4,77.8,296.3,79.8,290.3,79.8z M270.4,60.8
										c0.9,5.6,3.1,10,6.5,13.2c3.5,3.2,8,4.8,13.5,4.8c5.7,0,10.6-1.9,14.4-5.7c3.8-3.7,5.7-8.5,5.7-14.3
										c0-4.3-1.2-7.9-3.5-10.8c-2.3-3-6.1-5.5-11.2-7.6l-6.4-2.6c-4.8-2-7.3-4.7-7.3-8c0-2.4,1-4.4,2.8-6c1.9-1.6,4.2-2.4,7-2.4
										c2.3,0,4.2,0.5,5.6,1.4c1.3,0.8,2.7,2.3,4.1,4.7l7-4.1c-4-6.7-9.6-10.1-16.6-10.1c-5.3,0-9.9,1.6-13.4,4.8
										c-3.6,3.1-5.4,7.1-5.4,11.7c0,6.9,4.3,12.2,12.9,15.8l6.2,2.6c1.6,0.7,3,1.4,4.2,2.2c1.2,0.8,2.2,1.6,3,2.5
										c0.8,0.9,1.3,1.9,1.7,3c0.4,1.1,0.5,2.3,0.5,3.6c0,3.2-1.1,5.9-3.1,8c-2.1,2.1-4.7,3.2-7.9,3.2c-4,0-7-1.5-9.1-4.4
										c-1.1-1.4-1.9-3.9-2.4-7.5L270.4,60.8z"/>
								</g>
							</g>
						</g>
					</g>
				</g>
				<g class="st4">
					<line class="st5" x1="92.3" y1="10.4" x2="92.3" y2="80.6"/>
					<rect x="91.3" y="10.4" class="st3" width="2" height="70.2"/>
				</g>
			</g>
		</g>
	</g>
</g>
<g id="Layer_2_2_" class="st0">
	<g>
		<g>
			<g>
				<g>
					<path class="st3" d="M122.8,36.8h29.1V10.4h10.2v67.5h-10.2V46.3h-29.1v31.5h-10.2V10.4h10.2V36.8z"/>
				</g>
			</g>
			<g>
				<g>
					<polygon class="st3" points="187.2,16.5 181.1,16.5 181.1,10.4 175,10.4 175,16.5 168.9,16.5 168.9,22.5 175,22.5 175,28.6 
						181.1,28.6 181.1,22.5 187.2,22.5 					"/>
				</g>
			</g>
			<g>
				<g>
					<path class="st3" d="M183.3,33.4v44.4h-10.6V33.4H183.3z"/>
				</g>
			</g>
			<g>
				<g>
					<path class="st3" d="M193.3,78.1l13.5-66.2l22,47.1l22.8-47.1l12.1,66.2h-9.9l-6.2-38.7l-19,37.6l-18.4-37.6l-6.9,38.8
						L193.3,78.1L193.3,78.1z"/>
				</g>
			</g>
			<g>
				<g>
					<path class="st3" d="M309.3,23.5l-7.9,4.7c-1.5-2.5-2.9-4.2-4.2-5c-1.4-0.9-3.2-1.3-5.4-1.3c-2.7,0-4.9,0.8-6.7,2.3
						c-1.8,1.5-2.7,3.4-2.7,5.7c0,3.1,2.3,5.7,7,7.6l6.4,2.6c5.2,2.1,9,4.7,11.4,7.7c2.4,3,3.6,6.8,3.6,11.2c0,5.9-2,10.8-5.9,14.6
						c-4,3.9-8.9,5.8-14.8,5.8c-5.6,0-10.2-1.6-13.8-4.9c-3.6-3.3-5.8-7.9-6.7-13.9l9.8-2.2c0.4,3.8,1.2,6.4,2.3,7.8
						c2,2.8,4.9,4.2,8.7,4.2c3,0,5.5-1,7.5-3c2-2,3-4.6,3-7.7c0-1.2-0.2-2.4-0.5-3.4c-0.3-1-0.9-2-1.6-2.9c-0.7-0.9-1.7-1.7-2.8-2.5
						c-1.2-0.8-2.5-1.5-4.2-2.2l-6.2-2.6c-8.8-3.7-13.2-9.1-13.2-16.3c0-4.8,1.8-8.9,5.5-12.1c3.7-3.3,8.3-4.9,13.8-4.9
						C299.4,12.7,305.1,16.3,309.3,23.5z"/>
				</g>
			</g>
		</g>
	</g>
	<line class="st6" x1="92.3" y1="10.4" x2="92.3" y2="80.6"/>
</g>
<path class="st7" d="M342.5,65.7L363.3,45l-20.7-20.7c-0.4-0.4-0.7-0.9-1-1.4l-2.6,2.6c-1.4,1.4-1.4,3.7,0,5.1L353.4,45L339,59.4
	c-1.4,1.4-1.4,3.7,0,5.1l2.6,2.6C341.8,66.6,342.1,66.1,342.5,65.7z"/>
<g id="Layer_2_1_">
	<g>
		<g>
			<g>
				<g>
					<path class="st8" d="M122.8,35.8h29.1V9.4h10.2v67.5h-10.2V45.3h-29.1v31.5h-10.2V9.4h10.2V35.8z"/>
				</g>
			</g>
			<g>
				<g>
					<polygon class="st8" points="187.2,15.5 181.1,15.5 181.1,9.4 175,9.4 175,15.5 168.9,15.5 168.9,21.5 175,21.5 175,27.6 
						181.1,27.6 181.1,21.5 187.2,21.5 					"/>
				</g>
			</g>
			<g>
				<g>
					<path class="st8" d="M183.3,32.4v44.4h-10.6V32.4H183.3z"/>
				</g>
			</g>
			<g>
				<g>
					<path class="st8" d="M193.3,77.1l13.5-66.2l22,47.1l22.8-47.1l12.1,66.2h-9.9l-6.2-38.7l-19,37.6l-18.4-37.6l-6.9,38.8
						L193.3,77.1L193.3,77.1z"/>
				</g>
			</g>
			<g>
				<g>
					<path class="st8" d="M309.3,22.5l-7.9,4.7c-1.5-2.5-2.9-4.2-4.2-5c-1.4-0.9-3.2-1.3-5.4-1.3c-2.7,0-4.9,0.8-6.7,2.3
						c-1.8,1.5-2.7,3.4-2.7,5.7c0,3.1,2.3,5.7,7,7.6l6.4,2.6c5.2,2.1,9,4.7,11.4,7.7c2.4,3,3.6,6.8,3.6,11.2c0,5.9-2,10.8-5.9,14.6
						c-4,3.9-8.9,5.8-14.8,5.8c-5.6,0-10.2-1.6-13.8-4.9c-3.6-3.3-5.8-7.9-6.7-13.9l9.8-2.2c0.4,3.8,1.2,6.4,2.3,7.8
						c2,2.8,4.9,4.2,8.7,4.2c3,0,5.5-1,7.5-3c2-2,3-4.6,3-7.7c0-1.2-0.2-2.4-0.5-3.4c-0.3-1-0.9-2-1.6-2.9c-0.7-0.9-1.7-1.7-2.8-2.5
						c-1.2-0.8-2.5-1.5-4.2-2.2l-6.2-2.6c-8.8-3.7-13.2-9.1-13.2-16.3c0-4.8,1.8-8.9,5.5-12.1c3.7-3.3,8.3-4.9,13.8-4.9
						C299.4,11.7,305.1,15.3,309.3,22.5z"/>
				</g>
			</g>
		</g>
	</g>
	<line class="st6" x1="92.3" y1="9.4" x2="92.3" y2="79.6"/>
</g>
<path class="st8" d="M342.5,64.7L363.3,44l-20.7-20.7c-0.4-0.4-0.7-0.9-1-1.4l-2.6,2.6c-1.4,1.4-1.4,3.7,0,5.1L353.4,44L339,58.4
	c-1.4,1.4-1.4,3.7,0,5.1l2.6,2.6C341.8,65.6,342.1,65.1,342.5,64.7z"/>
<g class="st0">
	<g>
		<path class="st9" d="M43.7,74.5c2.3-1.5,4-3.3,5-5.5v-11c-0.1,0-1,0.1-2.7,0.2c-1.7,0.1-2.6,0.2-2.8,0.2
			c-5.5,0.5-9.5,1.5-12.1,3.1c-2.6,1.6-3.8,4.1-3.8,7.7c0,2.4,0.7,4.3,2.1,5.6c1.4,1.3,3.4,1.9,6.1,1.9C38.6,76.8,41.3,76,43.7,74.5
			z"/>
		<path class="st10" d="M46.3,71.9c-2.3,1.5-5.1,2.3-8.2,2.3c-2.6,0-4.6-0.6-6.1-1.9c-1.4-1.3-2.1-3.2-2.1-5.6c0-2,0.4-3.7,1.3-5.1
			c-2.6,1.6-3.8,4.1-3.8,7.7c0,2.4,0.7,4.3,2.1,5.6c1.4,1.3,3.4,1.9,6.1,1.9c3.1,0,5.9-0.8,8.2-2.3c1.5-1,2.8-2.1,3.8-3.4
			C47.1,71.4,46.7,71.7,46.3,71.9z"/>
		<path class="st9" d="M69.6,31.9h-5.7c-2.6,0-4.6-2.1-4.6-4.6v-2.4h-2.4c-1,0-1.9-0.3-2.6-0.8l-32.5,2.1c-4.1,0-9.4,10.9-9.4,15
			l-1.2,33.4c0,3.5,6.3,8.2,10.8,9.6c-1.1-0.6-2.1-1.3-3-2.1c-3.3-2.9-4.9-7.1-4.9-12.6c0-5.9,1.9-10.3,5.8-13.1
			c3.9-2.9,9.7-4.7,17.5-5.4c1.1-0.1,2.2-0.3,3.5-0.4s2.6-0.3,4.2-0.4c1.6-0.1,2.8-0.3,3.7-0.4v-3c0-3.5-0.8-6-2.4-7.5
			c-1.6-1.6-4-2.4-7.3-2.4l-18.9-0.8c-1.1-3-1.7-4.6-1.7-4.7c6.7-2.9,14-4.3,21.8-4.3c7.7,0,13.3,1.7,16.7,5
			c3.5,3.3,5.2,8.7,5.2,16.2v33.2c3.9-1.5,7.9-4.1,7.9-6.8V33.7c0-0.6-0.1-1.2-0.3-1.8C69.8,31.9,69.7,31.9,69.6,31.9z"/>
		<path class="st9" d="M51.1,81.9c-0.7-2.2-1.1-3.3-1.1-3.5c-2.2,2.1-4.3,3.8-6.4,5.1l7.9-0.5C51.3,82.6,51.2,82.3,51.1,81.9z"/>
	</g>
	<g>
		<path class="st9" d="M69.6,32h-5.7c-2.6,0-4.7-2.1-4.7-4.7V25h-2.3c-2.6,0-4.7-2.1-4.7-4.7v-5.7c0-2.1,1.3-3.8,3.2-4.5
			c-0.3,0-0.6-0.1-0.8-0.1l-32.8,8.7c-3.8,1.1-9.4,4.6-9.4,8.7l-0.7,33.7c0,1.6,0.8,3.1,2.6,4.8c0.6-4.2,2.5-7.4,5.6-9.7
			c3.9-2.9,9.7-4.7,17.5-5.4c1.1-0.1,2.2-0.3,3.5-0.4s2.6-0.3,4.2-0.4c1.6-0.1,2.8-0.3,3.7-0.4v-3c0-3.5-0.8-6-2.4-7.5
			c-1.6-1.6-4-2.4-7.3-2.4l-18.9-0.8c-1.1-3-1.7-4.6-1.7-4.7c6.7-2.9,14-4.3,21.8-4.3c7.7,0,13.3,1.7,16.7,5
			c3.5,3.3,5.2,8.7,5.2,16.2v19.5c3.9-1.5,7.9-4.1,7.9-6.8V32C70,32,69.8,32,69.6,32z"/>
	</g>
	<path class="st10" d="M69.6,32H64c-2.6,0-4.7-2.1-4.7-4.7V25H57c-2.6,0-4.7-2.1-4.7-4.7v-4.9l-30.1,8.1C18,24.1,13,28.1,13,32.2
		l-1.2,33.4c0,1.6,1.3,3.4,3.1,5.1c0.6-4.2,2.5-7.4,5.5-9.7c3.8-2.9,9.6-4.7,17.3-5.4c1.1-0.1,2.2-0.3,3.4-0.4
		c1.2-0.1,2.6-0.3,4.2-0.4c1.5-0.1,2.8-0.3,3.6-0.4v-3c0-3.5-0.8-6-2.4-7.5c-1.6-1.6-4-2.4-7.2-2.4l-18.7-0.8
		c-1.1-3-1.7-4.6-1.7-4.7c6.6-2.9,13.8-4.3,21.5-4.3c7.6,0,13.1,1.7,16.6,5c3.5,3.3,5.2,8.7,5.2,16.2v19.5c3.9-1.5,7.8-4.1,7.8-6.8
		V32C70,32,69.8,32,69.6,32z"/>
	<g>
		<path class="st9" d="M75.6,11.7h-3.2V8.6c0-1.7-1.4-3.1-3.1-3.1h-5.1c-1.7,0-3.1,1.4-3.1,3.1v3.2h-3.2c-1.7,0-3.1,1.4-3.1,3.1V20
			c0,1.7,1.4,3.1,3.1,3.1h3.2v3.2c0,1.7,1.4,3.1,3.1,3.1h5.1c1.7,0,3.1-1.4,3.1-3.1V23h3.2c1.7,0,3.1-1.4,3.1-3.1v-5.1
			C78.7,13.1,77.3,11.7,75.6,11.7z"/>
	</g>
</g>
<g>
	<g>
		<path class="st8" d="M43.7,73.5c2.3-1.5,4-3.3,5-5.5v-11c-0.1,0-1,0.1-2.7,0.2c-1.7,0.1-2.6,0.2-2.8,0.2
			c-5.5,0.5-9.5,1.5-12.1,3.1c-2.6,1.6-3.8,4.1-3.8,7.7c0,2.4,0.7,4.3,2.1,5.6c1.4,1.3,3.4,1.9,6.1,1.9C38.6,75.8,41.3,75,43.7,73.5
			z"/>
		<path class="st11" d="M46.3,70.9c-2.3,1.5-5.1,2.3-8.2,2.3c-2.6,0-4.6-0.6-6.1-1.9c-1.4-1.3-2.1-3.2-2.1-5.6c0-2,0.4-3.7,1.3-5.1
			c-2.6,1.6-3.8,4.1-3.8,7.7c0,2.4,0.7,4.3,2.1,5.6c1.4,1.3,3.4,1.9,6.1,1.9c3.1,0,5.9-0.8,8.2-2.3c1.5-1,2.8-2.1,3.8-3.4
			C47.1,70.4,46.7,70.7,46.3,70.9z"/>
		<path class="st8" d="M69.6,30.9h-5.7c-2.6,0-4.6-2.1-4.6-4.6v-2.4h-2.4c-1,0-1.9-0.3-2.6-0.8l-32.5,2.1c-4.1,0-9.4,10.9-9.4,15
			l-1.2,33.4c0,3.5,6.3,8.2,10.8,9.6c-1.1-0.6-2.1-1.3-3-2.1c-3.3-2.9-4.9-7.1-4.9-12.6c0-5.9,1.9-10.3,5.8-13.1
			c3.9-2.9,9.7-4.7,17.5-5.4c1.1-0.1,2.2-0.3,3.5-0.4s2.6-0.3,4.2-0.4c1.6-0.1,2.8-0.3,3.7-0.4v-3c0-3.5-0.8-6-2.4-7.5
			c-1.6-1.6-4-2.4-7.3-2.4l-18.9-0.8c-1.1-3-1.7-4.6-1.7-4.7c6.7-2.9,14-4.3,21.8-4.3c7.7,0,13.3,1.7,16.7,5
			c3.5,3.3,5.2,8.7,5.2,16.2v33.2c3.9-1.5,7.9-4.1,7.9-6.8V32.7c0-0.6-0.1-1.2-0.3-1.8C69.8,30.9,69.7,30.9,69.6,30.9z"/>
		<path class="st8" d="M51.1,80.9c-0.7-2.2-1.1-3.3-1.1-3.5c-2.2,2.1-4.3,3.8-6.4,5.1l7.9-0.5C51.3,81.6,51.2,81.3,51.1,80.9z"/>
	</g>
	<g>
		<path class="st8" d="M69.6,31h-5.7c-2.6,0-4.7-2.1-4.7-4.7V24h-2.3c-2.6,0-4.7-2.1-4.7-4.7v-5.7c0-2.1,1.3-3.8,3.2-4.5
			C55.1,9,54.8,9,54.6,9l-32.8,8.7c-3.8,1.1-9.4,4.6-9.4,8.7l-0.7,33.7c0,1.6,0.8,3.1,2.6,4.8c0.6-4.2,2.5-7.4,5.6-9.7
			c3.9-2.9,9.7-4.7,17.5-5.4c1.1-0.1,2.2-0.3,3.5-0.4s2.6-0.3,4.2-0.4c1.6-0.1,2.8-0.3,3.7-0.4v-3c0-3.5-0.8-6-2.4-7.5
			c-1.6-1.6-4-2.4-7.3-2.4l-18.9-0.8c-1.1-3-1.7-4.6-1.7-4.7c6.7-2.9,14-4.3,21.8-4.3c7.7,0,13.3,1.7,16.7,5
			c3.5,3.3,5.2,8.7,5.2,16.2v19.5c3.9-1.5,7.9-4.1,7.9-6.8V31C70,31,69.8,31,69.6,31z"/>
	</g>
	<path class="st12" d="M69.6,31H64c-2.6,0-4.7-2.1-4.7-4.7V24H57c-2.6,0-4.7-2.1-4.7-4.7v-4.9l-30.1,8.1C18,23.1,13,27.1,13,31.2
		l-1.2,33.4c0,1.6,1.3,3.4,3.1,5.1c0.6-4.2,2.5-7.4,5.5-9.7c3.8-2.9,9.6-4.7,17.3-5.4c1.1-0.1,2.2-0.3,3.4-0.4
		c1.2-0.1,2.6-0.3,4.2-0.4c1.5-0.1,2.8-0.3,3.6-0.4v-3c0-3.5-0.8-6-2.4-7.5c-1.6-1.6-4-2.4-7.2-2.4l-18.7-0.8
		c-1.1-3-1.7-4.6-1.7-4.7c6.6-2.9,13.8-4.3,21.5-4.3c7.6,0,13.1,1.7,16.6,5c3.5,3.3,5.2,8.7,5.2,16.2v19.5c3.9-1.5,7.8-4.1,7.8-6.8
		V31C70,31,69.8,31,69.6,31z"/>
	<g>
		<path class="st8" d="M75.6,10.7h-3.2V7.6c0-1.7-1.4-3.1-3.1-3.1h-5.1c-1.7,0-3.1,1.4-3.1,3.1v3.2h-3.2c-1.7,0-3.1,1.4-3.1,3.1V19
			c0,1.7,1.4,3.1,3.1,3.1h3.2v3.2c0,1.7,1.4,3.1,3.1,3.1h5.1c1.7,0,3.1-1.4,3.1-3.1V22h3.2c1.7,0,3.1-1.4,3.1-3.1v-5.1
			C78.7,12.1,77.3,10.7,75.6,10.7z"/>
	</g>
</g>
</svg>
