<?xml version="1.0" encoding="utf-8"?>
<!-- Generator: Adobe Illustrator 22.1.0, SVG Export Plug-In . SVG Version: 6.00 Build 0)  -->
<svg version="1.1" id="Layer_1" xmlns="http://www.w3.org/2000/svg" xmlns:xlink="http://www.w3.org/1999/xlink" x="0px" y="0px"
	 viewBox="0 0 370.4 87.6" style="enable-background:new 0 0 370.4 87.6;" xml:space="preserve">
<style type="text/css">
	.st0{opacity:0.5;}
	.st1{opacity:0.6;}
	.st2{fill:#231F20;}
	.st3{opacity:0.8;}
	.st4{fill:none;}
	.st5{fill:none;stroke:#FFFFFF;stroke-width:2;stroke-miterlimit:10;}
	.st6{opacity:0.5;fill:#231F20;enable-background:new    ;}
	.st7{fill:#FFFFFF;}
	.st8{fill:#020202;}
	.st9{opacity:0.1;fill:#020202;enable-background:new    ;}
	.st10{opacity:0.1;enable-background:new    ;}
	.st11{opacity:0.1;fill:#FFFFFF;enable-background:new    ;}
	.st12{fill:#F57E20;}
</style>
<g id="Layer_1_1_" class="st0">
	<g class="st1">
		<g>
			<g>
				<g>
					<g>
						<g>
							<g>
								<g>
									<path class="st2" d="M150.5,37.7h25.9V14.2h9v59.9h-9V46.1h-25.9v27.9h-9V14.2h9V37.7z"/>
									<path class="st2" d="M185.9,74.6H176V46.6h-25v27.9h-9.9V13.7h9.9v23.5h25V13.8h9.9V74.6L185.9,74.6z M176.8,73.7h8.2v-59
										h-8.2v23.5h-26.7V14.7h-8.2v59h8.2V45.8h26.7V73.7L176.8,73.7z"/>
								</g>
							</g>
						</g>
						<g>
							<g>
								<g>
									<polygon class="st2" points="207.7,19.6 202.2,19.6 202.2,14.2 196.9,14.2 196.9,19.6 191.5,19.6 191.5,25 196.9,25 
										196.9,30.5 202.2,30.5 202.2,25 207.7,25 									"/>
									<path class="st2" d="M202.7,30.9h-6.3v-5.4H191v-6.3h5.4v-5.4h6.3v5.4h5.4v6.3h-5.4V30.9z M197.3,30h4.5v-5.4h5.4v-4.5
										h-5.4v-5.4h-4.5v5.4h-5.4v4.5h5.4V30L197.3,30z"/>
								</g>
							</g>
						</g>
						<g>
							<g>
								<g>
									<path class="st2" d="M204.2,34.6v39.4h-9.4V34.6H204.2z"/>
									<path class="st2" d="M204.7,74.6h-10.3V34.3h10.3V74.6z M195.3,73.7h8.6V35.1h-8.6V73.7z"/>
								</g>
							</g>
						</g>
						<g>
							<g>
								<g>
									<path class="st2" d="M213.2,74.4l12-58.8l19.6,41.8L265,15.5l10.7,58.8h-8.8L261.4,40l-16.8,33.4L228.2,40l-6.1,34.4
										L213.2,74.4L213.2,74.4z"/>
									<path class="st2" d="M276.3,74.8h-9.7l-5.3-33.4l-16.6,32.9l-16.2-33l-6,33.5h-9.9L225,14.2l19.8,42.2l20.4-42.2
										L276.3,74.8z M267.2,74h7.9l-10.5-56.9l-20.1,41.4l-19.4-41.4L213.6,74h8l6.3-35.4l16.5,33.8l17.1-33.7L267.2,74z"/>
								</g>
							</g>
						</g>
						<g>
							<g>
								<g>
									<path class="st2" d="M316.1,25.9l-6.9,4.1c-1.3-2.3-2.6-3.7-3.7-4.5c-1.2-0.8-2.9-1.1-4.8-1.1c-2.4,0-4.4,0.7-5.9,2
										c-1.6,1.3-2.4,3-2.4,5c0,2.8,2.1,5,6.2,6.7l5.7,2.3c4.7,1.9,8,4.2,10.2,6.8c2.2,2.7,3.2,6,3.2,9.9c0,5.2-1.7,9.6-5.2,13
										s-7.9,5.1-13.1,5.1c-4.9,0-9-1.4-12.3-4.4c-3.1-2.9-5.1-7-5.9-12.4l8.7-1.9c0.4,3.3,1,5.7,2.1,6.9c1.8,2.5,4.4,3.7,7.7,3.7
										c2.7,0,4.9-0.9,6.7-2.7c1.8-1.8,2.7-4.1,2.7-6.8c0-1.1-0.2-2.1-0.5-3s-0.8-1.8-1.4-2.6c-0.7-0.8-1.5-1.5-2.6-2.2
										c-1-0.7-2.3-1.3-3.7-1.9l-5.5-2.3c-7.8-3.3-11.7-8.1-11.7-14.4c0-4.3,1.6-7.9,4.9-10.7c3.2-2.9,7.3-4.4,12.2-4.4
										C307.3,16.3,312.4,19.5,316.1,25.9z"/>
									<path class="st2" d="M299.3,75.9c-5,0-9.2-1.5-12.5-4.5c-3.2-2.9-5.3-7.2-6.1-12.6l-0.1-0.4l9.6-2.1l0.1,0.5
										c0.4,3.2,1,5.5,2,6.7c1.7,2.4,4.1,3.5,7.4,3.5c2.6,0,4.7-0.9,6.4-2.6c1.7-1.7,2.6-3.9,2.6-6.6c0-1-0.2-2-0.5-2.9
										c-0.3-0.9-0.8-1.7-1.3-2.4c-0.7-0.8-1.4-1.4-2.5-2.1c-1-0.7-2.2-1.3-3.6-1.9l-5.5-2.3c-8-3.3-12-8.4-12-14.8
										c0-4.4,1.7-8.1,5-11s7.5-4.5,12.5-4.5c6.7,0,12,3.3,15.8,9.8l0.2,0.4l-7.7,4.6l-0.2-0.4c-1.2-2.2-2.5-3.6-3.6-4.3
										c-1.1-0.8-2.7-1.1-4.6-1.1c-2.3,0-4.2,0.7-5.6,1.9c-1.5,1.2-2.2,2.8-2.2,4.7c0,2.6,2,4.7,5.9,6.3l5.7,2.3
										c4.7,1.9,8.2,4.3,10.4,6.9c2.2,2.8,3.3,6.2,3.3,10.2c0,5.3-1.8,9.8-5.4,13.3C309.1,74.1,304.5,75.9,299.3,75.9z M281.5,59
										c0.9,5,2.8,8.9,5.7,11.7c3.1,2.9,7.1,4.3,12,4.3c5,0,9.4-1.7,12.8-5c3.4-3.3,5.1-7.6,5.1-12.6c0-3.8-1-7-3.1-9.6
										c-2.1-2.7-5.4-4.8-10-6.7l-5.7-2.3c-4.3-1.8-6.5-4.2-6.5-7.1c0-2.2,0.9-4,2.6-5.3c1.6-1.4,3.7-2.1,6.3-2.1
										c2,0,3.7,0.4,5,1.2c1.1,0.7,2.4,2.1,3.6,4.2l6.2-3.7c-3.6-6-8.6-9-14.7-9c-4.8,0-8.7,1.4-11.9,4.3
										c-3.1,2.8-4.8,6.3-4.8,10.4c0,6.1,3.8,10.8,11.4,14.1l5.5,2.3c1.4,0.7,2.7,1.3,3.8,2c1,0.7,1.9,1.4,2.7,2.3
										c0.7,0.9,1.2,1.7,1.5,2.7c0.3,1,0.5,2,0.5,3.2c0,2.9-1,5.2-2.8,7.1c-1.8,1.9-4.2,2.9-7,2.9c-3.5,0-6.3-1.3-8.1-3.9
										c-1-1.2-1.7-3.4-2.1-6.7L281.5,59z"/>
								</g>
							</g>
						</g>
					</g>
				</g>
				<g class="st3">
					<line class="st4" x1="123.4" y1="14.2" x2="123.4" y2="76.6"/>
					<rect x="122.5" y="14.2" class="st2" width="1.8" height="62.3"/>
				</g>
			</g>
		</g>
	</g>
</g>
<g id="Layer_2_2_" class="st0">
	<g>
		<g>
			<g>
				<g>
					<path class="st2" d="M150.5,37.7h25.9V14.2h9v59.9h-9V46.1h-25.9v27.9h-9V14.2h9V37.7z"/>
				</g>
			</g>
			<g>
				<g>
					<polygon class="st2" points="207.7,19.6 202.2,19.6 202.2,14.2 196.9,14.2 196.9,19.6 191.5,19.6 191.5,25 196.9,25 
						196.9,30.5 202.2,30.5 202.2,25 207.7,25 					"/>
				</g>
			</g>
			<g>
				<g>
					<path class="st2" d="M204.2,34.6v39.4h-9.4V34.6H204.2z"/>
				</g>
			</g>
			<g>
				<g>
					<path class="st2" d="M213.2,74.4l12-58.8l19.6,41.8L265,15.5l10.7,58.8h-8.8L261.4,40l-16.8,33.4L228.2,40l-6.1,34.4
						L213.2,74.4L213.2,74.4z"/>
				</g>
			</g>
			<g>
				<g>
					<path class="st2" d="M316.1,25.9l-6.9,4.1c-1.3-2.3-2.6-3.7-3.7-4.5c-1.2-0.8-2.9-1.1-4.8-1.1c-2.4,0-4.4,0.7-5.9,2
						c-1.6,1.3-2.4,3-2.4,5c0,2.8,2.1,5,6.2,6.7l5.7,2.3c4.7,1.9,8,4.2,10.2,6.8c2.2,2.7,3.2,6,3.2,9.9c0,5.2-1.7,9.6-5.2,13
						s-7.9,5.1-13.1,5.1c-4.9,0-9-1.4-12.3-4.4c-3.1-2.9-5.1-7-5.9-12.4l8.7-1.9c0.4,3.3,1,5.7,2.1,6.9c1.8,2.5,4.4,3.7,7.7,3.7
						c2.7,0,4.9-0.9,6.7-2.7c1.8-1.8,2.7-4.1,2.7-6.8c0-1.1-0.2-2.1-0.5-3s-0.8-1.8-1.4-2.6c-0.7-0.8-1.5-1.5-2.6-2.2
						c-1-0.7-2.3-1.3-3.7-1.9l-5.5-2.3c-7.8-3.3-11.7-8.1-11.7-14.4c0-4.3,1.6-7.9,4.9-10.7c3.2-2.9,7.3-4.4,12.2-4.4
						C307.3,16.3,312.4,19.5,316.1,25.9z"/>
				</g>
			</g>
		</g>
	</g>
	<line class="st5" x1="123.4" y1="14.2" x2="123.4" y2="76.6"/>
</g>
<path class="st6" d="M345.6,63.3L364,45l-18.4-18.4c-0.4-0.4-0.7-0.8-0.9-1.2l-2.3,2.3c-1.2,1.2-1.2,3.2,0,4.5L355.3,45l-12.8,12.8
	c-1.2,1.2-1.2,3.2,0,4.5l2.3,2.3C345,64.1,345.3,63.7,345.6,63.3z"/>
<g id="Layer_2_1_">
	<g>
		<g>
			<g>
				<g>
					<path class="st7" d="M150.5,36.8h25.9V13.4h9v59.9h-9V45.3h-25.9v27.9h-9V13.4h9V36.8z"/>
				</g>
			</g>
			<g>
				<g>
					<polygon class="st7" points="207.7,18.8 202.2,18.8 202.2,13.4 196.9,13.4 196.9,18.8 191.5,18.8 191.5,24.2 196.9,24.2 
						196.9,29.6 202.2,29.6 202.2,24.2 207.7,24.2 					"/>
				</g>
			</g>
			<g>
				<g>
					<path class="st7" d="M204.2,33.8v39.4h-9.4V33.8H204.2z"/>
				</g>
			</g>
			<g>
				<g>
					<path class="st7" d="M213.2,73.5l12-58.8l19.6,41.8L265,14.7l10.7,58.8h-8.8l-5.5-34.4l-16.8,33.4l-16.3-33.4L222,73.5H213.2
						L213.2,73.5z"/>
				</g>
			</g>
			<g>
				<g>
					<path class="st7" d="M316.1,25l-6.9,4.1c-1.3-2.3-2.6-3.7-3.7-4.5c-1.2-0.8-2.9-1.1-4.8-1.1c-2.4,0-4.4,0.7-5.9,2
						c-1.6,1.3-2.4,3-2.4,5c0,2.8,2.1,5,6.2,6.7l5.7,2.3c4.7,1.9,8,4.2,10.2,6.8c2.2,2.7,3.2,6,3.2,9.9c0,5.2-1.7,9.6-5.2,13
						s-7.9,5.1-13.1,5.1c-4.9,0-9-1.4-12.3-4.4c-3.1-2.9-5.1-7-5.9-12.4l8.7-1.9c0.4,3.3,1,5.7,2.1,6.9c1.8,2.5,4.4,3.7,7.7,3.7
						c2.7,0,4.9-0.9,6.7-2.7c1.8-1.8,2.7-4.1,2.7-6.8c0-1.1-0.2-2.1-0.5-3s-0.8-1.8-1.4-2.6c-0.7-0.8-1.5-1.5-2.6-2.2
						c-1-0.7-2.3-1.3-3.7-1.9l-5.6-2.3c-7.8-3.3-11.7-8.1-11.7-14.4c0-4.3,1.6-7.9,4.9-10.7c3.2-2.9,7.3-4.4,12.2-4.4
						C307.3,15.4,312.4,18.7,316.1,25z"/>
				</g>
			</g>
		</g>
	</g>
	<line class="st5" x1="123.4" y1="13.4" x2="123.4" y2="75.7"/>
</g>
<path class="st7" d="M345.6,62.5L364,44l-18.4-18.4c-0.4-0.4-0.7-0.8-0.9-1.2l-2.3,2.3c-1.2,1.2-1.2,3.2,0,4.5L355.3,44l-12.8,12.8
	c-1.2,1.2-1.2,3.2,0,4.5l2.3,2.3C345,63.2,345.3,62.9,345.6,62.5z"/>
<g class="st0">
	<g>
		<path class="st8" d="M57.6,76.6c2.5-1.6,4.3-3.6,5.3-5.8V59c-0.1,0-1.1,0.1-2.9,0.2c-1.8,0.1-2.8,0.2-3,0.2
			c-5.9,0.5-10.2,1.6-12.9,3.3c-2.7,1.7-4.1,4.4-4.1,8.2c0,2.6,0.8,4.6,2.3,6S46,79,48.8,79C52.2,79,55.1,78.2,57.6,76.6z"/>
		<path class="st9" d="M60.3,73.8c-2.5,1.6-5.4,2.4-8.8,2.4c-2.8,0-5-0.7-6.5-2.1s-2.3-3.4-2.3-6c0-2.2,0.4-4,1.3-5.4
			c-2.7,1.7-4.1,4.4-4.1,8.2c0,2.6,0.8,4.6,2.3,6s3.7,2.1,6.5,2.1c3.4,0,6.3-0.8,8.8-2.4c1.7-1.1,3-2.3,4-3.6
			C61.2,73.3,60.8,73.6,60.3,73.8z"/>
		<path class="st8" d="M85.3,31.1h-6.1c-2.7,0-4.9-2.2-4.9-4.9v-2.6h-2.6c-1,0-2-0.3-2.8-0.9l-34.7,2.2c-4.4,0-10,11.6-10,16
			l-1.4,35.7c0,3.7,6.8,8.7,11.6,10.2c-1.1-0.6-2.2-1.4-3.2-2.2c-3.5-3.1-5.3-7.6-5.3-13.5c0-6.3,2.1-11,6.2-14s10.4-5,18.7-5.8
			c1.1-0.1,2.4-0.3,3.7-0.4s2.8-0.3,4.5-0.4c1.7-0.1,3-0.3,3.9-0.4v-3.2c0-3.7-0.9-6.4-2.5-8.1c-1.7-1.7-4.3-2.5-7.8-2.5l-20.2-0.9
			c-1.2-3.2-1.8-4.9-1.8-5c7.2-3.1,14.9-4.6,23.3-4.6c8.2,0,14.2,1.8,17.9,5.3c3.7,3.6,5.6,9.3,5.6,17.3v35.4
			c4.2-1.6,8.4-4.4,8.4-7.2V32.9c0-0.6-0.1-1.2-0.3-1.9C85.5,31,85.4,31.1,85.3,31.1z"/>
		<path class="st8" d="M65.5,84.4c-0.8-2.3-1.2-3.6-1.2-3.7c-2.3,2.3-4.6,4.1-6.8,5.4l8.4-0.5C65.8,85.3,65.6,84.9,65.5,84.4z"/>
	</g>
	<g>
		<path class="st8" d="M85.3,31.2h-6.1c-2.8,0-5-2.3-5-5v-2.5h-2.5c-2.8,0-5-2.3-5-5v-6.1c0-2.2,1.4-4.1,3.4-4.8
			c-0.3,0-0.6-0.1-0.8-0.1l-35,9.3c-4,1.2-10,4.9-10,9.3l-0.8,36c0,1.7,0.9,3.4,2.8,5.1c0.7-4.5,2.6-8,5.9-10.4
			c4.1-3,10.4-5,18.7-5.8c1.1-0.1,2.4-0.3,3.7-0.4s2.8-0.3,4.5-0.4c1.7-0.1,3-0.3,3.9-0.4v-3.2c0-3.7-0.9-6.4-2.5-8.1
			c-1.7-1.7-4.3-2.5-7.8-2.5l-20.2-0.9c-1.2-3.2-1.8-4.9-1.8-5c7.2-3.1,14.9-4.6,23.3-4.6c8.2,0,14.2,1.8,17.9,5.3
			c3.7,3.6,5.6,9.3,5.6,17.3v20.9c4.2-1.6,8.4-4.4,8.4-7.2V31.1C85.7,31.1,85.5,31.2,85.3,31.2z"/>
	</g>
	<path class="st9" d="M85.3,31.2h-6.1c-2.7,0-5-2.3-5-5v-2.5h-2.4c-2.7,0-5-2.3-5-5v-5.2L34.7,22c-4.6,0.6-9.9,4.9-9.9,9.3
		l-1.3,35.8c0,1.7,1.4,3.6,3.3,5.4c0.7-4.5,2.6-8,5.9-10.4c4.1-3,10.3-5,18.5-5.8c1.1-0.1,2.4-0.3,3.7-0.4s2.8-0.3,4.4-0.4
		c1.6-0.1,2.9-0.3,3.9-0.4v-3.2c0-3.7-0.8-6.4-2.5-8.1c-1.7-1.7-4.2-2.5-7.7-2.5l-19.9-0.9c-1.2-3.2-1.8-4.9-1.8-5
		c7.1-3.1,14.8-4.6,23-4.6c8.1,0,14,1.8,17.7,5.3c3.7,3.6,5.5,9.3,5.5,17.3v20.9c4.2-1.6,8.4-4.4,8.4-7.2v-36
		C85.7,31.1,85.5,31.2,85.3,31.2z"/>
	<g>
		<path class="st8" d="M91.7,9.5h-3.4V6.1c0-1.8-1.5-3.3-3.3-3.3h-5.5c-1.8,0-3.3,1.5-3.3,3.3v3.4h-3.4c-1.8,0-3.3,1.5-3.3,3.3v5.5
			c0,1.8,1.5,3.3,3.3,3.3h3.4V25c0,1.8,1.5,3.3,3.3,3.3H85c1.8,0,3.3-1.5,3.3-3.3v-3.4h3.4c1.8,0,3.3-1.5,3.3-3.3v-5.5
			C95,11,93.5,9.5,91.7,9.5z"/>
	</g>
</g>
<g>
	<g>
		<path class="st7" d="M57.6,75.5c2.5-1.6,4.3-3.6,5.3-5.8V57.9c-0.1,0-1.1,0.1-2.9,0.2c-1.8,0.1-2.8,0.2-3,0.2
			c-5.9,0.5-10.2,1.6-12.9,3.3C41.4,63.3,40,66,40,69.8c0,2.6,0.8,4.6,2.3,6s3.7,2.1,6.5,2.1C52.2,77.9,55.1,77.1,57.6,75.5z"/>
		<path class="st10" d="M60.3,72.8c-2.5,1.6-5.4,2.4-8.8,2.4c-2.8,0-5-0.7-6.5-2.1s-2.3-3.4-2.3-6c0-2.2,0.4-4,1.3-5.4
			c-2.7,1.7-4.1,4.4-4.1,8.2c0,2.6,0.8,4.6,2.3,6s3.7,2.1,6.5,2.1c3.4,0,6.3-0.8,8.8-2.4c1.7-1.1,3-2.3,4-3.6
			C61.2,72.2,60.8,72.5,60.3,72.8z"/>
		<path class="st7" d="M85.3,30h-6.1c-2.7,0-4.9-2.2-4.9-4.9v-2.6h-2.6c-1,0-2-0.3-2.8-0.9l-34.7,2.2c-4.4,0-10,11.6-10,16
			l-1.4,35.8c0,3.7,6.8,8.7,11.6,10.2c-1.1-0.6-2.2-1.4-3.2-2.2C27.7,80.5,26,76,26,70.1c0-6.3,2.1-11,6.2-14s10.4-5,18.7-5.8
			c1.1-0.1,2.4-0.3,3.7-0.4s2.8-0.3,4.5-0.4c1.7-0.1,3-0.3,3.9-0.4v-3.2c0-3.7-0.9-6.4-2.5-8.1c-1.7-1.7-4.3-2.5-7.8-2.5l-20.2-0.9
			c-1.2-3.2-1.8-4.9-1.8-5c7.2-3.1,14.9-4.6,23.3-4.6c8.2,0,14.2,1.8,17.9,5.3c3.7,3.6,5.6,9.3,5.6,17.3v35.4
			c4.2-1.6,8.4-4.4,8.4-7.2V31.9c0-0.6-0.1-1.2-0.3-1.9C85.5,30,85.4,30,85.3,30z"/>
		<path class="st7" d="M65.5,83.4c-0.8-2.3-1.2-3.6-1.2-3.7c-2.3,2.3-4.6,4.1-6.8,5.4l8.4-0.5C65.8,84.2,65.6,83.8,65.5,83.4z"/>
	</g>
	<g>
		<path class="st7" d="M85.3,30.1h-6.1c-2.8,0-5-2.3-5-5v-2.5h-2.5c-2.8,0-5-2.3-5-5v-6.1c0-2.2,1.4-4.1,3.4-4.8
			c-0.3,0-0.6-0.1-0.8-0.1l-35,9.3c-4,1.2-10,4.9-10,9.3l-0.8,36c0,1.7,0.9,3.4,2.8,5.1c0.7-4.5,2.6-8,5.9-10.4
			c4.1-3,10.4-5,18.7-5.8c1.1-0.1,2.4-0.3,3.7-0.4s2.8-0.3,4.5-0.4c1.7-0.1,3-0.3,3.9-0.4v-3.2c0-3.7-0.9-6.4-2.5-8.1
			c-1.7-1.7-4.3-2.5-7.8-2.5l-20.2-0.9c-1.2-3.2-1.8-4.9-1.8-5c7.2-3.1,14.9-4.6,23.3-4.6c8.2,0,14.2,1.8,17.9,5.3
			c3.7,3.6,5.6,9.3,5.6,17.3v20.9c4.2-1.6,8.4-4.4,8.4-7.2V30.1C85.7,30.1,85.5,30.1,85.3,30.1z"/>
	</g>
	<path class="st11" d="M85.3,30.1h-6.1c-2.7,0-5-2.3-5-5v-2.5h-2.4c-2.7,0-5-2.3-5-5v-5.2L34.7,21c-4.6,0.6-9.9,4.9-9.9,9.3L23.5,66
		c0,1.7,1.4,3.6,3.3,5.4c0.7-4.5,2.6-8,5.9-10.4c4.1-3,10.3-5,18.5-5.8c1.1-0.1,2.4-0.3,3.7-0.4c1.3-0.1,2.8-0.3,4.4-0.4
		c1.6-0.1,2.9-0.3,3.9-0.4v-3.2c0-3.7-0.8-6.4-2.5-8.1C59,41,56.5,40.2,53,40.2l-19.9-0.9c-1.2-3.2-1.8-4.9-1.8-5
		c7.1-3.1,14.8-4.6,23-4.6c8.1,0,14,1.8,17.7,5.3c3.7,3.6,5.5,9.3,5.5,17.3v20.9c4.2-1.6,8.4-4.4,8.4-7.2V30
		C85.7,30.1,85.5,30.1,85.3,30.1z"/>
	<g>
		<path class="st12" d="M91.7,8.4h-3.4V5.1c0-1.8-1.5-3.3-3.3-3.3h-5.5c-1.8,0-3.3,1.5-3.3,3.3v3.4h-3.4c-1.8,0-3.3,1.5-3.3,3.3v5.5
			c0,1.8,1.5,3.3,3.3,3.3h3.4V24c0,1.8,1.5,3.3,3.3,3.3H85c1.8,0,3.3-1.5,3.3-3.3v-3.4h3.4c1.8,0,3.3-1.5,3.3-3.3v-5.5
			C95,9.9,93.5,8.4,91.7,8.4z"/>
	</g>
</g>
</svg>
