<?xml version="1.0" encoding="utf-8"?>
<!-- Generator: Adobe Illustrator 22.1.0, SVG Export Plug-In . SVG Version: 6.00 Build 0)  -->
<svg version="1.1" id="Layer_1" xmlns="http://www.w3.org/2000/svg" xmlns:xlink="http://www.w3.org/1999/xlink" x="0px" y="0px"
	 viewBox="0 0 370.4 87.6" style="enable-background:new 0 0 370.4 87.6;" xml:space="preserve">
<style type="text/css">
	.st0{opacity:0.5;}
	.st1{opacity:0.6;}
	.st2{mask:url(#SVGID_2_);}
	.st3{fill:#231F20;}
	.st4{opacity:0.8;}
	.st5{fill:none;}
	.st6{fill:none;stroke:#FFFFFF;stroke-width:2;stroke-miterlimit:10;}
	.st7{opacity:0.5;fill:#231F20;enable-background:new    ;}
	.st8{fill:#FFFFFF;}
	.st9{fill:#020202;}
	.st10{opacity:0.1;fill:#020202;}
	.st11{opacity:0.1;}
	.st12{opacity:0.1;fill:#FFFFFF;}
	.st13{fill:#F57E20;}
</style>
<g id="Layer_1_1_" class="st0">
	<g class="st1">
		<defs>
			<filter id="Adobe_OpacityMaskFilter" filterUnits="userSpaceOnUse" x="94.2" y="12.2" width="205.7" height="66.1">
				<feColorMatrix  type="matrix" values="1 0 0 0 0  0 1 0 0 0  0 0 1 0 0  0 0 0 1 0"/>
			</filter>
		</defs>
		<mask maskUnits="userSpaceOnUse" x="94.2" y="12.2" width="205.7" height="66.1" id="SVGID_2_">
		</mask>
		<g class="st2">
			<g>
				<g>
					<g>
						<g>
							<g>
								<g>
									<path class="st3" d="M123.7,37.3h27.2V12.6h9.5v63h-9.5V46.2h-27.2v29.4h-9.5v-63h9.5V37.3z"/>
									<path class="st3" d="M160.9,76.1h-10.4V46.7h-26.3v29.4h-10.4v-64h10.4v24.7h26.3V12.2h10.4L160.9,76.1L160.9,76.1z
										 M151.3,75.2h8.6V13.1h-8.6v24.7h-28.1V13.1h-8.6v62.1h8.6V45.8h28.1L151.3,75.2L151.3,75.2z"/>
								</g>
							</g>
						</g>
						<g>
							<g>
								<g>
									<polygon class="st3" points="183.8,18.3 178.1,18.3 178.1,12.6 172.5,12.6 172.5,18.3 166.8,18.3 166.8,24 172.5,24 
										172.5,29.7 178.1,29.7 178.1,24 183.8,24 									"/>
									<path class="st3" d="M178.6,30.2H172v-5.7h-5.7v-6.6h5.7v-5.7h6.6v5.7h5.7v6.6h-5.7V30.2z M172.9,29.2h4.7v-5.7h5.7v-4.7
										h-5.7v-5.7h-4.7v5.7h-5.7v4.7h5.7V29.2L172.9,29.2z"/>
								</g>
							</g>
						</g>
						<g>
							<g>
								<g>
									<path class="st3" d="M180.2,34.1v41.5h-9.9V34.1H180.2z"/>
									<path class="st3" d="M180.7,76.1h-10.8V33.7h10.8V76.1z M170.8,75.2h9V34.6h-9V75.2z"/>
								</g>
							</g>
						</g>
						<g>
							<g>
								<g>
									<path class="st3" d="M189.6,75.9l12.6-61.9l20.6,44l21.3-44l11.3,61.9h-9.3l-5.8-36.2l-17.7,35.1l-17.2-35.1l-6.4,36.2
										L189.6,75.9L189.6,75.9z"/>
									<path class="st3" d="M256,76.4h-10.2l-5.6-35.1l-17.5,34.6l-17-34.7l-6.3,35.2H189l13-63.8L222.8,57l21.5-44.4L256,76.4z
										 M246.5,75.5h8.3l-11-59.9l-21.1,43.6l-20.4-43.6l-12.2,59.9h8.4l6.6-37.2l17.4,35.6l18-35.5L246.5,75.5z"/>
								</g>
							</g>
						</g>
						<g>
							<g>
								<g>
									<path class="st3" d="M297.9,24.9l-7.3,4.3c-1.4-2.4-2.7-3.9-3.9-4.7c-1.3-0.8-3-1.2-5-1.2c-2.5,0-4.6,0.7-6.2,2.1
										c-1.7,1.4-2.5,3.2-2.5,5.3c0,2.9,2.2,5.3,6.5,7.1l6,2.4c4.9,2,8.4,4.4,10.7,7.2c2.3,2.8,3.4,6.3,3.4,10.4
										c0,5.5-1.8,10.1-5.5,13.7c-3.7,3.6-8.3,5.4-13.8,5.4c-5.2,0-9.5-1.5-12.9-4.6c-3.3-3.1-5.4-7.4-6.2-13l9.2-2
										c0.4,3.5,1.1,6,2.2,7.3c1.9,2.6,4.6,3.9,8.1,3.9c2.8,0,5.2-0.9,7-2.8c1.9-1.9,2.8-4.3,2.8-7.2c0-1.2-0.2-2.2-0.5-3.2
										c-0.3-1-0.8-1.9-1.5-2.7c-0.7-0.8-1.6-1.6-2.7-2.3c-1.1-0.7-2.4-1.4-3.9-2l-5.8-2.4c-8.2-3.5-12.3-8.5-12.3-15.2
										c0-4.5,1.7-8.3,5.2-11.3c3.4-3.1,7.7-4.6,12.8-4.6C288.6,14.8,294,18.2,297.9,24.9z"/>
									<path class="st3" d="M280.2,77.5c-5.3,0-9.7-1.6-13.2-4.7c-3.4-3.1-5.6-7.6-6.4-13.3l-0.1-0.4l10.1-2.2l0.1,0.5
										c0.4,3.4,1.1,5.8,2.1,7.1c1.8,2.5,4.3,3.7,7.8,3.7c2.7,0,4.9-0.9,6.7-2.7c1.8-1.8,2.7-4.1,2.7-6.9c0-1.1-0.2-2.1-0.5-3.1
										c-0.3-0.9-0.8-1.8-1.4-2.5c-0.7-0.8-1.5-1.5-2.6-2.2c-1.1-0.7-2.3-1.4-3.8-2l-5.8-2.4c-8.4-3.5-12.6-8.8-12.6-15.6
										c0-4.6,1.8-8.5,5.3-11.6c3.5-3.1,7.9-4.7,13.2-4.7c7.1,0,12.6,3.5,16.6,10.3l0.2,0.4l-8.1,4.8l-0.2-0.4
										c-1.3-2.3-2.6-3.8-3.8-4.5c-1.2-0.8-2.8-1.2-4.8-1.2c-2.4,0-4.4,0.7-5.9,2c-1.6,1.3-2.3,2.9-2.3,4.9c0,2.7,2.1,4.9,6.2,6.6
										l6,2.4c4.9,2,8.6,4.5,10.9,7.3c2.3,2.9,3.5,6.5,3.5,10.7c0,5.6-1.9,10.3-5.7,14C290.5,75.6,285.7,77.5,280.2,77.5z
										 M261.5,59.7c0.9,5.3,2.9,9.4,6,12.3c3.3,3,7.5,4.5,12.6,4.5c5.3,0,9.9-1.8,13.5-5.3c3.6-3.5,5.4-8,5.4-13.3
										c0-4-1.1-7.4-3.3-10.1c-2.2-2.8-5.7-5.1-10.5-7.1l-6-2.4c-4.5-1.9-6.8-4.4-6.8-7.5c0-2.3,0.9-4.2,2.7-5.6
										c1.7-1.5,3.9-2.2,6.6-2.2c2.1,0,3.9,0.4,5.3,1.3c1.2,0.7,2.5,2.2,3.8,4.4l6.5-3.9c-3.8-6.3-9-9.5-15.5-9.5
										c-5,0-9.2,1.5-12.5,4.5c-3.3,2.9-5,6.6-5,10.9c0,6.4,4,11.4,12,14.8l5.8,2.4c1.5,0.7,2.8,1.4,4,2.1c1.1,0.7,2,1.5,2.8,2.4
										c0.7,0.9,1.3,1.8,1.6,2.8c0.3,1,0.5,2.1,0.5,3.4c0,3-1,5.5-2.9,7.5c-1.9,2-4.4,3-7.4,3c-3.7,0-6.6-1.4-8.5-4.1
										c-1-1.3-1.8-3.6-2.2-7L261.5,59.7z"/>
								</g>
							</g>
						</g>
					</g>
				</g>
				<g class="st4">
					<line class="st5" x1="95.1" y1="12.6" x2="95.1" y2="78.3"/>
					<rect x="94.2" y="12.6" class="st3" width="1.9" height="65.6"/>
				</g>
			</g>
		</g>
	</g>
</g>
<g id="Layer_2_2_" class="st0">
	<g>
		<g>
			<g>
				<g>
					<path class="st3" d="M123.7,37.3h27.2V12.6h9.5v63h-9.5V46.2h-27.2v29.4h-9.5v-63h9.5V37.3z"/>
				</g>
			</g>
			<g>
				<g>
					<polygon class="st3" points="183.8,18.3 178.1,18.3 178.1,12.6 172.5,12.6 172.5,18.3 166.8,18.3 166.8,24 172.5,24 
						172.5,29.7 178.1,29.7 178.1,24 183.8,24 					"/>
				</g>
			</g>
			<g>
				<g>
					<path class="st3" d="M180.2,34.1v41.5h-9.9V34.1H180.2z"/>
				</g>
			</g>
			<g>
				<g>
					<path class="st3" d="M189.6,75.9l12.6-61.9l20.6,44l21.3-44l11.3,61.9h-9.3l-5.8-36.2l-17.7,35.1l-17.2-35.1l-6.4,36.2
						L189.6,75.9L189.6,75.9z"/>
				</g>
			</g>
			<g>
				<g>
					<path class="st3" d="M297.9,24.9l-7.3,4.3c-1.4-2.4-2.7-3.9-3.9-4.7c-1.3-0.8-3-1.2-5-1.2c-2.5,0-4.6,0.7-6.2,2.1
						c-1.7,1.4-2.5,3.2-2.5,5.3c0,2.9,2.2,5.3,6.5,7.1l6,2.4c4.9,2,8.4,4.4,10.7,7.2c2.3,2.8,3.4,6.3,3.4,10.4
						c0,5.5-1.8,10.1-5.5,13.7c-3.7,3.6-8.3,5.4-13.8,5.4c-5.2,0-9.5-1.5-12.9-4.6c-3.3-3.1-5.4-7.4-6.2-13l9.2-2
						c0.4,3.5,1.1,6,2.2,7.3c1.9,2.6,4.6,3.9,8.1,3.9c2.8,0,5.2-0.9,7-2.8c1.9-1.9,2.8-4.3,2.8-7.2c0-1.2-0.2-2.2-0.5-3.2
						c-0.3-1-0.8-1.9-1.5-2.7c-0.7-0.8-1.6-1.6-2.7-2.3c-1.1-0.7-2.4-1.4-3.9-2l-5.8-2.4c-8.2-3.5-12.3-8.5-12.3-15.2
						c0-4.5,1.7-8.3,5.2-11.3c3.4-3.1,7.7-4.6,12.8-4.6C288.6,14.8,294,18.2,297.9,24.9z"/>
				</g>
			</g>
		</g>
	</g>
	<line class="st6" x1="95.1" y1="12.6" x2="95.1" y2="78.3"/>
</g>
<path class="st7" d="M328.9,64.3L348.3,45l-19.4-19.4c-0.4-0.4-0.7-0.8-0.9-1.3l-2.4,2.4c-1.3,1.3-1.3,3.4,0,4.7L339.1,45
	l-13.5,13.5c-1.3,1.3-1.3,3.4,0,4.7l2.4,2.4C328.3,65.1,328.6,64.7,328.9,64.3z"/>
<g id="Layer_2_1_">
	<g>
		<g>
			<g>
				<g>
					<path class="st8" d="M123.7,36.4h27.2V11.7h9.5v63h-9.5V45.3h-27.2v29.4h-9.5v-63h9.5V36.4z"/>
				</g>
			</g>
			<g>
				<g>
					<polygon class="st8" points="183.8,17.4 178.1,17.4 178.1,11.7 172.5,11.7 172.5,17.4 166.8,17.4 166.8,23.1 172.5,23.1 
						172.5,28.8 178.1,28.8 178.1,23.1 183.8,23.1 					"/>
				</g>
			</g>
			<g>
				<g>
					<path class="st8" d="M180.2,33.2v41.5h-9.9V33.2H180.2z"/>
				</g>
			</g>
			<g>
				<g>
					<path class="st8" d="M189.6,75l12.6-61.9l20.6,44l21.3-44L255.4,75h-9.3l-5.8-36.2l-17.7,35.1l-17.2-35.1L198.9,75L189.6,75
						L189.6,75z"/>
				</g>
			</g>
			<g>
				<g>
					<path class="st8" d="M297.9,24l-7.3,4.3c-1.4-2.4-2.7-3.9-3.9-4.7c-1.3-0.8-3-1.2-5-1.2c-2.5,0-4.6,0.7-6.2,2.1
						c-1.7,1.4-2.5,3.2-2.5,5.3c0,2.9,2.2,5.3,6.5,7.1l6,2.4c4.9,2,8.4,4.4,10.7,7.2c2.3,2.8,3.4,6.3,3.4,10.4
						c0,5.5-1.8,10.1-5.5,13.7c-3.7,3.6-8.3,5.4-13.8,5.4c-5.2,0-9.5-1.5-12.9-4.6c-3.3-3.1-5.4-7.4-6.2-13l9.2-2
						c0.4,3.5,1.1,6,2.2,7.3c1.9,2.6,4.6,3.9,8.1,3.9c2.8,0,5.2-0.9,7-2.8c1.9-1.9,2.8-4.3,2.8-7.2c0-1.2-0.2-2.2-0.5-3.2
						c-0.3-1-0.8-1.9-1.5-2.7c-0.7-0.8-1.6-1.6-2.7-2.3c-1.1-0.7-2.4-1.4-3.9-2L276,45c-8.2-3.5-12.3-8.5-12.3-15.2
						c0-4.5,1.7-8.3,5.2-11.3c3.4-3.1,7.7-4.6,12.8-4.6C288.6,13.9,294,17.3,297.9,24z"/>
				</g>
			</g>
		</g>
	</g>
	<line class="st6" x1="95.1" y1="11.7" x2="95.1" y2="77.3"/>
</g>
<path class="st8" d="M328.9,63.4L348.3,44l-19.4-19.4c-0.4-0.4-0.7-0.8-0.9-1.3l-2.4,2.4c-1.3,1.3-1.3,3.4,0,4.7L339.1,44
	l-13.5,13.5c-1.3,1.3-1.3,3.4,0,4.7l2.4,2.4C328.3,64.2,328.6,63.8,328.9,63.4z"/>
<g class="st0">
	<g>
		<path class="st9" d="M37.6,76.6c2.5-1.6,4.3-3.6,5.3-5.8V59c-0.1,0-1.1,0.1-2.9,0.2c-1.8,0.1-2.8,0.2-3,0.2
			c-5.9,0.5-10.2,1.6-12.9,3.3c-2.7,1.7-4.1,4.4-4.1,8.2c0,2.6,0.8,4.6,2.3,6c1.5,1.4,3.7,2.1,6.5,2.1C32.2,79,35.1,78.2,37.6,76.6z
			"/>
		<path class="st10" d="M40.3,73.8c-2.5,1.6-5.4,2.4-8.8,2.4c-2.8,0-5-0.7-6.5-2.1c-1.5-1.4-2.3-3.4-2.3-6c0-2.2,0.4-4,1.3-5.4
			c-2.7,1.7-4.1,4.4-4.1,8.2c0,2.6,0.8,4.6,2.3,6c1.5,1.4,3.7,2.1,6.5,2.1c3.4,0,6.3-0.8,8.8-2.4c1.7-1.1,3-2.3,4-3.6
			C41.2,73.3,40.8,73.6,40.3,73.8z"/>
		<path class="st9" d="M65.3,31.1h-6.1c-2.7,0-4.9-2.2-4.9-4.9v-2.6h-2.6c-1,0-2-0.3-2.8-0.9l-34.7,2.2c-4.4,0-10,11.6-10,16
			L2.8,76.6c0,3.7,6.8,8.7,11.6,10.2c-1.1-0.6-2.2-1.4-3.2-2.2C7.7,81.5,5.9,77,5.9,71.1c0-6.3,2.1-11,6.2-14c4.1-3,10.4-5,18.7-5.8
			c1.1-0.1,2.4-0.3,3.7-0.4s2.8-0.3,4.5-0.4c1.7-0.1,3-0.3,3.9-0.4v-3.2c0-3.7-0.9-6.4-2.5-8.1c-1.7-1.7-4.3-2.5-7.8-2.5l-20.2-0.9
			c-1.2-3.2-1.8-4.9-1.8-5c7.2-3.1,14.9-4.6,23.3-4.6c8.2,0,14.2,1.8,17.9,5.3c3.7,3.6,5.6,9.3,5.6,17.3v35.4
			c4.2-1.6,8.4-4.4,8.4-7.2V32.9c0-0.6-0.1-1.2-0.3-1.9C65.5,31,65.4,31.1,65.3,31.1z"/>
		<path class="st9" d="M45.5,84.4c-0.8-2.3-1.2-3.6-1.2-3.7c-2.3,2.3-4.6,4.1-6.8,5.4l8.4-0.5C45.8,85.3,45.6,84.9,45.5,84.4z"/>
	</g>
	<g>
		<path class="st9" d="M65.3,31.2h-6.1c-2.8,0-5-2.3-5-5v-2.5h-2.5c-2.8,0-5-2.3-5-5v-6.1c0-2.2,1.4-4.1,3.4-4.8
			c-0.3,0-0.6-0.1-0.8-0.1l-35,9.3c-4,1.2-10,4.9-10,9.3l-0.8,36c0,1.7,0.9,3.4,2.8,5.1c0.7-4.5,2.6-8,5.9-10.4
			c4.1-3,10.4-5,18.7-5.8c1.1-0.1,2.4-0.3,3.7-0.4s2.8-0.3,4.5-0.4c1.7-0.1,3-0.3,3.9-0.4v-3.2c0-3.7-0.9-6.4-2.5-8.1
			c-1.7-1.7-4.3-2.5-7.8-2.5l-20.2-0.9c-1.2-3.2-1.8-4.9-1.8-5c7.2-3.1,14.9-4.6,23.3-4.6c8.2,0,14.2,1.8,17.9,5.3
			c3.7,3.6,5.6,9.3,5.6,17.3v20.9c4.2-1.6,8.4-4.4,8.4-7.2V31.1C65.7,31.1,65.5,31.2,65.3,31.2z"/>
	</g>
	<path class="st10" d="M65.3,31.2h-6.1c-2.7,0-5-2.3-5-5v-2.5h-2.4c-2.7,0-5-2.3-5-5v-5.2L14.7,22c-4.6,0.6-9.9,4.9-9.9,9.3
		L3.5,67.1c0,1.7,1.4,3.6,3.3,5.4c0.7-4.5,2.6-8,5.9-10.4c4.1-3,10.3-5,18.5-5.8c1.1-0.1,2.4-0.3,3.7-0.4s2.8-0.3,4.4-0.4
		c1.6-0.1,2.9-0.3,3.9-0.4v-3.2c0-3.7-0.8-6.4-2.5-8.1c-1.7-1.7-4.2-2.5-7.7-2.5l-19.9-0.9c-1.2-3.2-1.8-4.9-1.8-5
		c7.1-3.1,14.8-4.6,23-4.6c8.1,0,14,1.8,17.7,5.3c3.7,3.6,5.5,9.3,5.5,17.3v20.9c4.2-1.6,8.4-4.4,8.4-7.2v-36
		C65.7,31.1,65.5,31.2,65.3,31.2z"/>
	<g>
		<path class="st9" d="M71.7,9.5h-3.4V6.1c0-1.8-1.5-3.3-3.3-3.3h-5.5c-1.8,0-3.3,1.5-3.3,3.3v3.4h-3.4c-1.8,0-3.3,1.5-3.3,3.3v5.5
			c0,1.8,1.5,3.3,3.3,3.3h3.4V25c0,1.8,1.5,3.3,3.3,3.3H65c1.8,0,3.3-1.5,3.3-3.3v-3.4h3.4c1.8,0,3.3-1.5,3.3-3.3v-5.5
			C75,11,73.5,9.5,71.7,9.5z"/>
	</g>
</g>
<g>
	<g>
		<path class="st8" d="M37.6,75.5c2.5-1.6,4.3-3.6,5.3-5.8V57.9c-0.1,0-1.1,0.1-2.9,0.2c-1.8,0.1-2.8,0.2-3,0.2
			c-5.9,0.5-10.2,1.6-12.9,3.3c-2.7,1.7-4.1,4.4-4.1,8.2c0,2.6,0.8,4.6,2.3,6c1.5,1.4,3.7,2.1,6.5,2.1
			C32.2,77.9,35.1,77.1,37.6,75.5z"/>
		<path class="st11" d="M40.3,72.8c-2.5,1.6-5.4,2.4-8.8,2.4c-2.8,0-5-0.7-6.5-2.1c-1.5-1.4-2.3-3.4-2.3-6c0-2.2,0.4-4,1.3-5.4
			c-2.7,1.7-4.1,4.4-4.1,8.2c0,2.6,0.8,4.6,2.3,6c1.5,1.4,3.7,2.1,6.5,2.1c3.4,0,6.3-0.8,8.8-2.4c1.7-1.1,3-2.3,4-3.6
			C41.2,72.2,40.8,72.5,40.3,72.8z"/>
		<path class="st8" d="M65.3,30h-6.1c-2.7,0-4.9-2.2-4.9-4.9v-2.6h-2.6c-1,0-2-0.3-2.8-0.9l-34.7,2.2c-4.4,0-10,11.6-10,16L2.8,75.6
			c0,3.7,6.8,8.7,11.6,10.2c-1.1-0.6-2.2-1.4-3.2-2.2c-3.5-3.1-5.2-7.6-5.2-13.5c0-6.3,2.1-11,6.2-14c4.1-3,10.4-5,18.7-5.8
			c1.1-0.1,2.4-0.3,3.7-0.4s2.8-0.3,4.5-0.4c1.7-0.1,3-0.3,3.9-0.4v-3.2c0-3.7-0.9-6.4-2.5-8.1c-1.7-1.7-4.3-2.5-7.8-2.5l-20.2-0.9
			c-1.2-3.2-1.8-4.9-1.8-5c7.2-3.1,14.9-4.6,23.3-4.6c8.2,0,14.2,1.8,17.9,5.3c3.7,3.6,5.6,9.3,5.6,17.3v35.4
			c4.2-1.6,8.4-4.4,8.4-7.2V31.9c0-0.6-0.1-1.2-0.3-1.9C65.5,30,65.4,30,65.3,30z"/>
		<path class="st8" d="M45.5,83.4c-0.8-2.3-1.2-3.6-1.2-3.7c-2.3,2.3-4.6,4.1-6.8,5.4l8.4-0.5C45.8,84.2,45.6,83.8,45.5,83.4z"/>
	</g>
	<g>
		<path class="st8" d="M65.3,30.1h-6.1c-2.8,0-5-2.3-5-5v-2.5h-2.5c-2.8,0-5-2.3-5-5v-6.1c0-2.2,1.4-4.1,3.4-4.8
			c-0.3,0-0.6-0.1-0.8-0.1l-35,9.3c-4,1.2-10,4.9-10,9.3l-0.8,36c0,1.7,0.9,3.4,2.8,5.1c0.7-4.5,2.6-8,5.9-10.4
			c4.1-3,10.4-5,18.7-5.8c1.1-0.1,2.4-0.3,3.7-0.4s2.8-0.3,4.5-0.4c1.7-0.1,3-0.3,3.9-0.4v-3.2c0-3.7-0.9-6.4-2.5-8.1
			c-1.7-1.7-4.3-2.5-7.8-2.5l-20.2-0.9c-1.2-3.2-1.8-4.9-1.8-5c7.2-3.1,14.9-4.6,23.3-4.6c8.2,0,14.2,1.8,17.9,5.3
			c3.7,3.6,5.6,9.3,5.6,17.3v20.9c4.2-1.6,8.4-4.4,8.4-7.2V30.1C65.7,30.1,65.5,30.1,65.3,30.1z"/>
	</g>
	<path class="st12" d="M65.3,30.1h-6.1c-2.7,0-5-2.3-5-5v-2.5h-2.4c-2.7,0-5-2.3-5-5v-5.2L14.7,21c-4.6,0.6-9.9,4.9-9.9,9.3L3.5,66
		c0,1.7,1.4,3.6,3.3,5.4c0.7-4.5,2.6-8,5.9-10.4c4.1-3,10.3-5,18.5-5.8c1.1-0.1,2.4-0.3,3.7-0.4c1.3-0.1,2.8-0.3,4.4-0.4
		c1.6-0.1,2.9-0.3,3.9-0.4v-3.2c0-3.7-0.8-6.4-2.5-8.1c-1.7-1.7-4.2-2.5-7.7-2.5l-19.9-0.9c-1.2-3.2-1.8-4.9-1.8-5
		c7.1-3.1,14.8-4.6,23-4.6c8.1,0,14,1.8,17.7,5.3c3.7,3.6,5.5,9.3,5.5,17.3v20.9c4.2-1.6,8.4-4.4,8.4-7.2v-36
		C65.7,30.1,65.5,30.1,65.3,30.1z"/>
	<g>
		<path class="st13" d="M71.7,8.4h-3.4V5.1c0-1.8-1.5-3.3-3.3-3.3h-5.5c-1.8,0-3.3,1.5-3.3,3.3v3.4h-3.4c-1.8,0-3.3,1.5-3.3,3.3v5.5
			c0,1.8,1.5,3.3,3.3,3.3h3.4v3.4c0,1.8,1.5,3.3,3.3,3.3H65c1.8,0,3.3-1.5,3.3-3.3v-3.4h3.4c1.8,0,3.3-1.5,3.3-3.3v-5.5
			C75,9.9,73.5,8.4,71.7,8.4z"/>
	</g>
</g>
</svg>
