<?xml version="1.0" encoding="utf-8"?>
<!-- Generator: Adobe Illustrator 16.0.0, SVG Export Plug-In . SVG Version: 6.00 Build 0)  -->
<!DOCTYPE svg PUBLIC "-//W3C//DTD SVG 1.1//EN" "http://www.w3.org/Graphics/SVG/1.1/DTD/svg11.dtd">
<svg version="1.1" id="Layer_1" xmlns="http://www.w3.org/2000/svg" xmlns:xlink="http://www.w3.org/1999/xlink" x="0px" y="0px"
	 width="690.098px" height="107.586px" viewBox="0 0 690.098 107.586" enable-background="new 0 0 690.098 107.586"
	 xml:space="preserve">
<g>
	<g>
		<g>
			<g>
				<path fill="#61B59A" d="M39.923,43.333h35.764V10.898H88.2v82.913H75.686V55.092H39.923v38.719H27.411V10.898h12.512V43.333z"/>
			</g>
		</g>
		<g>
			<g>
				<polygon fill="#ED1C24" points="119.02,18.408 111.51,18.408 111.51,10.898 104.073,10.898 104.073,18.408 96.565,18.408 
					96.565,25.844 104.073,25.844 104.073,33.352 111.51,33.352 111.51,25.844 119.02,25.844 				"/>
			</g>
		</g>
		<g>
			<g>
				<path fill="#61B59A" d="M114.301,39.185v54.626h-13.017V39.185H114.301z"/>
			</g>
		</g>
		<g>
			<g>
				<path fill="#009FAF" d="M126.591,94.155l16.596-81.386l27.063,57.897l28.036-57.897l14.91,81.386h-12.204l-7.609-47.592
					L170.048,92.71l-22.673-46.199l-8.478,47.644H126.591z"/>
			</g>
		</g>
		<g>
			<g>
				<path fill="#009FAF" d="M269.088,27.057l-9.65,5.719c-1.806-3.13-3.522-5.173-5.157-6.128c-1.703-1.089-3.9-1.633-6.589-1.633
					c-3.303,0-6.042,0.937-8.221,2.808c-2.18,1.839-3.27,4.155-3.27,6.945c0,3.848,2.859,6.946,8.578,9.293l7.865,3.218
					c6.399,2.586,11.081,5.743,14.042,9.472c2.962,3.727,4.443,8.297,4.443,13.711c0,7.25-2.417,13.242-7.249,17.974
					c-4.872,4.768-10.912,7.148-18.129,7.148c-6.844,0-12.495-2.023-16.955-6.077c-4.391-4.051-7.132-9.753-8.222-17.106
					l12.054-2.654c0.543,4.629,1.497,7.829,2.859,9.598c2.449,3.405,6.024,5.107,10.723,5.107c3.709,0,6.791-1.242,9.242-3.728
					c2.451-2.485,3.678-5.634,3.678-9.447c0-1.53-0.213-2.936-0.638-4.212c-0.427-1.276-1.091-2.451-1.992-3.523
					c-0.903-1.071-2.068-2.076-3.498-3.013c-1.43-0.935-3.132-1.831-5.104-2.68l-7.611-3.166
					c-10.792-4.562-16.186-11.234-16.186-20.017c0-5.923,2.263-10.877,6.79-14.86c4.528-4.017,10.162-6.025,16.904-6.025
					C256.885,13.779,263.983,18.206,269.088,27.057z"/>
			</g>
		</g>
	</g>
</g>
<line fill="none" stroke="#D1D3D4" stroke-miterlimit="10" x1="311.098" y1="7.257" x2="311.098" y2="100.918"/>
<g>
	<path fill="#FFFFFF" d="M349.912,27.005v8.146h10.187v-8.146h1.986v18.723h-1.986v-8.805h-10.187v8.805h-1.986V27.005H349.912z"/>
	<path fill="#FFFFFF" d="M383.168,36.347c0,1.44-0.185,2.764-0.556,3.972c-0.372,1.208-0.915,2.248-1.631,3.121
		c-0.716,0.874-1.596,1.551-2.638,2.033c-1.043,0.483-2.235,0.725-3.577,0.725c-1.343,0-2.534-0.242-3.576-0.725
		c-1.042-0.483-1.919-1.161-2.631-2.033c-0.711-0.87-1.252-1.913-1.623-3.121c-0.372-1.208-0.557-2.532-0.557-3.972
		c0-1.432,0.185-2.75,0.557-3.953c0.371-1.203,0.912-2.239,1.623-3.107c0.712-0.868,1.589-1.543,2.631-2.027
		c1.042-0.483,2.233-0.725,3.576-0.725c1.342,0,2.534,0.242,3.577,0.725c1.042,0.483,1.922,1.159,2.638,2.027
		s1.259,1.904,1.631,3.107C382.984,33.597,383.168,34.915,383.168,36.347z M381.169,36.347c0-1.262-0.167-2.391-0.497-3.389
		c-0.331-0.998-0.785-1.843-1.361-2.536c-0.575-0.695-1.256-1.222-2.033-1.584c-0.777-0.363-1.614-0.544-2.51-0.544
		c-0.903,0-1.743,0.181-2.521,0.544c-0.779,0.362-1.455,0.889-2.028,1.584c-0.572,0.693-1.022,1.539-1.349,2.536
		c-0.326,0.998-0.49,2.127-0.49,3.389c0,1.261,0.164,2.393,0.49,3.396c0.326,1.002,0.776,1.85,1.349,2.543
		c0.573,0.694,1.249,1.224,2.028,1.59c0.778,0.369,1.618,0.55,2.521,0.55c0.896,0,1.732-0.184,2.51-0.55
		c0.777-0.366,1.455-0.896,2.033-1.59c0.577-0.693,1.03-1.541,1.361-2.543C381.002,38.74,381.169,37.608,381.169,36.347z"/>
	<path fill="#FFFFFF" d="M388.268,39.876c0.045,0.67,0.197,1.286,0.457,1.845c0.258,0.56,0.603,1.044,1.031,1.455
		c0.431,0.411,0.938,0.732,1.523,0.96c0.587,0.228,1.229,0.343,1.928,0.343c0.626,0,1.225-0.07,1.797-0.208
		c0.572-0.139,1.078-0.357,1.517-0.658c0.438-0.3,0.788-0.69,1.047-1.169s0.389-1.058,0.389-1.738c0-0.555-0.141-1.027-0.423-1.416
		c-0.28-0.389-0.651-0.725-1.113-1.006c-0.462-0.282-0.982-0.526-1.57-0.731c-0.586-0.206-1.178-0.398-1.778-0.578
		c-0.502-0.143-1.005-0.299-1.51-0.469c-0.504-0.17-0.992-0.362-1.461-0.578c-0.471-0.214-0.908-0.46-1.315-0.738
		c-0.406-0.278-0.761-0.604-1.062-0.979c-0.299-0.376-0.536-0.803-0.71-1.282c-0.175-0.479-0.262-1.031-0.262-1.658
		c0-0.778,0.151-1.464,0.454-2.06c0.304-0.595,0.732-1.094,1.282-1.497c0.549-0.402,1.207-0.709,1.973-0.919
		c0.765-0.21,1.604-0.315,2.517-0.315c0.814,0,1.535,0.081,2.16,0.242c0.627,0.161,1.173,0.38,1.639,0.657
		c0.466,0.278,0.858,0.602,1.18,0.973c0.322,0.373,0.587,0.763,0.792,1.175c0.205,0.411,0.357,0.836,0.455,1.275
		c0.101,0.438,0.162,0.858,0.188,1.261h-2.038c-0.054-0.626-0.204-1.177-0.451-1.651c-0.245-0.474-0.563-0.873-0.953-1.194
		c-0.389-0.322-0.837-0.564-1.349-0.725c-0.511-0.161-1.051-0.242-1.623-0.242c-0.528,0-1.045,0.054-1.552,0.161
		c-0.505,0.108-0.957,0.279-1.355,0.517s-0.721,0.549-0.966,0.933c-0.246,0.384-0.369,0.854-0.369,1.409
		c0,0.573,0.139,1.059,0.415,1.455c0.278,0.397,0.648,0.739,1.115,1.026c0.466,0.286,0.995,0.532,1.59,0.739
		c0.597,0.207,1.212,0.406,1.845,0.603c0.511,0.153,1.017,0.313,1.517,0.483c0.5,0.172,0.984,0.362,1.45,0.578
		c0.467,0.216,0.896,0.457,1.295,0.731c0.399,0.274,0.745,0.591,1.041,0.953c0.294,0.361,0.525,0.779,0.691,1.25
		c0.165,0.468,0.248,1.008,0.248,1.617c0,0.913-0.168,1.714-0.503,2.409c-0.335,0.693-0.802,1.272-1.402,1.738
		c-0.601,0.466-1.311,0.816-2.134,1.053c-0.822,0.237-1.723,0.356-2.696,0.356c-0.879,0-1.732-0.15-2.563-0.45
		s-1.572-0.725-2.22-1.275c-0.649-0.549-1.173-1.218-1.571-2.006c-0.399-0.787-0.61-1.673-0.638-2.656h2.054V39.876z"/>
	<path fill="#FFFFFF" d="M404.24,27.005h7.088c0.912,0,1.718,0.16,2.414,0.476c0.698,0.316,1.284,0.73,1.758,1.235
		c0.475,0.504,0.835,1.075,1.081,1.711c0.245,0.635,0.368,1.27,0.368,1.905c0,0.681-0.122,1.343-0.368,1.986
		c-0.247,0.644-0.608,1.216-1.087,1.718c-0.479,0.502-1.068,0.904-1.766,1.208c-0.697,0.306-1.5,0.457-2.402,0.457h-5.1v8.025
		h-1.986V27.005z M406.226,35.944h5.1c0.483,0,0.943-0.094,1.382-0.282c0.439-0.188,0.827-0.448,1.162-0.78
		c0.335-0.33,0.601-0.715,0.798-1.154c0.197-0.438,0.296-0.913,0.296-1.422c0-0.502-0.092-0.964-0.275-1.389
		s-0.438-0.793-0.765-1.107c-0.327-0.314-0.711-0.555-1.154-0.732c-0.444-0.174-0.925-0.262-1.443-0.262h-5.1V35.944z"/>
	<path fill="#FFFFFF" d="M423.498,27.005v18.723h-1.986V27.005H423.498z"/>
	<path fill="#FFFFFF" d="M442.301,27.005v1.812h-6.2v16.911h-1.986V28.816h-6.188v-1.812H442.301z"/>
	<path fill="#FFFFFF" d="M452.474,27.005l6.803,18.723h-2.066l-2.16-5.959h-7.959l-2.16,5.959h-2.054l6.857-18.723H452.474z
		 M451.078,28.857l-3.437,9.408h6.857L451.078,28.857z"/>
	<path fill="#FFFFFF" d="M465.586,27.005v16.911h9.407v1.812H463.6V27.005H465.586z"/>
	<path fill="#FFFFFF" d="M487.676,27.005v18.723h-1.985V27.005H487.676z"/>
	<path fill="#FFFFFF" d="M495.997,27.005l9.528,16.186V27.005h1.985v18.723h-2.656l-9.528-16.172v16.172h-1.986V27.005H495.997z"/>
	<path fill="#FFFFFF" d="M525.067,27.005v1.812h-10.201v6.334h8.859v1.812h-8.859v8.763h-1.985V27.003h12.187V27.005z"/>
	<path fill="#FFFFFF" d="M545.399,36.347c0,1.44-0.186,2.764-0.556,3.972c-0.371,1.208-0.916,2.248-1.632,3.121
		c-0.715,0.874-1.595,1.551-2.637,2.033c-1.043,0.483-2.235,0.725-3.577,0.725s-2.534-0.242-3.576-0.725
		c-1.043-0.483-1.919-1.161-2.631-2.033c-0.711-0.87-1.252-1.913-1.624-3.121c-0.371-1.208-0.557-2.532-0.557-3.972
		c0-1.432,0.186-2.75,0.557-3.953c0.372-1.203,0.913-2.239,1.624-3.107c0.712-0.868,1.588-1.543,2.631-2.027
		c1.042-0.483,2.234-0.725,3.576-0.725s2.534,0.242,3.577,0.725c1.042,0.483,1.922,1.159,2.637,2.027
		c0.716,0.868,1.261,1.904,1.632,3.107C545.213,33.597,545.399,34.915,545.399,36.347z M543.399,36.347
		c0-1.262-0.165-2.391-0.496-3.389c-0.331-0.998-0.786-1.843-1.362-2.536c-0.575-0.695-1.255-1.222-2.032-1.584
		c-0.778-0.363-1.614-0.544-2.51-0.544c-0.903,0-1.743,0.181-2.522,0.544c-0.778,0.362-1.454,0.889-2.026,1.584
		c-0.573,0.693-1.024,1.539-1.35,2.536c-0.326,0.998-0.49,2.127-0.49,3.389c0,1.261,0.164,2.393,0.49,3.396
		c0.325,1.002,0.776,1.85,1.35,2.543c0.572,0.694,1.248,1.224,2.026,1.59c0.779,0.369,1.619,0.55,2.522,0.55
		c0.896,0,1.731-0.184,2.51-0.55c0.777-0.366,1.456-0.896,2.032-1.59c0.577-0.693,1.031-1.541,1.362-2.543
		C543.234,38.74,543.399,37.608,543.399,36.347z"/>
	<path fill="#FFFFFF" d="M562.993,32.333c0,0.465-0.057,0.921-0.168,1.369c-0.11,0.446-0.276,0.87-0.496,1.267
		c-0.221,0.397-0.494,0.763-0.825,1.094c-0.332,0.331-0.712,0.617-1.141,0.859c0.482,0.124,0.878,0.314,1.188,0.571
		c0.308,0.255,0.549,0.549,0.725,0.884c0.176,0.336,0.295,0.7,0.361,1.094s0.102,0.796,0.102,1.208v2.833
		c0,0.404,0.056,0.793,0.167,1.173c0.11,0.38,0.253,0.728,0.422,1.04h-2.16c-0.09-0.143-0.16-0.306-0.209-0.49
		c-0.05-0.183-0.088-0.374-0.114-0.57c-0.027-0.197-0.045-0.387-0.054-0.57c-0.009-0.183-0.015-0.342-0.015-0.477v-2.979
		c0-0.358-0.061-0.713-0.18-1.067c-0.121-0.354-0.317-0.668-0.592-0.946c-0.273-0.277-0.629-0.502-1.066-0.671
		c-0.439-0.17-0.972-0.255-1.599-0.255h-5.663v8.025h-1.985V27.002h7.649c0.914,0,1.721,0.16,2.422,0.477
		c0.703,0.317,1.294,0.73,1.772,1.235c0.478,0.504,0.84,1.075,1.087,1.711C562.867,31.06,562.993,31.698,562.993,32.333z
		 M551.68,35.944h5.663c0.492,0,0.957-0.094,1.396-0.282c0.438-0.188,0.825-0.448,1.16-0.78c0.336-0.33,0.603-0.715,0.799-1.154
		c0.196-0.438,0.295-0.913,0.295-1.422c0-0.502-0.091-0.964-0.274-1.389s-0.438-0.793-0.766-1.107
		c-0.326-0.314-0.713-0.555-1.16-0.732c-0.449-0.174-0.931-0.262-1.451-0.262h-5.662V35.944L551.68,35.944z"/>
	<path fill="#FFFFFF" d="M570.86,27.005l5.943,15.97l6.054-15.97h2.576v18.723h-1.985V30.375l-5.623,15.353h-1.812l-5.745-15.353
		v15.353h-1.985V27.005H570.86z"/>
	<path fill="#FFFFFF" d="M599.417,27.005l6.804,18.723h-2.067l-2.161-5.959h-7.958l-2.161,5.959h-2.053l6.858-18.723H599.417z
		 M598.021,28.857l-3.435,9.408h6.858L598.021,28.857z"/>
	<path fill="#FFFFFF" d="M620.677,27.005v1.812h-6.2v16.911h-1.986V28.816h-6.186v-1.812H620.677z"/>
	<path fill="#FFFFFF" d="M627.066,27.005v18.723h-1.987V27.005H627.066z"/>
	<path fill="#FFFFFF" d="M648.445,36.347c0,1.44-0.186,2.764-0.558,3.972c-0.371,1.208-0.915,2.248-1.63,3.121
		c-0.716,0.874-1.597,1.551-2.638,2.033c-1.043,0.483-2.234,0.725-3.577,0.725c-1.342,0-2.535-0.242-3.576-0.725
		c-1.042-0.483-1.92-1.161-2.63-2.033c-0.712-0.87-1.254-1.913-1.625-3.121c-0.37-1.208-0.557-2.532-0.557-3.972
		c0-1.432,0.187-2.75,0.557-3.953c0.371-1.203,0.913-2.239,1.625-3.107c0.71-0.868,1.588-1.543,2.63-2.027
		c1.041-0.483,2.234-0.725,3.576-0.725c1.343,0,2.534,0.242,3.577,0.725c1.041,0.483,1.922,1.159,2.638,2.027
		c0.715,0.868,1.259,1.904,1.63,3.107C648.259,33.597,648.445,34.915,648.445,36.347z M646.445,36.347
		c0-1.262-0.167-2.391-0.497-3.389c-0.332-0.998-0.785-1.843-1.361-2.536c-0.576-0.695-1.257-1.222-2.034-1.584
		c-0.776-0.363-1.614-0.544-2.508-0.544c-0.903,0-1.745,0.181-2.523,0.544c-0.779,0.362-1.455,0.889-2.027,1.584
		c-0.573,0.693-1.022,1.539-1.35,2.536c-0.326,0.998-0.489,2.127-0.489,3.389c0,1.261,0.163,2.393,0.489,3.396
		c0.327,1.002,0.776,1.85,1.35,2.543c0.572,0.694,1.248,1.224,2.027,1.59c0.778,0.369,1.62,0.55,2.523,0.55
		c0.894,0,1.731-0.184,2.508-0.55c0.779-0.366,1.457-0.896,2.034-1.59c0.576-0.693,1.029-1.541,1.361-2.543
		C646.278,38.74,646.445,37.608,646.445,36.347z"/>
	<path fill="#FFFFFF" d="M655.395,27.005l9.529,16.186V27.005h1.985v18.723h-2.657l-9.528-16.172v16.172h-1.984V27.005H655.395z"/>
	<path fill="#FFFFFF" d="M348.551,59.987l5.945,15.97l6.051-15.97h2.577v18.722h-1.984V63.357l-5.624,15.353h-1.812l-5.744-15.353
		v15.353h-1.986V59.987H348.551z"/>
	<path fill="#FFFFFF" d="M377.11,59.987l6.804,18.722h-2.066l-2.162-5.959h-7.957l-2.162,5.959h-2.054l6.857-18.722H377.11z
		 M375.714,61.839l-3.436,9.408h6.857L375.714,61.839z"/>
	<path fill="#FFFFFF" d="M390.892,59.987l9.528,16.185V59.987h1.986v18.722h-2.657l-9.528-16.172v16.172h-1.985V59.987H390.892z"/>
	<path fill="#FFFFFF" d="M416.392,59.987l6.804,18.722h-2.066l-2.161-5.959h-7.959l-2.16,5.959h-2.054l6.857-18.722H416.392z
		 M414.996,61.839l-3.437,9.408h6.858L414.996,61.839z"/>
	<path fill="#FFFFFF" d="M428.43,69.315c0,1.289,0.173,2.434,0.518,3.436c0.345,1.002,0.812,1.847,1.402,2.537
		c0.592,0.69,1.275,1.216,2.054,1.577c0.779,0.362,1.602,0.544,2.47,0.544c0.51,0,1.013-0.087,1.509-0.262s0.972-0.413,1.422-0.718
		c0.452-0.305,0.871-0.668,1.256-1.094c0.385-0.425,0.72-0.884,1.007-1.382c0.286-0.498,0.512-1.024,0.678-1.577
		c0.166-0.554,0.257-1.12,0.275-1.692h-5.812v-1.758h7.703v9.784h-1.22l-0.592-3.328c-0.312,0.483-0.699,0.95-1.161,1.404
		c-0.462,0.451-0.964,0.856-1.51,1.215c-0.545,0.358-1.118,0.644-1.718,0.858c-0.599,0.215-1.194,0.323-1.785,0.323
		c-1.307,0-2.483-0.253-3.529-0.759c-1.047-0.505-1.937-1.199-2.671-2.08c-0.733-0.881-1.297-1.923-1.69-3.127
		c-0.396-1.201-0.592-2.503-0.592-3.897c0-0.815,0.083-1.622,0.249-2.423c0.166-0.799,0.411-1.562,0.738-2.288
		c0.328-0.725,0.729-1.397,1.207-2.021c0.479-0.622,1.028-1.159,1.646-1.609c0.619-0.451,1.303-0.808,2.054-1.068
		c0.752-0.259,1.57-0.389,2.456-0.389c1.11,0,2.101,0.143,2.974,0.429c0.872,0.287,1.636,0.69,2.288,1.209
		c0.652,0.518,1.197,1.135,1.631,1.851c0.435,0.716,0.772,1.503,1.014,2.362h-2.107c-0.493-1.396-1.212-2.429-2.154-3.1
		c-0.943-0.671-2.159-1.007-3.645-1.007c-0.93,0-1.785,0.215-2.562,0.644c-0.778,0.428-1.45,1.011-2.014,1.744
		c-0.562,0.733-1.002,1.589-1.314,2.563C428.589,67.189,428.43,68.224,428.43,69.315z"/>
	<path fill="#FFFFFF" d="M460.76,59.987v1.812h-10.494v6.334h9.878v1.812h-9.878v6.952h10.964v1.812h-12.949V59.987H460.76
		L460.76,59.987z"/>
	<path fill="#FFFFFF" d="M468.464,59.987l5.946,15.97l6.051-15.97h2.577v18.722h-1.984V63.357l-5.624,15.353h-1.812l-5.744-15.353
		v15.353h-1.986V59.987H468.464z"/>
	<path fill="#FFFFFF" d="M500.888,59.987v1.812h-10.495v6.334h9.878v1.812h-9.878v6.952h10.965v1.812h-12.95V59.987H500.888
		L500.888,59.987z"/>
	<path fill="#FFFFFF" d="M508.673,59.987l9.528,16.185V59.987h1.986v18.722h-2.656L508,62.537v16.172h-1.984V59.987H508.673z"/>
	<path fill="#FFFFFF" d="M538.697,59.987v1.812h-6.2v16.911h-1.986V61.799h-6.187v-1.812H538.697z"/>
	<path fill="#FFFFFF" d="M549.903,72.857c0.045,0.671,0.197,1.286,0.456,1.845c0.259,0.56,0.604,1.045,1.032,1.456
		c0.43,0.412,0.937,0.732,1.523,0.96c0.586,0.227,1.227,0.342,1.926,0.342c0.627,0,1.227-0.07,1.799-0.208
		c0.572-0.14,1.077-0.357,1.517-0.657c0.438-0.301,0.787-0.69,1.045-1.168c0.26-0.479,0.391-1.059,0.391-1.739
		c0-0.555-0.141-1.026-0.423-1.416c-0.281-0.389-0.652-0.725-1.114-1.007c-0.461-0.282-0.983-0.525-1.571-0.731
		c-0.586-0.206-1.177-0.398-1.777-0.577c-0.501-0.143-1.005-0.3-1.51-0.47c-0.505-0.168-0.992-0.362-1.462-0.577
		s-0.908-0.461-1.315-0.738c-0.405-0.278-0.76-0.604-1.061-0.979c-0.299-0.376-0.537-0.803-0.711-1.282s-0.262-1.03-0.262-1.658
		c0-0.778,0.152-1.464,0.455-2.06c0.305-0.595,0.732-1.093,1.282-1.496s1.208-0.709,1.974-0.92c0.765-0.21,1.603-0.315,2.516-0.315
		c0.814,0,1.534,0.081,2.161,0.241c0.627,0.161,1.172,0.38,1.638,0.658c0.467,0.277,0.858,0.602,1.181,0.973
		c0.321,0.374,0.586,0.763,0.791,1.174c0.206,0.412,0.357,0.836,0.456,1.275s0.161,0.859,0.188,1.262h-2.038
		c-0.054-0.626-0.204-1.177-0.45-1.651s-0.563-0.872-0.952-1.194c-0.391-0.321-0.839-0.562-1.351-0.725
		c-0.51-0.161-1.051-0.242-1.623-0.242c-0.528,0-1.045,0.054-1.551,0.162c-0.506,0.107-0.957,0.279-1.356,0.516
		c-0.398,0.237-0.721,0.549-0.966,0.933c-0.246,0.384-0.37,0.855-0.37,1.409c0,0.573,0.139,1.058,0.417,1.455
		c0.277,0.397,0.648,0.739,1.113,1.026c0.467,0.286,0.995,0.533,1.592,0.739c0.596,0.207,1.211,0.406,1.844,0.604
		c0.51,0.152,1.018,0.312,1.518,0.483c0.501,0.171,0.983,0.361,1.45,0.577c0.465,0.216,0.896,0.457,1.295,0.732
		c0.397,0.273,0.744,0.59,1.04,0.953c0.295,0.361,0.525,0.778,0.69,1.249c0.167,0.469,0.249,1.009,0.249,1.617
		c0,0.913-0.166,1.715-0.502,2.409c-0.336,0.694-0.803,1.272-1.403,1.738s-1.312,0.816-2.133,1.054
		c-0.823,0.237-1.724,0.356-2.698,0.356c-0.876,0-1.73-0.151-2.562-0.451c-0.831-0.299-1.572-0.725-2.221-1.274
		s-1.172-1.218-1.57-2.007c-0.397-0.788-0.61-1.673-0.637-2.656L549.903,72.857L549.903,72.857z"/>
	<path fill="#FFFFFF" d="M571.885,69.435l5.41-9.448h2.294l-6.71,11.206v7.516h-1.986v-7.516l-6.697-11.206h2.295L571.885,69.435z"
		/>
	<path fill="#FFFFFF" d="M584.084,72.857c0.044,0.671,0.197,1.286,0.455,1.845c0.26,0.56,0.604,1.045,1.033,1.456
		c0.43,0.412,0.938,0.732,1.523,0.96c0.587,0.227,1.228,0.342,1.926,0.342c0.627,0,1.226-0.07,1.799-0.208
		c0.572-0.14,1.077-0.357,1.517-0.657c0.438-0.301,0.787-0.69,1.046-1.168c0.259-0.479,0.391-1.059,0.391-1.739
		c0-0.555-0.142-1.026-0.424-1.416c-0.281-0.389-0.653-0.725-1.114-1.007c-0.461-0.282-0.983-0.525-1.569-0.731
		c-0.587-0.206-1.179-0.398-1.779-0.577c-0.502-0.143-1.004-0.3-1.509-0.47c-0.506-0.168-0.993-0.362-1.463-0.577
		c-0.471-0.215-0.908-0.461-1.314-0.738c-0.407-0.278-0.761-0.604-1.061-0.979c-0.301-0.376-0.537-0.803-0.711-1.282
		c-0.175-0.479-0.263-1.03-0.263-1.658c0-0.778,0.152-1.464,0.456-2.06c0.303-0.595,0.731-1.093,1.281-1.496s1.208-0.709,1.974-0.92
		c0.765-0.21,1.603-0.315,2.516-0.315c0.814,0,1.535,0.081,2.161,0.241c0.626,0.161,1.171,0.38,1.638,0.658
		c0.466,0.277,0.859,0.602,1.182,0.973c0.321,0.374,0.585,0.763,0.791,1.174c0.204,0.412,0.357,0.836,0.455,1.275
		c0.099,0.438,0.161,0.859,0.188,1.262h-2.041c-0.053-0.626-0.203-1.177-0.449-1.651s-0.563-0.872-0.952-1.194
		c-0.39-0.321-0.839-0.562-1.35-0.725c-0.511-0.161-1.051-0.242-1.624-0.242c-0.527,0-1.044,0.054-1.551,0.162
		c-0.507,0.107-0.958,0.279-1.355,0.516c-0.399,0.237-0.72,0.549-0.968,0.933c-0.245,0.384-0.367,0.855-0.367,1.409
		c0,0.573,0.139,1.058,0.415,1.455c0.277,0.397,0.648,0.739,1.114,1.026c0.467,0.286,0.996,0.533,1.591,0.739
		c0.596,0.207,1.21,0.406,1.846,0.604c0.509,0.152,1.015,0.312,1.516,0.483c0.5,0.171,0.983,0.361,1.45,0.577
		c0.466,0.216,0.896,0.457,1.295,0.732c0.397,0.273,0.744,0.59,1.04,0.953c0.295,0.361,0.525,0.778,0.691,1.249
		c0.167,0.469,0.249,1.009,0.249,1.617c0,0.913-0.168,1.715-0.504,2.409c-0.335,0.694-0.803,1.272-1.402,1.738
		s-1.312,0.816-2.134,1.054c-0.822,0.237-1.723,0.356-2.697,0.356c-0.877,0-1.731-0.151-2.562-0.451
		c-0.832-0.299-1.572-0.725-2.221-1.274c-0.647-0.549-1.171-1.218-1.571-2.007c-0.397-0.788-0.609-1.673-0.637-2.656L584.084,72.857
		L584.084,72.857z"/>
	<path fill="#FFFFFF" d="M613.194,59.987v1.812h-6.2v16.911h-1.986V61.799h-6.186v-1.812H613.194z"/>
	<path fill="#FFFFFF" d="M629.809,59.987v1.812h-10.495v6.334h9.878v1.812h-9.878v6.952h10.964v1.812h-12.951V59.987H629.809
		L629.809,59.987z"/>
	<path fill="#FFFFFF" d="M637.513,59.987l5.945,15.97l6.052-15.97h2.577v18.722h-1.986V63.357l-5.622,15.353h-1.812l-5.745-15.353
		v15.353h-1.984V59.987H637.513z"/>
	<path fill="#FFFFFF" d="M658.26,72.857c0.045,0.671,0.198,1.286,0.457,1.845c0.259,0.56,0.604,1.045,1.033,1.456
		c0.429,0.412,0.937,0.732,1.523,0.96c0.586,0.227,1.227,0.342,1.926,0.342c0.626,0,1.226-0.07,1.798-0.208
		c0.573-0.14,1.077-0.357,1.516-0.657c0.439-0.301,0.788-0.69,1.047-1.168c0.26-0.479,0.389-1.059,0.389-1.739
		c0-0.555-0.14-1.026-0.421-1.416c-0.282-0.389-0.653-0.725-1.115-1.007c-0.461-0.282-0.983-0.525-1.57-0.731
		c-0.586-0.206-1.178-0.398-1.778-0.577c-0.501-0.143-1.004-0.3-1.51-0.47c-0.504-0.168-0.992-0.362-1.462-0.577
		c-0.469-0.215-0.908-0.461-1.314-0.738c-0.406-0.278-0.762-0.604-1.061-0.979c-0.3-0.376-0.537-0.803-0.712-1.282
		s-0.261-1.03-0.261-1.658c0-0.778,0.151-1.464,0.455-2.06c0.304-0.595,0.731-1.093,1.281-1.496s1.208-0.709,1.973-0.92
		c0.765-0.21,1.604-0.315,2.517-0.315c0.814,0,1.534,0.081,2.161,0.241c0.626,0.161,1.172,0.38,1.639,0.658
		c0.465,0.277,0.858,0.602,1.179,0.973c0.323,0.374,0.588,0.763,0.793,1.174c0.204,0.412,0.357,0.836,0.456,1.275
		c0.098,0.438,0.16,0.859,0.188,1.262h-2.04c-0.054-0.626-0.204-1.177-0.45-1.651s-0.563-0.872-0.953-1.194
		c-0.39-0.321-0.838-0.562-1.349-0.725c-0.512-0.161-1.051-0.242-1.624-0.242c-0.528,0-1.045,0.054-1.551,0.162
		c-0.506,0.107-0.958,0.279-1.356,0.516c-0.397,0.237-0.72,0.549-0.966,0.933c-0.246,0.384-0.369,0.855-0.369,1.409
		c0,0.573,0.139,1.058,0.416,1.455s0.647,0.739,1.113,1.026c0.467,0.286,0.996,0.533,1.592,0.739
		c0.596,0.207,1.211,0.406,1.845,0.604c0.51,0.152,1.017,0.312,1.517,0.483c0.501,0.171,0.983,0.361,1.449,0.577
		s0.897,0.457,1.297,0.732c0.397,0.273,0.743,0.59,1.038,0.953c0.297,0.361,0.526,0.778,0.692,1.249
		c0.165,0.469,0.249,1.009,0.249,1.617c0,0.913-0.167,1.715-0.503,2.409c-0.336,0.694-0.803,1.272-1.403,1.738
		c-0.6,0.466-1.311,0.816-2.134,1.054c-0.822,0.237-1.723,0.356-2.697,0.356c-0.877,0-1.73-0.151-2.562-0.451
		c-0.831-0.299-1.572-0.725-2.221-1.274s-1.172-1.218-1.569-2.007c-0.399-0.788-0.61-1.673-0.639-2.656L658.26,72.857L658.26,72.857
		z"/>
</g>
</svg>
