<?xml version="1.0" encoding="utf-8"?>
<!-- Generator: Adobe Illustrator 16.0.0, SVG Export Plug-In . SVG Version: 6.00 Build 0)  -->
<!DOCTYPE svg PUBLIC "-//W3C//DTD SVG 1.1//EN" "http://www.w3.org/Graphics/SVG/1.1/DTD/svg11.dtd">
<svg version="1.1" id="Layer_1" xmlns="http://www.w3.org/2000/svg" xmlns:xlink="http://www.w3.org/1999/xlink" x="0px" y="0px"
	 width="360.243px" height="138.246px" viewBox="0 -10.753 360.243 138.246" enable-background="new 0 -10.753 360.243 138.246"
	 xml:space="preserve">
<g>
	<g>
		<g>
			<path fill="#61B59A" d="M136.794,39.258h34.112V8.322h11.935v79.081h-11.935V50.474h-34.112v36.929h-11.933V8.322h11.933V39.258z
				"/>
		</g>
		<g>
			<polygon fill="#ED1C24" points="212.238,15.484 205.075,15.484 205.075,8.322 197.982,8.322 197.982,15.484 190.82,15.484 
				190.82,22.578 197.982,22.578 197.982,29.739 205.075,29.739 205.075,22.578 212.238,22.578 			"/>
		</g>
		<g>
			<path fill="#61B59A" d="M207.736,35.301v52.102H195.32V35.301H207.736z"/>
		</g>
		<g>
			<path fill="#009FAF" d="M219.458,87.731l15.828-77.625l25.814,55.223l26.738-55.223l14.221,77.625h-11.639l-7.258-45.393
				l-22.258,44.016l-21.625-44.063l-8.084,45.44H219.458z"/>
		</g>
		<g>
			<path fill="#009FAF" d="M355.37,23.733l-9.205,5.455c-1.723-2.985-3.359-4.935-4.92-5.845c-1.623-1.038-3.719-1.559-6.283-1.559
				c-3.148,0-5.764,0.894-7.842,2.679c-2.078,1.754-3.115,3.963-3.115,6.624c0,3.67,2.727,6.624,8.182,8.864l7.502,3.067
				c6.104,2.468,10.568,5.479,13.393,9.035c2.826,3.555,4.238,7.915,4.238,13.077c0,6.916-2.307,12.631-6.916,17.145
				c-4.645,4.547-10.406,6.818-17.291,6.818c-6.525,0-11.916-1.932-16.17-5.797c-4.188-3.863-6.803-9.303-7.842-16.314l11.496-2.532
				c0.518,4.415,1.428,7.468,2.727,9.155c2.338,3.248,5.746,4.871,10.229,4.871c3.537,0,6.479-1.187,8.814-3.557
				c2.338-2.37,3.508-5.373,3.508-9.01c0-1.461-0.203-2.801-0.607-4.02c-0.408-1.218-1.041-2.338-1.9-3.359
				c-0.861-1.022-1.973-1.98-3.336-2.875c-1.363-0.893-2.988-1.744-4.871-2.557l-7.258-3.02
				c-10.293-4.353-15.438-10.717-15.438-19.093c0-5.649,2.158-10.375,6.479-14.174c4.316-3.831,9.689-5.747,16.121-5.747
				C343.732,11.07,350.499,15.292,355.37,23.733z"/>
		</g>
	</g>
	<g>
		<path fill="#58595B" d="M125.557,98.081h1.375v4.148h5.162v-4.148h1.374v10.043h-1.374v-4.697h-5.162v4.697h-1.375V98.081z"/>
		<path fill="#58595B" d="M143.907,99.516c0.666,0.889,0.998,2.025,0.998,3.41c0,1.5-0.381,2.746-1.143,3.74
			c-0.894,1.167-2.167,1.75-3.822,1.75c-1.545,0-2.76-0.512-3.644-1.531c-0.789-0.984-1.183-2.229-1.183-3.732
			c0-1.357,0.337-2.521,1.012-3.486c0.866-1.238,2.146-1.859,3.842-1.859C141.742,97.807,143.055,98.375,143.907,99.516z
			 M142.707,105.917c0.535-0.858,0.803-1.849,0.803-2.966c0-1.182-0.309-2.133-0.926-2.854c-0.618-0.722-1.462-1.082-2.533-1.082
			c-1.039,0-1.887,0.357-2.543,1.071c-0.657,0.714-0.985,1.767-0.985,3.157c0,1.113,0.282,2.052,0.846,2.814
			c0.562,0.766,1.476,1.146,2.737,1.146C141.305,107.208,142.172,106.778,142.707,105.917z"/>
		<path fill="#58595B" d="M147.414,104.882c0.031,0.569,0.161,1.032,0.389,1.388c0.436,0.666,1.201,0.998,2.298,0.998
			c0.492,0,0.939-0.072,1.345-0.219c0.78-0.281,1.172-0.787,1.172-1.518c0-0.547-0.166-0.938-0.497-1.17
			c-0.335-0.229-0.861-0.426-1.576-0.594l-1.318-0.309c-0.86-0.201-1.47-0.422-1.828-0.664c-0.617-0.419-0.927-1.046-0.927-1.88
			c0-0.901,0.304-1.644,0.912-2.222c0.607-0.58,1.468-0.868,2.581-0.868c1.025,0,1.895,0.254,2.611,0.762
			c0.716,0.509,1.074,1.321,1.074,2.438h-1.278c-0.065-0.537-0.205-0.95-0.419-1.237c-0.397-0.524-1.073-0.786-2.025-0.786
			c-0.769,0-1.322,0.169-1.658,0.506c-0.336,0.338-0.505,0.729-0.505,1.176c0,0.492,0.199,0.854,0.597,1.08
			c0.261,0.146,0.85,0.328,1.769,0.547l1.364,0.321c0.658,0.155,1.166,0.367,1.522,0.636c0.619,0.471,0.929,1.151,0.929,2.045
			c0,1.112-0.396,1.908-1.185,2.387s-1.706,0.718-2.75,0.718c-1.218,0-2.171-0.319-2.86-0.957c-0.688-0.634-1.026-1.493-1.014-2.577
			L147.414,104.882L147.414,104.882z"/>
		<path fill="#58595B" d="M155.994,98.081h4.494c0.889,0,1.605,0.252,2.151,0.756c0.546,0.503,0.819,1.211,0.819,2.122
			c0,0.784-0.244,1.467-0.731,2.048c-0.486,0.581-1.232,0.872-2.237,0.872h-3.137v4.245h-1.36L155.994,98.081L155.994,98.081z
			 M161.271,99.46c-0.298-0.142-0.708-0.212-1.229-0.212h-2.688v3.479h2.688c0.605,0,1.099-0.129,1.477-0.39
			c0.378-0.26,0.567-0.718,0.567-1.374C162.086,100.227,161.814,99.725,161.271,99.46z"/>
		<path fill="#58595B" d="M165.511,98.081h1.375v10.043h-1.375V98.081z"/>
		<path fill="#58595B" d="M176.396,98.081v1.195h-3.385v8.848h-1.373v-8.848h-3.385v-1.195H176.396z"/>
		<path fill="#58595B" d="M179.544,98.081h1.537l3.645,10.043h-1.49l-1.049-3.008h-3.939l-1.09,3.008h-1.395L179.544,98.081z
			 M181.802,104.007l-1.547-4.438l-1.607,4.438H181.802z"/>
		<path fill="#58595B" d="M185.954,98.081h1.359v8.848h5.039v1.195h-6.398V98.081z"/>
		<path fill="#58595B" d="M197.083,98.081h1.949l2.887,8.49l2.869-8.49h1.934v10.043h-1.299v-5.928c0-0.205,0.004-0.545,0.014-1.02
			c0.01-0.474,0.016-0.98,0.016-1.523l-2.867,8.471h-1.348l-2.896-8.471v0.308c0,0.246,0.008,0.621,0.021,1.125
			s0.021,0.874,0.021,1.11v5.928h-1.299V98.081H197.083z"/>
		<path fill="#58595B" d="M211.712,98.081h1.535l3.645,10.043h-1.488l-1.051-3.008h-3.939l-1.088,3.008h-1.396L211.712,98.081z
			 M213.968,104.007l-1.547-4.438l-1.607,4.438H213.968z"/>
		<path fill="#58595B" d="M218.12,98.081h1.602l5.01,8.113v-8.113h1.299v10.043h-1.527l-5.084-8.104v8.104h-1.299V98.081
			L218.12,98.081z"/>
		<path fill="#58595B" d="M231.161,98.081h1.537l3.645,10.043h-1.49l-1.049-3.008h-3.939l-1.09,3.008h-1.395L231.161,98.081z
			 M233.417,104.007l-1.545-4.438l-1.607,4.438H233.417z"/>
		<path fill="#58595B" d="M244.255,98.368c0.984,0.523,1.586,1.441,1.807,2.755h-1.348c-0.16-0.733-0.492-1.269-0.998-1.603
			c-0.504-0.336-1.141-0.504-1.908-0.504c-0.91,0-1.676,0.35-2.299,1.047c-0.623,0.696-0.934,1.735-0.934,3.117
			c0,1.193,0.256,2.166,0.77,2.916s1.352,1.125,2.514,1.125c0.889,0,1.625-0.265,2.207-0.791c0.584-0.525,0.883-1.377,0.896-2.553
			h-3.146v-1.129h4.41v5.374h-0.875l-0.328-1.292c-0.451,0.506-0.854,0.855-1.203,1.053c-0.588,0.338-1.332,0.506-2.238,0.506
			c-1.17,0-2.178-0.385-3.021-1.154c-0.918-0.967-1.379-2.293-1.379-3.979c0-1.683,0.449-3.019,1.35-4.013
			c0.854-0.948,1.957-1.422,3.314-1.422C242.773,97.821,243.577,98.002,244.255,98.368z"/>
		<path fill="#58595B" d="M248.591,98.081h7.287v1.23h-5.961v3.049h5.51v1.162h-5.51v3.404h6.064v1.196h-7.391V98.081
			L248.591,98.081z"/>
		<path fill="#58595B" d="M257.765,98.081h1.949l2.889,8.49l2.867-8.49h1.936v10.043h-1.299v-5.928c0-0.205,0.006-0.545,0.014-1.02
			c0.01-0.474,0.014-0.98,0.014-1.523l-2.867,8.471h-1.348l-2.895-8.471v0.308c0,0.246,0.008,0.621,0.021,1.125
			s0.02,0.874,0.02,1.11v5.928h-1.299V98.081H257.765z"/>
		<path fill="#58595B" d="M269.593,98.081h7.287v1.23h-5.961v3.049h5.51v1.162h-5.51v3.404h6.062v1.196h-7.391V98.081H269.593z"/>
		<path fill="#58595B" d="M278.802,98.081h1.604l5.008,8.113v-8.113h1.299v10.043h-1.527l-5.084-8.104v8.104h-1.299V98.081
			L278.802,98.081z"/>
		<path fill="#58595B" d="M296.214,98.081v1.195h-3.383v8.848h-1.375v-8.848h-3.385v-1.195H296.214z"/>
		<path fill="#58595B" d="M301.997,104.882c0.031,0.569,0.16,1.032,0.389,1.388c0.436,0.666,1.201,0.998,2.299,0.998
			c0.492,0,0.939-0.072,1.344-0.219c0.781-0.281,1.174-0.787,1.174-1.518c0-0.547-0.166-0.938-0.498-1.17
			c-0.336-0.229-0.861-0.426-1.576-0.594l-1.318-0.309c-0.859-0.201-1.469-0.422-1.826-0.664c-0.617-0.419-0.928-1.046-0.928-1.88
			c0-0.901,0.305-1.644,0.91-2.222c0.609-0.58,1.469-0.868,2.582-0.868c1.025,0,1.896,0.254,2.611,0.762
			c0.717,0.509,1.074,1.321,1.074,2.438h-1.277c-0.066-0.537-0.207-0.95-0.42-1.237c-0.398-0.524-1.072-0.786-2.025-0.786
			c-0.77,0-1.322,0.169-1.658,0.506c-0.338,0.338-0.506,0.729-0.506,1.176c0,0.492,0.199,0.854,0.598,1.08
			c0.262,0.146,0.85,0.328,1.77,0.547l1.363,0.321c0.658,0.155,1.166,0.367,1.523,0.636c0.617,0.471,0.928,1.151,0.928,2.045
			c0,1.112-0.395,1.908-1.184,2.387s-1.707,0.718-2.75,0.718c-1.219,0-2.172-0.319-2.859-0.957
			c-0.689-0.634-1.027-1.493-1.016-2.577L301.997,104.882L301.997,104.882z"/>
		<path fill="#58595B" d="M309.673,98.081h1.586l2.889,4.826l2.887-4.826h1.602l-3.805,5.996v4.047h-1.361v-4.047L309.673,98.081z"
			/>
		<path fill="#58595B" d="M320.675,104.882c0.031,0.569,0.16,1.032,0.389,1.388c0.436,0.666,1.201,0.998,2.301,0.998
			c0.49,0,0.938-0.072,1.342-0.219c0.783-0.281,1.174-0.787,1.174-1.518c0-0.547-0.166-0.938-0.498-1.17
			c-0.336-0.229-0.861-0.426-1.576-0.594l-1.316-0.309c-0.861-0.201-1.471-0.422-1.828-0.664c-0.617-0.419-0.928-1.046-0.928-1.88
			c0-0.901,0.305-1.644,0.91-2.222c0.609-0.58,1.471-0.868,2.582-0.868c1.025,0,1.896,0.254,2.611,0.762
			c0.717,0.509,1.074,1.321,1.074,2.438h-1.277c-0.064-0.537-0.207-0.95-0.42-1.237c-0.396-0.524-1.072-0.786-2.025-0.786
			c-0.77,0-1.32,0.169-1.658,0.506c-0.336,0.338-0.504,0.729-0.504,1.176c0,0.492,0.197,0.854,0.596,1.08
			c0.262,0.146,0.85,0.328,1.77,0.547l1.363,0.321c0.658,0.155,1.166,0.367,1.523,0.636c0.617,0.471,0.928,1.151,0.928,2.045
			c0,1.112-0.395,1.908-1.184,2.387s-1.707,0.718-2.75,0.718c-1.219,0-2.172-0.319-2.859-0.957
			c-0.689-0.634-1.027-1.493-1.016-2.577L320.675,104.882L320.675,104.882z"/>
		<path fill="#58595B" d="M336.427,98.081v1.195h-3.383v8.848h-1.375v-8.848h-3.385v-1.195H336.427z"/>
		<path fill="#58595B" d="M337.808,98.081h7.289v1.23h-5.963v3.049h5.512v1.162h-5.512v3.404h6.064v1.196h-7.391V98.081
			L337.808,98.081z"/>
		<path fill="#58595B" d="M346.984,98.081h1.949l2.889,8.49l2.865-8.49h1.938v10.043h-1.299v-5.928c0-0.205,0.004-0.545,0.014-1.02
			c0.008-0.474,0.014-0.98,0.014-1.523l-2.867,8.471h-1.35l-2.895-8.471v0.308c0,0.246,0.008,0.621,0.021,1.125
			s0.021,0.874,0.021,1.11v5.928h-1.299V98.081H346.984z"/>
	</g>
</g>
</svg>
