<?xml version="1.0" encoding="utf-8"?>
<!-- Generator: Adobe Illustrator 22.1.0, SVG Export Plug-In . SVG Version: 6.00 Build 0)  -->
<svg version="1.1" id="Layer_1" xmlns="http://www.w3.org/2000/svg" xmlns:xlink="http://www.w3.org/1999/xlink" x="0px" y="0px"
	 viewBox="0 0 370.4 87.6" style="enable-background:new 0 0 370.4 87.6;" xml:space="preserve">
<style type="text/css">
	.st0{opacity:0.5;fill:#231F20;enable-background:new    ;}
	.st1{fill:#FFFFFF;}
	.st2{opacity:0.5;}
	.st3{fill:#020202;}
	.st4{opacity:0.1;fill:#020202;enable-background:new    ;}
	.st5{opacity:0.1;enable-background:new    ;}
	.st6{opacity:0.1;fill:#FFFFFF;enable-background:new    ;}
	.st7{fill:#F57E20;}
	.st8{filter:url(#Adobe_OpacityMaskFilter);}
	.st9{mask:url(#SVGID_1_);}
</style>
<path class="st0" d="M345.6,63.3L364,45l-18.4-18.4c-0.4-0.4-0.7-0.8-0.9-1.2l-2.3,2.3c-1.2,1.2-1.2,3.2,0,4.5L355.3,45l-12.8,12.8
	c-1.2,1.2-1.2,3.2,0,4.5l2.3,2.3C345,64.1,345.3,63.7,345.6,63.3z"/>
<path class="st1" d="M345.6,62.5L364,44l-18.4-18.4c-0.4-0.4-0.7-0.8-0.9-1.2l-2.3,2.3c-1.2,1.2-1.2,3.2,0,4.5L355.3,44l-12.8,12.8
	c-1.2,1.2-1.2,3.2,0,4.5l2.3,2.3C345,63.2,345.3,62.9,345.6,62.5z"/>
<g class="st2">
	<g>
		<path class="st3" d="M57.6,76.6c2.5-1.6,4.3-3.6,5.3-5.8V59c-0.1,0-1.1,0.1-2.9,0.2c-1.8,0.1-2.8,0.2-3,0.2
			c-5.9,0.5-10.2,1.6-12.9,3.3c-2.7,1.7-4.1,4.4-4.1,8.2c0,2.6,0.8,4.6,2.3,6S46,79,48.8,79C52.2,79,55.1,78.2,57.6,76.6z"/>
		<path class="st4" d="M60.3,73.8c-2.5,1.6-5.4,2.4-8.8,2.4c-2.8,0-5-0.7-6.5-2.1s-2.3-3.4-2.3-6c0-2.2,0.4-4,1.3-5.4
			c-2.7,1.7-4.1,4.4-4.1,8.2c0,2.6,0.8,4.6,2.3,6s3.7,2.1,6.5,2.1c3.4,0,6.3-0.8,8.8-2.4c1.7-1.1,3-2.3,4-3.6
			C61.2,73.3,60.8,73.6,60.3,73.8z"/>
		<path class="st3" d="M85.3,31.1h-6.1c-2.7,0-4.9-2.2-4.9-4.9v-2.6h-2.6c-1,0-2-0.3-2.8-0.9l-34.7,2.2c-4.4,0-10,11.6-10,16
			l-1.4,35.7c0,3.7,6.8,8.7,11.6,10.2c-1.1-0.6-2.2-1.4-3.2-2.2c-3.5-3.1-5.3-7.6-5.3-13.5c0-6.3,2.1-11,6.2-14s10.4-5,18.7-5.8
			c1.1-0.1,2.4-0.3,3.7-0.4s2.8-0.3,4.5-0.4c1.7-0.1,3-0.3,3.9-0.4v-3.2c0-3.7-0.9-6.4-2.5-8.1c-1.7-1.7-4.3-2.5-7.8-2.5l-20.2-0.9
			c-1.2-3.2-1.8-4.9-1.8-5c7.2-3.1,14.9-4.6,23.3-4.6c8.2,0,14.2,1.8,17.9,5.3c3.7,3.6,5.6,9.3,5.6,17.3v35.4
			c4.2-1.6,8.4-4.4,8.4-7.2V32.9c0-0.6-0.1-1.2-0.3-1.9C85.5,31,85.4,31.1,85.3,31.1z"/>
		<path class="st3" d="M65.5,84.4c-0.8-2.3-1.2-3.6-1.2-3.7c-2.3,2.3-4.6,4.1-6.8,5.4l8.4-0.5C65.8,85.3,65.6,84.9,65.5,84.4z"/>
	</g>
	<g>
		<path class="st3" d="M85.3,31.2h-6.1c-2.8,0-5-2.3-5-5v-2.5h-2.5c-2.8,0-5-2.3-5-5v-6.1c0-2.2,1.4-4.1,3.4-4.8
			c-0.3,0-0.6-0.1-0.8-0.1l-35,9.3c-4,1.2-10,4.9-10,9.3l-0.8,36c0,1.7,0.9,3.4,2.8,5.1c0.7-4.5,2.6-8,5.9-10.4
			c4.1-3,10.4-5,18.7-5.8c1.1-0.1,2.4-0.3,3.7-0.4s2.8-0.3,4.5-0.4c1.7-0.1,3-0.3,3.9-0.4v-3.2c0-3.7-0.9-6.4-2.5-8.1
			c-1.7-1.7-4.3-2.5-7.8-2.5l-20.2-0.9c-1.2-3.2-1.8-4.9-1.8-5c7.2-3.1,14.9-4.6,23.3-4.6c8.2,0,14.2,1.8,17.9,5.3
			c3.7,3.6,5.6,9.3,5.6,17.3v20.9c4.2-1.6,8.4-4.4,8.4-7.2V31.1C85.7,31.1,85.5,31.2,85.3,31.2z"/>
	</g>
	<path class="st4" d="M85.3,31.2h-6.1c-2.7,0-5-2.3-5-5v-2.5h-2.4c-2.7,0-5-2.3-5-5v-5.2L34.7,22c-4.6,0.6-9.9,4.9-9.9,9.3
		l-1.3,35.8c0,1.7,1.4,3.6,3.3,5.4c0.7-4.5,2.6-8,5.9-10.4c4.1-3,10.3-5,18.5-5.8c1.1-0.1,2.4-0.3,3.7-0.4s2.8-0.3,4.4-0.4
		c1.6-0.1,2.9-0.3,3.9-0.4v-3.2c0-3.7-0.8-6.4-2.5-8.1c-1.7-1.7-4.2-2.5-7.7-2.5l-19.9-0.9c-1.2-3.2-1.8-4.9-1.8-5
		c7.1-3.1,14.8-4.6,23-4.6c8.1,0,14,1.8,17.7,5.3c3.7,3.6,5.5,9.3,5.5,17.3v20.9c4.2-1.6,8.4-4.4,8.4-7.2v-36
		C85.7,31.1,85.5,31.2,85.3,31.2z"/>
	<g>
		<path class="st3" d="M91.7,9.5h-3.4V6.1c0-1.8-1.5-3.3-3.3-3.3h-5.5c-1.8,0-3.3,1.5-3.3,3.3v3.4h-3.4c-1.8,0-3.3,1.5-3.3,3.3v5.5
			c0,1.8,1.5,3.3,3.3,3.3h3.4V25c0,1.8,1.5,3.3,3.3,3.3H85c1.8,0,3.3-1.5,3.3-3.3v-3.4h3.4c1.8,0,3.3-1.5,3.3-3.3v-5.5
			C95,11,93.5,9.5,91.7,9.5z"/>
	</g>
</g>
<g>
	<g>
		<path class="st1" d="M57.6,75.5c2.5-1.6,4.3-3.6,5.3-5.8V57.9c-0.1,0-1.1,0.1-2.9,0.2c-1.8,0.1-2.8,0.2-3,0.2
			c-5.9,0.5-10.2,1.6-12.9,3.3C41.4,63.3,40,66,40,69.8c0,2.6,0.8,4.6,2.3,6s3.7,2.1,6.5,2.1C52.2,77.9,55.1,77.1,57.6,75.5z"/>
		<path class="st5" d="M60.3,72.8c-2.5,1.6-5.4,2.4-8.8,2.4c-2.8,0-5-0.7-6.5-2.1s-2.3-3.4-2.3-6c0-2.2,0.4-4,1.3-5.4
			c-2.7,1.7-4.1,4.4-4.1,8.2c0,2.6,0.8,4.6,2.3,6s3.7,2.1,6.5,2.1c3.4,0,6.3-0.8,8.8-2.4c1.7-1.1,3-2.3,4-3.6
			C61.2,72.2,60.8,72.5,60.3,72.8z"/>
		<path class="st1" d="M85.3,30h-6.1c-2.7,0-4.9-2.2-4.9-4.9v-2.6h-2.6c-1,0-2-0.3-2.8-0.9l-34.7,2.2c-4.4,0-10,11.6-10,16
			l-1.4,35.8c0,3.7,6.8,8.7,11.6,10.2c-1.1-0.6-2.2-1.4-3.2-2.2C27.7,80.5,26,76,26,70.1c0-6.3,2.1-11,6.2-14s10.4-5,18.7-5.8
			c1.1-0.1,2.4-0.3,3.7-0.4s2.8-0.3,4.5-0.4c1.7-0.1,3-0.3,3.9-0.4v-3.2c0-3.7-0.9-6.4-2.5-8.1c-1.7-1.7-4.3-2.5-7.8-2.5l-20.2-0.9
			c-1.2-3.2-1.8-4.9-1.8-5c7.2-3.1,14.9-4.6,23.3-4.6c8.2,0,14.2,1.8,17.9,5.3c3.7,3.6,5.6,9.3,5.6,17.3v35.4
			c4.2-1.6,8.4-4.4,8.4-7.2V31.9c0-0.6-0.1-1.2-0.3-1.9C85.5,30,85.4,30,85.3,30z"/>
		<path class="st1" d="M65.5,83.4c-0.8-2.3-1.2-3.6-1.2-3.7c-2.3,2.3-4.6,4.1-6.8,5.4l8.4-0.5C65.8,84.2,65.6,83.8,65.5,83.4z"/>
	</g>
	<g>
		<path class="st1" d="M85.3,30.1h-6.1c-2.8,0-5-2.3-5-5v-2.5h-2.5c-2.8,0-5-2.3-5-5v-6.1c0-2.2,1.4-4.1,3.4-4.8
			c-0.3,0-0.6-0.1-0.8-0.1l-35,9.3c-4,1.2-10,4.9-10,9.3l-0.8,36c0,1.7,0.9,3.4,2.8,5.1c0.7-4.5,2.6-8,5.9-10.4
			c4.1-3,10.4-5,18.7-5.8c1.1-0.1,2.4-0.3,3.7-0.4s2.8-0.3,4.5-0.4c1.7-0.1,3-0.3,3.9-0.4v-3.2c0-3.7-0.9-6.4-2.5-8.1
			c-1.7-1.7-4.3-2.5-7.8-2.5l-20.2-0.9c-1.2-3.2-1.8-4.9-1.8-5c7.2-3.1,14.9-4.6,23.3-4.6c8.2,0,14.2,1.8,17.9,5.3
			c3.7,3.6,5.6,9.3,5.6,17.3v20.9c4.2-1.6,8.4-4.4,8.4-7.2V30.1C85.7,30.1,85.5,30.1,85.3,30.1z"/>
	</g>
	<path class="st6" d="M85.3,30.1h-6.1c-2.7,0-5-2.3-5-5v-2.5h-2.4c-2.7,0-5-2.3-5-5v-5.2L34.7,21c-4.6,0.6-9.9,4.9-9.9,9.3L23.5,66
		c0,1.7,1.4,3.6,3.3,5.4c0.7-4.5,2.6-8,5.9-10.4c4.1-3,10.3-5,18.5-5.8c1.1-0.1,2.4-0.3,3.7-0.4c1.3-0.1,2.8-0.3,4.4-0.4
		c1.6-0.1,2.9-0.3,3.9-0.4v-3.2c0-3.7-0.8-6.4-2.5-8.1C59,41,56.5,40.2,53,40.2l-19.9-0.9c-1.2-3.2-1.8-4.9-1.8-5
		c7.1-3.1,14.8-4.6,23-4.6c8.1,0,14,1.8,17.7,5.3c3.7,3.6,5.5,9.3,5.5,17.3v20.9c4.2-1.6,8.4-4.4,8.4-7.2V30
		C85.7,30.1,85.5,30.1,85.3,30.1z"/>
	<g>
		<path class="st7" d="M91.7,8.4h-3.4V5.1c0-1.8-1.5-3.3-3.3-3.3h-5.5c-1.8,0-3.3,1.5-3.3,3.3v3.4h-3.4c-1.8,0-3.3,1.5-3.3,3.3v5.5
			c0,1.8,1.5,3.3,3.3,3.3h3.4V24c0,1.8,1.5,3.3,3.3,3.3H85c1.8,0,3.3-1.5,3.3-3.3v-3.4h3.4c1.8,0,3.3-1.5,3.3-3.3v-5.5
			C95,9.9,93.5,8.4,91.7,8.4z"/>
	</g>
</g>
<g>
	<defs>
		<filter id="Adobe_OpacityMaskFilter" filterUnits="userSpaceOnUse" x="142" y="17.8" width="180.6" height="54.2">
			<feFlood  style="flood-color:white;flood-opacity:1" result="back"/>
			<feBlend  in="SourceGraphic" in2="back" mode="normal"/>
		</filter>
	</defs>
	<mask maskUnits="userSpaceOnUse" x="142" y="17.8" width="180.6" height="54.2" id="SVGID_1_">
		<g class="st8">
			
				<image style="overflow:visible;" width="185" height="59" xlink:href="6A036C95B4FDE682.jpg"  transform="matrix(1 0 0 1 140 15.6)">
			</image>
		</g>
	</mask>
	<g class="st9">
		<g>
			<path d="M183.9,71.3h-9.1V47.9h-23.6v23.4H142V18.5h9.2v22h23.6v-22h9.1V71.3z"/>
			<path d="M214.5,40.1c-1.2-0.2-2.4-0.3-3.6-0.3c-4,0-6.8,1.5-8.2,4.6v26.8h-8.8V32.1h8.4l0.2,4.4c2.1-3.4,5.1-5.1,8.8-5.1
				c1.3,0,2.3,0.2,3.1,0.5L214.5,40.1z"/>
			<path d="M232.8,18.5L248,59l15.2-40.5H275v52.8h-9.1V53.9l0.9-23.3l-15.6,40.7h-6.6l-15.6-40.6l0.9,23.2v17.4h-9.1V18.5H232.8z"
				/>
			<path d="M313.5,57.7c0-2.3-0.8-4.1-2.4-5.4c-1.6-1.3-4.6-2.5-8.8-3.8s-7.6-2.7-10.2-4.3c-4.8-3-7.2-7-7.2-11.8
				c0-4.3,1.7-7.8,5.2-10.5c3.5-2.8,8-4.1,13.5-4.1c3.7,0,6.9,0.7,9.8,2c2.9,1.4,5.1,3.3,6.8,5.8s2.5,5.3,2.5,8.3h-9.1
				c0-2.8-0.9-4.9-2.6-6.5c-1.7-1.6-4.2-2.3-7.4-2.3c-3,0-5.3,0.6-7,1.9c-1.7,1.3-2.5,3.1-2.5,5.4c0,1.9,0.9,3.5,2.7,4.8
				c1.8,1.3,4.7,2.6,8.8,3.8c4.1,1.2,7.4,2.6,9.9,4.2c2.5,1.6,4.3,3.3,5.5,5.4c1.2,2,1.7,4.4,1.7,7.1c0,4.4-1.7,7.9-5.1,10.5
				c-3.4,2.6-7.9,3.9-13.7,3.9c-3.8,0-7.3-0.7-10.5-2.1c-3.2-1.4-5.7-3.4-7.5-5.9c-1.8-2.5-2.7-5.4-2.7-8.7h9.2c0,3,1,5.3,3,7
				c2,1.6,4.8,2.5,8.5,2.5c3.2,0,5.6-0.6,7.2-1.9C312.7,61.5,313.5,59.8,313.5,57.7z"/>
		</g>
	</g>
</g>
<g>
	<path class="st1" d="M183.9,69.3h-9.1V45.9h-23.6v23.4H142V16.5h9.2v22h23.6v-22h9.1V69.3z"/>
	<path class="st1" d="M214.5,38.1c-1.2-0.2-2.4-0.3-3.6-0.3c-4,0-6.8,1.5-8.2,4.6v26.8h-8.8V30.1h8.4l0.2,4.4
		c2.1-3.4,5.1-5.1,8.8-5.1c1.3,0,2.3,0.2,3.1,0.5L214.5,38.1z"/>
	<path class="st1" d="M232.8,16.5L248,57l15.2-40.5H275v52.8h-9.1V51.9l0.9-23.3l-15.6,40.7h-6.6l-15.6-40.6l0.9,23.2v17.4h-9.1
		V16.5H232.8z"/>
	<path class="st1" d="M313.5,55.7c0-2.3-0.8-4.1-2.4-5.4c-1.6-1.3-4.6-2.5-8.8-3.8s-7.6-2.7-10.2-4.3c-4.8-3-7.2-7-7.2-11.8
		c0-4.3,1.7-7.8,5.2-10.5c3.5-2.8,8-4.1,13.5-4.1c3.7,0,6.9,0.7,9.8,2c2.9,1.4,5.1,3.3,6.8,5.8s2.5,5.3,2.5,8.3h-9.1
		c0-2.8-0.9-4.9-2.6-6.5c-1.7-1.6-4.2-2.3-7.4-2.3c-3,0-5.3,0.6-7,1.9c-1.7,1.3-2.5,3.1-2.5,5.4c0,1.9,0.9,3.5,2.7,4.8
		c1.8,1.3,4.7,2.6,8.8,3.8c4.1,1.2,7.4,2.6,9.9,4.2c2.5,1.6,4.3,3.3,5.5,5.4c1.2,2,1.7,4.4,1.7,7.1c0,4.4-1.7,7.9-5.1,10.5
		c-3.4,2.6-7.9,3.9-13.7,3.9c-3.8,0-7.3-0.7-10.5-2.1c-3.2-1.4-5.7-3.4-7.5-5.9c-1.8-2.5-2.7-5.4-2.7-8.7h9.2c0,3,1,5.3,3,7
		c2,1.6,4.8,2.5,8.5,2.5c3.2,0,5.6-0.6,7.2-1.9C312.7,59.5,313.5,57.8,313.5,55.7z"/>
</g>
</svg>
