<?xml version="1.0" encoding="utf-8"?>
<!-- Generator: Adobe Illustrator 22.1.0, SVG Export Plug-In . SVG Version: 6.00 Build 0)  -->
<svg version="1.1" id="Layer_1" xmlns="http://www.w3.org/2000/svg" xmlns:xlink="http://www.w3.org/1999/xlink" x="0px" y="0px"
	 viewBox="0 0 310.27 175.135" enable-background="new 0 0 310.27 175.135" xml:space="preserve">
<text transform="matrix(1 0 0 1 10.4302 137.1289)"><tspan x="0" y="0" fill="#414042" font-family="'Roboto-Regular'" font-size="32.5755px">HUMAN RESOURCE</tspan><tspan x="-0.299" y="31.425" fill="#414042" font-family="'Roboto-Regular'" font-size="26.1871px">MANAGEMENT SYSTEM</tspan></text>
<g>
	<path fill="#61B59A" d="M22.392,8.55v40.086h46.341V8.55h12.509v95.808H68.733v-44.92H22.392v44.92H10.025V8.55H22.392z"/>
	<path fill="#61B59A" d="M91.732,57.023c0-8.103-0.142-15.068-0.569-21.464h10.945l0.427,13.504h0.569
		c3.127-9.24,10.661-15.068,19.048-15.068c1.422,0,2.416,0.143,3.553,0.427V46.22c-1.279-0.284-2.558-0.427-4.264-0.427
		c-8.813,0-15.068,6.681-16.774,16.063c-0.285,1.707-0.569,3.696-0.569,5.829v36.674H91.732V57.023z"/>
	<path fill="#009FAF" d="M217.273,62.282c-0.711-13.362-1.564-29.425-1.422-41.366h-0.427c-3.27,11.23-7.249,23.171-12.082,36.39
		l-16.916,46.484h-9.382L161.55,58.16c-4.549-13.504-8.387-25.871-11.087-37.244h-0.285c-0.284,11.941-0.995,28.003-1.848,42.361
		l-2.559,41.082h-11.798l6.681-95.808h15.779l16.347,46.34c3.981,11.799,7.249,22.318,9.666,32.268h0.427
		c2.416-9.666,5.829-20.185,10.092-32.268l17.059-46.34h15.779l5.969,95.808h-12.082L217.273,62.282z"/>
	<path fill="#009FAF" d="M243.076,89.291c5.544,3.411,13.646,6.254,22.176,6.254c12.65,0,20.042-6.681,20.042-16.347
		c0-8.956-5.117-14.073-18.053-19.048c-15.636-5.544-25.303-13.646-25.303-27.15c0-14.925,12.367-26.014,30.989-26.014
		c9.808,0,16.915,2.275,21.18,4.691l-3.411,10.092c-3.127-1.706-9.524-4.549-18.195-4.549c-13.078,0-18.053,7.819-18.053,14.357
		c0,8.955,5.828,13.362,19.047,18.479c16.205,6.254,24.45,14.073,24.45,28.146c0,14.784-10.946,27.577-33.547,27.577
		c-9.24,0-19.333-2.701-24.45-6.113L243.076,89.291z"/>
</g>
</svg>
