<?xml version="1.0"?>
<svg xmlns="http://www.w3.org/2000/svg" xmlns:xlink="http://www.w3.org/1999/xlink" version="1.1" viewBox="0 0 252 252" width="416px" height="416px"><g fill="none" fill-rule="nonzero" stroke="none" stroke-width="1" stroke-linecap="butt" stroke-linejoin="miter" stroke-miterlimit="10" stroke-dasharray="" stroke-dashoffset="0" font-family="none" font-weight="none" font-size="none" text-anchor="none" style="mix-blend-mode: normal"><path d="M0,252v-252h252v252z" fill="none"/><path d="M23.94,252c-13.2217,0 -23.94,-10.7183 -23.94,-23.94v-204.12c0,-13.2217 10.7183,-23.94 23.94,-23.94h204.12c13.2217,0 23.94,10.7183 23.94,23.94v204.12c0,13.2217 -10.7183,23.94 -23.94,23.94z" fill="#44b6ae"/><g fill="#ffffff"><g id="surface1"><path d="M102.80377,26.71916c-42.04038,0 -76.08462,34.04423 -76.08462,76.08462c0,42.04038 34.04423,76.08462 76.08462,76.08462c17.74904,0 34.07452,-6.26971 47.00769,-16.47692l6.78462,6.78462c-2.84711,5.36106 -1.84759,12.20625 2.66538,16.71923l35.61923,35.86154c5.54279,5.54279 14.56875,5.54279 20.11154,0l6.78462,-6.78462c5.54279,-5.54279 5.54279,-14.56875 0,-20.11154l-35.86154,-35.61923c-4.54327,-4.54327 -11.35818,-5.33077 -16.71923,-2.42308l-6.78462,-6.78462c10.26779,-12.96346 16.47692,-29.4101 16.47692,-47.25c0,-42.04038 -34.04423,-76.08462 -76.08462,-76.08462zM102.80377,40.773c34.25625,0 62.03077,27.77452 62.03077,62.03077c0,34.25625 -27.77452,62.03077 -62.03077,62.03077c-34.25625,0 -62.03077,-27.77452 -62.03077,-62.03077c0,-34.25625 27.77452,-62.03077 62.03077,-62.03077zM63.54993,83.17685c-3.99808,6.48173 -6.3,14.11443 -6.3,22.29231c0,23.47356 18.93029,42.40385 42.40385,42.40385c9.05625,0 17.56731,-2.93798 24.47308,-7.75385c-1.84759,0.21202 -3.90721,0.24231 -5.81538,0.24231c-30.34903,0 -54.76154,-24.4125 -54.76154,-54.76154c0,-0.81779 -0.03029,-1.60529 0,-2.42308z"/></g></g></g></svg>
