<?xml version="1.0" encoding="utf-8"?>
<!-- Generator: Adobe Illustrator 16.0.0, SVG Export Plug-In . SVG Version: 6.00 Build 0)  -->
<!DOCTYPE svg PUBLIC "-//W3C//DTD SVG 1.1//EN" "http://www.w3.org/Graphics/SVG/1.1/DTD/svg11.dtd">
<svg version="1.1" id="Layer_1" xmlns="http://www.w3.org/2000/svg" xmlns:xlink="http://www.w3.org/1999/xlink" x="0px" y="0px"
	 width="612px" height="792px" viewBox="0 0 612 792" enable-background="new 0 0 612 792" xml:space="preserve">
<path fill="#58595B" d="M202.179,439.714h-54.643c-9.016,0-16.393-7.376-16.393-16.393v-54.643c0-9.016,7.376-16.393,16.393-16.393
	h54.643c9.016,0,16.393,7.377,16.393,16.393v54.643C218.571,432.338,211.195,439.714,202.179,439.714z M349.714,423.321v-54.643
	c0-9.016-7.376-16.393-16.393-16.393h-54.643c-9.016,0-16.393,7.377-16.393,16.393v54.643c0,9.017,7.377,16.393,16.393,16.393
	h54.643C342.338,439.714,349.714,432.338,349.714,423.321z M480.857,423.321v-54.643c0-9.016-7.377-16.393-16.394-16.393h-54.643
	c-9.016,0-16.393,7.377-16.393,16.393v54.643c0,9.017,7.377,16.393,16.393,16.393h54.643
	C473.48,439.714,480.857,432.338,480.857,423.321z M349.714,554.464v-54.643c0-9.016-7.376-16.393-16.393-16.393h-54.643
	c-9.016,0-16.393,7.377-16.393,16.393v54.643c0,9.017,7.377,16.394,16.393,16.394h54.643
	C342.338,570.857,349.714,563.48,349.714,554.464z M218.571,554.464v-54.643c0-9.016-7.376-16.393-16.393-16.393h-54.643
	c-9.016,0-16.393,7.377-16.393,16.393v54.643c0,9.017,7.376,16.394,16.393,16.394h54.643
	C211.195,570.857,218.571,563.48,218.571,554.464z M480.857,554.464v-54.643c0-9.016-7.377-16.393-16.394-16.393h-54.643
	c-9.016,0-16.393,7.377-16.393,16.393v54.643c0,9.017,7.377,16.394,16.393,16.394h54.643
	C473.48,570.857,480.857,563.48,480.857,554.464z M612,199.286v480.857c0,36.201-29.37,65.571-65.571,65.571H65.571
	C29.371,745.714,0,716.344,0,680.143V199.286c0-36.201,29.371-65.571,65.571-65.571h65.572V62.679
	c0-9.016,7.376-16.393,16.393-16.393h54.643c9.016,0,16.393,7.377,16.393,16.393v71.036h174.857V62.679
	c0-9.016,7.377-16.393,16.393-16.393h54.643c9.017,0,16.394,7.377,16.394,16.393v71.036h65.571
	C582.63,133.714,612,163.085,612,199.286z M546.429,671.946V264.857H65.571v407.089c0,4.508,3.688,8.196,8.197,8.196h464.464
	C542.74,680.143,546.429,676.454,546.429,671.946z"/>
</svg>
