<?xml version="1.0" encoding="utf-8"?>
<!-- Generator: Adobe Illustrator 16.0.0, SVG Export Plug-In . SVG Version: 6.00 Build 0)  -->
<!DOCTYPE svg PUBLIC "-//W3C//DTD SVG 1.1//EN" "http://www.w3.org/Graphics/SVG/1.1/DTD/svg11.dtd">
<svg version="1.1" id="Layer_1" xmlns="http://www.w3.org/2000/svg" xmlns:xlink="http://www.w3.org/1999/xlink" x="0px" y="0px"
	 width="299.196px" height="164.173px" viewBox="0 0 299.196 164.173" enable-background="new 0 0 299.196 164.173"
	 xml:space="preserve">
<g>
	<g>
		<g>
			<g>
				<path fill="#61B59A" d="M21.846,41.695h41.677V3.898h14.581v96.62H63.522v-45.12H21.846v45.12H7.266V3.898h14.58V41.695z"/>
			</g>
		</g>
		<g>
			<g>
				<polygon fill="#ED1C24" points="114.019,12.649 105.268,12.649 105.268,3.898 96.602,3.898 96.602,12.649 87.852,12.649 
					87.852,21.315 96.602,21.315 96.602,30.064 105.268,30.064 105.268,21.315 114.019,21.315 				"/>
			</g>
		</g>
		<g>
			<g>
				<path fill="#61B59A" d="M108.52,36.861v63.657H93.351V36.861H108.52z"/>
			</g>
		</g>
		<g>
			<g>
				<path fill="#009FAF" d="M122.841,100.918l19.34-94.84l31.538,67.469l32.67-67.469l17.375,94.84h-14.221l-8.867-55.459
					l-27.193,53.776l-26.421-53.836l-9.879,55.519H122.841z"/>
			</g>
		</g>
		<g>
			<g>
				<path fill="#009FAF" d="M288.896,22.728l-11.246,6.664c-2.104-3.648-4.105-6.028-6.01-7.141
					c-1.984-1.269-4.545-1.903-7.678-1.903c-3.848,0-7.041,1.092-9.58,3.272c-2.539,2.143-3.809,4.842-3.809,8.093
					c0,4.484,3.332,8.094,9.996,10.83l9.166,3.75c7.457,3.014,12.912,6.693,16.363,11.038c3.451,4.343,5.178,9.669,5.178,15.978
					c0,8.449-2.818,15.432-8.449,20.945c-5.676,5.556-12.715,8.33-21.125,8.33c-7.975,0-14.561-2.358-19.758-7.081
					c-5.117-4.721-8.311-11.366-9.58-19.934l14.045-3.093c0.633,5.395,1.746,9.123,3.332,11.185
					c2.855,3.968,7.021,5.952,12.496,5.952c4.322,0,7.914-1.449,10.77-4.345c2.857-2.896,4.285-6.565,4.285-11.009
					c0-1.783-0.248-3.421-0.742-4.909c-0.498-1.487-1.271-2.856-2.322-4.106c-1.053-1.248-2.41-2.419-4.076-3.511
					c-1.666-1.09-3.65-2.133-5.949-3.123l-8.869-3.689c-12.576-5.317-18.861-13.092-18.861-23.326
					c0-6.903,2.637-12.676,7.912-17.317c5.277-4.681,11.842-7.021,19.699-7.021C274.675,7.256,282.947,12.414,288.896,22.728z"/>
			</g>
		</g>
	</g>
</g>
<g>
	<path fill="#414042" d="M11.739,112.859v7.113h8.895v-7.113h1.734v16.348h-1.734v-7.688h-8.895v7.688h-1.734v-16.348H11.739z"/>
	<path fill="#414042" d="M40.778,121.016c0,1.258-0.162,2.414-0.486,3.469s-0.799,1.963-1.424,2.725s-1.393,1.354-2.303,1.775
		s-1.951,0.633-3.123,0.633s-2.213-0.211-3.123-0.633s-1.676-1.014-2.297-1.775s-1.094-1.67-1.418-2.725s-0.486-2.211-0.486-3.469
		c0-1.25,0.162-2.4,0.486-3.451s0.797-1.955,1.418-2.713s1.387-1.348,2.297-1.77s1.951-0.633,3.123-0.633s2.213,0.211,3.123,0.633
		s1.678,1.012,2.303,1.77s1.1,1.662,1.424,2.713S40.778,119.766,40.778,121.016z M39.032,121.016c0-1.102-0.145-2.088-0.434-2.959
		s-0.686-1.609-1.189-2.215s-1.096-1.066-1.775-1.383s-1.41-0.475-2.191-0.475c-0.789,0-1.523,0.158-2.203,0.475
		s-1.27,0.777-1.77,1.383s-0.893,1.344-1.178,2.215s-0.428,1.857-0.428,2.959s0.143,2.09,0.428,2.965s0.678,1.615,1.178,2.221
		s1.09,1.068,1.77,1.389s1.414,0.48,2.203,0.48c0.781,0,1.512-0.16,2.191-0.48s1.271-0.783,1.775-1.389s0.9-1.346,1.189-2.221
		S39.032,122.117,39.032,121.016z"/>
	<path fill="#414042" d="M45.231,124.098c0.039,0.586,0.172,1.123,0.398,1.611s0.527,0.912,0.902,1.271s0.818,0.639,1.33,0.838
		s1.072,0.299,1.682,0.299c0.547,0,1.07-0.061,1.57-0.182s0.941-0.312,1.324-0.574s0.688-0.602,0.914-1.02s0.34-0.924,0.34-1.518
		c0-0.484-0.123-0.896-0.369-1.236s-0.57-0.633-0.973-0.879s-0.859-0.459-1.371-0.639s-1.029-0.348-1.553-0.504
		c-0.438-0.125-0.877-0.262-1.318-0.41s-0.867-0.316-1.277-0.504s-0.793-0.402-1.148-0.645s-0.664-0.527-0.926-0.855
		s-0.469-0.701-0.621-1.119s-0.229-0.9-0.229-1.447c0-0.68,0.133-1.279,0.398-1.799s0.639-0.955,1.119-1.307
		s1.055-0.619,1.723-0.803s1.4-0.275,2.197-0.275c0.711,0,1.34,0.07,1.887,0.211s1.023,0.332,1.43,0.574s0.75,0.525,1.031,0.85
		s0.512,0.666,0.691,1.025s0.312,0.73,0.398,1.113s0.141,0.75,0.164,1.102h-1.781c-0.047-0.547-0.178-1.027-0.393-1.441
		s-0.492-0.762-0.832-1.043s-0.732-0.492-1.178-0.633s-0.918-0.211-1.418-0.211c-0.461,0-0.912,0.047-1.354,0.141
		s-0.836,0.244-1.184,0.451s-0.629,0.479-0.844,0.814s-0.322,0.746-0.322,1.23c0,0.5,0.121,0.924,0.363,1.271
		s0.566,0.646,0.973,0.896s0.869,0.465,1.389,0.645s1.057,0.355,1.611,0.527c0.445,0.133,0.887,0.273,1.324,0.422
		s0.859,0.316,1.266,0.504s0.783,0.4,1.131,0.639s0.65,0.516,0.908,0.832s0.459,0.68,0.604,1.09s0.217,0.881,0.217,1.412
		c0,0.797-0.146,1.498-0.439,2.104s-0.701,1.111-1.225,1.518s-1.145,0.713-1.863,0.92s-1.504,0.311-2.355,0.311
		c-0.766,0-1.512-0.131-2.238-0.393s-1.373-0.633-1.939-1.113s-1.023-1.064-1.371-1.752s-0.533-1.461-0.557-2.32H45.231z"/>
	<path fill="#414042" d="M59.177,112.859h6.188c0.797,0,1.5,0.139,2.109,0.416s1.121,0.637,1.535,1.078s0.729,0.939,0.943,1.494
		s0.322,1.109,0.322,1.664c0,0.594-0.107,1.172-0.322,1.734s-0.531,1.062-0.949,1.5s-0.932,0.789-1.541,1.055
		s-1.309,0.398-2.098,0.398h-4.453v7.008h-1.734V112.859z M60.911,120.664h4.453c0.422,0,0.824-0.082,1.207-0.246
		s0.721-0.391,1.014-0.68s0.525-0.625,0.697-1.008s0.258-0.797,0.258-1.242c0-0.438-0.08-0.842-0.24-1.213s-0.383-0.693-0.668-0.967
		s-0.621-0.486-1.008-0.639s-0.807-0.229-1.26-0.229h-4.453V120.664z"/>
	<path fill="#414042" d="M75.993,112.859v16.348h-1.734v-16.348H75.993z"/>
	<path fill="#414042" d="M92.411,112.859v1.582h-5.414v14.766h-1.734v-14.766H79.86v-1.582H92.411z"/>
	<path fill="#414042" d="M101.294,112.859l5.941,16.348h-1.805l-1.887-5.203h-6.949l-1.887,5.203h-1.793l5.988-16.348H101.294z
		 M100.075,114.477l-3,8.215h5.988L100.075,114.477z"/>
	<path fill="#414042" d="M112.743,112.859v14.766h8.215v1.582h-9.949v-16.348H112.743z"/>
	<path fill="#414042" d="M132.032,112.859v16.348h-1.734v-16.348H132.032z"/>
	<path fill="#414042" d="M139.298,112.859l8.32,14.133v-14.133h1.734v16.348h-2.32l-8.32-14.121v14.121h-1.734v-16.348H139.298z"/>
	<path fill="#414042" d="M164.681,112.859v1.582h-8.907v5.531h7.735v1.582h-7.735v7.652h-1.734v-16.348H164.681z"/>
	<path fill="#414042" d="M182.435,121.016c0,1.258-0.162,2.414-0.486,3.469s-0.799,1.963-1.424,2.725s-1.393,1.354-2.303,1.775
		s-1.951,0.633-3.123,0.633s-2.213-0.211-3.123-0.633s-1.676-1.014-2.297-1.775s-1.094-1.67-1.418-2.725s-0.486-2.211-0.486-3.469
		c0-1.25,0.162-2.4,0.486-3.451s0.797-1.955,1.418-2.713s1.387-1.348,2.297-1.77s1.951-0.633,3.123-0.633s2.213,0.211,3.123,0.633
		s1.678,1.012,2.303,1.77s1.1,1.662,1.424,2.713S182.435,119.766,182.435,121.016z M180.689,121.016
		c0-1.102-0.145-2.088-0.434-2.959s-0.686-1.609-1.189-2.215s-1.096-1.066-1.775-1.383s-1.41-0.475-2.191-0.475
		c-0.789,0-1.523,0.158-2.203,0.475s-1.27,0.777-1.77,1.383s-0.893,1.344-1.178,2.215s-0.428,1.857-0.428,2.959
		s0.143,2.09,0.428,2.965s0.678,1.615,1.178,2.221s1.09,1.068,1.77,1.389s1.414,0.48,2.203,0.48c0.781,0,1.512-0.16,2.191-0.48
		s1.271-0.783,1.775-1.389s0.9-1.346,1.189-2.221S180.689,122.117,180.689,121.016z"/>
	<path fill="#414042" d="M197.798,117.512c0,0.406-0.049,0.805-0.146,1.195s-0.242,0.76-0.434,1.107s-0.432,0.666-0.721,0.955
		s-0.621,0.539-0.996,0.75c0.422,0.109,0.768,0.275,1.037,0.498s0.48,0.48,0.633,0.773s0.258,0.611,0.316,0.955
		s0.088,0.695,0.088,1.055v2.473c0,0.352,0.049,0.693,0.146,1.025s0.221,0.635,0.369,0.908h-1.887
		c-0.078-0.125-0.139-0.268-0.182-0.428s-0.076-0.326-0.1-0.498s-0.039-0.338-0.047-0.498s-0.012-0.299-0.012-0.416v-2.602
		c0-0.312-0.053-0.623-0.158-0.932s-0.277-0.584-0.516-0.826s-0.549-0.438-0.932-0.586s-0.848-0.223-1.395-0.223h-4.945v7.008
		h-1.734v-16.348h6.68c0.797,0,1.502,0.139,2.115,0.416s1.129,0.637,1.547,1.078s0.734,0.939,0.949,1.494
		S197.798,116.957,197.798,117.512z M187.919,120.664h4.945c0.43,0,0.836-0.082,1.219-0.246s0.721-0.391,1.014-0.68
		s0.525-0.625,0.697-1.008s0.258-0.797,0.258-1.242c0-0.438-0.08-0.842-0.24-1.213s-0.383-0.693-0.668-0.967
		s-0.623-0.486-1.014-0.639s-0.812-0.229-1.266-0.229h-4.945V120.664z"/>
	<path fill="#414042" d="M204.666,112.859l5.191,13.945l5.285-13.945h2.25v16.348h-1.734v-13.406l-4.91,13.406h-1.582l-5.016-13.406
		v13.406h-1.734v-16.348H204.666z"/>
	<path fill="#414042" d="M229.603,112.859l5.941,16.348h-1.805l-1.887-5.203h-6.949l-1.887,5.203h-1.793l5.988-16.348H229.603z
		 M228.384,114.477l-3,8.215h5.988L228.384,114.477z"/>
	<path fill="#414042" d="M248.166,112.859v1.582h-5.414v14.766h-1.734v-14.766h-5.402v-1.582H248.166z"/>
	<path fill="#414042" d="M253.744,112.859v16.348h-1.734v-16.348H253.744z"/>
	<path fill="#414042" d="M272.412,121.016c0,1.258-0.162,2.414-0.486,3.469s-0.799,1.963-1.424,2.725s-1.393,1.354-2.303,1.775
		s-1.951,0.633-3.123,0.633s-2.213-0.211-3.123-0.633s-1.676-1.014-2.297-1.775s-1.094-1.67-1.418-2.725s-0.486-2.211-0.486-3.469
		c0-1.25,0.162-2.4,0.486-3.451s0.797-1.955,1.418-2.713s1.387-1.348,2.297-1.77s1.951-0.633,3.123-0.633s2.213,0.211,3.123,0.633
		s1.678,1.012,2.303,1.77s1.1,1.662,1.424,2.713S272.412,119.766,272.412,121.016z M270.666,121.016
		c0-1.102-0.145-2.088-0.434-2.959s-0.686-1.609-1.189-2.215s-1.096-1.066-1.775-1.383s-1.41-0.475-2.191-0.475
		c-0.789,0-1.523,0.158-2.203,0.475s-1.27,0.777-1.77,1.383s-0.893,1.344-1.178,2.215s-0.428,1.857-0.428,2.959
		s0.143,2.09,0.428,2.965s0.678,1.615,1.178,2.221s1.09,1.068,1.77,1.389s1.414,0.48,2.203,0.48c0.781,0,1.512-0.16,2.191-0.48
		s1.271-0.783,1.775-1.389s0.9-1.346,1.189-2.221S270.666,122.117,270.666,121.016z"/>
	<path fill="#414042" d="M278.482,112.859l8.32,14.133v-14.133h1.734v16.348h-2.32l-8.32-14.121v14.121h-1.734v-16.348H278.482z"/>
	<path fill="#414042" d="M10.55,141.659l5.191,13.945l5.285-13.945h2.25v16.348h-1.734v-13.406l-4.91,13.406H15.05l-5.016-13.406
		v13.406H8.3v-16.348H10.55z"/>
	<path fill="#414042" d="M35.487,141.659l5.941,16.348h-1.805l-1.887-5.203h-6.949l-1.887,5.203h-1.793l5.988-16.348H35.487z
		 M34.269,143.276l-3,8.215h5.988L34.269,143.276z"/>
	<path fill="#414042" d="M47.522,141.659l8.32,14.133v-14.133h1.734v16.348h-2.32l-8.32-14.121v14.121h-1.734v-16.348H47.522z"/>
	<path fill="#414042" d="M69.788,141.659l5.941,16.348h-1.805l-1.887-5.203h-6.949l-1.887,5.203h-1.793l5.988-16.348H69.788z
		 M68.569,143.276l-3,8.215h5.988L68.569,143.276z"/>
	<path fill="#414042" d="M80.3,149.804c0,1.125,0.15,2.125,0.451,3s0.709,1.613,1.225,2.215s1.113,1.061,1.793,1.377
		s1.398,0.475,2.156,0.475c0.445,0,0.885-0.076,1.318-0.229s0.848-0.361,1.242-0.627s0.76-0.584,1.096-0.955
		s0.629-0.773,0.879-1.207s0.447-0.893,0.592-1.377s0.225-0.977,0.24-1.477h-5.074v-1.535h6.727v8.543h-1.066l-0.516-2.906
		c-0.273,0.422-0.611,0.83-1.014,1.225s-0.842,0.748-1.318,1.061s-0.977,0.562-1.5,0.75s-1.043,0.281-1.559,0.281
		c-1.141,0-2.168-0.221-3.082-0.662s-1.691-1.047-2.332-1.816s-1.133-1.68-1.477-2.73s-0.516-2.186-0.516-3.404
		c0-0.711,0.072-1.416,0.217-2.115s0.359-1.365,0.645-1.998s0.637-1.221,1.055-1.764s0.896-1.012,1.436-1.406
		s1.137-0.705,1.793-0.932s1.371-0.34,2.145-0.34c0.969,0,1.834,0.125,2.596,0.375s1.428,0.602,1.998,1.055s1.045,0.992,1.424,1.617
		s0.674,1.312,0.885,2.062h-1.84c-0.43-1.219-1.057-2.121-1.881-2.707s-1.885-0.879-3.182-0.879c-0.812,0-1.559,0.188-2.238,0.562
		s-1.266,0.883-1.758,1.523s-0.875,1.387-1.148,2.238S80.3,148.851,80.3,149.804z"/>
	<path fill="#414042" d="M108.53,141.659v1.582h-9.164v5.531h8.625v1.582h-8.625v6.07h9.574v1.582H97.632v-16.348H108.53z"/>
	<path fill="#414042" d="M115.257,141.659l5.191,13.945l5.285-13.945h2.25v16.348h-1.734v-13.406l-4.91,13.406h-1.582l-5.016-13.406
		v13.406h-1.734v-16.348H115.257z"/>
	<path fill="#414042" d="M143.569,141.659v1.582h-9.164v5.531h8.625v1.582h-8.625v6.07h9.574v1.582h-11.309v-16.348H143.569z"/>
	<path fill="#414042" d="M150.366,141.659l8.321,14.133v-14.133h1.734v16.348h-2.32l-8.321-14.121v14.121h-1.734v-16.348H150.366z"
		/>
	<path fill="#414042" d="M176.582,141.659v1.582h-5.414v14.766h-1.734v-14.766h-5.402v-1.582H176.582z"/>
	<path fill="#414042" d="M186.367,152.897c0.039,0.586,0.172,1.123,0.398,1.611s0.527,0.912,0.902,1.271s0.818,0.639,1.33,0.838
		s1.072,0.299,1.682,0.299c0.547,0,1.07-0.061,1.57-0.182s0.941-0.312,1.324-0.574s0.688-0.602,0.914-1.02s0.34-0.924,0.34-1.518
		c0-0.484-0.123-0.896-0.369-1.236s-0.57-0.633-0.973-0.879s-0.859-0.459-1.371-0.639s-1.029-0.348-1.553-0.504
		c-0.438-0.125-0.877-0.262-1.318-0.41s-0.867-0.316-1.277-0.504s-0.793-0.402-1.148-0.645s-0.664-0.527-0.926-0.855
		s-0.469-0.701-0.621-1.119s-0.229-0.9-0.229-1.447c0-0.68,0.133-1.279,0.398-1.799s0.639-0.955,1.119-1.307
		s1.055-0.619,1.723-0.803s1.4-0.275,2.197-0.275c0.711,0,1.34,0.07,1.887,0.211s1.023,0.332,1.43,0.574s0.75,0.525,1.031,0.85
		s0.512,0.666,0.691,1.025s0.312,0.73,0.398,1.113s0.141,0.75,0.164,1.102H194.3c-0.047-0.547-0.178-1.027-0.393-1.441
		s-0.492-0.762-0.832-1.043s-0.732-0.492-1.178-0.633s-0.918-0.211-1.418-0.211c-0.461,0-0.912,0.047-1.354,0.141
		s-0.836,0.244-1.184,0.451s-0.629,0.479-0.844,0.814s-0.322,0.746-0.322,1.23c0,0.5,0.121,0.924,0.363,1.271
		s0.566,0.646,0.973,0.896s0.869,0.465,1.389,0.645s1.057,0.355,1.611,0.527c0.445,0.133,0.887,0.273,1.324,0.422
		s0.859,0.316,1.266,0.504s0.783,0.4,1.131,0.639s0.65,0.516,0.908,0.832s0.459,0.68,0.604,1.09s0.217,0.881,0.217,1.412
		c0,0.797-0.146,1.498-0.439,2.104s-0.701,1.111-1.225,1.518s-1.145,0.713-1.863,0.92s-1.504,0.311-2.355,0.311
		c-0.766,0-1.512-0.131-2.238-0.393s-1.373-0.633-1.939-1.113s-1.023-1.064-1.371-1.752s-0.533-1.461-0.557-2.32H186.367z"/>
	<path fill="#414042" d="M205.562,149.909l4.723-8.25h2.004l-5.859,9.785v6.562h-1.734v-6.562l-5.848-9.785h2.004L205.562,149.909z"
		/>
	<path fill="#414042" d="M216.214,152.897c0.039,0.586,0.172,1.123,0.398,1.611s0.527,0.912,0.902,1.271s0.818,0.639,1.33,0.838
		s1.072,0.299,1.682,0.299c0.547,0,1.07-0.061,1.57-0.182s0.941-0.312,1.324-0.574s0.688-0.602,0.914-1.02s0.34-0.924,0.34-1.518
		c0-0.484-0.123-0.896-0.369-1.236s-0.57-0.633-0.973-0.879s-0.859-0.459-1.371-0.639s-1.029-0.348-1.553-0.504
		c-0.438-0.125-0.877-0.262-1.318-0.41s-0.867-0.316-1.277-0.504s-0.793-0.402-1.148-0.645s-0.664-0.527-0.926-0.855
		s-0.469-0.701-0.621-1.119s-0.229-0.9-0.229-1.447c0-0.68,0.133-1.279,0.398-1.799s0.639-0.955,1.119-1.307
		s1.055-0.619,1.723-0.803s1.4-0.275,2.197-0.275c0.711,0,1.34,0.07,1.887,0.211s1.023,0.332,1.43,0.574s0.75,0.525,1.031,0.85
		s0.512,0.666,0.691,1.025s0.312,0.73,0.398,1.113s0.141,0.75,0.164,1.102h-1.781c-0.047-0.547-0.178-1.027-0.393-1.441
		s-0.492-0.762-0.832-1.043s-0.732-0.492-1.178-0.633s-0.918-0.211-1.418-0.211c-0.461,0-0.912,0.047-1.354,0.141
		s-0.836,0.244-1.184,0.451s-0.629,0.479-0.844,0.814s-0.322,0.746-0.322,1.23c0,0.5,0.121,0.924,0.363,1.271
		s0.566,0.646,0.973,0.896s0.869,0.465,1.389,0.645s1.057,0.355,1.611,0.527c0.445,0.133,0.887,0.273,1.324,0.422
		s0.859,0.316,1.266,0.504s0.783,0.4,1.131,0.639s0.65,0.516,0.908,0.832s0.459,0.68,0.604,1.09s0.217,0.881,0.217,1.412
		c0,0.797-0.146,1.498-0.439,2.104s-0.701,1.111-1.225,1.518s-1.145,0.713-1.863,0.92s-1.504,0.311-2.355,0.311
		c-0.766,0-1.512-0.131-2.238-0.393s-1.373-0.633-1.939-1.113s-1.023-1.064-1.371-1.752s-0.533-1.461-0.557-2.32H216.214z"/>
	<path fill="#414042" d="M241.632,141.659v1.582h-5.414v14.766h-1.734v-14.766h-5.402v-1.582H241.632z"/>
	<path fill="#414042" d="M256.14,141.659v1.582h-9.164v5.531h8.625v1.582h-8.625v6.07h9.574v1.582h-11.309v-16.348H256.14z"/>
	<path fill="#414042" d="M262.867,141.659l5.191,13.945l5.285-13.945h2.25v16.348h-1.734v-13.406l-4.91,13.406h-1.582l-5.016-13.406
		v13.406h-1.734v-16.348H262.867z"/>
	<path fill="#414042" d="M280.984,152.897c0.039,0.586,0.172,1.123,0.398,1.611s0.527,0.912,0.902,1.271s0.818,0.639,1.33,0.838
		s1.072,0.299,1.682,0.299c0.547,0,1.07-0.061,1.57-0.182s0.941-0.312,1.324-0.574s0.688-0.602,0.914-1.02s0.34-0.924,0.34-1.518
		c0-0.484-0.123-0.896-0.369-1.236s-0.57-0.633-0.973-0.879s-0.859-0.459-1.371-0.639s-1.029-0.348-1.553-0.504
		c-0.438-0.125-0.877-0.262-1.318-0.41s-0.867-0.316-1.277-0.504s-0.793-0.402-1.148-0.645s-0.664-0.527-0.926-0.855
		s-0.469-0.701-0.621-1.119s-0.229-0.9-0.229-1.447c0-0.68,0.133-1.279,0.398-1.799s0.639-0.955,1.119-1.307
		s1.055-0.619,1.723-0.803s1.4-0.275,2.197-0.275c0.711,0,1.34,0.07,1.887,0.211s1.023,0.332,1.43,0.574s0.75,0.525,1.031,0.85
		s0.512,0.666,0.691,1.025s0.312,0.73,0.398,1.113s0.141,0.75,0.164,1.102h-1.781c-0.047-0.547-0.178-1.027-0.393-1.441
		s-0.492-0.762-0.832-1.043s-0.732-0.492-1.178-0.633s-0.918-0.211-1.418-0.211c-0.461,0-0.912,0.047-1.354,0.141
		s-0.836,0.244-1.184,0.451s-0.629,0.479-0.844,0.814s-0.322,0.746-0.322,1.23c0,0.5,0.121,0.924,0.363,1.271
		s0.566,0.646,0.973,0.896s0.869,0.465,1.389,0.645s1.057,0.355,1.611,0.527c0.445,0.133,0.887,0.273,1.324,0.422
		s0.859,0.316,1.266,0.504s0.783,0.4,1.131,0.639s0.65,0.516,0.908,0.832s0.459,0.68,0.604,1.09s0.217,0.881,0.217,1.412
		c0,0.797-0.146,1.498-0.439,2.104s-0.701,1.111-1.225,1.518s-1.145,0.713-1.863,0.92s-1.504,0.311-2.355,0.311
		c-0.766,0-1.512-0.131-2.238-0.393s-1.373-0.633-1.939-1.113s-1.023-1.064-1.371-1.752s-0.533-1.461-0.557-2.32H280.984z"/>
</g>
</svg>
