<?xml version="1.0" encoding="utf-8"?>
<!-- Generator: Adobe Illustrator 22.1.0, SVG Export Plug-In . SVG Version: 6.00 Build 0)  -->
<svg version="1.1" id="Layer_1" xmlns="http://www.w3.org/2000/svg" xmlns:xlink="http://www.w3.org/1999/xlink" x="0px" y="0px"
	 viewBox="0 0 360 108" style="enable-background:new 0 0 360 108;" xml:space="preserve">
<style type="text/css">
	.st0{opacity:0.5;}
	.st1{opacity:0.6;}
	.st2{fill:#231F20;}
	.st3{opacity:0.8;}
	.st4{fill:none;}
	.st5{fill:none;stroke:#FFFFFF;stroke-width:2;stroke-miterlimit:10;}
	.st6{fill:#FFFFFF;}
	.st7{fill:#020202;}
	.st8{opacity:0.1;fill:#020202;enable-background:new    ;}
	.st9{opacity:0.1;enable-background:new    ;}
	.st10{opacity:0.1;fill:#FFFFFF;enable-background:new    ;}
	.st11{fill:#F57E20;}
</style>
<g>
	<g id="Layer_1_1_" class="st0">
		<g class="st1">
			<g>
				<g>
					<g>
						<g>
							<g>
								<g>
									<g>
										<path class="st2" d="M156.5,46.3h30.4V18.7h10.6V89h-10.6V56.1h-30.4v32.7H146V18.7h10.6V46.3z"/>
										<path class="st2" d="M198.1,89.5h-11.6V56.7h-29.3v32.7h-11.6V18.1h11.6v27.6h29.3V18.2h11.6V89.5L198.1,89.5z
											 M187.4,88.5h9.6V19.3h-9.6v27.6h-31.3V19.3h-9.6v69.2h9.6V55.8h31.3V88.5L187.4,88.5z"/>
									</g>
								</g>
							</g>
							<g>
								<g>
									<g>
										<polygon class="st2" points="223.6,25 217.2,25 217.2,18.7 211,18.7 211,25 204.6,25 204.6,31.4 211,31.4 211,37.8 
											217.2,37.8 217.2,31.4 223.6,31.4 										"/>
										<path class="st2" d="M217.8,38.3h-7.4v-6.3H204v-7.4h6.3v-6.3h7.4v6.3h6.3v7.4h-6.3V38.3z M211.4,37.2h5.3v-6.3h6.3v-5.3
											h-6.3v-6.3h-5.3v6.3h-6.3v5.3h6.3V37.2L211.4,37.2z"/>
									</g>
								</g>
							</g>
							<g>
								<g>
									<g>
										<path class="st2" d="M219.5,42.6v46.2h-11V42.6H219.5z"/>
										<path class="st2" d="M220.1,89.5H208V42.3h12.1V89.5z M209.1,88.5h10.1V43.2h-10.1V88.5z"/>
									</g>
								</g>
							</g>
							<g>
								<g>
									<g>
										<path class="st2" d="M230.1,89.3l14.1-69l23,49l23.7-49.1l12.6,69h-10.3L286.6,49l-19.7,39.2L247.7,49l-7.2,40.4H230.1
											L230.1,89.3z"/>
										<path class="st2" d="M304.1,89.8h-11.4l-6.2-39.2L267,89.2l-19-38.7l-7,39.3h-11.6l14.5-71.1l23.2,49.5l23.9-49.5
											L304.1,89.8z M293.4,88.8h9.3l-12.3-66.7l-23.6,48.6L244,22.1l-13.5,66.7h9.4l7.4-41.5L266.7,87l20.1-39.5L293.4,88.8z"/>
									</g>
								</g>
							</g>
							<g>
								<g>
									<g>
										<path class="st2" d="M350.8,32.4l-8.1,4.8c-1.5-2.7-3-4.3-4.3-5.3c-1.4-0.9-3.4-1.3-5.6-1.3c-2.8,0-5.2,0.8-6.9,2.3
											c-1.9,1.5-2.8,3.5-2.8,5.9c0,3.3,2.5,5.9,7.3,7.9l6.7,2.7c5.5,2.2,9.4,4.9,12,8c2.6,3.2,3.8,7,3.8,11.6
											c0,6.1-2,11.3-6.1,15.2c-4.1,4-9.3,6-15.4,6c-5.7,0-10.6-1.6-14.4-5.2c-3.6-3.4-6-8.2-6.9-14.5l10.2-2.2
											c0.5,3.9,1.2,6.7,2.5,8.1c2.1,2.9,5.2,4.3,9,4.3c3.2,0,5.7-1.1,7.9-3.2c2.1-2.1,3.2-4.8,3.2-8c0-1.3-0.2-2.5-0.6-3.5
											c-0.4-1.1-0.9-2.1-1.6-3c-0.8-0.9-1.8-1.8-3-2.6c-1.2-0.8-2.7-1.5-4.3-2.2l-6.5-2.7c-9.1-3.9-13.7-9.5-13.7-16.9
											c0-5,1.9-9.3,5.7-12.6c3.8-3.4,8.6-5.2,14.3-5.2C340.5,21.2,346.5,24.9,350.8,32.4z"/>
										<path class="st2" d="M331.1,91.1c-5.9,0-10.8-1.8-14.7-5.3c-3.8-3.4-6.2-8.4-7.2-14.8l-0.1-0.5l11.3-2.5l0.1,0.6
											c0.5,3.8,1.2,6.5,2.3,7.9c2,2.8,4.8,4.1,8.7,4.1c3,0,5.5-1.1,7.5-3c2-2,3-4.6,3-7.7c0-1.2-0.2-2.3-0.6-3.4
											c-0.4-1.1-0.9-2-1.5-2.8c-0.8-0.9-1.6-1.6-2.9-2.5c-1.2-0.8-2.6-1.5-4.2-2.2l-6.5-2.7c-9.4-3.9-14.1-9.9-14.1-17.4
											c0-5.2,2-9.5,5.9-12.9s8.8-5.3,14.7-5.3c7.9,0,14.1,3.9,18.5,11.5l0.2,0.5l-9,5.4l-0.2-0.5c-1.4-2.6-2.9-4.2-4.2-5
											c-1.3-0.9-3.2-1.3-5.4-1.3c-2.7,0-4.9,0.8-6.6,2.2c-1.8,1.4-2.6,3.3-2.6,5.5c0,3,2.3,5.5,6.9,7.4l6.7,2.7
											c5.5,2.2,9.6,5,12.2,8.1c2.6,3.3,3.9,7.3,3.9,12c0,6.2-2.1,11.5-6.3,15.6C342.6,89,337.2,91.1,331.1,91.1z M310.2,71.2
											c1.1,5.9,3.3,10.4,6.7,13.7c3.6,3.4,8.3,5,14.1,5c5.9,0,11-2,15-5.9c4-3.9,6-8.9,6-14.8c0-4.5-1.2-8.2-3.6-11.3
											c-2.5-3.2-6.3-5.6-11.7-7.9l-6.7-2.7c-5-2.1-7.6-4.9-7.6-8.3c0-2.6,1.1-4.7,3-6.2c1.9-1.6,4.3-2.5,7.4-2.5
											c2.3,0,4.3,0.5,5.9,1.4c1.3,0.8,2.8,2.5,4.2,4.9l7.3-4.3c-4.2-7-10.1-10.6-17.2-10.6c-5.6,0-10.2,1.6-14,5
											c-3.6,3.3-5.6,7.4-5.6,12.2c0,7.2,4.5,12.7,13.4,16.5l6.5,2.7c1.6,0.8,3.2,1.5,4.5,2.3c1.2,0.8,2.2,1.6,3.2,2.7
											c0.8,1.1,1.4,2,1.8,3.2c0.4,1.2,0.6,2.3,0.6,3.8c0,3.4-1.2,6.1-3.3,8.3s-4.9,3.4-8.2,3.4c-4.1,0-7.4-1.5-9.5-4.6
											c-1.2-1.4-2-4-2.5-7.9L310.2,71.2z"/>
									</g>
								</g>
							</g>
						</g>
					</g>
					<g class="st3">
						<line class="st4" x1="124.8" y1="18.7" x2="124.8" y2="91.9"/>
						<rect x="123.7" y="18.7" class="st2" width="2.1" height="73.1"/>
					</g>
				</g>
			</g>
		</g>
	</g>
	<g id="Layer_2_2_" class="st0">
		<g>
			<g>
				<g>
					<g>
						<path class="st2" d="M156.5,46.3h30.4V18.7h10.6V89h-10.6V56.1h-30.4v32.7H146V18.7h10.6V46.3z"/>
					</g>
				</g>
				<g>
					<g>
						<polygon class="st2" points="223.6,25 217.2,25 217.2,18.7 211,18.7 211,25 204.6,25 204.6,31.4 211,31.4 211,37.8 
							217.2,37.8 217.2,31.4 223.6,31.4 						"/>
					</g>
				</g>
				<g>
					<g>
						<path class="st2" d="M219.5,42.6v46.2h-11V42.6H219.5z"/>
					</g>
				</g>
				<g>
					<g>
						<path class="st2" d="M230.1,89.3l14.1-69l23,49l23.7-49.1l12.6,69h-10.3L286.6,49l-19.7,39.2L247.7,49l-7.2,40.4H230.1
							L230.1,89.3z"/>
					</g>
				</g>
				<g>
					<g>
						<path class="st2" d="M350.8,32.4l-8.1,4.8c-1.5-2.7-3-4.3-4.3-5.3c-1.4-0.9-3.4-1.3-5.6-1.3c-2.8,0-5.2,0.8-6.9,2.3
							c-1.9,1.5-2.8,3.5-2.8,5.9c0,3.3,2.5,5.9,7.3,7.9l6.7,2.7c5.5,2.2,9.4,4.9,12,8c2.6,3.2,3.8,7,3.8,11.6c0,6.1-2,11.3-6.1,15.2
							c-4.1,4-9.3,6-15.4,6c-5.7,0-10.6-1.6-14.4-5.2c-3.6-3.4-6-8.2-6.9-14.5l10.2-2.2c0.5,3.9,1.2,6.7,2.5,8.1
							c2.1,2.9,5.2,4.3,9,4.3c3.2,0,5.7-1.1,7.9-3.2c2.1-2.1,3.2-4.8,3.2-8c0-1.3-0.2-2.5-0.6-3.5c-0.4-1.1-0.9-2.1-1.6-3
							c-0.8-0.9-1.8-1.8-3-2.6c-1.2-0.8-2.7-1.5-4.3-2.2l-6.5-2.7c-9.1-3.9-13.7-9.5-13.7-16.9c0-5,1.9-9.3,5.7-12.6
							c3.8-3.4,8.6-5.2,14.3-5.2C340.5,21.2,346.5,24.9,350.8,32.4z"/>
					</g>
				</g>
			</g>
		</g>
		<line class="st5" x1="124.8" y1="18.7" x2="124.8" y2="91.9"/>
	</g>
	<g id="Layer_2_1_">
		<g>
			<g>
				<g>
					<g>
						<path class="st6" d="M156.5,45.2h30.4V17.8h10.6V88h-10.6V55.2h-30.4v32.7H146V17.8h10.6V45.2z"/>
					</g>
				</g>
				<g>
					<g>
						<polygon class="st6" points="223.6,24.1 217.2,24.1 217.2,17.8 211,17.8 211,24.1 204.6,24.1 204.6,30.4 211,30.4 211,36.8 
							217.2,36.8 217.2,30.4 223.6,30.4 						"/>
					</g>
				</g>
				<g>
					<g>
						<path class="st6" d="M219.5,41.7v46.2h-11V41.7H219.5z"/>
					</g>
				</g>
				<g>
					<g>
						<path class="st6" d="M230.1,88.3l14.1-69l23,49l23.7-49l12.6,69h-10.3l-6.5-40.4l-19.7,39.2l-19.1-39.2l-7.4,40.4H230.1
							L230.1,88.3z"/>
					</g>
				</g>
				<g>
					<g>
						<path class="st6" d="M350.8,31.4l-8.1,4.8c-1.5-2.7-3-4.3-4.3-5.3c-1.4-0.9-3.4-1.3-5.6-1.3c-2.8,0-5.2,0.8-6.9,2.3
							c-1.9,1.5-2.8,3.5-2.8,5.9c0,3.3,2.5,5.9,7.3,7.9l6.7,2.7c5.5,2.2,9.4,4.9,12,8c2.6,3.2,3.8,7,3.8,11.6c0,6.1-2,11.3-6.1,15.2
							c-4.1,4-9.3,6-15.4,6c-5.7,0-10.6-1.6-14.4-5.2c-3.6-3.4-6-8.2-6.9-14.5l10.2-2.2c0.5,3.9,1.2,6.7,2.5,8.1
							c2.1,2.9,5.2,4.3,9,4.3c3.2,0,5.7-1.1,7.9-3.2c2.1-2.1,3.2-4.8,3.2-8c0-1.3-0.2-2.5-0.6-3.5c-0.4-1.1-0.9-2.1-1.6-3
							c-0.8-0.9-1.8-1.8-3-2.6c-1.2-0.8-2.7-1.5-4.3-2.2l-6.6-2.7c-9.1-3.9-13.7-9.5-13.7-16.9c0-5,1.9-9.3,5.7-12.6
							c3.8-3.4,8.6-5.2,14.3-5.2C340.5,20.1,346.5,24,350.8,31.4z"/>
					</g>
				</g>
			</g>
		</g>
		<line class="st5" x1="124.8" y1="17.8" x2="124.8" y2="90.8"/>
	</g>
	<g class="st0">
		<g>
			<path class="st7" d="M47.6,91.9c2.9-1.9,5-4.2,6.2-6.8V71.2c-0.1,0-1.3,0.1-3.4,0.2c-2.1,0.1-3.3,0.2-3.5,0.2
				c-6.9,0.6-12,1.9-15.1,3.9c-3.2,2-4.8,5.2-4.8,9.6c0,3,0.9,5.4,2.7,7c1.8,1.6,4.3,2.5,7.6,2.5C41.2,94.7,44.6,93.8,47.6,91.9z"/>
			<path class="st8" d="M50.7,88.6c-2.9,1.9-6.3,2.8-10.3,2.8c-3.3,0-5.9-0.8-7.6-2.5c-1.8-1.6-2.7-4-2.7-7c0-2.6,0.5-4.7,1.5-6.3
				c-3.2,2-4.8,5.2-4.8,9.6c0,3,0.9,5.4,2.7,7c1.8,1.6,4.3,2.5,7.6,2.5c4,0,7.4-0.9,10.3-2.8c2-1.3,3.5-2.7,4.7-4.2
				C51.8,88,51.3,88.4,50.7,88.6z"/>
			<path class="st7" d="M80.1,38.5h-7.2c-3.2,0-5.7-2.6-5.7-5.7v-3h-3c-1.2,0-2.3-0.4-3.3-1.1l-40.7,2.6C15,31.2,8.4,44.9,8.4,50
				L6.7,91.9c0,4.3,8,10.2,13.6,12c-1.3-0.7-2.6-1.6-3.8-2.6c-4.1-3.6-6.2-8.9-6.2-15.8c0-7.4,2.5-12.9,7.3-16.4s12.2-5.9,21.9-6.8
				c1.3-0.1,2.8-0.4,4.3-0.5c1.5-0.1,3.3-0.4,5.3-0.5c2-0.1,3.5-0.4,4.6-0.5V57c0-4.3-1.1-7.5-2.9-9.5c-2-2-5-2.9-9.1-2.9L18,43.6
				c-1.4-3.8-2.1-5.7-2.1-5.9c8.4-3.6,17.5-5.4,27.3-5.4c9.6,0,16.7,2.1,21,6.2c4.3,4.2,6.6,10.9,6.6,20.3v41.5
				c4.9-1.9,9.9-5.2,9.9-8.4V40.6c0-0.7-0.1-1.4-0.4-2.2C80.3,38.4,80.2,38.5,80.1,38.5z"/>
			<path class="st7" d="M56.8,101c-0.9-2.7-1.4-4.2-1.4-4.3c-2.7,2.7-5.4,4.8-8,6.3l9.9-0.6C57.2,102.1,57,101.6,56.8,101z"/>
		</g>
		<g>
			<path class="st7" d="M80.1,38.6h-7.2c-3.3,0-5.9-2.7-5.9-5.9v-2.9h-2.9c-3.3,0-5.9-2.7-5.9-5.9v-7.2c0-2.6,1.6-4.8,4-5.6
				c-0.4,0-0.7-0.1-0.9-0.1L20.2,22c-4.7,1.4-11.7,5.7-11.7,10.9L7.6,75.1c0,2,1.1,4,3.3,6c0.8-5.3,3-9.4,6.9-12.2
				c4.8-3.5,12.2-5.9,21.9-6.8c1.3-0.1,2.8-0.4,4.3-0.5c1.5-0.1,3.3-0.4,5.3-0.5c2-0.1,3.5-0.4,4.6-0.5v-3.8c0-4.3-1.1-7.5-2.9-9.5
				c-2-2-5-2.9-9.1-2.9l-23.7-1.1c-1.4-3.8-2.1-5.7-2.1-5.9c8.4-3.6,17.5-5.4,27.3-5.4c9.6,0,16.7,2.1,21,6.2
				c4.3,4.2,6.6,10.9,6.6,20.3v24.5c4.9-1.9,9.9-5.2,9.9-8.4V38.5C80.5,38.5,80.3,38.6,80.1,38.6z"/>
		</g>
		<path class="st8" d="M80.1,38.6h-7.2c-3.2,0-5.9-2.7-5.9-5.9v-2.9h-2.8c-3.2,0-5.9-2.7-5.9-5.9v-6.1l-37.7,10
			c-5.4,0.7-11.6,5.7-11.6,10.9l-1.5,42c0,2,1.6,4.2,3.9,6.3c0.8-5.3,3-9.4,6.9-12.2c4.8-3.5,12.1-5.9,21.7-6.8
			c1.3-0.1,2.8-0.4,4.3-0.5c1.5-0.1,3.3-0.4,5.2-0.5c1.9-0.1,3.4-0.4,4.6-0.5v-3.8c0-4.3-0.9-7.5-2.9-9.5c-2-2-4.9-2.9-9-2.9
			l-23.3-1.1c-1.4-3.8-2.1-5.7-2.1-5.9c8.3-3.6,17.4-5.4,27-5.4c9.5,0,16.4,2.1,20.8,6.2c4.3,4.2,6.5,10.9,6.5,20.3v24.5
			c4.9-1.9,9.9-5.2,9.9-8.4V38.5C80.5,38.5,80.3,38.6,80.1,38.6z"/>
		<g>
			<path class="st7" d="M87.6,13.2h-4v-4c0-2.1-1.8-3.9-3.9-3.9h-6.5c-2.1,0-3.9,1.8-3.9,3.9v4h-4c-2.1,0-3.9,1.8-3.9,3.9v6.5
				c0,2.1,1.8,3.9,3.9,3.9h4v4c0,2.1,1.8,3.9,3.9,3.9h6.5c2.1,0,3.9-1.8,3.9-3.9v-4h4c2.1,0,3.9-1.8,3.9-3.9v-6.5
				C91.4,14.9,89.7,13.2,87.6,13.2z"/>
		</g>
	</g>
	<g>
		<g>
			<path class="st6" d="M47.6,90.6c2.9-1.9,5-4.2,6.2-6.8V70c-0.1,0-1.3,0.1-3.4,0.2c-2.1,0.1-3.3,0.2-3.5,0.2
				c-6.9,0.6-12,1.9-15.1,3.9c-3.2,2-4.8,5.2-4.8,9.6c0,3,0.9,5.4,2.7,7c1.8,1.6,4.3,2.5,7.6,2.5C41.2,93.4,44.6,92.5,47.6,90.6z"/>
			<path class="st9" d="M50.7,87.4c-2.9,1.9-6.3,2.8-10.3,2.8c-3.3,0-5.9-0.8-7.6-2.5c-1.8-1.6-2.7-4-2.7-7c0-2.6,0.5-4.7,1.5-6.3
				c-3.2,2-4.8,5.2-4.8,9.6c0,3,0.9,5.4,2.7,7c1.8,1.6,4.3,2.5,7.6,2.5c4,0,7.4-0.9,10.3-2.8c2-1.3,3.5-2.7,4.7-4.2
				C51.8,86.7,51.3,87.1,50.7,87.4z"/>
			<path class="st6" d="M80.1,37.2h-7.2c-3.2,0-5.7-2.6-5.7-5.7v-3h-3c-1.2,0-2.3-0.4-3.3-1.1L20.1,30C15,30,8.4,43.6,8.4,48.7
				l-1.6,42c0,4.3,8,10.2,13.6,12c-1.3-0.7-2.6-1.6-3.8-2.6c-4.1-3.6-6.1-8.9-6.1-15.8c0-7.4,2.5-12.9,7.3-16.4
				C22.6,64.3,30,62,39.7,61c1.3-0.1,2.8-0.4,4.3-0.5c1.5-0.1,3.3-0.4,5.3-0.5c2-0.1,3.5-0.4,4.6-0.5v-3.8c0-4.3-1.1-7.5-2.9-9.5
				c-2-2-5-2.9-9.1-2.9l-23.7-1.1c-1.4-3.8-2.1-5.7-2.1-5.9c8.4-3.6,17.5-5.4,27.3-5.4c9.6,0,16.7,2.1,21,6.2
				c4.3,4.2,6.6,10.9,6.6,20.3v41.5c4.9-1.9,9.9-5.2,9.9-8.4V39.5c0-0.7-0.1-1.4-0.4-2.2C80.3,37.2,80.2,37.2,80.1,37.2z"/>
			<path class="st6" d="M56.8,99.9c-0.9-2.7-1.4-4.2-1.4-4.3c-2.7,2.7-5.4,4.8-8,6.3l9.9-0.6C57.2,100.8,57,100.3,56.8,99.9z"/>
		</g>
		<g>
			<path class="st6" d="M80.1,37.3h-7.2c-3.3,0-5.9-2.7-5.9-5.9v-2.9h-2.9c-3.3,0-5.9-2.7-5.9-5.9v-7.2c0-2.6,1.6-4.8,4-5.6
				c-0.4,0-0.7-0.1-0.9-0.1L20.2,20.7c-4.7,1.4-11.7,5.7-11.7,10.9L7.6,73.8c0,2,1.1,4,3.3,6c0.8-5.3,3-9.4,6.9-12.2
				c4.8-3.5,12.2-5.9,21.9-6.8c1.3-0.1,2.8-0.4,4.3-0.5c1.5-0.1,3.3-0.4,5.3-0.5c2-0.1,3.5-0.4,4.6-0.5v-3.8c0-4.3-1.1-7.5-2.9-9.5
				c-2-2-5-2.9-9.1-2.9l-23.7-1.1c-1.4-3.8-2.1-5.7-2.1-5.9c8.4-3.6,17.5-5.4,27.3-5.4c9.6,0,16.7,2.1,21,6.2
				c4.3,4.2,6.6,10.9,6.6,20.3v24.5c4.9-1.9,9.9-5.2,9.9-8.4V37.3C80.5,37.3,80.3,37.3,80.1,37.3z"/>
		</g>
		<path class="st10" d="M80.1,37.3h-7.2c-3.2,0-5.9-2.7-5.9-5.9v-2.9h-2.8c-3.2,0-5.9-2.7-5.9-5.9v-6.1L20.7,26.7
			c-5.4,0.7-11.6,5.7-11.6,10.9L7.6,79.5c0,2,1.6,4.2,3.9,6.3c0.8-5.3,3-9.4,6.9-12.2c4.8-3.5,12.1-5.9,21.7-6.8
			c1.3-0.1,2.8-0.4,4.3-0.5c1.5-0.1,3.3-0.4,5.2-0.5c1.9-0.1,3.4-0.4,4.6-0.5v-3.8c0-4.3-0.9-7.5-2.9-9.5c-2-2-4.9-2.9-9-2.9
			l-23.3-1.1c-1.4-3.8-2.1-5.7-2.1-5.9c8.3-3.6,17.4-5.4,27-5.4c9.5,0,16.4,2.1,20.8,6.2c4.3,4.2,6.5,10.9,6.5,20.3v24.5
			c4.9-1.9,9.9-5.2,9.9-8.4V37.2C80.5,37.3,80.3,37.3,80.1,37.3z"/>
		<g>
			<path class="st11" d="M87.6,11.9h-4V8c0-2.1-1.8-3.9-3.9-3.9h-6.5c-2.1,0-3.9,1.8-3.9,3.9v4h-4c-2.1,0-3.9,1.8-3.9,3.9v6.5
				c0,2.1,1.8,3.9,3.9,3.9h4v4c0,2.1,1.8,3.9,3.9,3.9h6.5c2.1,0,3.9-1.8,3.9-3.9v-4h4c2.1,0,3.9-1.8,3.9-3.9v-6.5
				C91.4,13.6,89.7,11.9,87.6,11.9z"/>
		</g>
	</g>
</g>
</svg>
