<?xml version="1.0" encoding="utf-8"?>
<!-- Generator: Adobe Illustrator 22.1.0, SVG Export Plug-In . SVG Version: 6.00 Build 0)  -->
<svg version="1.1" id="Layer_1" xmlns="http://www.w3.org/2000/svg" xmlns:xlink="http://www.w3.org/1999/xlink" x="0px" y="0px"
	 viewBox="0 0 360 108" style="enable-background:new 0 0 360 108;" xml:space="preserve">
<style type="text/css">
	.st0{opacity:0.5;}
	.st1{opacity:0.6;}
	.st2{opacity:0.8;}
	.st3{fill:none;}
	.st4{fill:#231F20;}
	.st5{fill:none;stroke:#FFFFFF;stroke-width:2;stroke-miterlimit:10;}
	.st6{fill:#020202;}
	.st7{opacity:0.1;fill:#020202;enable-background:new    ;}
	.st8{fill:#FFFFFF;}
	.st9{opacity:0.1;enable-background:new    ;}
	.st10{opacity:0.1;fill:#FFFFFF;enable-background:new    ;}
	.st11{fill:#F57E20;}
</style>
<g>
	<g id="Layer_1_1_" class="st0">
		<g class="st1">
			<g>
				<g>
					<g class="st2">
						<rect x="124" y="18.7" class="st4" width="2.1" height="73.1"/>
					</g>
				</g>
			</g>
		</g>
	</g>
	<g id="Layer_2_2_" class="st0">
		<line class="st5" x1="125" y1="18.7" x2="125" y2="91.9"/>
	</g>
	<g id="Layer_2_1_">
		<line class="st5" x1="125" y1="17.7" x2="125" y2="90.8"/>
	</g>
	<g class="st0">
		<g>
			<path class="st6" d="M47.8,91.9c2.9-1.9,5-4.2,6.2-6.8V71.2c-0.1,0-1.3,0.1-3.4,0.2c-2.1,0.1-3.3,0.2-3.5,0.2
				c-6.9,0.6-12,1.9-15.1,3.9c-3.2,2-4.8,5.2-4.8,9.6c0,3.1,0.9,5.4,2.7,7c1.8,1.6,4.3,2.5,7.6,2.5C41.5,94.7,44.9,93.8,47.8,91.9z"
				/>
			<path class="st7" d="M51,88.6c-2.9,1.9-6.3,2.8-10.3,2.8c-3.3,0-5.9-0.8-7.6-2.5s-2.7-4-2.7-7c0-2.6,0.5-4.7,1.5-6.3
				c-3.2,2-4.8,5.2-4.8,9.6c0,3.1,0.9,5.4,2.7,7c1.8,1.6,4.3,2.5,7.6,2.5c4,0,7.4-0.9,10.3-2.8c2-1.3,3.5-2.7,4.7-4.2
				C52.1,88,51.6,88.4,51,88.6z"/>
			<path class="st6" d="M80.3,38.5h-7.2c-3.2,0-5.7-2.6-5.7-5.7v-3.1h-3.1c-1.2,0-2.3-0.4-3.3-1.1l-40.7,2.6
				C15.2,31.2,8.6,44.8,8.6,50L7,91.9c0,4.3,8,10.2,13.6,12c-1.3-0.7-2.6-1.6-3.8-2.6c-4.1-3.6-6.2-8.9-6.2-15.8
				c0-7.4,2.5-12.9,7.3-16.4c4.8-3.5,12.2-5.9,21.9-6.8c1.3-0.1,2.8-0.4,4.3-0.5c1.5-0.1,3.3-0.4,5.3-0.5c2-0.1,3.5-0.4,4.6-0.5
				v-3.8c0-4.3-1.1-7.5-2.9-9.5c-2-2-5-2.9-9.2-2.9l-23.7-1.1c-1.4-3.8-2.1-5.7-2.1-5.9c8.4-3.6,17.5-5.4,27.3-5.4
				c9.6,0,16.7,2.1,21,6.2c4.3,4.2,6.6,10.9,6.6,20.3v41.5c4.9-1.9,9.9-5.2,9.9-8.4V40.6c0-0.7-0.1-1.4-0.4-2.2
				C80.6,38.4,80.4,38.5,80.3,38.5z"/>
			<path class="st6" d="M57.1,101c-0.9-2.7-1.4-4.2-1.4-4.3c-2.7,2.7-5.4,4.8-8,6.3l9.9-0.6C57.5,102.1,57.2,101.6,57.1,101z"/>
		</g>
		<g>
			<path class="st6" d="M80.3,38.6h-7.2c-3.3,0-5.9-2.7-5.9-5.9v-2.9h-2.9c-3.3,0-5.9-2.7-5.9-5.9v-7.2c0-2.6,1.6-4.8,4-5.6
				c-0.4,0-0.7-0.1-0.9-0.1L20.5,22c-4.7,1.4-11.7,5.7-11.7,10.9L7.8,75.1c0,2,1.1,4,3.3,6c0.8-5.3,3.1-9.4,6.9-12.2
				c4.8-3.5,12.2-5.9,21.9-6.8c1.3-0.1,2.8-0.4,4.3-0.5c1.5-0.1,3.3-0.4,5.3-0.5c2-0.1,3.5-0.4,4.6-0.5v-3.8c0-4.3-1.1-7.5-2.9-9.5
				c-2-2-5-2.9-9.2-2.9l-23.7-1.1c-1.4-3.8-2.1-5.7-2.1-5.9c8.4-3.6,17.5-5.4,27.3-5.4c9.6,0,16.7,2.1,21,6.2
				c4.3,4.2,6.6,10.9,6.6,20.3v24.5c4.9-1.9,9.9-5.2,9.9-8.4V38.5C80.8,38.5,80.6,38.6,80.3,38.6z"/>
		</g>
		<path class="st7" d="M80.3,38.6h-7.2c-3.2,0-5.9-2.7-5.9-5.9v-2.9h-2.8c-3.2,0-5.9-2.7-5.9-5.9v-6.1L21,27.8
			c-5.4,0.7-11.6,5.7-11.6,10.9l-1.5,42c0,2,1.6,4.2,3.9,6.3c0.8-5.3,3.1-9.4,6.9-12.2c4.8-3.5,12.1-5.9,21.7-6.8
			c1.3-0.1,2.8-0.4,4.3-0.5c1.5-0.1,3.3-0.4,5.2-0.5c1.9-0.1,3.4-0.4,4.6-0.5v-3.8c0-4.3-0.9-7.5-2.9-9.5c-2-2-4.9-2.9-9-2.9
			l-23.3-1.1c-1.4-3.8-2.1-5.7-2.1-5.9c8.3-3.6,17.4-5.4,27-5.4c9.5,0,16.4,2.1,20.8,6.2c4.3,4.2,6.5,10.9,6.5,20.3v24.5
			c4.9-1.9,9.9-5.2,9.9-8.4V38.5C80.8,38.5,80.6,38.6,80.3,38.6z"/>
		<g>
			<path class="st6" d="M87.8,13.2h-4v-4c0-2.1-1.8-3.9-3.9-3.9h-6.5c-2.1,0-3.9,1.8-3.9,3.9v4h-4c-2.1,0-3.9,1.8-3.9,3.9v6.5
				c0,2.1,1.8,3.9,3.9,3.9h4v4c0,2.1,1.8,3.9,3.9,3.9H80c2.1,0,3.9-1.8,3.9-3.9v-4h4c2.1,0,3.9-1.8,3.9-3.9V17
				C91.7,14.9,90,13.2,87.8,13.2z"/>
		</g>
	</g>
	<g>
		<g>
			<path class="st8" d="M47.8,90.6c2.9-1.9,5-4.2,6.2-6.8V70c-0.1,0-1.3,0.1-3.4,0.2c-2.1,0.1-3.3,0.2-3.5,0.2
				c-6.9,0.6-12,1.9-15.1,3.9s-4.8,5.2-4.8,9.6c0,3.1,0.9,5.4,2.7,7c1.8,1.6,4.3,2.5,7.6,2.5C41.5,93.4,44.9,92.5,47.8,90.6z"/>
			<path class="st9" d="M51,87.4c-2.9,1.9-6.3,2.8-10.3,2.8c-3.3,0-5.9-0.8-7.6-2.5s-2.7-4-2.7-7c0-2.6,0.5-4.7,1.5-6.3
				c-3.2,2-4.8,5.2-4.8,9.6c0,3.1,0.9,5.4,2.7,7c1.8,1.6,4.3,2.5,7.6,2.5c4,0,7.4-0.9,10.3-2.8c2-1.3,3.5-2.7,4.7-4.2
				C52.1,86.7,51.6,87.1,51,87.4z"/>
			<path class="st8" d="M80.3,37.2h-7.2c-3.2,0-5.7-2.6-5.7-5.7v-3.1h-3.1c-1.2,0-2.3-0.4-3.3-1.1l-40.7,2.6
				c-5.2,0-11.7,13.6-11.7,18.8L7,90.7c0,4.3,8,10.2,13.6,12c-1.3-0.7-2.6-1.6-3.8-2.6c-4.1-3.6-6.1-8.9-6.1-15.8
				c0-7.4,2.5-12.9,7.3-16.4S30.2,62,40,61c1.3-0.1,2.8-0.4,4.3-0.5c1.5-0.1,3.3-0.4,5.3-0.5c2-0.1,3.5-0.4,4.6-0.5v-3.8
				c0-4.3-1.1-7.5-2.9-9.5c-2-2-5-2.9-9.2-2.9l-23.7-1.1c-1.4-3.8-2.1-5.7-2.1-5.9c8.4-3.6,17.5-5.4,27.3-5.4c9.6,0,16.7,2.1,21,6.2
				c4.3,4.2,6.6,10.9,6.6,20.3v41.5c4.9-1.9,9.9-5.2,9.9-8.4V39.5c0-0.7-0.1-1.4-0.4-2.2C80.6,37.2,80.4,37.2,80.3,37.2z"/>
			<path class="st8" d="M57.1,99.9c-0.9-2.7-1.4-4.2-1.4-4.3c-2.7,2.7-5.4,4.8-8,6.3l9.9-0.6C57.5,100.8,57.2,100.3,57.1,99.9z"/>
		</g>
		<g>
			<path class="st8" d="M80.3,37.3h-7.2c-3.3,0-5.9-2.7-5.9-5.9v-2.9h-2.9c-3.3,0-5.9-2.7-5.9-5.9v-7.2c0-2.6,1.6-4.8,4-5.6
				c-0.4,0-0.7-0.1-0.9-0.1L20.5,20.7c-4.7,1.4-11.7,5.7-11.7,10.9L7.8,73.8c0,2,1.1,4,3.3,6c0.8-5.3,3.1-9.4,6.9-12.2
				c4.8-3.5,12.2-5.9,21.9-6.8c1.3-0.1,2.8-0.4,4.3-0.5c1.5-0.1,3.3-0.4,5.3-0.5s3.5-0.4,4.6-0.5v-3.8c0-4.3-1.1-7.5-2.9-9.5
				c-2-2-5-2.9-9.2-2.9l-23.7-1.1c-1.4-3.8-2.1-5.7-2.1-5.9c8.4-3.6,17.5-5.4,27.3-5.4c9.6,0,16.7,2.1,21,6.2
				c4.3,4.2,6.6,10.9,6.6,20.3v24.5c4.9-1.9,9.9-5.2,9.9-8.4V37.3C80.8,37.3,80.6,37.3,80.3,37.3z"/>
		</g>
		<path class="st10" d="M80.3,37.3h-7.2c-3.2,0-5.9-2.7-5.9-5.9v-2.9h-2.8c-3.2,0-5.9-2.7-5.9-5.9v-6.1L21,26.7
			c-5.4,0.7-11.6,5.7-11.6,10.9L7.8,79.5c0,2,1.6,4.2,3.9,6.3c0.8-5.3,3.1-9.4,6.9-12.2c4.8-3.5,12.1-5.9,21.7-6.8
			c1.3-0.1,2.8-0.4,4.3-0.5c1.5-0.1,3.3-0.4,5.2-0.5c1.9-0.1,3.4-0.4,4.6-0.5v-3.8c0-4.3-0.9-7.5-2.9-9.5c-2-2-4.9-2.9-9-2.9
			l-23.3-1.1c-1.4-3.8-2.1-5.7-2.1-5.9c8.3-3.6,17.4-5.4,27-5.4c9.5,0,16.4,2.1,20.8,6.2c4.3,4.2,6.5,10.9,6.5,20.3v24.5
			c4.9-1.9,9.9-5.2,9.9-8.4V37.2C80.8,37.3,80.6,37.3,80.3,37.3z"/>
		<g>
			<path class="st11" d="M87.8,11.9h-4V8c0-2.1-1.8-3.9-3.9-3.9h-6.5c-2.1,0-3.9,1.8-3.9,3.9v4h-4c-2.1,0-3.9,1.8-3.9,3.9v6.5
				c0,2.1,1.8,3.9,3.9,3.9h4v4c0,2.1,1.8,3.9,3.9,3.9H80c2.1,0,3.9-1.8,3.9-3.9v-4h4c2.1,0,3.9-1.8,3.9-3.9v-6.5
				C91.7,13.6,90,11.9,87.8,11.9z"/>
		</g>
	</g>
	<g class="st0">
		<path class="st4" d="M190.1,84.3h-10.7V56.9h-27.7v27.5H141V22.4h10.8v25.8h27.7V22.4h10.7L190.1,84.3L190.1,84.3z"/>
		<path class="st4" d="M226.1,47.7c-1.4-0.2-2.8-0.4-4.2-0.4c-4.7,0-8,1.8-9.6,5.4v31.4h-10.3V38.3h9.9l0.2,5.2c2.5-4,6-6,10.3-6
			c1.5,0,2.7,0.2,3.6,0.6L226.1,47.7z"/>
		<path class="st4" d="M247.5,22.4l17.8,47.5l17.8-47.5H297v61.9h-10.7V63.9l1.1-27.3l-18.3,47.8h-7.7l-18.3-47.6l1.1,27.2v20.4
			h-10.7V22.4H247.5z"/>
		<path class="st4" d="M342.2,68.4c0-2.7-0.9-4.8-2.8-6.3c-1.9-1.5-5.4-2.9-10.3-4.5c-4.9-1.5-8.9-3.2-12-5
			c-5.6-3.5-8.4-8.2-8.4-13.8c0-5,2-9.2,6.1-12.3c4.1-3.3,9.4-4.8,15.8-4.8c4.3,0,8.1,0.8,11.5,2.3c3.4,1.6,6,3.9,8,6.8
			c2,2.9,2.9,6.2,2.9,9.7h-10.7c0-3.3-1.1-5.7-3.1-7.6c-2-1.9-4.9-2.7-8.7-2.7c-3.5,0-6.2,0.7-8.2,2.2c-2,1.5-2.9,3.6-2.9,6.3
			c0,2.2,1.1,4.1,3.2,5.6c2.1,1.5,5.5,3.1,10.3,4.5c4.8,1.4,8.7,3.1,11.6,4.9c2.9,1.9,5,3.9,6.5,6.3c1.4,2.3,2,5.2,2,8.3
			c0,5.2-2,9.3-6,12.3s-9.3,4.6-16.1,4.6c-4.5,0-8.6-0.8-12.3-2.5s-6.7-4-8.8-6.9c-2.1-2.9-3.2-6.3-3.2-10.2h10.8
			c0,3.5,1.2,6.2,3.5,8.2c2.3,1.9,5.6,2.9,10,2.9c3.8,0,6.6-0.7,8.4-2.2C341.3,72.8,342.2,70.8,342.2,68.4z"/>
	</g>
	<g>
		<path class="st8" d="M190.1,83.3h-10.7V55.9h-27.7v27.5H141V21.4h10.8v25.8h27.7V21.4h10.7L190.1,83.3L190.1,83.3z"/>
		<path class="st8" d="M226.1,46.7c-1.4-0.2-2.8-0.4-4.2-0.4c-4.7,0-8,1.8-9.6,5.4v31.4h-10.3V37.3h9.9l0.2,5.2c2.5-4,6-6,10.3-6
			c1.5,0,2.7,0.2,3.6,0.6L226.1,46.7z"/>
		<path class="st8" d="M247.5,21.4l17.8,47.5l17.8-47.5H297v61.9h-10.7V62.9l1.1-27.3l-18.3,47.8h-7.7l-18.3-47.6l1.1,27.2v20.4
			h-10.7V21.4H247.5z"/>
		<path class="st8" d="M342.2,67.4c0-2.7-0.9-4.8-2.8-6.3c-1.9-1.5-5.4-2.9-10.3-4.5c-4.9-1.5-8.9-3.2-12-5
			c-5.6-3.5-8.4-8.2-8.4-13.8c0-5,2-9.2,6.1-12.3c4.1-3.3,9.4-4.8,15.8-4.8c4.3,0,8.1,0.8,11.5,2.3c3.4,1.6,6,3.9,8,6.8
			c2,2.9,2.9,6.2,2.9,9.7h-10.7c0-3.3-1.1-5.7-3.1-7.6c-2-1.9-4.9-2.7-8.7-2.7c-3.5,0-6.2,0.7-8.2,2.2c-2,1.5-2.9,3.6-2.9,6.3
			c0,2.2,1.1,4.1,3.2,5.6c2.1,1.5,5.5,3.1,10.3,4.5c4.8,1.4,8.7,3.1,11.6,4.9c2.9,1.9,5,3.9,6.5,6.3c1.4,2.3,2,5.2,2,8.3
			c0,5.2-2,9.3-6,12.3s-9.3,4.6-16.1,4.6c-4.5,0-8.6-0.8-12.3-2.5s-6.7-4-8.8-6.9c-2.1-2.9-3.2-6.3-3.2-10.2h10.8
			c0,3.5,1.2,6.2,3.5,8.2c2.3,1.9,5.6,2.9,10,2.9c3.8,0,6.6-0.7,8.4-2.2C341.3,71.8,342.2,69.8,342.2,67.4z"/>
	</g>
</g>
</svg>
